<?xml version="1.0" encoding="UTF-8" standalone="no"?>
<!DOCTYPE svg  PUBLIC '-//W3C//DTD SVG 1.1//EN'  'http://www.w3.org/Graphics/SVG/1.1/DTD/svg11.dtd'>
<svg xmlns="http://www.w3.org/2000/svg">
<defs>
<font id="KievitPro-Bold" horiz-adv-x="773">
<font-face underline-position="-113" font-weight="700" descent="-200" panose-1="2 0 5 3 5 0 0 2 0 4" units-per-em="1000" unicode-range="U+0020-25CA" bbox="-190 -250 1221 918" x-height="487" underline-thickness="20" font-family="KievitPro" ascent="800" cap-height="666"/>
<missing-glyph horiz-adv-x="1000"/>
<glyph glyph-name=".notdef" horiz-adv-x="1000"/>
<glyph glyph-name=".null" horiz-adv-x="0"/>
<glyph glyph-name=".null" horiz-adv-x="0"/>
<glyph glyph-name="nonmarkingreturn" horiz-adv-x="333"/>
<glyph glyph-name="space" horiz-adv-x="194" unicode=" "/>
<glyph glyph-name="exclam" horiz-adv-x="304" unicode="!" d="M98 225l-24 441h156l-25 -441h-107zM152 -10q-36 0 -60.5 24.5t-24.5 58.5q0 33 24.5 57t60.5 24t60 -24t24 -57q0 -34 -24 -58.5t-60 -24.5z"/>
<glyph glyph-name="quotedbl" horiz-adv-x="385" unicode='&quot;' d="M232 422l-15 244h132l-28 -244h-89zM64 422l-28 244h132l-14 -244h-90z"/>
<glyph glyph-name="numbersign" horiz-adv-x="526" unicode="#" d="M217 306h85l13 89h-85zM94 88l19 125h-89l16 96h88l12 84h-88l15 96h87l19 121h92l-19 -121h80l19 121h92l-19 -121h83l-16 -96h-81l-12 -84h82l-16 -96h-81l-18 -125h-92l18 125h-80l-19 -125h-92z"/>
<glyph glyph-name="dollar" horiz-adv-x="425" unicode="$" d="M160 -123v113q-82 9 -134 45l45 94q62 -42 128 -42q84 0 84 44q0 18 -17 29t-58.5 25.5t-61.5 23.5q-54 26 -81.5 58t-27.5 83q0 55 32.5 92t90.5 50v107h111v-102q72 -8 116 -38l-47 -91q-46 32 -111 32q-72 0 -72 -43q0 -10 5.5 -17.5t18.5 -14.5t23.5 -11.5 t31.5 -11.5t32 -12q65 -26 100.5 -58.5t35.5 -87.5q0 -61 -34.5 -99.5t-98.5 -50.5v-117h-111z"/>
<glyph glyph-name="percent" horiz-adv-x="869" unicode="%" d="M234 0l293 488h110l-292 -488h-111zM676 69q56 0 56 74q0 33 -14 54.5t-44 21.5q-58 0 -58 -73q0 -32 15 -54.5t45 -22.5zM674 -12q-81 0 -125.5 44.5t-44.5 110.5q0 64 45.5 110.5t126.5 46.5t125 -44t44 -110q0 -65 -45.5 -111.5t-125.5 -46.5zM196 268q57 0 57 74 q0 33 -14 54.5t-44 21.5q-58 0 -58 -72q0 -33 14.5 -55.5t44.5 -22.5zM194 187q-81 0 -125.5 45t-44.5 110q0 64 45.5 110.5t126.5 46.5q82 0 126 -44t44 -109t-45.5 -112t-126.5 -47z"/>
<glyph glyph-name="ampersand" horiz-adv-x="665" unicode="&amp;" d="M277 92q59 0 105 35l-146 161q-66 -45 -66 -105q0 -41 29 -66t78 -25zM283 419q79 49 79 104q0 26 -17.5 43.5t-46.5 17.5q-30 0 -48.5 -17.5t-18.5 -46.5q0 -43 52 -101zM267 -12q-112 0 -173.5 51.5t-61.5 133.5q0 65 33 109t104 83q-69 81 -69 152q0 73 55.5 117 t142.5 44q86 0 136.5 -41.5t50.5 -106.5q0 -53 -34.5 -94t-107.5 -84l122 -134q30 56 42 120l114 -20q-18 -105 -81 -188l116 -130h-162l-43 48q-84 -60 -184 -60z"/>
<glyph glyph-name="quotesingle" horiz-adv-x="211" unicode="&apos;" d="M60 422l-22 244h135l-22 -244h-91z"/>
<glyph glyph-name="parenleft" horiz-adv-x="347" unicode="(" d="M220 -168q-179 194 -179 450q0 139 53 253t126 185h126q-64 -71 -113 -181.5t-49 -253.5q0 -262 162 -453h-126z"/>
<glyph glyph-name="parenright" horiz-adv-x="348" unicode=")" d="M1 -168q163 187 163 442q0 258 -163 446h127q75 -77 127 -189.5t52 -252.5q0 -143 -53 -257t-126 -189h-127z"/>
<glyph glyph-name="asterisk" horiz-adv-x="493" unicode="*" d="M173 285l-87 61l87 103l-130 37l35 95l120 -47l-6 132h110l-7 -132l120 47l36 -95l-131 -37l88 -103l-88 -61l-73 114z"/>
<glyph glyph-name="plus" horiz-adv-x="560" unicode="+" d="M224 26v186h-183v102h183v180h114v-180h181v-102h-181v-186h-114z"/>
<glyph glyph-name="comma" horiz-adv-x="284" unicode="," d="M72 -145q41 64 41 107q0 26 -29.5 57.5t-29.5 65.5q0 33 23.5 54.5t57.5 21.5q40 0 68 -30t28 -80q0 -98 -74 -196h-85z"/>
<glyph glyph-name="hyphen" horiz-adv-x="330" unicode="-" d="M51 228v108h228v-108h-228z"/>
<glyph glyph-name="period" horiz-adv-x="284" unicode="." d="M142 -10q-37 0 -63 25t-26 61t26 60.5t63 24.5t62.5 -24.5t25.5 -60.5t-25.5 -61t-62.5 -25z"/>
<glyph glyph-name="slash" horiz-adv-x="450" unicode="/" d="M27 -90l284 786h129l-284 -786h-129z"/>
<glyph glyph-name="zero" horiz-adv-x="585" unicode="0" d="M295 94q57 0 87.5 39t30.5 109q0 71 -31 111t-89 40t-88.5 -38.5t-30.5 -108.5q0 -71 31.5 -111.5t89.5 -40.5zM293 -12q-127 0 -194 76t-67 178t68 179.5t195 77.5t193.5 -75t66.5 -178q0 -102 -68 -180t-194 -78z"/>
<glyph glyph-name="one" horiz-adv-x="368" unicode="1" d="M163 0v372l-116 -35l-27 105l173 45h102v-487h-132z"/>
<glyph glyph-name="two" horiz-adv-x="509" unicode="2" d="M21 0v60q145 104 197 152q77 73 77 119q0 63 -79 63q-65 0 -117 -52l-65 83q79 75 202 75q93 0 147 -35.5t54 -107.5q0 -37 -18 -73.5t-53 -71t-64 -57.5t-72 -53q24 4 64 4h184v-106h-457z"/>
<glyph glyph-name="three" horiz-adv-x="458" unicode="3" d="M140 -188q-67 0 -104 7l20 107q22 -9 76 -9q69 0 112.5 28.5t43.5 80.5q0 100 -170 100v96q56 1 104 31.5t48 75.5q0 64 -80 64q-57 0 -106 -44l-62 84q78 66 195 66q90 0 140.5 -41.5t50.5 -107.5q0 -59 -41 -100.5t-92 -55.5v-1q62 -7 108.5 -51t46.5 -114 q0 -99 -80.5 -157.5t-209.5 -58.5z"/>
<glyph glyph-name="four" horiz-adv-x="603" unicode="4" d="M166 102h168v213h-2zM334 -177v177h-311v84l326 403h117v-385h104v-102h-104v-177h-132z"/>
<glyph glyph-name="five" horiz-adv-x="455" unicode="5" d="M126 -188q-49 0 -96 10l25 106q33 -10 72 -10q66 0 109.5 32t43.5 91q0 118 -152 118q-44 0 -70 -6l21 334h329v-102h-209l-8 -123q109 -2 170 -60t61 -154q0 -107 -79.5 -171.5t-216.5 -64.5z"/>
<glyph glyph-name="six" horiz-adv-x="545" unicode="6" d="M282 90q42 0 67 30t25 76q0 110 -96 110q-61 0 -104 -36v-12v-11q0 -69 27.5 -113t80.5 -44zM278 -12q-64 0 -112 24t-76 65.5t-42 92.5t-14 110q0 178 113 288t306 110l29 -106q-66 0 -127 -17t-99 -50q-60 -53 -75 -137q53 39 129 39q91 0 147.5 -53.5t56.5 -148.5 q0 -97 -66.5 -157t-169.5 -60z"/>
<glyph glyph-name="seven" horiz-adv-x="479" unicode="7" d="M150 -201l-111 54l246 526h-265v109h419v-72z"/>
<glyph glyph-name="eight" horiz-adv-x="536" unicode="8" d="M273 406q75 49 75 98q0 33 -20.5 54.5t-56.5 21.5q-37 0 -58 -20.5t-21 -52.5q0 -54 81 -101zM268 87q44 0 68.5 24t24.5 61q0 60 -105 116q-85 -53 -85 -117q0 -37 26 -60.5t71 -23.5zM268 -12q-108 0 -169.5 49.5t-61.5 128.5q0 106 128 176q-109 63 -109 159 q0 78 61 127.5t150 49.5q100 0 158 -45t58 -124q0 -86 -119 -154q68 -36 101 -79.5t33 -103.5q0 -86 -63.5 -135t-166.5 -49z"/>
<glyph glyph-name="nine" horiz-adv-x="548" unicode="9" d="M269 183q63 0 104 35l1 11v8q0 71 -26.5 116t-80.5 45q-41 0 -67.5 -29.5t-26.5 -78.5q0 -52 25 -79.5t71 -27.5zM83 -184l-28 105q65 0 129.5 18t105.5 50q64 51 77 132q-56 -39 -130 -39q-91 0 -148.5 54t-57.5 148q0 96 69 155.5t171 59.5q65 0 113 -24t75.5 -66 t40.5 -92.5t13 -109.5q0 -180 -113 -285.5t-317 -105.5z"/>
<glyph glyph-name="colon" horiz-adv-x="286" unicode=":" d="M143 322q-37 0 -63 25t-26 62q0 36 26 60.5t63 24.5t62.5 -24.5t25.5 -60.5q0 -37 -25.5 -62t-62.5 -25zM143 -10q-37 0 -63 25t-26 62q0 36 26 60.5t63 24.5t62.5 -24.5t25.5 -60.5q0 -37 -25.5 -62t-62.5 -25z"/>
<glyph glyph-name="semicolon" horiz-adv-x="286" unicode=";" d="M143 322q-37 0 -63 25t-26 62q0 36 26 60.5t63 24.5t62.5 -24.5t25.5 -60.5q0 -37 -25.5 -62t-62.5 -25zM75 -145q41 62 41 107q0 26 -29.5 57.5t-29.5 65.5q0 33 23.5 54.5t57.5 21.5q40 0 68 -30t28 -80q0 -95 -74 -196h-85z"/>
<glyph glyph-name="less" horiz-adv-x="391" unicode="&lt;" d="M284 20l-258 228l256 232l71 -72l-173 -157l175 -154z"/>
<glyph glyph-name="equal" horiz-adv-x="478" unicode="=" d="M39 306v102h400v-102h-400zM39 119v102h400v-102h-400z"/>
<glyph glyph-name="greater" horiz-adv-x="391" unicode="&gt;" d="M109 20l-70 73l173 156l-176 155l72 76l257 -227z"/>
<glyph glyph-name="question" horiz-adv-x="413" unicode="?" d="M158 -10q-36 0 -60.5 24.5t-24.5 58.5q0 33 24.5 57t60.5 24t60 -23.5t24 -57.5t-24 -58.5t-60 -24.5zM99 223v53q0 44 16 70t53 50q36 24 52.5 44.5t16.5 53.5q0 75 -89 75q-38 0 -86 -24l-46 98q64 35 156 35q102 0 155.5 -47.5t53.5 -124.5q0 -93 -94 -157 q-4 -3 -12.5 -8.5t-12 -7.5t-10 -7t-9.5 -7.5t-8 -7.5t-7 -8t-5.5 -8t-4.5 -9.5t-2 -10.5t-1 -12v-40h-116z"/>
<glyph glyph-name="at" horiz-adv-x="812" unicode="@" d="M374 172q72 0 108 181l6 28q-20 8 -47 8q-45 0 -72.5 -49.5t-27.5 -118.5q0 -49 33 -49zM398 -98q-161 0 -256.5 94.5t-95.5 244.5q0 99 48 188t136.5 146t196.5 57q166 0 259 -91.5t93 -221.5q0 -106 -56 -172.5t-147 -66.5q-100 0 -108 86h-3q-45 -84 -132 -84 q-47 0 -74.5 34t-27.5 85q0 112 58.5 189.5t155.5 77.5q71 0 148 -27l-29 -167q-8 -56 -8 -65q0 -20 10 -32t26 -12q41 0 69.5 40.5t28.5 106.5q0 113 -71 175t-193 62q-115 0 -197.5 -87.5t-82.5 -217.5q0 -122 67.5 -190t195.5 -68q79 0 145 29l32 -79q-84 -34 -188 -34z "/>
<glyph glyph-name="A" horiz-adv-x="680" unicode="A" d="M15 0l254 666h136l261 -666h-154l-45 125h-266l-44 -125h-142zM240 238h187l-57 159q-12 33 -23 72t-13 43h-2q-1 -4 -6.5 -23t-13 -43.5t-15.5 -48.5z"/>
<glyph glyph-name="B" horiz-adv-x="602" unicode="B" d="M222 392h65q57 0 83 21t26 65q0 80 -106 80h-68v-166zM222 108h74q62 0 93 21t31 68q0 94 -118 94h-80v-183zM83 0v666h222q103 0 166.5 -39t63.5 -127q0 -122 -118 -153v-2q63 -10 104.5 -51t41.5 -109q0 -185 -261 -185h-219z"/>
<glyph glyph-name="C" horiz-adv-x="618" unicode="C" d="M385 -12q-162 0 -252 100.5t-90 245.5q0 144 91.5 244t252.5 100q119 0 200 -53l-63 -103q-60 39 -139 39q-90 0 -141 -63.5t-51 -159.5q0 -101 50.5 -166.5t143.5 -65.5q82 0 151 51l58 -99q-30 -27 -87 -48.5t-124 -21.5z"/>
<glyph glyph-name="D" horiz-adv-x="706" unicode="D" d="M224 113h66q226 0 226 225q0 111 -56 163t-175 52h-61v-440zM83 0v666h201q190 0 285.5 -87t95.5 -237q0 -152 -98 -247t-288 -95h-196z"/>
<glyph glyph-name="E" horiz-adv-x="530" unicode="E" d="M83 0v666h384v-116h-245v-150h216v-110h-216v-174h252v-116h-391z"/>
<glyph glyph-name="F" horiz-adv-x="510" unicode="F" d="M83 0v666h382v-116h-241v-163h212v-110h-212v-277h-141z"/>
<glyph glyph-name="G" horiz-adv-x="710" unicode="G" d="M395 -12q-164 0 -258 101.5t-94 244.5t98.5 243.5t264.5 100.5q137 0 219 -60l-63 -105q-66 48 -159 48q-103 0 -156.5 -61.5t-53.5 -161.5q0 -103 50.5 -169t150.5 -66q78 0 118 26v132h-123v109h258v-318q-94 -64 -252 -64z"/>
<glyph glyph-name="H" horiz-adv-x="745" unicode="H" d="M83 0v666h141v-262h298v262h141v-666h-141v288h-298v-288h-141z"/>
<glyph glyph-name="I" horiz-adv-x="324" unicode="I" d="M89 0v666h141v-666h-141z"/>
<glyph glyph-name="J" horiz-adv-x="331" unicode="J" d="M57 -204q-56 0 -98 16l22 115q20 -9 47 -9q42 0 60 23t18 76v649h142v-668q0 -98 -50.5 -150t-140.5 -52z"/>
<glyph glyph-name="K" horiz-adv-x="630" unicode="K" d="M83 0v666h140v-290l227 290h156l-245 -309l256 -357h-167l-227 319v-319h-140z"/>
<glyph glyph-name="L" horiz-adv-x="514" unicode="L" d="M85 0v666h142v-552h248v-114h-390z"/>
<glyph glyph-name="M" horiz-adv-x="882" unicode="M" d="M41 0l92 666h137l134 -411q9 -28 21 -70t13 -45h2q17 60 35 115l138 411h136l92 -666h-144l-43 344q-10 78 -11 97h-2q-5 -27 -27 -95l-113 -346h-139l-113 345q-6 19 -11.5 39t-10 36.5t-5.5 20.5h-2q-3 -45 -9 -98l-43 -343h-127z"/>
<glyph glyph-name="N" horiz-adv-x="742" unicode="N" d="M82 0v666h142l240 -345q40 -57 70 -112h2q-4 36 -4 105v352h128v-666h-129l-259 370q-17 24 -64 100h-2q4 -36 4 -89v-381h-128z"/>
<glyph glyph-name="O" d="M387 102q95 0 144.5 65t49.5 165t-48.5 166t-142.5 66q-96 0 -146.5 -64.5t-50.5 -163.5q0 -100 49.5 -167t144.5 -67zM390 -12q-160 0 -253.5 100.5t-93.5 243.5q0 144 92 245t252 101t251.5 -100t91.5 -242q0 -145 -90.5 -246.5t-249.5 -101.5z" unicode="O"/>
<glyph glyph-name="P" horiz-adv-x="591" unicode="P" d="M223 344h63q66 0 96.5 27t30.5 83q0 104 -124 104h-66v-214zM81 0v666h219q114 0 184.5 -53.5t70.5 -156.5q0 -107 -72 -163t-199 -56h-61v-237h-142z"/>
<glyph glyph-name="Q" d="M387 102q95 0 144.5 65t49.5 165t-48.5 166t-142.5 66q-96 0 -146.5 -64.5t-50.5 -163.5q0 -100 49.5 -167t144.5 -67zM608 -175q-82 0 -148 37.5t-139 133.5q-129 20 -203.5 115t-74.5 221q0 144 92 245t252 101t251.5 -100t91.5 -242q0 -120 -64.5 -214.5 t-181.5 -122.5q29 -38 58 -53.5t72 -15.5q46 0 80 27l45 -93q-49 -39 -131 -39z" unicode="Q"/>
<glyph glyph-name="R" horiz-adv-x="620" unicode="R" d="M224 374h77q110 0 110 92t-116 92h-71v-184zM83 0v666h222q118 0 182 -49.5t64 -142.5q0 -77 -44 -122t-111 -57v-2q32 -23 78 -95l130 -198h-155l-122 190q-38 56 -54 70t-40 14h-9v-274h-141z"/>
<glyph glyph-name="S" horiz-adv-x="516" unicode="S" d="M237 -12q-126 0 -206 66l60 98q68 -50 143 -50q49 0 77.5 22t28.5 55q0 17 -7 30.5t-24 25t-31 18.5t-42.5 20t-44.5 21q-70 34 -106.5 79t-36.5 120q0 83 61.5 134t153.5 51q120 0 195 -56l-57 -99q-63 41 -130 41q-41 0 -65 -18t-24 -51q0 -10 3 -18.5t6 -14.5 t11.5 -13.5t14 -11.5t19 -11t20.5 -10t24 -11t25 -11q40 -18 65 -33t52.5 -39t40.5 -58t13 -78q0 -91 -64 -144.5t-175 -53.5z"/>
<glyph glyph-name="T" horiz-adv-x="537" unicode="T" d="M198 0v550h-184v116h509v-116h-183v-550h-142z"/>
<glyph glyph-name="U" horiz-adv-x="715" unicode="U" d="M363 -12q-284 0 -284 270v408h141v-396q0 -87 34 -126.5t112 -39.5q140 0 140 157v405h130v-395q0 -138 -69 -210.5t-204 -72.5z"/>
<glyph glyph-name="V" horiz-adv-x="665" unicode="V" d="M270 0l-257 666h152l140 -399q21 -61 34 -111h2q1 4 13 43t21 68l135 399h142l-248 -666h-134z"/>
<glyph glyph-name="W" horiz-adv-x="914" unicode="W" d="M196 0l-179 666h150l84 -348q24 -98 24 -122h2q0 1 4.5 20.5t11 51t12.5 54.5l91 344h139l89 -342q6 -24 12.5 -55.5t10.5 -51t4 -20.5h2l3 19q3 19 9 49.5t12 54.5l86 346h135l-182 -666h-130l-96 369q-27 104 -27 124h-2q0 -1 -4.5 -19.5t-11.5 -49.5t-14 -55 l-105 -369h-130z"/>
<glyph glyph-name="X" horiz-adv-x="616" unicode="X" d="M19 0l211 342l-201 324h160l126 -208l118 208h142l-192 -322l214 -344h-160l-140 230l-135 -230h-143z"/>
<glyph glyph-name="Y" horiz-adv-x="598" unicode="Y" d="M232 0v251l-221 415h157l141 -283h1l140 283h137l-214 -415v-251h-141z"/>
<glyph glyph-name="Z" horiz-adv-x="571" unicode="Z" d="M46 0v92l305 459h-292v115h463v-90l-308 -461h317v-115h-485z"/>
<glyph glyph-name="bracketleft" horiz-adv-x="341" unicode="[" d="M65 -161v881h250v-99h-123v-683h123v-99h-250z"/>
<glyph glyph-name="backslash" horiz-adv-x="450" unicode="\" d="M319 -161l-318 881h129l318 -881h-129z"/>
<glyph glyph-name="bracketright" horiz-adv-x="341" unicode="]" d="M26 -161v99h123v683h-123v99h250v-881h-250z"/>
<glyph glyph-name="asciicircum" horiz-adv-x="584" unicode="^" d="M44 288l201 378h93l201 -378h-122l-125 241l-125 -241h-123z"/>
<glyph glyph-name="underscore" horiz-adv-x="433" unicode="_" d="M-1 -184v103h435v-103h-435z"/>
<glyph glyph-name="grave" horiz-adv-x="500" unicode="`" d="M267 541l-140 135h171l83 -135h-114z"/>
<glyph glyph-name="a" horiz-adv-x="502" unicode="a" d="M220 85q52 0 90 43v88h-17q-132 0 -132 -80q0 -25 17 -38t42 -13zM180 -12q-64 0 -105.5 36.5t-41.5 100.5q0 88 75.5 130.5t184.5 42.5h17v28q0 36 -18 52t-61 16q-66 0 -124 -46l-58 81q76 70 197 70q101 0 148.5 -42.5t47.5 -137.5v-175q0 -82 14 -144h-131 q-6 17 -8 52q-52 -64 -137 -64z"/>
<glyph glyph-name="b" horiz-adv-x="553" unicode="b" d="M263 92q56 0 87 40.5t31 114.5q0 147 -103 147q-47 0 -82 -37v-254q26 -11 67 -11zM263 -12q-124 0 -200 39v693h133v-271q50 50 119 50q95 0 151 -64.5t56 -187.5q0 -121 -72.5 -190t-186.5 -69z"/>
<glyph glyph-name="c" horiz-adv-x="458" unicode="c" d="M282 -12q-116 0 -184 70.5t-68 184.5q0 120 71.5 188t184.5 68q89 0 149 -39l-43 -91q-46 29 -102 29q-57 0 -88 -41t-31 -110q0 -71 31 -113.5t91 -42.5q55 0 105 30l41 -89q-67 -44 -157 -44z"/>
<glyph glyph-name="d" horiz-adv-x="557" unicode="d" d="M271 94q54 0 91 49v220q-35 32 -85 32q-51 0 -78 -40t-27 -113q0 -148 99 -148zM231 -13q-93 0 -146.5 67t-53.5 188q0 115 61.5 186t156.5 71q72 0 113 -34v255h133v-581q0 -75 14 -139h-131q-8 24 -10 53q-54 -66 -137 -66z"/>
<glyph glyph-name="e" horiz-adv-x="519" unicode="e" d="M171 303h182q-2 100 -84 100t-98 -100zM285 -12q-120 0 -187.5 70t-67.5 188q0 113 69 183t172 70t157.5 -62.5t54.5 -177.5q0 -14 -2 -46h-308q5 -57 35.5 -91.5t88.5 -34.5q59 0 127 34l43 -86q-84 -47 -182 -47z"/>
<glyph glyph-name="f" horiz-adv-x="365" unicode="f" d="M90 0v388h-73v99h73v50q0 89 50.5 142t141.5 53q79 0 118 -23l-31 -100q-28 14 -67 14q-79 0 -79 -96v-40h116v-99h-116v-388h-133z"/>
<glyph glyph-name="g" horiz-adv-x="537" unicode="g" d="M253 232q41 0 64.5 24t23.5 66q0 43 -23.5 66.5t-64.5 23.5t-64.5 -23.5t-23.5 -66.5q0 -42 23.5 -66t64.5 -24zM251 -150q59 0 93 20t34 52t-22.5 41.5t-76.5 12.5q-12 1 -18 1q-56 5 -67 7q-38 -27 -38 -68q0 -66 95 -66zM243 -239q-103 0 -158.5 32.5t-55.5 97.5 q0 75 82 119q-43 25 -43 74q0 58 54 92q-86 47 -86 146q0 80 58 128.5t158 48.5q50 0 87 -12h177v-87h-67q20 -35 20 -78q0 -80 -55 -128t-155 -48q-34 0 -58 4q-18 -10 -18 -28q0 -19 21 -25.5t77 -9.5q106 -5 146 -20q83 -32 83 -130q0 -78 -74 -127t-193 -49z"/>
<glyph glyph-name="h" horiz-adv-x="556" unicode="h" d="M63 0v720h133v-292q66 71 152 71q76 0 111 -42.5t35 -115.5v-341h-133v314q0 38 -15 56t-49 18q-54 0 -101 -61v-327h-133z"/>
<glyph glyph-name="i" horiz-adv-x="280" unicode="i" d="M73 0v487h134v-487h-134zM140 550q-35 0 -58 23.5t-23 56.5q0 32 23 55t58 23t58.5 -23t23.5 -55q0 -33 -23.5 -56.5t-58.5 -23.5z"/>
<glyph glyph-name="j" horiz-adv-x="275" unicode="j" d="M137 550q-35 0 -58 23.5t-23 56.5q0 32 23 55t58 23t58.5 -23t23.5 -55q0 -33 -23.5 -56.5t-58.5 -23.5zM37 -233q-58 0 -87 12l23 103q18 -6 38 -6q34 0 47 23.5t13 80.5v507h134v-521q0 -199 -168 -199z"/>
<glyph glyph-name="k" horiz-adv-x="517" unicode="k" d="M63 0v720h133v-430l161 197h145l-180 -217l184 -270h-154l-156 238v-238h-133z"/>
<glyph glyph-name="l" horiz-adv-x="275" unicode="l" d="M71 0v720h133v-720h-133z"/>
<glyph glyph-name="m" horiz-adv-x="823" unicode="m" d="M65 0v487h130v-60q64 72 146 72q95 0 125 -77q69 77 156 77q139 0 139 -158v-341h-133v314q0 38 -13 56t-45 18q-46 0 -91 -55v-333h-133v314q0 74 -57 74q-45 0 -91 -60v-328h-133z"/>
<glyph glyph-name="n" horiz-adv-x="557" unicode="n" d="M65 0v487h130v-61q62 73 155 73q76 0 111 -43t35 -115v-341h-133v314q0 38 -15 56t-50 18q-55 0 -100 -61v-327h-133z"/>
<glyph glyph-name="o" horiz-adv-x="550" unicode="o" d="M276 89q103 0 103 153q0 72 -26.5 115t-81.5 43q-100 0 -100 -154q0 -72 25.5 -114.5t79.5 -42.5zM274 -12q-119 0 -181.5 75t-62.5 179t62 180.5t181 76.5q81 0 138.5 -38t83 -93.5t25.5 -121.5q0 -103 -63.5 -180.5t-182.5 -77.5z"/>
<glyph glyph-name="p" horiz-adv-x="559" unicode="p" d="M282 91q51 0 78 40t27 113q0 70 -24.5 109.5t-72.5 39.5q-56 0 -92 -50v-219q37 -33 84 -33zM65 -219v706h130v-51q52 63 135 63q93 0 145.5 -67t52.5 -188q0 -115 -61 -185.5t-157 -70.5q-72 0 -112 35v-242h-133z"/>
<glyph glyph-name="q" horiz-adv-x="554" unicode="q" d="M277 93q49 0 82 37v254q-33 11 -66 11q-57 0 -88.5 -40.5t-31.5 -114.5q0 -147 104 -147zM359 -218v257q-49 -51 -119 -51q-94 0 -150.5 65.5t-56.5 186.5t73 190t186 69q117 0 200 -36v-681h-133z"/>
<glyph glyph-name="r" horiz-adv-x="390" unicode="r" d="M65 0v487h133v-66q46 78 123 78q42 0 66 -13l-32 -116q-18 11 -51 11q-66 0 -106 -74v-307h-133z"/>
<glyph glyph-name="s" horiz-adv-x="420" unicode="s" d="M199 -12q-104 0 -173 46l45 93q58 -40 120 -40q80 0 80 44q0 10 -5.5 17.5t-18.5 14t-25.5 12t-34.5 14.5t-39 17q-55 26 -82 58.5t-27 85.5q0 68 49.5 108.5t132.5 40.5q90 0 156 -39l-47 -91q-49 31 -104 31q-67 0 -67 -43q0 -10 4 -17t16 -14t20 -10.5t29.5 -11 t30.5 -11.5q66 -28 99.5 -60t33.5 -89q0 -76 -51 -116t-142 -40z"/>
<glyph glyph-name="t" horiz-adv-x="387" unicode="t" d="M251 -12q-83 0 -118.5 39t-35.5 113v248h-78v99h78v141h132v-141h114v-99h-114v-222q0 -37 11 -53t38 -16q34 0 64 18l31 -99q-51 -28 -122 -28z"/>
<glyph glyph-name="u" horiz-adv-x="557" unicode="u" d="M207 -12q-76 0 -111 43t-35 115v341h133v-314q0 -38 15 -56t50 -18q49 0 100 61v327h133v-347q0 -77 13 -140h-131q-8 26 -10 65q-61 -77 -157 -77z"/>
<glyph glyph-name="v" horiz-adv-x="507" unicode="v" d="M191 0l-181 487h144l101 -322h2l104 322h135l-180 -487h-125z"/>
<glyph glyph-name="w" horiz-adv-x="743" unicode="w" d="M149 0l-138 487h143l74 -310h2l83 310h123l83 -312h2l76 312h133l-139 -487h-120l-100 326h-2l-100 -326h-120z"/>
<glyph glyph-name="x" horiz-adv-x="511" unicode="x" d="M16 0l166 252l-160 235h150q85 -129 88 -133l78 133h137l-151 -229l172 -258h-150l-101 156l-92 -156h-137z"/>
<glyph glyph-name="y" horiz-adv-x="517" unicode="y" d="M78 -234q-45 0 -75 9l19 105q17 -5 47 -5q48 0 71.5 21t39.5 64l18 50l-183 477h142l110 -321h3l99 321h137l-201 -539q-35 -94 -84 -138t-143 -44z"/>
<glyph glyph-name="z" horiz-adv-x="458" unicode="z" d="M39 0v72l212 315h-202v100h364v-77l-211 -310h213v-100h-376z"/>
<glyph glyph-name="braceleft" horiz-adv-x="406" unicode="{" d="M259 -161q-48 0 -83.5 32.5t-35.5 91.5v171q0 98 -114 101v100q114 3 114 101v161q0 60 35 91.5t85 31.5h119v-99h-62q-29 0 -39.5 -17t-10.5 -51v-146q0 -93 -91 -119v-2q91 -29 91 -126v-155q0 -38 9.5 -52.5t40.5 -14.5h62v-99h-120z"/>
<glyph glyph-name="bar" horiz-adv-x="286" unicode="|" d="M85 -250v1000h117v-1000h-117z"/>
<glyph glyph-name="braceright" horiz-adv-x="406" unicode="}" d="M26 -161v99h62q30 0 40.5 17t10.5 51v157q0 93 91 119v2q-91 29 -91 126v144q0 38 -9.5 52.5t-40.5 14.5h-63v99h121q48 0 83.5 -32.5t35.5 -91.5v-160q0 -98 114 -101v-100q-114 -3 -114 -101v-172q0 -60 -35.5 -91.5t-84.5 -31.5h-120z"/>
<glyph glyph-name="asciitilde" horiz-adv-x="585" unicode="~" d="M390 165q-52 0 -109 29t-94 29q-45 0 -89 -41l-60 79q68 71 155 71q46 0 102.5 -29t100.5 -29q48 0 91 41l60 -78q-67 -72 -157 -72z"/>
<glyph glyph-name="uni00A0" horiz-adv-x="194" unicode=" "/>
<glyph glyph-name="exclamdown" horiz-adv-x="298" unicode="¡" d="M74 -176l25 440h106l25 -440h-156zM152 336q-36 0 -60 23.5t-24 57.5t24 58t60 24t60 -24t24 -58t-24 -57.5t-60 -23.5z"/>
<glyph glyph-name="cent" horiz-adv-x="458" unicode="¢" d="M205 -123v120q-82 21 -128.5 87t-46.5 159q0 97 47.5 161t127.5 85v110h111v-101q69 -6 119 -38l-43 -91q-46 29 -102 29q-57 0 -88 -41t-31 -110q0 -71 31 -113.5t91 -42.5q55 0 105 30l41 -89q-55 -36 -123 -42v-113h-111z"/>
<glyph glyph-name="sterling" horiz-adv-x="513" unicode="£" d="M62 269v97h84q-12 70 -12 117q0 89 57 142t160 53q82 0 143 -37l-53 -93q-41 23 -86 23q-82 0 -82 -99q0 -44 11 -106h145v-97h-132v-14q0 -50 -19 -89.5t-44 -59.5h234v-106h-404v85q48 24 72.5 69.5t24.5 96.5q0 12 -1 18h-98z"/>
<glyph glyph-name="currency" horiz-adv-x="622" unicode="¤" d="M315 195q40 0 63.5 26t23.5 66t-24 66t-63 26t-63 -26t-24 -66t23.5 -66t63.5 -26zM159 -5l-97 74l79 99q-36 51 -36 119q0 70 40 122l-80 101l96 74l78 -105q36 13 76 13q38 0 68 -11l77 103l97 -74l-76 -95q45 -51 45 -128q0 -73 -42 -127l72 -91l-97 -74l-71 97 q-35 -11 -73 -11q-47 0 -81 15z"/>
<glyph glyph-name="yen" horiz-adv-x="583" unicode="¥" d="M225 0v85h-162v93h162v58h-162v92h121l-180 338h157l140 -286h2l140 286h137l-175 -338h124v-92h-163v-58h163v-93h-163v-85h-141z"/>
<glyph glyph-name="brokenbar" horiz-adv-x="241" unicode="¦" d="M60 382v368h117v-368h-117zM60 -250v378h117v-378h-117z"/>
<glyph glyph-name="section" horiz-adv-x="465" unicode="§" d="M276 191q22 22 22 52q0 9 -3.5 19.5t-12 22.5t-15.5 22t-20.5 23.5l-21 21t-22.5 22t-20 19.5q-18 -17 -18 -52q0 -9 3.5 -19.5t12 -23t14.5 -21.5t20.5 -24t19.5 -21t22 -22.5t19 -18.5zM192 -152q-86 0 -136 34l41 96q37 -25 80 -25q35 0 55 17.5t20 47.5 q0 22 -22 48.5t-53 53.5t-62.5 57t-53.5 70.5t-22 84.5q0 86 77 134q-34 50 -34 101q0 75 52 120t128 45q86 0 140 -38l-49 -87q-35 24 -76 24q-30 0 -46 -16.5t-16 -42.5q0 -24 21.5 -51.5t52.5 -55t62 -58.5t52.5 -72.5t21.5 -86.5q0 -75 -73 -133q34 -48 34 -96 q0 -84 -55.5 -127.5t-138.5 -43.5z"/>
<glyph glyph-name="dieresis" horiz-adv-x="500" unicode="¨" d="M355 542q-32 0 -53 21t-21 51q0 29 21 50t53 21t53 -21t21 -50q0 -30 -21 -51t-53 -21zM145 542q-32 0 -53 21t-21 51q0 29 21 50t53 21t53 -21t21 -50q0 -30 -21 -51t-53 -21z"/>
<glyph glyph-name="copyright" horiz-adv-x="836" unicode="©" d="M417 63q127 0 209 82t82 214t-82 214t-209 82q-126 0 -208 -82t-82 -214t81.5 -214t208.5 -82zM417 -14q-154 0 -263 109.5t-109 263.5t109 263.5t263 109.5q155 0 264 -109t109 -264t-109 -264t-264 -109zM424 135q-94 0 -157 64t-63 160t64 160t158 64q85 0 148 -54 l-53 -75q-44 34 -92 34q-52 0 -83.5 -37t-31.5 -90q0 -58 33.5 -96t84.5 -38q49 0 101 44l50 -72q-69 -64 -159 -64z"/>
<glyph glyph-name="ordfeminine" horiz-adv-x="377" unicode="ª" d="M162 386q35 0 59 27v59q-66 0 -87 -21q-12 -12 -12 -31q0 -34 40 -34zM135 312q-49 0 -80.5 26.5t-31.5 73.5q0 54 46 88q49 34 152 34v17q0 24 -11.5 35.5t-41.5 11.5q-45 0 -89 -33l-45 63q58 50 145 50q75 0 110.5 -31t35.5 -99v-123q0 -61 12 -104h-103q-5 13 -7 33 q-40 -42 -92 -42z"/>
<glyph glyph-name="guillemotleft" horiz-adv-x="539" unicode="«" d="M374 53l-120 192l120 193h136l-119 -193l119 -192h-136zM152 53l-120 192l120 193h136l-119 -193l119 -192h-136z"/>
<glyph glyph-name="logicalnot" horiz-adv-x="624" unicode="¬" d="M470 30v185h-430v103h537v-288h-107z"/>
<glyph glyph-name="uni00AD" horiz-adv-x="330" unicode="­" d="M51 228v108h228v-108h-228z"/>
<glyph glyph-name="registered" horiz-adv-x="836" unicode="®" d="M368 391h38q72 0 72 55q0 56 -65 56h-45v-111zM417 63q127 0 209 82t82 214t-82 214t-209 82q-126 0 -208 -82t-82 -214t81.5 -214t208.5 -82zM417 -14q-154 0 -263 109.5t-109 263.5t109 263.5t263 109.5q155 0 264 -109t109 -264t-109 -264t-264 -109zM275 156v417h148 q72 0 110.5 -32.5t38.5 -89.5q0 -91 -96 -111q22 -17 50 -62l75 -122h-103l-79 132q-15 24 -24.5 31.5t-26.5 7.5v-171h-93z"/>
<glyph glyph-name="macron" horiz-adv-x="500" unicode="¯" d="M108 562v95h283v-95h-283z"/>
<glyph glyph-name="degree" horiz-adv-x="346" unicode="°" d="M173 472q27 0 44 18.5t17 46.5q0 29 -17 47.5t-44 18.5t-44 -18.5t-17 -47.5q0 -28 17 -46.5t44 -18.5zM173 397q-59 0 -101 41t-42 99q0 59 42 100t101 41t101 -41t42 -100q0 -58 -42 -99t-101 -41z"/>
<glyph glyph-name="plusminus" horiz-adv-x="574" unicode="±" d="M55 -152v103h453v-103h-453zM225 26v186h-184v102h184v180h114v-180h181v-102h-181v-186h-114z"/>
<glyph glyph-name="twosuperior" horiz-adv-x="343" unicode="²" d="M25 331v54q97 76 123 105q32 37 32 66q0 37 -40 37q-39 0 -75 -32l-49 65q58 47 138 47q66 0 101 -29t35 -76q0 -42 -30.5 -78.5t-87.5 -81.5q9 3 48 3h85v-80h-280z"/>
<glyph glyph-name="threesuperior" horiz-adv-x="322" unicode="³" d="M106 325q-56 0 -86 12l20 75q26 -10 62 -10q69 0 69 32q0 35 -92 37v60q39 1 61 12t22 28q0 25 -38 25q-35 0 -65 -21l-37 64q51 34 126 34q56 0 88 -21t32 -58q0 -31 -21 -50t-51 -27v-1q33 -4 59 -24t26 -57q0 -52 -46.5 -81t-128.5 -29z"/>
<glyph glyph-name="acute" horiz-adv-x="500" unicode="´" d="M145 541l83 135h172l-140 -135h-115z"/>
<glyph glyph-name="uni00B5" horiz-adv-x="565" unicode="µ" d="M62 -209v696h133v-317q0 -35 13 -53t46 -18q56 0 106 61v327h133v-349q0 -82 12 -138h-131q-8 24 -10 65q-60 -68 -127 -73h-8q-23 0 -38 6h-3q4 -26 4 -100v-107h-130z"/>
<glyph glyph-name="paragraph" horiz-adv-x="662" unicode="¶" d="M243 -177v429q-87 0 -146 57t-59 149t59 150t146 58h385v-104h-75v-739h-115v739h-78v-739h-117z"/>
<glyph glyph-name="periodcentered" horiz-adv-x="258" unicode="·" d="M129 204q-37 0 -62.5 25t-25.5 61t25.5 61t62.5 25t62.5 -25t25.5 -61t-25.5 -61t-62.5 -25z"/>
<glyph glyph-name="cedilla" horiz-adv-x="494" unicode="¸" d="M229 -230q-49 0 -82 15l17 60q22 -11 51 -11q48 0 48 34q0 38 -60 38h-11l36 97h76l-21 -58q32 -7 51.5 -28.5t19.5 -53.5q0 -41 -35 -67t-90 -26z"/>
<glyph glyph-name="onesuperior" horiz-adv-x="286" unicode="¹" d="M107 331v248l-73 -18l-22 79l121 26h77v-335h-103z"/>
<glyph glyph-name="ordmasculine" horiz-adv-x="410" unicode="º" d="M206 389q67 0 67 105q0 108 -71 108q-36 0 -50.5 -26.5t-14.5 -78.5q0 -108 69 -108zM205 312q-87 0 -133 53t-46 129q0 77 46 130.5t132 53.5t133 -53t47 -128q0 -76 -46.5 -130.5t-132.5 -54.5z"/>
<glyph glyph-name="guillemotright" horiz-adv-x="539" unicode="»" d="M251 53l119 193l-119 192h135l121 -192l-121 -193h-135zM28 53l120 193l-120 192h136l120 -192l-120 -193h-136z"/>
<glyph glyph-name="onequarter" horiz-adv-x="745" unicode="¼" d="M497 134q18 2 43 2h33v91h-1zM570 0v62h-170v62l175 211h98v-199h52v-74h-52v-62h-103zM96 0l408 666h106l-409 -666h-105zM107 331v248l-73 -18l-22 79l121 26h77v-335h-103z"/>
<glyph glyph-name="onehalf" horiz-adv-x="766" unicode="½" d="M447 0v54q97 75 123 104q33 37 33 67q0 36 -41 36q-39 0 -75 -31l-49 64q56 47 138 47q66 0 101.5 -29t35.5 -76q0 -42 -31 -78.5t-88 -80.5q14 2 48 2h85v-79h-280zM96 0l408 666h106l-409 -666h-105zM107 331v248l-73 -18l-22 79l121 26h77v-335h-103z"/>
<glyph glyph-name="threequarters" horiz-adv-x="782" unicode="¾" d="M534 134q18 2 42 2h34v91h-1zM607 0v62h-170v62l175 211h97v-199h53v-74h-53v-62h-102zM132 0l409 666h106l-409 -666h-106zM106 325q-56 0 -86 12l20 75q26 -10 62 -10q69 0 69 32q0 35 -92 37v60q39 1 61 12t22 28q0 25 -38 25q-35 0 -65 -21l-37 64q51 34 126 34 q56 0 88 -21t32 -58q0 -31 -21 -50t-51 -27v-1q33 -4 59 -24t26 -57q0 -52 -46.5 -81t-128.5 -29z"/>
<glyph glyph-name="questiondown" horiz-adv-x="411" unicode="¿" d="M255 336q-36 0 -60 23.5t-24 57.5t24 58t60 24t60 -24t24 -58t-24 -57.5t-60 -23.5zM240 -188q-102 0 -155 48t-53 124q0 92 94 156q5 3 19.5 13.5t18.5 13.5t13 11.5t12 14t6 15t3 19.5v40h116v-54q0 -44 -16 -70t-53 -49q-37 -24 -53 -45t-16 -54q0 -74 88 -74 q40 0 86 23l46 -98q-66 -34 -156 -34z"/>
<glyph glyph-name="Agrave" horiz-adv-x="680" unicode="À" d="M286 717l-140 135h171l83 -135h-114zM15 0l254 666h136l261 -666h-154l-45 125h-266l-44 -125h-142zM240 238h187l-57 159q-12 33 -23 72t-13 43h-2q-1 -4 -6.5 -23t-13 -43.5t-15.5 -48.5z"/>
<glyph glyph-name="Aacute" horiz-adv-x="680" unicode="Á" d="M267 717l83 135h172l-140 -135h-115zM15 0l254 666h136l261 -666h-154l-45 125h-266l-44 -125h-142zM240 238h187l-57 159q-12 33 -23 72t-13 43h-2q-1 -4 -6.5 -23t-13 -43.5t-15.5 -48.5z"/>
<glyph glyph-name="Acircumflex" horiz-adv-x="680" unicode="Â" d="M156 718l127 159h102l125 -159h-113l-64 66l-64 -66h-113zM15 0l254 666h136l261 -666h-154l-45 125h-266l-44 -125h-142zM240 238h187l-57 159q-12 33 -23 72t-13 43h-2q-1 -4 -6.5 -23t-13 -43.5t-15.5 -48.5z"/>
<glyph glyph-name="Atilde" horiz-adv-x="680" unicode="Ã" d="M392 722q-32 0 -66 17.5t-52 17.5q-24 0 -54 -30l-61 53q17 30 46.5 52.5t66.5 22.5q33 0 66.5 -17.5t51.5 -17.5q31 0 56 31l61 -53q-45 -76 -115 -76zM15 0l254 666h136l261 -666h-154l-45 125h-266l-44 -125h-142zM240 238h187l-57 159q-12 33 -23 72t-13 43h-2 q-1 -4 -6.5 -23t-13 -43.5t-15.5 -48.5z"/>
<glyph glyph-name="Adieresis" horiz-adv-x="680" unicode="Ä" d="M438 718q-32 0 -53 21t-21 51q0 29 21 50t53 21t53 -21t21 -50q0 -30 -21 -51t-53 -21zM228 718q-32 0 -53 21t-21 51q0 29 21 50t53 21t53 -21t21 -50q0 -30 -21 -51t-53 -21zM15 0l254 666h136l261 -666h-154l-45 125h-266l-44 -125h-142zM240 238h187l-57 159 q-12 33 -23 72t-13 43h-2q-1 -4 -6.5 -23t-13 -43.5t-15.5 -48.5z"/>
<glyph glyph-name="Aring" horiz-adv-x="680" unicode="Å" d="M333 761q21 0 33.5 15t12.5 36t-12.5 35.5t-33.5 14.5t-33.5 -14.5t-12.5 -35.5t12.5 -36t33.5 -15zM333 705q-44 0 -77 31t-33 76q0 44 33 75t77 31t77 -31t33 -75q0 -45 -33 -76t-77 -31zM15 0l254 666h136l261 -666h-154l-45 125h-266l-44 -125h-142zM240 238h187 l-57 159q-12 33 -23 72t-13 43h-2q-1 -4 -6.5 -23t-13 -43.5t-15.5 -48.5z"/>
<glyph glyph-name="AE" horiz-adv-x="859" unicode="Æ" d="M264 251h147v269zM-23 0l378 666h440v-116h-245v-150h216v-110h-216v-174h252v-116h-391v141h-205l-77 -141h-152z"/>
<glyph glyph-name="Ccedilla" horiz-adv-x="618" unicode="Ç" d="M315 -230q-49 0 -82 15l17 60q22 -11 51 -11q48 0 48 34q0 38 -60 38h-11l33 89q-128 22 -198 117.5t-70 221.5q0 144 91.5 244t252.5 100q119 0 200 -53l-63 -103q-60 39 -139 39q-90 0 -141 -63.5t-51 -159.5q0 -101 50.5 -166.5t143.5 -65.5q82 0 151 51l58 -99 q-30 -27 -87 -48.5t-124 -21.5h-1l-15 -43q32 -7 51.5 -28.5t19.5 -53.5q0 -41 -35 -67t-90 -26z"/>
<glyph glyph-name="Egrave" horiz-adv-x="530" unicode="È" d="M229 717l-140 135h171l83 -135h-114zM83 0v666h384v-116h-245v-150h216v-110h-216v-174h252v-116h-391z"/>
<glyph glyph-name="Eacute" horiz-adv-x="530" unicode="É" d="M83 0v666h384v-116h-245v-150h216v-110h-216v-174h252v-116h-391zM208 717l83 135h172l-140 -135h-115z"/>
<glyph glyph-name="Ecircumflex" horiz-adv-x="530" unicode="Ê" d="M83 0v666h384v-116h-245v-150h216v-110h-216v-174h252v-116h-391zM97 718l127 159h102l125 -159h-113l-64 66l-64 -66h-113z"/>
<glyph glyph-name="Edieresis" horiz-adv-x="530" unicode="Ë" d="M83 0v666h384v-116h-245v-150h216v-110h-216v-174h252v-116h-391zM379 718q-32 0 -53 21t-21 51q0 29 21 50t53 21t53 -21t21 -50q0 -30 -21 -51t-53 -21zM169 718q-32 0 -53 21t-21 51q0 29 21 50t53 21t53 -21t21 -50q0 -30 -21 -51t-53 -21z"/>
<glyph glyph-name="Igrave" horiz-adv-x="324" unicode="Ì" d="M113 717l-140 135h171l83 -135h-114zM89 0v666h141v-666h-141z"/>
<glyph glyph-name="Iacute" horiz-adv-x="324" unicode="Í" d="M94 717l83 135h172l-140 -135h-115zM89 0v666h141v-666h-141z"/>
<glyph glyph-name="Icircumflex" horiz-adv-x="324" unicode="Î" d="M-17 718l127 159h102l125 -159h-113l-64 66l-64 -66h-113zM89 0v666h141v-666h-141z"/>
<glyph glyph-name="Idieresis" horiz-adv-x="324" unicode="Ï" d="M265 718q-32 0 -53 21t-21 51q0 29 21 50t53 21t53 -21t21 -50q0 -30 -21 -51t-53 -21zM55 718q-32 0 -53 21t-21 51q0 29 21 50t53 21t53 -21t21 -50q0 -30 -21 -51t-53 -21zM89 0v666h141v-666h-141z"/>
<glyph glyph-name="Eth" horiz-adv-x="701" unicode="Ð" d="M224 113h66q226 0 226 225q0 111 -56 163t-175 52h-61v-165h105v-99h-105v-176zM83 0v289h-65v99h65v278h201q190 0 285.5 -87t95.5 -237q0 -152 -98 -247t-288 -95h-196z"/>
<glyph glyph-name="Ntilde" horiz-adv-x="742" unicode="Ñ" d="M429 722q-32 0 -66 17.5t-52 17.5q-24 0 -54 -30l-61 53q17 30 46.5 52.5t66.5 22.5q33 0 66.5 -17.5t51.5 -17.5q31 0 56 31l61 -53q-45 -76 -115 -76zM82 0v666h142l240 -345q40 -57 70 -112h2q-4 36 -4 105v352h128v-666h-129l-259 370q-17 24 -64 100h-2q4 -36 4 -89 v-381h-128z"/>
<glyph glyph-name="Ograve" d="M340 717l-140 135h171l83 -135h-114zM387 102q95 0 144.5 65t49.5 165t-48.5 166t-142.5 66q-96 0 -146.5 -64.5t-50.5 -163.5q0 -100 49.5 -167t144.5 -67zM390 -12q-160 0 -253.5 100.5t-93.5 243.5q0 144 92 245t252 101t251.5 -100t91.5 -242q0 -145 -90.5 -246.5 t-249.5 -101.5z" unicode="Ò"/>
<glyph glyph-name="Oacute" d="M387 102q95 0 144.5 65t49.5 165t-48.5 166t-142.5 66q-96 0 -146.5 -64.5t-50.5 -163.5q0 -100 49.5 -167t144.5 -67zM390 -12q-160 0 -253.5 100.5t-93.5 243.5q0 144 92 245t252 101t251.5 -100t91.5 -242q0 -145 -90.5 -246.5t-249.5 -101.5zM320 717l83 135h172 l-140 -135h-115z" unicode="Ó"/>
<glyph glyph-name="Ocircumflex" d="M387 102q95 0 144.5 65t49.5 165t-48.5 166t-142.5 66q-96 0 -146.5 -64.5t-50.5 -163.5q0 -100 49.5 -167t144.5 -67zM390 -12q-160 0 -253.5 100.5t-93.5 243.5q0 144 92 245t252 101t251.5 -100t91.5 -242q0 -145 -90.5 -246.5t-249.5 -101.5zM209 718l127 159h102 l125 -159h-113l-64 66l-64 -66h-113z" unicode="Ô"/>
<glyph glyph-name="Otilde" d="M445 722q-32 0 -66 17.5t-52 17.5q-24 0 -54 -30l-61 53q17 30 46.5 52.5t66.5 22.5q33 0 66.5 -17.5t51.5 -17.5q31 0 56 31l61 -53q-45 -76 -115 -76zM387 102q95 0 144.5 65t49.5 165t-48.5 166t-142.5 66q-96 0 -146.5 -64.5t-50.5 -163.5q0 -100 49.5 -167 t144.5 -67zM390 -12q-160 0 -253.5 100.5t-93.5 243.5q0 144 92 245t252 101t251.5 -100t91.5 -242q0 -145 -90.5 -246.5t-249.5 -101.5z" unicode="Õ"/>
<glyph glyph-name="Odieresis" d="M387 102q95 0 144.5 65t49.5 165t-48.5 166t-142.5 66q-96 0 -146.5 -64.5t-50.5 -163.5q0 -100 49.5 -167t144.5 -67zM390 -12q-160 0 -253.5 100.5t-93.5 243.5q0 144 92 245t252 101t251.5 -100t91.5 -242q0 -145 -90.5 -246.5t-249.5 -101.5zM491 718q-32 0 -53 21 t-21 51q0 29 21 50t53 21t53 -21t21 -50q0 -30 -21 -51t-53 -21zM281 718q-32 0 -53 21t-21 51q0 29 21 50t53 21t53 -21t21 -50q0 -30 -21 -51t-53 -21z" unicode="Ö"/>
<glyph glyph-name="multiply" horiz-adv-x="511" unicode="×" d="M379 64l-125 124l-120 -119l-76 76l120 120l-121 121l78 78l121 -120l119 119l77 -77l-119 -119l125 -125z"/>
<glyph glyph-name="Oslash" d="M387 102q95 0 144.5 65t49.5 165q0 84 -32 141l-250 -351q38 -20 88 -20zM193 336q0 -91 38 -151l251 357q-41 22 -92 22q-96 0 -146.5 -64.5t-50.5 -163.5zM165 -74l-83 59l66 92q-105 99 -105 255q0 144 92 245t252 101q89 0 162 -35l64 90l84 -60l-64 -90 q97 -99 97 -247q0 -145 -90.5 -246.5t-249.5 -101.5q-85 0 -157 32z" unicode="Ø"/>
<glyph glyph-name="Ugrave" horiz-adv-x="715" unicode="Ù" d="M310 717l-140 135h171l83 -135h-114zM363 -12q-284 0 -284 270v408h141v-396q0 -87 34 -126.5t112 -39.5q140 0 140 157v405h130v-395q0 -138 -69 -210.5t-204 -72.5z"/>
<glyph glyph-name="Uacute" horiz-adv-x="715" unicode="Ú" d="M363 -12q-284 0 -284 270v408h141v-396q0 -87 34 -126.5t112 -39.5q140 0 140 157v405h130v-395q0 -138 -69 -210.5t-204 -72.5zM291 717l83 135h172l-140 -135h-115z"/>
<glyph glyph-name="Ucircumflex" horiz-adv-x="715" unicode="Û" d="M363 -12q-284 0 -284 270v408h141v-396q0 -87 34 -126.5t112 -39.5q140 0 140 157v405h130v-395q0 -138 -69 -210.5t-204 -72.5zM180 718l127 159h102l125 -159h-113l-64 66l-64 -66h-113z"/>
<glyph glyph-name="Udieresis" horiz-adv-x="715" unicode="Ü" d="M363 -12q-284 0 -284 270v408h141v-396q0 -87 34 -126.5t112 -39.5q140 0 140 157v405h130v-395q0 -138 -69 -210.5t-204 -72.5zM462 718q-32 0 -53 21t-21 51q0 29 21 50t53 21t53 -21t21 -50q0 -30 -21 -51t-53 -21zM252 718q-32 0 -53 21t-21 51q0 29 21 50t53 21 t53 -21t21 -50q0 -30 -21 -51t-53 -21z"/>
<glyph glyph-name="Yacute" horiz-adv-x="598" unicode="Ý" d="M236 717l83 135h172l-140 -135h-115zM232 0v251l-221 415h157l141 -283h1l140 283h137l-214 -415v-251h-141z"/>
<glyph glyph-name="Thorn" horiz-adv-x="598" unicode="Þ" d="M223 236h63q66 0 96.5 27t30.5 82q0 105 -124 105h-66v-214zM81 0v666h142v-108h77q114 0 184.5 -53.5t70.5 -156.5q0 -107 -72 -163.5t-199 -56.5h-61v-128h-142z"/>
<glyph glyph-name="germandbls" horiz-adv-x="579" unicode="ß" d="M378 -12q-83 0 -140 32l38 95q43 -28 86 -28q68 0 68 49q0 11 -4 20t-15 18t-18.5 14.5t-26.5 17t-27 16.5q-81 51 -81 119q0 16 3.5 30.5t7.5 23.5t14 21t14.5 16.5t17 16t15.5 14.5q41 39 41 84q0 81 -79 81q-93 0 -93 -133v-495h-133v497q0 118 64.5 176.5t164.5 58.5 q99 0 154 -51t55 -128q0 -65 -60 -117q-9 -9 -23 -21t-22 -19t-14 -17.5t-6 -22.5q0 -5 1 -9t3.5 -8.5t4.5 -7.5t7.5 -7.5t8.5 -7t11 -7.5l12 -7.5t14 -8.5l15 -9q22 -14 36 -24.5t30.5 -28t24.5 -41t8 -53.5q0 -69 -47 -109t-130 -40z"/>
<glyph glyph-name="agrave" horiz-adv-x="502" unicode="à" d="M202 541l-140 135h171l83 -135h-114zM220 85q52 0 90 43v88h-17q-132 0 -132 -80q0 -25 17 -38t42 -13zM180 -12q-64 0 -105.5 36.5t-41.5 100.5q0 88 75.5 130.5t184.5 42.5h17v28q0 36 -18 52t-61 16q-66 0 -124 -46l-58 81q76 70 197 70q101 0 148.5 -42.5 t47.5 -137.5v-175q0 -82 14 -144h-131q-6 17 -8 52q-52 -64 -137 -64z"/>
<glyph glyph-name="aacute" horiz-adv-x="502" unicode="á" d="M182 541l83 135h172l-140 -135h-115zM220 85q52 0 90 43v88h-17q-132 0 -132 -80q0 -25 17 -38t42 -13zM180 -12q-64 0 -105.5 36.5t-41.5 100.5q0 88 75.5 130.5t184.5 42.5h17v28q0 36 -18 52t-61 16q-66 0 -124 -46l-58 81q76 70 197 70q101 0 148.5 -42.5 t47.5 -137.5v-175q0 -82 14 -144h-131q-6 17 -8 52q-52 -64 -137 -64z"/>
<glyph glyph-name="acircumflex" horiz-adv-x="502" unicode="â" d="M72 542l127 159h102l125 -159h-113l-64 66l-64 -66h-113zM220 85q52 0 90 43v88h-17q-132 0 -132 -80q0 -25 17 -38t42 -13zM180 -12q-64 0 -105.5 36.5t-41.5 100.5q0 88 75.5 130.5t184.5 42.5h17v28q0 36 -18 52t-61 16q-66 0 -124 -46l-58 81q76 70 197 70 q101 0 148.5 -42.5t47.5 -137.5v-175q0 -82 14 -144h-131q-6 17 -8 52q-52 -64 -137 -64z"/>
<glyph glyph-name="atilde" horiz-adv-x="502" unicode="ã" d="M308 546q-32 0 -66 17.5t-52 17.5q-24 0 -54 -30l-61 53q17 30 46.5 52.5t66.5 22.5q33 0 66.5 -17.5t51.5 -17.5q31 0 56 31l61 -53q-45 -76 -115 -76zM220 85q52 0 90 43v88h-17q-132 0 -132 -80q0 -25 17 -38t42 -13zM180 -12q-64 0 -105.5 36.5t-41.5 100.5 q0 88 75.5 130.5t184.5 42.5h17v28q0 36 -18 52t-61 16q-66 0 -124 -46l-58 81q76 70 197 70q101 0 148.5 -42.5t47.5 -137.5v-175q0 -82 14 -144h-131q-6 17 -8 52q-52 -64 -137 -64z"/>
<glyph glyph-name="adieresis" horiz-adv-x="502" unicode="ä" d="M354 542q-32 0 -53 21t-21 51q0 29 21 50t53 21t53 -21t21 -50q0 -30 -21 -51t-53 -21zM144 542q-32 0 -53 21t-21 51q0 29 21 50t53 21t53 -21t21 -50q0 -30 -21 -51t-53 -21zM220 85q52 0 90 43v88h-17q-132 0 -132 -80q0 -25 17 -38t42 -13zM180 -12 q-64 0 -105.5 36.5t-41.5 100.5q0 88 75.5 130.5t184.5 42.5h17v28q0 36 -18 52t-61 16q-66 0 -124 -46l-58 81q76 70 197 70q101 0 148.5 -42.5t47.5 -137.5v-175q0 -82 14 -144h-131q-6 17 -8 52q-52 -64 -137 -64z"/>
<glyph glyph-name="aring" horiz-adv-x="502" unicode="å" d="M249 595q21 0 33.5 15t12.5 36t-12.5 35.5t-33.5 14.5t-33.5 -14.5t-12.5 -35.5t12.5 -36t33.5 -15zM249 539q-44 0 -77 31t-33 76q0 44 33 75t77 31t77 -31t33 -75q0 -45 -33 -76t-77 -31zM220 85q52 0 90 43v88h-17q-132 0 -132 -80q0 -25 17 -38t42 -13zM180 -12 q-64 0 -105.5 36.5t-41.5 100.5q0 88 75.5 130.5t184.5 42.5h17v28q0 36 -18 52t-61 16q-66 0 -124 -46l-58 81q76 70 197 70q101 0 148.5 -42.5t47.5 -137.5v-175q0 -82 14 -144h-131q-6 17 -8 52q-52 -64 -137 -64z"/>
<glyph glyph-name="ae" horiz-adv-x="795" unicode="æ" d="M446 303h183q-4 100 -84 100q-83 0 -99 -100zM220 85q66 0 105 57q-13 33 -16 74h-16q-132 0 -132 -80q0 -25 17 -38t42 -13zM180 -12q-64 0 -105.5 36.5t-41.5 100.5q0 88 75.5 130.5t184.5 42.5h19v28q0 34 -18.5 51t-62.5 17q-60 0 -124 -46l-58 81q78 70 197 70 q107 0 151 -57q63 57 150 57q103 0 157.5 -63.5t54.5 -178.5q0 -14 -2 -44h-309q6 -58 36.5 -92t88.5 -34q61 0 126 34l43 -86q-84 -47 -181 -47q-128 0 -197 85q-77 -85 -184 -85z"/>
<glyph glyph-name="ccedilla" horiz-adv-x="458" unicode="ç" d="M211 -230q-49 0 -82 15l17 60q22 -11 51 -11q48 0 48 34q0 38 -60 38h-11l33 91q-83 20 -130 86t-47 160q0 120 71.5 188t184.5 68q89 0 149 -39l-43 -91q-46 29 -102 29q-57 0 -88 -41t-31 -110q0 -71 31 -113.5t91 -42.5q55 0 105 30l41 -89q-67 -44 -157 -44h-2 l-15 -43q32 -7 51.5 -28.5t19.5 -53.5q0 -41 -35 -67t-90 -26z"/>
<glyph glyph-name="egrave" horiz-adv-x="519" unicode="è" d="M225 541l-140 135h171l83 -135h-114zM171 303h182q-2 100 -84 100t-98 -100zM285 -12q-120 0 -187.5 70t-67.5 188q0 113 69 183t172 70t157.5 -62.5t54.5 -177.5q0 -14 -2 -46h-308q5 -57 35.5 -91.5t88.5 -34.5q59 0 127 34l43 -86q-84 -47 -182 -47z"/>
<glyph glyph-name="eacute" horiz-adv-x="519" unicode="é" d="M171 303h182q-2 100 -84 100t-98 -100zM285 -12q-120 0 -187.5 70t-67.5 188q0 113 69 183t172 70t157.5 -62.5t54.5 -177.5q0 -14 -2 -46h-308q5 -57 35.5 -91.5t88.5 -34.5q59 0 127 34l43 -86q-84 -47 -182 -47zM204 541l83 135h172l-140 -135h-115z"/>
<glyph glyph-name="ecircumflex" horiz-adv-x="519" unicode="ê" d="M171 303h182q-2 100 -84 100t-98 -100zM285 -12q-120 0 -187.5 70t-67.5 188q0 113 69 183t172 70t157.5 -62.5t54.5 -177.5q0 -14 -2 -46h-308q5 -57 35.5 -91.5t88.5 -34.5q59 0 127 34l43 -86q-84 -47 -182 -47zM93 542l127 159h102l125 -159h-113l-64 66l-64 -66 h-113z"/>
<glyph glyph-name="edieresis" horiz-adv-x="519" unicode="ë" d="M171 303h182q-2 100 -84 100t-98 -100zM285 -12q-120 0 -187.5 70t-67.5 188q0 113 69 183t172 70t157.5 -62.5t54.5 -177.5q0 -14 -2 -46h-308q5 -57 35.5 -91.5t88.5 -34.5q59 0 127 34l43 -86q-84 -47 -182 -47zM375 542q-32 0 -53 21t-21 51q0 29 21 50t53 21t53 -21 t21 -50q0 -30 -21 -51t-53 -21zM165 542q-32 0 -53 21t-21 51q0 29 21 50t53 21t53 -21t21 -50q0 -30 -21 -51t-53 -21z"/>
<glyph glyph-name="igrave" horiz-adv-x="280" unicode="ì" d="M94 541l-140 135h171l83 -135h-114zM73 0v487h134v-487h-134z"/>
<glyph glyph-name="iacute" horiz-adv-x="280" unicode="í" d="M73 0v487h134v-487h-134zM75 541l83 135h172l-140 -135h-115z"/>
<glyph glyph-name="icircumflex" horiz-adv-x="280" unicode="î" d="M73 0v487h134v-487h-134zM-36 542l127 159h102l125 -159h-113l-64 66l-64 -66h-113z"/>
<glyph glyph-name="idieresis" horiz-adv-x="280" unicode="ï" d="M73 0v487h134v-487h-134zM246 542q-32 0 -53 21t-21 51q0 29 21 50t53 21t53 -21t21 -50q0 -30 -21 -51t-53 -21zM36 542q-32 0 -53 21t-21 51q0 29 21 50t53 21t53 -21t21 -50q0 -30 -21 -51t-53 -21z"/>
<glyph glyph-name="eth" horiz-adv-x="559" unicode="ð" d="M277 89q109 0 109 210q0 5 -0.5 17t-0.5 16q-37 56 -112 56q-49 0 -75 -39.5t-26 -107.5q0 -71 27.5 -111.5t77.5 -40.5zM275 -12q-106 0 -175 67t-69 184q0 115 64.5 182t159.5 67q68 0 107 -37q-24 82 -85 127l-67 -60l-52 54l43 39q-54 18 -125 18l27 103 q108 0 193 -34l68 62l53 -55l-50 -45q159 -109 159 -360q0 -140 -64.5 -226t-186.5 -86z"/>
<glyph glyph-name="ntilde" horiz-adv-x="557" unicode="ñ" d="M334 546q-32 0 -66 17.5t-52 17.5q-24 0 -54 -30l-61 53q17 30 46.5 52.5t66.5 22.5q33 0 66.5 -17.5t51.5 -17.5q31 0 56 31l61 -53q-45 -76 -115 -76zM65 0v487h130v-61q62 73 155 73q76 0 111 -43t35 -115v-341h-133v314q0 38 -15 56t-50 18q-55 0 -100 -61v-327h-133 z"/>
<glyph glyph-name="ograve" horiz-adv-x="550" unicode="ò" d="M229 541l-140 135h171l83 -135h-114zM276 89q103 0 103 153q0 72 -26.5 115t-81.5 43q-100 0 -100 -154q0 -72 25.5 -114.5t79.5 -42.5zM274 -12q-119 0 -181.5 75t-62.5 179t62 180.5t181 76.5q81 0 138.5 -38t83 -93.5t25.5 -121.5q0 -103 -63.5 -180.5t-182.5 -77.5z "/>
<glyph glyph-name="oacute" horiz-adv-x="550" unicode="ó" d="M276 89q103 0 103 153q0 72 -26.5 115t-81.5 43q-100 0 -100 -154q0 -72 25.5 -114.5t79.5 -42.5zM274 -12q-119 0 -181.5 75t-62.5 179t62 180.5t181 76.5q81 0 138.5 -38t83 -93.5t25.5 -121.5q0 -103 -63.5 -180.5t-182.5 -77.5zM209 541l83 135h172l-140 -135h-115z "/>
<glyph glyph-name="ocircumflex" horiz-adv-x="550" unicode="ô" d="M276 89q103 0 103 153q0 72 -26.5 115t-81.5 43q-100 0 -100 -154q0 -72 25.5 -114.5t79.5 -42.5zM274 -12q-119 0 -181.5 75t-62.5 179t62 180.5t181 76.5q81 0 138.5 -38t83 -93.5t25.5 -121.5q0 -103 -63.5 -180.5t-182.5 -77.5zM98 542l127 159h102l125 -159h-113 l-64 66l-64 -66h-113z"/>
<glyph glyph-name="otilde" horiz-adv-x="550" unicode="õ" d="M334 546q-32 0 -66 17.5t-52 17.5q-24 0 -54 -30l-61 53q17 30 46.5 52.5t66.5 22.5q33 0 66.5 -17.5t51.5 -17.5q31 0 56 31l61 -53q-45 -76 -115 -76zM276 89q103 0 103 153q0 72 -26.5 115t-81.5 43q-100 0 -100 -154q0 -72 25.5 -114.5t79.5 -42.5zM274 -12 q-119 0 -181.5 75t-62.5 179t62 180.5t181 76.5q81 0 138.5 -38t83 -93.5t25.5 -121.5q0 -103 -63.5 -180.5t-182.5 -77.5z"/>
<glyph glyph-name="odieresis" horiz-adv-x="550" unicode="ö" d="M276 89q103 0 103 153q0 72 -26.5 115t-81.5 43q-100 0 -100 -154q0 -72 25.5 -114.5t79.5 -42.5zM274 -12q-119 0 -181.5 75t-62.5 179t62 180.5t181 76.5q81 0 138.5 -38t83 -93.5t25.5 -121.5q0 -103 -63.5 -180.5t-182.5 -77.5zM380 542q-32 0 -53 21t-21 51 q0 29 21 50t53 21t53 -21t21 -50q0 -30 -21 -51t-53 -21zM170 542q-32 0 -53 21t-21 51q0 29 21 50t53 21t53 -21t21 -50q0 -30 -21 -51t-53 -21z"/>
<glyph glyph-name="divide" horiz-adv-x="572" unicode="÷" d="M40 194v100h491v-100h-491zM283 346q-30 0 -51.5 21t-21.5 51t21.5 51t51.5 21q31 0 52 -21t21 -51t-21 -51t-52 -21zM283 -3q-30 0 -51.5 21t-21.5 51t21.5 51t51.5 21q31 0 52 -21t21 -51t-21 -51t-52 -21z"/>
<glyph glyph-name="oslash" horiz-adv-x="550" unicode="ø" d="M166 246q0 -42 9 -73l145 217q-21 12 -49 12q-105 0 -105 -156zM276 86q55 0 81 42t26 114q0 44 -13 83l-151 -223q26 -16 57 -16zM109 -67l-73 48l56 83q-62 71 -62 178q0 104 62 180.5t181 76.5q56 0 103 -19l58 87l75 -49l-60 -87q71 -72 71 -185q0 -103 -63.5 -180.5 t-182.5 -77.5q-62 0 -111 22z"/>
<glyph glyph-name="ugrave" horiz-adv-x="557" unicode="ù" d="M232 541l-140 135h171l83 -135h-114zM207 -12q-76 0 -111 43t-35 115v341h133v-314q0 -38 15 -56t50 -18q49 0 100 61v327h133v-347q0 -77 13 -140h-131q-8 26 -10 65q-61 -77 -157 -77z"/>
<glyph glyph-name="uacute" horiz-adv-x="557" unicode="ú" d="M207 -12q-76 0 -111 43t-35 115v341h133v-314q0 -38 15 -56t50 -18q49 0 100 61v327h133v-347q0 -77 13 -140h-131q-8 26 -10 65q-61 -77 -157 -77zM212 541l83 135h172l-140 -135h-115z"/>
<glyph glyph-name="ucircumflex" horiz-adv-x="557" unicode="û" d="M207 -12q-76 0 -111 43t-35 115v341h133v-314q0 -38 15 -56t50 -18q49 0 100 61v327h133v-347q0 -77 13 -140h-131q-8 26 -10 65q-61 -77 -157 -77zM101 542l127 159h102l125 -159h-113l-64 66l-64 -66h-113z"/>
<glyph glyph-name="udieresis" horiz-adv-x="557" unicode="ü" d="M207 -12q-76 0 -111 43t-35 115v341h133v-314q0 -38 15 -56t50 -18q49 0 100 61v327h133v-347q0 -77 13 -140h-131q-8 26 -10 65q-61 -77 -157 -77zM383 542q-32 0 -53 21t-21 51q0 29 21 50t53 21t53 -21t21 -50q0 -30 -21 -51t-53 -21zM173 542q-32 0 -53 21t-21 51 q0 29 21 50t53 21t53 -21t21 -50q0 -30 -21 -51t-53 -21z"/>
<glyph glyph-name="yacute" horiz-adv-x="517" unicode="ý" d="M197 541l83 135h172l-140 -135h-115zM78 -234q-45 0 -75 9l19 105q17 -5 47 -5q48 0 71.5 21t39.5 64l18 50l-183 477h142l110 -321h3l99 321h137l-201 -539q-35 -94 -84 -138t-143 -44z"/>
<glyph glyph-name="thorn" horiz-adv-x="569" unicode="þ" d="M282 91q51 0 78 40t27 113q0 70 -24.5 109.5t-72.5 39.5q-56 0 -92 -50v-219q37 -33 84 -33zM65 -219v938h133v-280q51 60 132 60q93 0 145.5 -67t52.5 -188q0 -115 -61 -185.5t-157 -70.5q-73 0 -112 35v-242h-133z"/>
<glyph glyph-name="OE" horiz-adv-x="921" unicode="Œ" d="M380 102q56 0 95 17v427q-38 18 -92 18q-96 0 -146.5 -64.5t-50.5 -163.5q0 -100 49.5 -167t144.5 -67zM383 -12q-160 0 -253 100.5t-93 243.5q0 93 38 170t118 126.5t187 49.5q48 0 101 -12h377v-116h-245v-150h215v-110h-215v-174h252v-116h-377q-51 -12 -105 -12z"/>
<glyph glyph-name="oe" horiz-adv-x="867" unicode="œ" d="M517 303h182q-4 100 -84 100q-82 0 -98 -100zM276 89q103 0 103 153q0 72 -26.5 115t-81.5 43q-100 0 -100 -154q0 -72 25.5 -114.5t79.5 -42.5zM274 -12q-119 0 -181.5 75t-62.5 179t62 180.5t181 76.5q112 0 175 -76q65 76 169 76q103 0 157.5 -63.5t54.5 -178.5 q0 -14 -2 -44h-309q5 -58 35.5 -92t88.5 -34q62 0 127 34l43 -86q-84 -47 -181 -47q-117 0 -184 77q-65 -77 -173 -77z"/>
<glyph glyph-name="Scaron" horiz-adv-x="516" unicode="Š" d="M237 -12q-126 0 -206 66l60 98q68 -50 143 -50q49 0 77.5 22t28.5 55q0 17 -7 30.5t-24 25t-31 18.5t-42.5 20t-44.5 21q-70 34 -106.5 79t-36.5 120q0 83 61.5 134t153.5 51q120 0 195 -56l-57 -99q-63 41 -130 41q-41 0 -65 -18t-24 -51q0 -10 3 -18.5t6 -14.5 t11.5 -13.5t14 -11.5t19 -11t20.5 -10t24 -11t25 -11q40 -18 65 -33t52.5 -39t40.5 -58t13 -78q0 -91 -64 -144.5t-175 -53.5zM205 717l-125 159h113l64 -66l64 66h113l-127 -159h-102z"/>
<glyph glyph-name="scaron" horiz-adv-x="420" unicode="š" d="M199 -12q-104 0 -173 46l45 93q58 -40 120 -40q80 0 80 44q0 10 -5.5 17.5t-18.5 14t-25.5 12t-34.5 14.5t-39 17q-55 26 -82 58.5t-27 85.5q0 68 49.5 108.5t132.5 40.5q90 0 156 -39l-47 -91q-49 31 -104 31q-67 0 -67 -43q0 -10 4 -17t16 -14t20 -10.5t29.5 -11 t30.5 -11.5q66 -28 99.5 -60t33.5 -89q0 -76 -51 -116t-142 -40zM157 541l-125 159h113l64 -66l64 66h113l-127 -159h-102z"/>
<glyph glyph-name="Ydieresis" horiz-adv-x="598" unicode="Ÿ" d="M407 718q-32 0 -53 21t-21 51q0 29 21 50t53 21t53 -21t21 -50q0 -30 -21 -51t-53 -21zM197 718q-32 0 -53 21t-21 51q0 29 21 50t53 21t53 -21t21 -50q0 -30 -21 -51t-53 -21zM232 0v251l-221 415h157l141 -283h1l140 283h137l-214 -415v-251h-141z"/>
<glyph glyph-name="circumflex" horiz-adv-x="500" unicode="ˆ" d="M73 542l127 159h102l125 -159h-113l-64 66l-64 -66h-113z"/>
<glyph glyph-name="tilde" horiz-adv-x="500" unicode="˜" d="M309 546q-32 0 -66 17.5t-52 17.5q-24 0 -54 -30l-61 53q17 30 46.5 52.5t66.5 22.5q33 0 66.5 -17.5t51.5 -17.5q31 0 56 31l61 -53q-45 -76 -115 -76z"/>
<glyph glyph-name="Alpha" horiz-adv-x="680" unicode="Α" d="M15 0l254 666h136l261 -666h-154l-45 125h-266l-44 -125h-142zM240 238h187l-57 159q-12 33 -23 72t-13 43h-2q-1 -4 -6.5 -23t-13 -43.5t-15.5 -48.5z"/>
<glyph glyph-name="Beta" horiz-adv-x="602" unicode="Β" d="M222 392h65q57 0 83 21t26 65q0 80 -106 80h-68v-166zM222 108h74q62 0 93 21t31 68q0 94 -118 94h-80v-183zM83 0v666h222q103 0 166.5 -39t63.5 -127q0 -122 -118 -153v-2q63 -10 104.5 -51t41.5 -109q0 -185 -261 -185h-219z"/>
<glyph glyph-name="Gamma" horiz-adv-x="491" unicode="Γ" d="M83 0v666h393v-114h-252v-552h-141z"/>
<glyph glyph-name="Delta" horiz-adv-x="658" unicode="Δ" d="M180 116h287l-107 283q-8 22 -16.5 47.5t-14 45.5t-6.5 22h-2q-1 -2 -6.5 -22t-14 -45.5t-16.5 -47.5zM26 0v72l233 594h134l240 -594v-72h-607z"/>
<glyph glyph-name="Epsilon" horiz-adv-x="530" unicode="Ε" d="M83 0v666h384v-116h-245v-150h216v-110h-216v-174h252v-116h-391z"/>
<glyph glyph-name="Zeta" horiz-adv-x="571" unicode="Ζ" d="M46 0v92l305 459h-292v115h463v-90l-308 -461h317v-115h-485z"/>
<glyph glyph-name="Eta" horiz-adv-x="745" unicode="Η" d="M83 0v666h141v-262h298v262h141v-666h-141v288h-298v-288h-141z"/>
<glyph glyph-name="Theta" d="M257 281v110h254v-110h-254zM387 102q95 0 144.5 65t49.5 165t-48.5 166t-142.5 66q-96 0 -146.5 -64.5t-50.5 -163.5q0 -100 49.5 -167t144.5 -67zM390 -12q-160 0 -253.5 100.5t-93.5 243.5q0 144 92 245t252 101t251.5 -100t91.5 -242q0 -145 -90.5 -246.5 t-249.5 -101.5z" unicode="Θ"/>
<glyph glyph-name="Iota" horiz-adv-x="324" unicode="Ι" d="M89 0v666h141v-666h-141z"/>
<glyph glyph-name="Kappa" horiz-adv-x="630" unicode="Κ" d="M83 0v666h140v-290l227 290h156l-245 -309l256 -357h-167l-227 319v-319h-140z"/>
<glyph glyph-name="Lambda" horiz-adv-x="668" unicode="Λ" d="M15 0l248 666h134l257 -666h-153l-140 399q-8 22 -15.5 47t-12.5 43t-6 21h-2q-13 -53 -33 -111l-135 -399h-142z"/>
<glyph glyph-name="Mu" horiz-adv-x="882" unicode="Μ" d="M41 0l92 666h137l134 -411q9 -28 21 -70t13 -45h2q17 60 35 115l138 411h136l92 -666h-144l-43 344q-10 78 -11 97h-2q-5 -27 -27 -95l-113 -346h-139l-113 345q-6 19 -11.5 39t-10 36.5t-5.5 20.5h-2q-3 -45 -9 -98l-43 -343h-127z"/>
<glyph glyph-name="Nu" horiz-adv-x="742" unicode="Ν" d="M82 0v666h142l240 -345q40 -57 70 -112h2q-4 36 -4 105v352h128v-666h-129l-259 370q-17 24 -64 100h-2q4 -36 4 -89v-381h-128z"/>
<glyph glyph-name="Xi" horiz-adv-x="612" unicode="Ξ" d="M66 539v127h480v-127h-480zM95 282v127h422v-127h-422zM59 0v127h494v-127h-494z"/>
<glyph glyph-name="Omicron" d="M387 102q95 0 144.5 65t49.5 165t-48.5 166t-142.5 66q-96 0 -146.5 -64.5t-50.5 -163.5q0 -100 49.5 -167t144.5 -67zM390 -12q-160 0 -253.5 100.5t-93.5 243.5q0 144 92 245t252 101t251.5 -100t91.5 -242q0 -145 -90.5 -246.5t-249.5 -101.5z" unicode="Ο"/>
<glyph glyph-name="Pi" horiz-adv-x="724" unicode="Π" d="M83 0v666h559v-666h-141v550h-277v-550h-141z"/>
<glyph glyph-name="Rho" horiz-adv-x="591" unicode="Ρ" d="M223 344h63q66 0 96.5 27t30.5 83q0 104 -124 104h-66v-214zM81 0v666h219q114 0 184.5 -53.5t70.5 -156.5q0 -107 -72 -163t-199 -56h-61v-237h-142z"/>
<glyph glyph-name="Sigma" horiz-adv-x="535" unicode="Σ" d="M39 0v87l181 259l-164 232v88h424v-115h-261l147 -204l-162 -232h290v-115h-455z"/>
<glyph glyph-name="Tau" horiz-adv-x="537" unicode="Τ" d="M198 0v550h-184v116h509v-116h-183v-550h-142z"/>
<glyph glyph-name="Upsilon" horiz-adv-x="598" unicode="Υ" d="M232 0v251l-221 415h157l141 -283h1l140 283h137l-214 -415v-251h-141z"/>
<glyph glyph-name="Phi" horiz-adv-x="797" unicode="Φ" d="M337 172v337q-75 -1 -121 -47.5t-46 -119.5t46.5 -121t120.5 -49zM460 172q77 1 122.5 48t45.5 120q0 74 -46 121t-122 48v-337zM328 0v70q-135 3 -217.5 79t-82.5 191q0 112 83 189.5t217 81.5v55h141v-55q136 -4 217.5 -79t81.5 -190q0 -116 -81 -192.5t-218 -79.5v-70 h-141z"/>
<glyph glyph-name="Chi" horiz-adv-x="616" unicode="Χ" d="M19 0l211 342l-201 324h160l126 -208l118 208h142l-192 -322l214 -344h-160l-140 230l-135 -230h-143z"/>
<glyph glyph-name="Psi" horiz-adv-x="780" unicode="Ψ" d="M325 0v176q-123 14 -196 86.5t-73 199.5v204h141v-200q0 -164 138 -173v373h121v-373q60 5 99 46.5t39 120.5v206h130v-202q0 -129 -69.5 -199.5t-187.5 -86.5v-178h-142z"/>
<glyph glyph-name="alpha" horiz-adv-x="592" unicode="α" d="M261 89q79 0 104 147q-9 70 -36.5 117t-69.5 47q-90 0 -90 -154q0 -71 22.5 -114t69.5 -43zM252 -12q-109 0 -166 75t-57 179t57 180.5t165 76.5q57 0 96 -26t57 -63h1q8 50 25 77h136q-28 -43 -55 -144l-26 -96l30 -103q27 -92 63 -144h-138q-8 10 -18.5 35t-14.5 43h-1 q-19 -37 -58.5 -63.5t-95.5 -26.5z"/>
<glyph glyph-name="beta" horiz-adv-x="569" unicode="β" d="M275 93q57 0 87.5 33.5t30.5 88.5q0 56 -39.5 88t-107.5 32v91q51 1 87.5 39t36.5 87q0 32 -19.5 54t-54.5 22q-98 0 -98 -133v-375q31 -26 77 -27zM65 -218v715q0 117 66.5 176t167.5 59q92 0 150 -45t58 -114q0 -61 -39.5 -110.5t-87.5 -61.5v-2q60 -6 108 -58t48 -123 q0 -105 -61 -166t-175 -61q-66 0 -102 30v-239h-133z"/>
<glyph glyph-name="gamma" horiz-adv-x="508" unicode="γ" d="M184 -218v232l-174 473h144l99 -322h3q78 160 100 322h135q-25 -192 -176 -474v-231h-131z"/>
<glyph glyph-name="delta" horiz-adv-x="559" unicode="δ" d="M278 393l-6 6q-43 -22 -73 -68.5t-30 -100.5q0 -66 30 -103.5t81 -37.5q50 0 79.5 32.5t29.5 88.5q0 38 -17 72t-35.5 53.5t-58.5 57.5zM278 -12q-118 0 -184 69t-66 169q0 83 50.5 149.5t117.5 100.5q-52 62 -52 120q0 60 50 98t127 38q87 0 143 -38l-49 -87 q-35 24 -79 24q-23 0 -37 -11.5t-14 -31.5q0 -19 16 -41.5t32 -37t62 -53.5q43 -37 67.5 -64t46.5 -74.5t22 -102.5q0 -95 -66.5 -161t-186.5 -66z"/>
<glyph glyph-name="epsilon" horiz-adv-x="474" unicode="ε" d="M261 -12q-103 0 -166.5 37.5t-63.5 108.5q0 45 30 78t75 39v1q-39 10 -62 39.5t-23 71.5q0 61 62.5 98.5t159.5 37.5q106 0 174 -43l-43 -98q-62 37 -134 37q-37 0 -58 -13.5t-21 -37.5q0 -50 93 -50h57l1 -92h-60q-108 0 -108 -54t90 -54q78 0 144 39l47 -99 q-83 -46 -194 -46z"/>
<glyph glyph-name="zeta" horiz-adv-x="397" unicode="ζ" d="M297 -185l-78 66q43 26 43 60q0 28 -40 48l-40 20q-149 76 -149 205q0 114 145 303l73 103h-201v100h373v-77l-155 -202q-97 -126 -97 -203q0 -47 23.5 -76t74.5 -55l40 -21q82 -41 82 -111q0 -47 -27.5 -91t-66.5 -69z"/>
<glyph glyph-name="eta" horiz-adv-x="557" unicode="η" d="M363 -218v532q0 38 -15 56t-50 18q-55 0 -100 -61v-327h-133v348q0 81 -15 139h133q9 -28 11 -61q62 73 156 73q76 0 111 -43t35 -115v-559h-133z"/>
<glyph glyph-name="theta" horiz-adv-x="555" unicode="θ" d="M275 632q-90 0 -101 -215h206q-7 94 -33 154.5t-72 60.5zM280 88q93 0 101 230h-207q4 -100 30 -165t76 -65zM278 -12q-67 0 -115.5 32.5t-74.5 88t-37.5 117t-11.5 132.5q0 70 11.5 132t37 119t74 90t115.5 33t115.5 -32.5t74.5 -88t37.5 -117t11.5 -132.5 q0 -70 -11.5 -132t-37 -119t-74 -90t-115.5 -33z"/>
<glyph glyph-name="iota" horiz-adv-x="316" unicode="ι" d="M207 -12q-140 0 -140 142v357h133v-331q0 -32 7.5 -45.5t26.5 -13.5q21 0 38 12l30 -98q-37 -23 -95 -23z"/>
<glyph glyph-name="kappa" horiz-adv-x="565" unicode="κ" d="M73 0v487h130v-181q0 -64 -12 -122h1q24 72 81.5 155t123.5 148h154q-101 -88 -186 -192l187 -295h-149l-117 193q-72 -97 -92 -193h-121z"/>
<glyph glyph-name="lambda" horiz-adv-x="534" unicode="λ" d="M15 0l195 493l-23 64q-12 31 -24 45t-29 14q-26 0 -45 -12l-25 98q42 23 91 23q57 0 93 -30t64 -107l209 -588h-137l-86 257q-19 61 -27 107h-1q-10 -57 -27 -107l-88 -257h-140z"/>
<glyph glyph-name="mu" horiz-adv-x="565" unicode="μ" d="M62 -218v705h133v-317q0 -35 13 -53t46 -18q56 0 106 61v327h133v-349q0 -82 12 -138h-131q-8 24 -10 65q-60 -68 -127 -73h-8q-23 0 -38 6h-3q4 -26 4 -100v-116h-130z"/>
<glyph glyph-name="nu" horiz-adv-x="508" unicode="ν" d="M189 0l-178 487h143l99 -322h3q78 160 100 322h135q-25 -193 -184 -487h-118z"/>
<glyph glyph-name="xi" horiz-adv-x="417" unicode="ξ" d="M306 -185l-79 66q17 10 30.5 27t13.5 34q0 32 -40 49l-47 21q-37 16 -58.5 28.5t-46 34t-35.5 52t-11 71.5q0 68 37.5 118t96.5 60v2q-47 13 -74.5 49t-27.5 83q0 42 20 75t52 45v1q-28 -7 -64 -7h-66v96h401v-100h-93q-55 0 -84.5 -31.5t-29.5 -79.5q0 -42 29.5 -68.5 t80.5 -26.5h49v-99h-67q-60 0 -91 -28.5t-31 -73.5q0 -37 25.5 -60t81.5 -48l39 -16q82 -35 82 -114q0 -47 -27 -91t-66 -69z"/>
<glyph glyph-name="omicron" horiz-adv-x="550" unicode="ο" d="M276 89q103 0 103 153q0 72 -26.5 115t-81.5 43q-100 0 -100 -154q0 -72 25.5 -114.5t79.5 -42.5zM274 -12q-119 0 -181.5 75t-62.5 179t62 180.5t181 76.5q81 0 138.5 -38t83 -93.5t25.5 -121.5q0 -103 -63.5 -180.5t-182.5 -77.5z"/>
<glyph glyph-name="pi" horiz-adv-x="650" unicode="π" d="M509 -12q-75 0 -107 37t-32 105v257h-123q0 -203 -27 -387h-134q31 193 31 387h-93v100h593v-100h-115v-231q0 -32 7.5 -45.5t26.5 -13.5q21 0 38 12l31 -98q-39 -23 -96 -23z"/>
<glyph glyph-name="rho" horiz-adv-x="551" unicode="ρ" d="M265 91q52 0 83 41t31 116q0 71 -25 111.5t-73 40.5q-96 0 -96 -146v-134q33 -29 80 -29zM52 -218v475q0 113 57 177.5t173 64.5q109 0 173.5 -65.5t64.5 -185.5q0 -118 -62.5 -189t-167.5 -71q-64 0 -105 30v-236h-133z"/>
<glyph glyph-name="sigma1" horiz-adv-x="454" unicode="ς" d="M310 -185l-79 66q18 10 31 26.5t13 33.5q0 26 -40 48l-51 26q-50 25 -80 49t-52 70t-22 111q0 120 71 187t185 67q89 0 149 -39l-43 -91q-46 29 -102 29q-57 0 -88 -40t-31 -109q0 -85 87 -129l64 -34q81 -43 81 -111q0 -47 -27 -91t-66 -69z"/>
<glyph glyph-name="sigma" horiz-adv-x="572" unicode="σ" d="M276 89q103 0 103 147q0 69 -27 110.5t-81 41.5q-100 0 -100 -148q0 -68 26 -109.5t79 -41.5zM274 -12q-81 0 -138 38t-81.5 92.5t-24.5 117.5q0 46 15 89.5t44.5 80.5t80 59t114.5 22h271v-99h-100v-1q29 -21 47 -60.5t18 -86.5q0 -46 -15 -89t-43.5 -80.5t-77.5 -60 t-110 -22.5z"/>
<glyph glyph-name="tau" horiz-adv-x="440" unicode="τ" d="M270 -12q-76 0 -108 37t-32 105v257h-120v100h414v-100h-162v-231q0 -32 7.5 -45.5t26.5 -13.5q23 0 38 12l31 -98q-39 -23 -95 -23z"/>
<glyph glyph-name="upsilon" horiz-adv-x="545" unicode="υ" d="M273 -12q-103 0 -159 55t-56 159v285h133v-277q0 -121 82 -121q92 0 92 211q0 103 -30 187h136q30 -82 30 -187q0 -158 -52.5 -235t-175.5 -77z"/>
<glyph glyph-name="phi" horiz-adv-x="713" unicode="φ" d="M295 87v315q-60 -2 -93 -43t-33 -113q0 -73 33 -115.5t93 -43.5zM415 85q60 2 95 43t35 113q0 71 -35 114.5t-95 44.5v-315zM295 -219v207q-124 2 -194.5 76.5t-70.5 177.5t70.5 178.5t194.5 78.5v221h120v-221q124 -3 196 -78t72 -176q0 -102 -72 -178.5t-196 -79.5 v-206h-120z"/>
<glyph glyph-name="chi" horiz-adv-x="491" unicode="χ" d="M-6 -218l183 363l-170 342h141l104 -218h1l99 218h132l-170 -337l183 -368h-140l-119 245h-1l-110 -245h-133z"/>
<glyph glyph-name="psi" horiz-adv-x="723" unicode="ψ" d="M299 -219v207q-106 6 -173.5 62t-67.5 160v277h133v-266q0 -64 31 -97t82 -35v551h117v-551q52 2 87.5 57.5t35.5 153.5q0 103 -30 187h135q31 -80 31 -187q0 -151 -65.5 -228.5t-189.5 -82.5v-208h-126z"/>
<glyph glyph-name="afii10023" horiz-adv-x="530" unicode="Ё" d="M83 0v666h384v-116h-245v-150h216v-110h-216v-174h252v-116h-391zM379 718q-32 0 -53 21t-21 51q0 29 21 50t53 21t53 -21t21 -50q0 -30 -21 -51t-53 -21zM169 718q-32 0 -53 21t-21 51q0 29 21 50t53 21t53 -21t21 -50q0 -30 -21 -51t-53 -21z"/>
<glyph glyph-name="afii10051" horiz-adv-x="725" unicode="Ђ" d="M170 0v550h-156v116h509v-116h-213v-193q25 33 75.5 60t111.5 27q94 0 142 -74.5t48 -192.5q0 -166 -79.5 -273.5t-191.5 -107.5q-49 0 -77 15l28 112q16 -7 44 -7q56 0 94.5 71t38.5 178q0 167 -99 167q-40 0 -77 -22.5t-58 -47.5v-262h-140z"/>
<glyph glyph-name="afii10052" horiz-adv-x="491" unicode="Ѓ" d="M83 0v666h393v-114h-252v-552h-141zM190 717l83 135h172l-140 -135h-115z"/>
<glyph glyph-name="afii10053" horiz-adv-x="618" unicode="Є" d="M385 -12q-109 0 -188.5 49t-116.5 126t-37 171t38 170.5t118 125t188 48.5q119 0 200 -53l-63 -103q-60 39 -139 39t-128.5 -49t-58.5 -124h272v-110h-271q11 -76 60 -124t128 -48q82 0 151 51l58 -99q-30 -27 -87 -48.5t-124 -21.5z"/>
<glyph glyph-name="afii10054" horiz-adv-x="516" unicode="Ѕ" d="M237 -12q-126 0 -206 66l60 98q68 -50 143 -50q49 0 77.5 22t28.5 55q0 17 -7 30.5t-24 25t-31 18.5t-42.5 20t-44.5 21q-70 34 -106.5 79t-36.5 120q0 83 61.5 134t153.5 51q120 0 195 -56l-57 -99q-63 41 -130 41q-41 0 -65 -18t-24 -51q0 -10 3 -18.5t6 -14.5 t11.5 -13.5t14 -11.5t19 -11t20.5 -10t24 -11t25 -11q40 -18 65 -33t52.5 -39t40.5 -58t13 -78q0 -91 -64 -144.5t-175 -53.5z"/>
<glyph glyph-name="afii10055" horiz-adv-x="318" unicode="І" d="M83 0v666h141v-666h-141z"/>
<glyph glyph-name="afii10056" horiz-adv-x="324" unicode="Ї" d="M265 718q-32 0 -53 21t-21 51q0 29 21 50t53 21t53 -21t21 -50q0 -30 -21 -51t-53 -21zM55 718q-32 0 -53 21t-21 51q0 29 21 50t53 21t53 -21t21 -50q0 -30 -21 -51t-53 -21zM89 0v666h141v-666h-141z"/>
<glyph glyph-name="afii10057" horiz-adv-x="331" unicode="Ј" d="M57 -204q-56 0 -98 16l22 115q20 -9 47 -9q42 0 60 23t18 76v649h142v-668q0 -98 -50.5 -150t-140.5 -52z"/>
<glyph glyph-name="afii10058" horiz-adv-x="985" unicode="Љ" d="M612 107h72q128 0 128 110q0 104 -124 104h-76v-214zM37 -10l-15 109q53 6 77 62t34 173l27 332h452v-237h87q113 0 183.5 -53.5t70.5 -155.5q0 -107 -72 -163.5t-198 -56.5h-212v550h-187l-18 -252q-12 -163 -67 -235.5t-162 -72.5z"/>
<glyph glyph-name="afii10059" horiz-adv-x="1002" unicode="Њ" d="M629 107h73q127 0 127 102q0 97 -124 97h-76v-199zM83 0v666h141v-252h264v252h141v-252h87q114 0 184.5 -51.5t70.5 -150.5q0 -104 -72 -158t-198 -54h-213v298h-264v-298h-141z"/>
<glyph glyph-name="afii10060" horiz-adv-x="739" unicode="Ћ" d="M170 0v550h-156v116h509v-116h-213v-193q25 33 76.5 60t112.5 27q87 0 137 -51.5t50 -137.5v-255h-140v227q0 52 -27 78.5t-71 26.5q-41 0 -79 -22.5t-59 -47.5v-262h-140z"/>
<glyph glyph-name="afii10061" horiz-adv-x="638" unicode="Ќ" d="M83 0v666h140v-275h47l195 275h151l-231 -309q28 -26 77 -103q57 -95 75 -114q24 -25 54 -25h10l-1 -115h-58q-57 0 -92.5 29.5t-85.5 112.5q-9 14 -21 35t-18.5 31.5t-15.5 24.5t-15 21t-14 14t-15.5 9.5t-16.5 2.5h-25v-280h-140zM258 717l83 135h172l-140 -135h-115z "/>
<glyph glyph-name="afii10062" horiz-adv-x="592" unicode="Ў" d="M308 706q-66 0 -114 38t-55 113h109q5 -65 60 -65q54 0 60 65h108q-6 -74 -54 -112.5t-114 -38.5zM135 -3q-42 0 -67 9l19 105q13 -5 39 -5q36 0 59 21.5t43 64.5l10 25l-202 449h136l135 -309l135 309h136l-225 -500q-41 -92 -89 -130.5t-129 -38.5z"/>
<glyph glyph-name="afii10145" horiz-adv-x="716" unicode="Џ" d="M314 -146l-8 146h-223v666h140v-550h269v550h142v-666h-224l-7 -146h-89z"/>
<glyph glyph-name="afii10017" horiz-adv-x="680" unicode="А" d="M15 0l254 666h136l261 -666h-154l-45 125h-266l-44 -125h-142zM240 238h187l-57 159q-12 33 -23 72t-13 43h-2q-1 -4 -6.5 -23t-13 -43.5t-15.5 -48.5z"/>
<glyph glyph-name="afii10018" horiz-adv-x="608" unicode="Б" d="M224 107h72q128 0 128 102q0 97 -124 97h-76v-199zM83 0v666h417v-116h-276v-136h87q114 0 184 -51.5t70 -150.5q0 -104 -72 -158t-198 -54h-212z"/>
<glyph glyph-name="afii10019" horiz-adv-x="602" unicode="В" d="M222 392h65q57 0 83 21t26 65q0 80 -106 80h-68v-166zM222 108h74q62 0 93 21t31 68q0 94 -118 94h-80v-183zM83 0v666h222q103 0 166.5 -39t63.5 -127q0 -122 -118 -153v-2q63 -10 104.5 -51t41.5 -109q0 -185 -261 -185h-219z"/>
<glyph glyph-name="afii10020" horiz-adv-x="491" unicode="Г" d="M83 0v666h393v-114h-252v-552h-141z"/>
<glyph glyph-name="afii10021" horiz-adv-x="729" unicode="Д" d="M214 116h263v434h-165l-34 -241q-19 -143 -64 -193zM43 -146l-21 262h55q26 29 40.5 77.5t26.5 140.5l49 332h425v-550h68l-19 -262h-89l-11 146h-424l-11 -146h-89z"/>
<glyph glyph-name="afii10022" horiz-adv-x="530" unicode="Е" d="M83 0v666h384v-116h-245v-150h216v-110h-216v-174h252v-116h-391z"/>
<glyph glyph-name="afii10024" horiz-adv-x="970" unicode="Ж" d="M37 0l1 115h9q37 0 69 43q13 17 60 96q47 76 76 103l-231 309h152l195 -275h46v275h141v-275h47l195 275h151l-231 -309q28 -26 77 -103q57 -96 76 -116q24 -23 53 -23h10l-1 -115h-58q-57 0 -92.5 29.5t-85.5 112.5q-9 14 -21.5 35t-18.5 31.5t-15.5 24.5t-15.5 20.5 t-14 14t-15.5 10t-15.5 2.5h-25v-280h-141v280h-26q-8 0 -15.5 -3t-15.5 -10.5t-13.5 -13.5t-15 -20.5t-15.5 -24.5t-18.5 -31t-20.5 -35q-50 -83 -85.5 -112.5t-92.5 -29.5h-59z"/>
<glyph glyph-name="afii10025" horiz-adv-x="534" unicode="З" d="M230 -12q-127 0 -209 58l63 102q59 -45 149 -45q119 0 119 92q0 46 -33 71t-92 25h-75v101h59q56 0 87 22.5t31 65.5q0 39 -26 60.5t-74 21.5q-82 0 -141 -46l-56 98q74 64 199 64q106 0 171.5 -45.5t65.5 -129.5q0 -126 -116 -156v-2q62 -9 102.5 -52t40.5 -111 q0 -96 -73.5 -145t-191.5 -49z"/>
<glyph glyph-name="afii10026" horiz-adv-x="744" unicode="И" d="M83 0v666h131v-356q0 -72 -4 -104h2q23 42 70 112l237 348h142v-666h-131v385q0 25 2 57l1 31h-2q-21 -39 -64 -100l-255 -373h-129z"/>
<glyph glyph-name="afii10027" horiz-adv-x="744" unicode="Й" d="M373 706q-66 0 -114 38t-55 113h109q5 -65 60 -65q53 0 60 65h108q-6 -74 -54 -112.5t-114 -38.5zM83 0v666h131v-356q0 -72 -4 -104h2q23 42 70 112l237 348h142v-666h-131v385q0 25 2 57l1 31h-2q-21 -39 -64 -100l-255 -373h-129z"/>
<glyph glyph-name="afii10028" horiz-adv-x="638" unicode="К" d="M83 0v666h140v-275h47l195 275h151l-231 -309q28 -26 77 -103q57 -95 75 -114q24 -25 54 -25h10l-1 -115h-58q-57 0 -92.5 29.5t-85.5 112.5q-9 14 -21 35t-18.5 31.5t-15.5 24.5t-15 21t-14 14t-15.5 9.5t-16.5 2.5h-25v-280h-140z"/>
<glyph glyph-name="afii10029" horiz-adv-x="694" unicode="Л" d="M37 -10l-15 109q53 6 77 62t34 173l27 332h452v-666h-141v550h-187l-18 -252q-12 -163 -67 -235.5t-162 -72.5z"/>
<glyph glyph-name="afii10030" horiz-adv-x="882" unicode="М" d="M41 0l92 666h137l134 -411q9 -28 21 -70t13 -45h2q17 60 35 115l138 411h136l92 -666h-144l-43 344q-10 78 -11 97h-2q-5 -27 -27 -95l-113 -346h-139l-113 345q-6 19 -11.5 39t-10 36.5t-5.5 20.5h-2q-3 -45 -9 -98l-43 -343h-127z"/>
<glyph glyph-name="afii10031" horiz-adv-x="745" unicode="Н" d="M83 0v666h141v-262h298v262h141v-666h-141v288h-298v-288h-141z"/>
<glyph glyph-name="afii10032" d="M387 102q95 0 144.5 65t49.5 165t-48.5 166t-142.5 66q-96 0 -146.5 -64.5t-50.5 -163.5q0 -100 49.5 -167t144.5 -67zM390 -12q-160 0 -253.5 100.5t-93.5 243.5q0 144 92 245t252 101t251.5 -100t91.5 -242q0 -145 -90.5 -246.5t-249.5 -101.5z" unicode="О"/>
<glyph glyph-name="afii10033" horiz-adv-x="724" unicode="П" d="M83 0v666h559v-666h-141v550h-277v-550h-141z"/>
<glyph glyph-name="afii10034" horiz-adv-x="592" unicode="Р" d="M224 344h63q66 0 96.5 27t30.5 83q0 104 -124 104h-66v-214zM83 0v666h218q114 0 184.5 -53.5t70.5 -156.5q0 -107 -72 -163t-198 -56h-62v-237h-141z"/>
<glyph glyph-name="afii10035" horiz-adv-x="618" unicode="С" d="M385 -12q-162 0 -252 100.5t-90 245.5q0 144 91.5 244t252.5 100q119 0 200 -53l-63 -103q-60 39 -139 39q-90 0 -141 -63.5t-51 -159.5q0 -101 50.5 -166.5t143.5 -65.5q82 0 151 51l58 -99q-30 -27 -87 -48.5t-124 -21.5z"/>
<glyph glyph-name="afii10036" horiz-adv-x="537" unicode="Т" d="M198 0v550h-184v116h509v-116h-183v-550h-142z"/>
<glyph glyph-name="afii10037" horiz-adv-x="592" unicode="У" d="M135 -3q-42 0 -67 9l19 105q13 -5 39 -5q36 0 59 21.5t43 64.5l10 25l-202 449h136l135 -309l135 309h136l-225 -500q-41 -92 -89 -130.5t-129 -38.5z"/>
<glyph glyph-name="afii10038" horiz-adv-x="797" unicode="Ф" d="M337 172v337q-75 -1 -121 -47.5t-46 -119.5t46.5 -121t120.5 -49zM460 172q77 1 122.5 48t45.5 120q0 74 -46 121t-122 48v-337zM328 0v70q-135 3 -217.5 79t-82.5 191q0 112 83 189.5t217 81.5v55h141v-55q136 -4 217.5 -79t81.5 -190q0 -116 -81 -192.5t-218 -79.5v-70 h-141z"/>
<glyph glyph-name="afii10039" horiz-adv-x="616" unicode="Х" d="M19 0l211 342l-201 324h160l126 -208l118 208h142l-192 -322l214 -344h-160l-140 230l-135 -230h-143z"/>
<glyph glyph-name="afii10040" horiz-adv-x="745" unicode="Ц" d="M594 -146l-11 146h-500v666h140v-550h269v550h142v-550h68l-19 -262h-89z"/>
<glyph glyph-name="afii10041" horiz-adv-x="657" unicode="Ч" d="M435 0v260q-25 -33 -78 -60t-117 -27q-89 0 -140.5 52.5t-51.5 138.5v302h140v-274q0 -52 28 -79.5t75 -27.5q43 0 82.5 22t61.5 48v311h140v-666h-140z"/>
<glyph glyph-name="afii10042" horiz-adv-x="1046" unicode="Ш" d="M83 0v666h140v-550h226v550h141v-550h225v550h141v-666h-873z"/>
<glyph glyph-name="afii10043" horiz-adv-x="1068" unicode="Щ" d="M917 -146l-11 146h-823v666h140v-550h226v550h141v-550h225v550h141v-550h69l-19 -262h-89z"/>
<glyph glyph-name="afii10044" horiz-adv-x="673" unicode="Ъ" d="M300 107h73q66 0 96.5 27t30.5 83q0 104 -124 104h-76v-214zM159 0v550h-145v116h286v-237h87q114 0 184.5 -53.5t70.5 -155.5q0 -107 -72 -163.5t-198 -56.5h-213z"/>
<glyph glyph-name="afii10045" horiz-adv-x="894" unicode="Ы" d="M224 107h72q128 0 128 110q0 104 -124 104h-76v-214zM83 0v666h141v-237h87q113 0 183.5 -53.5t70.5 -155.5q0 -107 -72 -163.5t-198 -56.5h-212zM670 0v666h141v-666h-141z"/>
<glyph glyph-name="afii10046" horiz-adv-x="597" unicode="Ь" d="M224 107h72q128 0 128 110q0 104 -124 104h-76v-214zM83 0v666h141v-237h87q113 0 183.5 -53.5t70.5 -155.5q0 -107 -72 -163.5t-198 -56.5h-212z"/>
<glyph glyph-name="afii10047" horiz-adv-x="618" unicode="Э" d="M229 -12q-129 0 -208 57l64 103q59 -43 146 -43q78 0 128.5 48.5t60.5 124.5h-270v110h269q-10 75 -58.5 123.5t-128.5 48.5q-81 0 -143 -47l-58 99q32 26 85.5 46t118.5 20q163 0 251 -99t88 -246q0 -144 -92 -244.5t-253 -100.5z"/>
<glyph glyph-name="afii10048" horiz-adv-x="1101" unicode="Ю" d="M714 102q96 0 145.5 65t49.5 165t-48.5 166t-142.5 66q-97 0 -147.5 -64.5t-50.5 -163.5q0 -100 50 -167t144 -67zM718 -12q-147 0 -238 86t-106 214h-150v-288h-141v666h141v-262h154q22 119 110 196.5t226 77.5q108 0 187.5 -48.5t118 -125t38.5 -168.5 q0 -145 -90.5 -246.5t-249.5 -101.5z"/>
<glyph glyph-name="afii10049" horiz-adv-x="624" unicode="Я" d="M323 374h77v184h-71q-116 0 -116 -91q0 -93 110 -93zM40 0v115h10q21 0 40 14.5t32.5 34t42.5 66.5q38 55 62 67v2q-66 8 -110 54.5t-44 120.5q0 93 64 142.5t182 49.5h223v-666h-142v278h-13q-8 -1 -15 -4.5t-14.5 -11.5t-13 -14t-14.5 -20t-15 -23.5t-18 -30t-20 -32.5 q-51 -84 -86 -113t-92 -29h-59z"/>
<glyph glyph-name="afii10065" horiz-adv-x="502" unicode="а" d="M220 85q52 0 90 43v88h-17q-132 0 -132 -80q0 -25 17 -38t42 -13zM180 -12q-64 0 -105.5 36.5t-41.5 100.5q0 88 75.5 130.5t184.5 42.5h17v28q0 36 -18 52t-61 16q-66 0 -124 -46l-58 81q76 70 197 70q101 0 148.5 -42.5t47.5 -137.5v-175q0 -82 14 -144h-131 q-6 17 -8 52q-52 -64 -137 -64z"/>
<glyph glyph-name="afii10066" horiz-adv-x="552" unicode="б" d="M285 89q46 0 71 39.5t25 110.5q0 70 -24 111.5t-72 41.5q-62 0 -103 -56q-1 -11 -1 -37q0 -210 104 -210zM283 -12q-125 0 -183 91t-58 242q0 163 61 258t206 122l161 30l18 -111l-160 -27q-144 -26 -151 -157q52 52 129 52q93 0 154 -66t61 -181t-68 -184t-170 -69z"/>
<glyph glyph-name="afii10067" horiz-adv-x="520" unicode="в" d="M202 290h67q71 0 71 54q0 50 -69 50h-69v-104zM202 95h76q42 0 61 12.5t19 41.5q0 57 -75 57h-81v-111zM71 0v487h213q183 0 183 -124q0 -89 -90 -111v-1q48 -6 79 -36t31 -80q0 -135 -205 -135h-211z"/>
<glyph glyph-name="afii10068" horiz-adv-x="406" unicode="г" d="M71 0v487h320v-104h-187v-383h-133z"/>
<glyph glyph-name="afii10069" horiz-adv-x="595" unicode="д" d="M182 104h189v279h-130l-18 -157q-10 -85 -41 -122zM37 -146l-21 250h38q38 29 51 141l31 242h364v-383h55l-19 -250h-84l-12 146h-307l-11 -146h-85z"/>
<glyph glyph-name="afii10070" horiz-adv-x="519" unicode="е" d="M171 303h182q-2 100 -84 100t-98 -100zM285 -12q-120 0 -187.5 70t-67.5 188q0 113 69 183t172 70t157.5 -62.5t54.5 -177.5q0 -14 -2 -46h-308q5 -57 35.5 -91.5t88.5 -34.5q59 0 127 34l43 -86q-84 -47 -182 -47z"/>
<glyph glyph-name="afii10072" horiz-adv-x="795" unicode="ж" d="M30 0v97h7q18 0 34.5 18.5t48.5 73.5q34 57 62 79l-167 219h143l142 -197h31v197h133v-197h30l142 197h144l-167 -219q29 -24 62 -79q32 -55 48.5 -73.5t33.5 -18.5h8l-1 -97h-56q-45 0 -71 21.5t-63 83.5q-33 56 -51 75.5t-40 20.5h-19v-201h-133v201h-20 q-21 -1 -39 -21t-51 -75q-38 -62 -64 -83.5t-71 -21.5h-56z"/>
<glyph glyph-name="afii10073" horiz-adv-x="431" unicode="з" d="M23 36l46 85q47 -31 121 -31q80 0 80 59q0 28 -29 43t-69 15h-38v82h35q37 0 60.5 14.5t23.5 40.5q0 25 -18.5 40t-51.5 15q-64 0 -110 -29l-43 84q69 44 156 44q82 0 137.5 -33.5t55.5 -101.5q0 -89 -90 -111v-1q48 -6 79 -36t31 -80q0 -72 -57.5 -108.5t-150.5 -36.5 q-106 0 -168 46z"/>
<glyph glyph-name="afii10074" horiz-adv-x="601" unicode="и" d="M71 0v487h119v-226q0 -11 -0.5 -23t-1 -22t-1 -18.5t-1.5 -13.5v-6h2l7 12q7 11 21 32.5t28 43.5l154 221h132v-487h-119v248l3 72h-2l-6 -9q-6 -9 -20 -29.5t-28 -41.5l-168 -240h-119z"/>
<glyph glyph-name="afii10075" horiz-adv-x="601" unicode="й" d="M296 530q-66 0 -114 38t-55 113h109q5 -65 60 -65q54 0 60 65h108q-6 -74 -54 -112.5t-114 -38.5zM71 0v487h119v-226q0 -11 -0.5 -23t-1 -22t-1 -18.5t-1.5 -13.5v-6h2l7 12q7 11 21 32.5t28 43.5l154 221h132v-487h-119v248l3 72h-2l-6 -9q-6 -9 -20 -29.5t-28 -41.5 l-168 -240h-119z"/>
<glyph glyph-name="afii10076" horiz-adv-x="535" unicode="к" d="M71 0v487h133v-197h31l142 197h143l-166 -219q27 -23 61 -79q32 -55 48.5 -73.5t34.5 -18.5h8l-1 -97h-56q-45 0 -71 21.5t-64 83.5q-33 56 -50.5 75.5t-39.5 20.5h-19l-1 -201h-133z"/>
<glyph glyph-name="afii10077" horiz-adv-x="570" unicode="л" d="M36 -7l-18 97q36 5 56 41t27 114l24 242h374v-487h-133v383h-131l-13 -164q-10 -118 -56.5 -172t-129.5 -54z"/>
<glyph glyph-name="afii10078" horiz-adv-x="699" unicode="м" d="M34 0l71 487h129l90 -281q22 -62 22 -80h2q0 15 23 80l95 281h129l69 -487h-135l-27 216l-7 73h-2q-9 -34 -20 -71l-68 -218h-127l-68 218l-19 71h-2q-2 -39 -6 -73l-30 -216h-119z"/>
<glyph glyph-name="afii10079" horiz-adv-x="595" unicode="н" d="M71 0v487h133v-183h187v183h133v-487h-133v197h-187v-197h-133z"/>
<glyph glyph-name="afii10080" horiz-adv-x="550" unicode="о" d="M276 89q103 0 103 153q0 72 -26.5 115t-81.5 43q-100 0 -100 -154q0 -72 25.5 -114.5t79.5 -42.5zM274 -12q-119 0 -181.5 75t-62.5 179t62 180.5t181 76.5q81 0 138.5 -38t83 -93.5t25.5 -121.5q0 -103 -63.5 -180.5t-182.5 -77.5z"/>
<glyph glyph-name="afii10081" horiz-adv-x="585" unicode="п" d="M71 0v487h443v-487h-133v381h-177v-381h-133z"/>
<glyph glyph-name="afii10082" horiz-adv-x="566" unicode="р" d="M288 91q51 0 78.5 40t27.5 113q0 70 -25 109.5t-73 39.5q-53 0 -92 -50v-219q37 -33 84 -33zM71 -219v706h131v-51q50 63 135 63q92 0 145 -67t53 -188q0 -115 -61 -185.5t-157 -70.5q-73 0 -113 35v-242h-133z"/>
<glyph glyph-name="afii10083" horiz-adv-x="458" unicode="с" d="M282 -12q-116 0 -184 70.5t-68 184.5q0 120 71.5 188t184.5 68q89 0 149 -39l-43 -91q-46 29 -102 29q-57 0 -88 -41t-31 -110q0 -71 31 -113.5t91 -42.5q55 0 105 30l41 -89q-67 -44 -157 -44z"/>
<glyph glyph-name="afii10084" horiz-adv-x="451" unicode="т" d="M158 0v382h-144v105h423v-105h-145v-382h-134z"/>
<glyph glyph-name="afii10085" horiz-adv-x="512" unicode="у" d="M73 -234q-45 0 -75 9l19 105q17 -5 47 -5q48 0 71.5 21t39.5 64l18 50l-183 477h142l110 -321h3l99 321h137l-201 -539q-35 -94 -84 -138t-143 -44z"/>
<glyph glyph-name="afii10086" horiz-adv-x="787" unicode="ф" d="M616 243q0 71 -23.5 112.5t-67.5 41.5q-41 0 -73 -32v-242q32 -32 73 -32q44 0 67.5 41t23.5 111zM171 245q0 -71 23.5 -112.5t67.5 -41.5q41 0 73 32v242q-32 32 -73 32q-45 0 -68 -41t-23 -111zM460 -219h-132v235q-39 -28 -94 -28q-92 0 -147.5 70.5t-55.5 184.5 q0 115 55.5 186t147.5 71q54 0 94 -29v249h132v-249q38 29 93 29q92 0 147.5 -70.5t55.5 -184.5q0 -115 -55.5 -186t-147.5 -71q-56 0 -93 28v-235z"/>
<glyph glyph-name="afii10087" horiz-adv-x="511" unicode="х" d="M16 0l166 252l-160 235h150q85 -129 88 -133l78 133h137l-151 -229l172 -258h-150l-101 156l-92 -156h-137z"/>
<glyph glyph-name="afii10088" horiz-adv-x="609" unicode="ц" d="M466 -146l-12 146h-383v487h133v-381h176v381h133v-383h56l-19 -250h-84z"/>
<glyph glyph-name="afii10089" horiz-adv-x="561" unicode="ч" d="M356 0v192q-61 -75 -155 -75q-77 0 -112.5 43t-35.5 115v212h133v-184q0 -75 66 -75q56 0 104 62v197h134v-487h-134z"/>
<glyph glyph-name="afii10090" horiz-adv-x="861" unicode="ш" d="M71 0v487h133v-381h160v381h133v-381h159v381h134v-487h-719z"/>
<glyph glyph-name="afii10091" horiz-adv-x="886" unicode="щ" d="M743 -146l-12 146h-660v487h133v-381h160v381h133v-381h159v381h134v-383h56l-19 -250h-84z"/>
<glyph glyph-name="afii10092" horiz-adv-x="561" unicode="ъ" d="M261 95h61q86 0 86 70q0 67 -82 67h-65v-137zM129 0v383h-115v104h247v-158h76q91 0 146.5 -41t55.5 -122q0 -82 -57 -124t-159 -42h-194z"/>
<glyph glyph-name="afii10093" d="M204 95h61q86 0 86 70q0 67 -82 67h-65v-137zM71 0v487h133v-158h75q91 0 147 -41t56 -122q0 -82 -57.5 -124t-159.5 -42h-194zM567 0v487h134v-487h-134z" unicode="ы"/>
<glyph glyph-name="afii10094" horiz-adv-x="503" unicode="ь" d="M204 95h61q86 0 86 70q0 67 -82 67h-65v-137zM71 0v487h133v-158h75q91 0 147 -41t56 -122q0 -82 -57.5 -124t-159.5 -42h-194z"/>
<glyph glyph-name="afii10095" horiz-adv-x="481" unicode="э" d="M179 -8q-100 0 -160 45l55 94q44 -32 105 -32q52 0 87 28t40 72h-199v89h199q-6 46 -39.5 74t-85.5 28q-57 0 -105 -32l-50 93q65 46 160 46q128 0 196 -72t68 -179q0 -109 -71 -181.5t-200 -72.5z"/>
<glyph glyph-name="afii10096" horiz-adv-x="832" unicode="ю" d="M558 89q102 0 102 153q0 72 -26.5 115t-80.5 43q-100 0 -100 -154q0 -157 105 -157zM556 -12q-105 0 -166 60t-74 149h-112v-197h-133v487h133v-183h115q17 84 76.5 139.5t159.5 55.5q119 0 183 -75t64 -178q0 -65 -25 -122t-82.5 -96.5t-138.5 -39.5z"/>
<glyph glyph-name="afii10097" horiz-adv-x="534" unicode="я" d="M263 275h67v115h-61q-77 0 -77 -58q0 -57 71 -57zM29 0v97h7q16 0 31.5 14.5t39.5 52.5q26 43 54 54v1q-40 8 -71 40t-31 81q0 72 52.5 109.5t149.5 37.5h202v-487h-133v186h-24q-22 0 -39 -17.5t-47 -67.5q-36 -60 -62 -80.5t-72 -20.5h-57z"/>
<glyph glyph-name="afii10071" horiz-adv-x="519" unicode="ё" d="M171 303h182q-2 100 -84 100t-98 -100zM285 -12q-120 0 -187.5 70t-67.5 188q0 113 69 183t172 70t157.5 -62.5t54.5 -177.5q0 -14 -2 -46h-308q5 -57 35.5 -91.5t88.5 -34.5q59 0 127 34l43 -86q-84 -47 -182 -47zM369 542q-32 0 -53 21t-21 51q0 29 21 50t53 21t53 -21 t21 -50q0 -30 -21 -51t-53 -21zM159 542q-32 0 -53 21t-21 51q0 29 21 50t53 21t53 -21t21 -50q0 -30 -21 -51t-53 -21z"/>
<glyph glyph-name="afii10099" horiz-adv-x="561" unicode="ђ" d="M345 -147l-56 79q96 75 96 298q0 147 -100 147q-48 0 -81 -37v-340h-133v563h-43v99h43v58h133v-58h153v-99h-153v-131q48 50 118 50q91 0 145.5 -64t54.5 -188q0 -128 -47 -229.5t-130 -147.5z"/>
<glyph glyph-name="afii10100" horiz-adv-x="406" unicode="ѓ" d="M71 0v487h320v-104h-187v-383h-133zM168 541l83 135h172l-140 -135h-115z"/>
<glyph glyph-name="afii10101" horiz-adv-x="480" unicode="є" d="M296 -8q-128 0 -197 71.5t-69 179.5t71 180.5t200 72.5q95 0 156 -42l-55 -93q-44 29 -100 29q-52 0 -87 -27.5t-40 -72.5h195v-90h-196q7 -46 40.5 -74t85.5 -28q59 0 110 36l51 -94q-65 -48 -165 -48z"/>
<glyph glyph-name="afii10102" horiz-adv-x="420" unicode="ѕ" d="M199 -12q-104 0 -173 46l45 93q58 -40 120 -40q80 0 80 44q0 10 -5.5 17.5t-18.5 14t-25.5 12t-34.5 14.5t-39 17q-55 26 -82 58.5t-27 85.5q0 68 49.5 108.5t132.5 40.5q90 0 156 -39l-47 -91q-49 31 -104 31q-67 0 -67 -43q0 -10 4 -17t16 -14t20 -10.5t29.5 -11 t30.5 -11.5q66 -28 99.5 -60t33.5 -89q0 -76 -51 -116t-142 -40z"/>
<glyph glyph-name="afii10103" horiz-adv-x="280" unicode="і" d="M73 0v487h134v-487h-134zM140 550q-35 0 -58 23.5t-23 56.5q0 32 23 55t58 23t58.5 -23t23.5 -55q0 -33 -23.5 -56.5t-58.5 -23.5z"/>
<glyph glyph-name="afii10104" horiz-adv-x="280" unicode="ї" d="M73 0v487h134v-487h-134zM246 542q-32 0 -53 21t-21 51q0 29 21 50t53 21t53 -21t21 -50q0 -30 -21 -51t-53 -21zM36 542q-32 0 -53 21t-21 51q0 29 21 50t53 21t53 -21t21 -50q0 -30 -21 -51t-53 -21z"/>
<glyph glyph-name="afii10105" horiz-adv-x="275" unicode="ј" d="M137 550q-35 0 -58 23.5t-23 56.5q0 32 23 55t58 23t58.5 -23t23.5 -55q0 -33 -23.5 -56.5t-58.5 -23.5zM37 -233q-58 0 -87 12l23 103q18 -6 38 -6q34 0 47 23.5t13 80.5v507h134v-521q0 -199 -168 -199z"/>
<glyph glyph-name="afii10106" horiz-adv-x="805" unicode="љ" d="M505 95h61q86 0 86 70q0 67 -82 67h-65v-137zM36 -7l-18 97q36 5 56 41t27 114l24 242h380v-158h76q91 0 146.5 -41t55.5 -122q0 -82 -57.5 -124t-159.5 -42h-194v383h-138l-13 -164q-10 -119 -56 -172.5t-129 -53.5z"/>
<glyph glyph-name="afii10107" horiz-adv-x="835" unicode="њ" d="M534 95h63q86 0 86 66q0 62 -82 62h-67v-128zM71 0v487h133v-167h197v167h133v-167h77q93 0 148 -39t55 -119q0 -82 -57 -122t-160 -40h-196v216h-197v-216h-133z"/>
<glyph glyph-name="afii10108" horiz-adv-x="562" unicode="ћ" d="M69 0v563h-43v99h43v58h133v-58h153v-99h-153v-144q63 71 152 71q76 0 111 -42.5t35 -115.5v-332h-133v305q0 38 -15 56t-50 18q-53 0 -100 -61v-318h-133z"/>
<glyph glyph-name="afii10109" horiz-adv-x="535" unicode="ќ" d="M71 0v487h133v-197h31l142 197h143l-166 -219q27 -23 61 -79q32 -55 48.5 -73.5t34.5 -18.5h8l-1 -97h-56q-45 0 -71 21.5t-64 83.5q-33 56 -50.5 75.5t-39.5 20.5h-19l-1 -201h-133zM196 541l83 135h172l-140 -135h-115z"/>
<glyph glyph-name="afii10110" horiz-adv-x="512" unicode="ў" d="M263 530q-66 0 -114 38t-55 113h109q5 -65 60 -65q53 0 60 65h108q-6 -74 -54 -112.5t-114 -38.5zM73 -234q-45 0 -75 9l19 105q17 -5 47 -5q48 0 71.5 21t39.5 64l18 50l-183 477h142l110 -321h3l99 321h137l-201 -539q-35 -94 -84 -138t-143 -44z"/>
<glyph glyph-name="afii10193" horiz-adv-x="587" unicode="џ" d="M251 -146l-8 146h-172v487h133v-381h179v381h133v-487h-173l-7 -146h-85z"/>
<glyph glyph-name="afii10050" horiz-adv-x="491" unicode="Ґ" d="M83 0v666h281l11 148h89l19 -262h-259v-552h-141z"/>
<glyph glyph-name="afii10098" horiz-adv-x="406" unicode="ґ" d="M71 0v487h216l10 146h85l23 -250h-201v-383h-133z"/>
<glyph glyph-name="endash" horiz-adv-x="550" unicode="–" d="M48 217v103h454v-103h-454z"/>
<glyph glyph-name="emdash" horiz-adv-x="870" unicode="—" d="M48 217v103h774v-103h-774z"/>
<glyph glyph-name="quoteleft" horiz-adv-x="225" unicode="‘" d="M121 389q-38 0 -64.5 27t-26.5 71q0 46 22 95t49 84h83q-37 -50 -37 -94q0 -24 25.5 -52.5t25.5 -58.5q0 -31 -22 -51.5t-55 -20.5z"/>
<glyph glyph-name="quotesinglbase" horiz-adv-x="253" unicode="‚" d="M56 -125q37 53 37 94q0 24 -26 52.5t-26 58.5q0 31 22.5 51t55.5 20q38 0 64.5 -26.5t26.5 -70.5q0 -46 -22.5 -95.5t-49.5 -83.5h-82z"/>
<glyph glyph-name="quotedblleft" horiz-adv-x="435" unicode="“" d="M331 389q-38 0 -65 27t-27 71q0 46 22 95t50 84h82q-37 -53 -37 -94q0 -24 26 -52.5t26 -58.5q0 -31 -22 -51.5t-55 -20.5zM116 389q-38 0 -64.5 27t-26.5 71q0 46 22 95t50 84h82q-37 -53 -37 -94q0 -24 26 -52.5t26 -58.5q0 -31 -22.5 -51.5t-55.5 -20.5z"/>
<glyph glyph-name="quotedblright" horiz-adv-x="435" unicode="”" d="M256 401q37 53 37 95q0 24 -26 52t-26 59t22.5 51t55.5 20q38 0 64.5 -27t26.5 -71q0 -86 -71 -179h-83zM42 401q37 53 37 95q0 24 -26 52t-26 59t22.5 51t55.5 20q38 0 64.5 -27t26.5 -71q0 -46 -22 -95t-50 -84h-82z"/>
<glyph glyph-name="dagger" horiz-adv-x="558" unicode="†" d="M236 -170l-34 424l20 126l-72 -9h-110v116h110l72 -9l-15 105v137h144v-137l-14 -105l71 9h110v-116h-110l-71 9l18 -126l-33 -424h-86z"/>
<glyph glyph-name="daggerdbl" horiz-adv-x="569" unicode="‡" d="M207 -169v118l15 105l-72 -9h-110v117h110l72 -10l-19 114l19 114l-72 -9h-110v116h110l72 -9l-15 105v137h144v-137l-14 -105l71 9h110v-116h-110l-71 9l17 -114l-17 -114l71 10h110v-117h-110l-71 9l14 -105v-118h-144z"/>
<glyph glyph-name="ellipsis" horiz-adv-x="759" unicode="…" d="M617 -10q-36 0 -62 25t-26 61q0 35 26 59.5t62 24.5q37 0 62.5 -24.5t25.5 -59.5q0 -36 -25.5 -61t-62.5 -25zM379 -10q-36 0 -61.5 25t-25.5 61q0 35 25.5 59.5t61.5 24.5q37 0 62.5 -24.5t25.5 -59.5q0 -36 -25.5 -61t-62.5 -25zM142 -10q-37 0 -62.5 25t-25.5 61 q0 35 25.5 59.5t62.5 24.5t62.5 -24.5t25.5 -59.5q0 -36 -25.5 -61t-62.5 -25z"/>
<glyph glyph-name="perthousand" horiz-adv-x="1245" unicode="‰" d="M234 0l293 488h110l-292 -488h-111zM1051 69q57 0 57 74q0 33 -14 54.5t-44 21.5q-59 0 -59 -73q0 -32 15 -54.5t45 -22.5zM1049 -12q-81 0 -125.5 44.5t-44.5 110.5q0 64 45.5 110.5t126.5 46.5t125.5 -44t44.5 -110q0 -64 -46 -111t-126 -47zM676 69q56 0 56 74 q0 33 -14 54.5t-44 21.5q-58 0 -58 -73q0 -32 15 -54.5t45 -22.5zM674 -12q-81 0 -125.5 44.5t-44.5 110.5q0 64 45.5 110.5t126.5 46.5t125 -44t44 -110q0 -65 -45.5 -111.5t-125.5 -46.5zM196 268q57 0 57 74q0 33 -14 54.5t-44 21.5q-58 0 -58 -72q0 -33 14.5 -55.5 t44.5 -22.5zM194 187q-81 0 -125.5 45t-44.5 110q0 64 45.5 110.5t126.5 46.5q82 0 126 -44t44 -109t-45.5 -112t-126.5 -47z"/>
<glyph glyph-name="guilsinglleft" horiz-adv-x="320" unicode="‹" d="M152 53l-120 192l120 193h140l-119 -193l119 -192h-140z"/>
<glyph glyph-name="guilsinglright" horiz-adv-x="320" unicode="›" d="M28 53l120 193l-120 192h140l120 -192l-120 -193h-140z"/>
<glyph glyph-name="fraction" horiz-adv-x="137" unicode="⁄" d="M-190 0l409 666h105l-408 -666h-106z"/>
<glyph glyph-name="Euro" horiz-adv-x="587" unicode="€" d="M34 358v92h71q25 106 98.5 167t187.5 61q111 0 176 -43l-56 -104q-57 32 -117 32q-106 0 -143 -113h159v-92h-174v-20q0 -25 1 -37h173v-92h-156q37 -105 140 -105q69 0 125 41l55 -100q-79 -57 -185 -57q-104 0 -180 55t-103 166h-72v92h59q-1 10 -1 33v24h-58z"/>
<glyph glyph-name="trademark" horiz-adv-x="739" unicode="™" d="M120 370v228h-87v68h256v-68h-86v-228h-83zM311 370l40 296h83l53 -145q17 -48 17 -60h2l2 7q2 6 4 13.5t5.5 18.5t7.5 21l52 145h85l39 -296h-85l-13 129q-3 36 -3 52h-2q0 -14 -16 -61l-44 -120h-73l-40 119q-4 12 -8.5 27t-7 24.5t-2.5 10.5h-2q0 -14 -4 -53l-14 -128 h-76z"/>
<glyph glyph-name="partialdiff" horiz-adv-x="630" unicode="∂" d="M282 105q58 0 100.5 48.5t55.5 128.5q-21 17 -63 30t-81 13q-50 0 -78.5 -34.5t-28.5 -87.5q0 -42 28 -70t67 -28zM268 -11q-96 0 -162 63t-66 150q0 105 68 169t168 64q95 0 163 -34q-9 57 -35 96.5t-67 60t-85 28.5t-101 8l33 122q10 1 32 1q177 0 275.5 -94t98.5 -264 q0 -161 -88.5 -265.5t-233.5 -104.5z"/>
<glyph glyph-name="product" horiz-adv-x="899" unicode="∏" d="M170 -224v805h-109v119h756v-119h-109v-805h-133v805h-272v-805h-133z"/>
<glyph glyph-name="summation" horiz-adv-x="658" unicode="∑" d="M53 -146v87l273 400l-257 350v88h531v-116h-376l238 -318l-256 -376h409v-115h-562z"/>
<glyph glyph-name="minus" horiz-adv-x="550" unicode="−" d="M86 227v101h369v-101h-369z"/>
<glyph glyph-name="radical" horiz-adv-x="582" unicode="√" d="M210 0l-187 487h141l108 -310h2l168 543h135l-243 -720h-124z"/>
<glyph glyph-name="infinity" horiz-adv-x="947" unicode="∞" d="M700 191q30 0 54.5 19t24.5 47q0 30 -25 48t-59 18q-43 0 -129 -64q89 -68 134 -68zM247 191q43 0 130 65q-88 67 -133 67q-31 0 -56 -18t-25 -46q0 -30 25 -49t59 -19zM243 79q-85 0 -142.5 49t-57.5 126t60 129.5t143 52.5q93 0 228 -105q135 105 227 105 q84 0 140.5 -49t56.5 -126q0 -78 -60 -130t-144 -52q-92 0 -225 105q-136 -105 -226 -105z"/>
<glyph glyph-name="logicaland" horiz-adv-x="258" unicode="∧" d="M129 204q-37 0 -62.5 25t-25.5 61t25.5 61t62.5 25t62.5 -25t25.5 -61t-25.5 -61t-62.5 -25z"/>
<glyph glyph-name="approxequal" horiz-adv-x="635" unicode="≈" d="M107 301l-54 93q28 35 70 56.5t90 21.5q50 0 108.5 -29t88.5 -29q26 0 56 15.5t53 41.5l50 -95q-28 -35 -72.5 -55.5t-93.5 -20.5t-108.5 29t-87.5 29q-53 0 -100 -57zM117 93l-54 93q64 78 160 78q50 0 108.5 -29t88.5 -29q59 0 109 58l50 -96q-28 -35 -72.5 -55 t-93.5 -20t-108 29t-88 29q-53 0 -100 -58z"/>
<glyph glyph-name="notequal" horiz-adv-x="665" unicode="≠" d="M220 -36l-87 48l68 113h-140v98h200l40 66h-240v98h300l84 138l88 -49l-57 -89h128v-98h-188l-40 -66h228v-98h-288z"/>
<glyph glyph-name="lessequal" horiz-adv-x="549" unicode="≤" d="M64 -153v103h452v-103h-452zM516 4l-452 202v92l452 201v-122l-315 -125l315 -125v-123z"/>
<glyph glyph-name="greaterequal" horiz-adv-x="580" unicode="≥" d="M64 -153v103h452v-103h-452zM64 4v123l315 125l-315 125v122l452 -201v-92z"/>
<glyph glyph-name="dotmath" horiz-adv-x="258" unicode="⋅" d="M129 204q-37 0 -62.5 25t-25.5 61t25.5 61t62.5 25t62.5 -25t25.5 -61t-25.5 -61t-62.5 -25z"/>
<glyph glyph-name="lozenge" horiz-adv-x="706" unicode="◊" d="M363 126l150 214l-156 202l-151 -214zM303 -2l-254 327l252 350h113l256 -330l-251 -347h-116z"/>
</font>
</defs>
</svg>
