<?xml version="1.0" encoding="UTF-8" standalone="no"?>
<!DOCTYPE svg  PUBLIC '-//W3C//DTD SVG 1.1//EN'  'http://www.w3.org/Graphics/SVG/1.1/DTD/svg11.dtd'>
<svg xmlns="http://www.w3.org/2000/svg">
<defs>
<font id="KievitPro-Book" horiz-adv-x="478">
<font-face underline-position="-113" font-weight="500" descent="-200" panose-1="2 0 5 3 4 0 0 2 0 4" units-per-em="1000" unicode-range="U+0020-25CA" bbox="-190 -250 1077 897" x-height="481" underline-thickness="20" font-family="KievitPro" ascent="800" cap-height="666"/>
<missing-glyph horiz-adv-x="1000"/>
<glyph glyph-name=".notdef" horiz-adv-x="1000"/>
<glyph glyph-name=".null" horiz-adv-x="0"/>
<glyph glyph-name=".null" horiz-adv-x="0"/>
<glyph glyph-name="nonmarkingreturn" horiz-adv-x="333"/>
<glyph glyph-name="space" horiz-adv-x="219" unicode=" "/>
<glyph glyph-name="exclam" horiz-adv-x="281" unicode="!" d="M106 204l-18 462h103l-17 -462h-68zM140 -8q-26 0 -44.5 18t-18.5 44q0 25 18.5 43t44.5 18q25 0 43.5 -18t18.5 -43q0 -26 -18 -44t-44 -18z"/>
<glyph glyph-name="quotedbl" horiz-adv-x="338" unicode='&quot;' d="M209 440l-12 226h100l-24 -226h-64zM66 440l-24 226h99l-11 -226h-64z"/>
<glyph glyph-name="numbersign" horiz-adv-x="500" unicode="#" d="M195 308h97l17 107h-99zM98 102l21 141h-96l11 66h96l16 106h-96l11 66h94l20 129h65l-20 -129h97l20 129h65l-19 -129h94l-11 -66h-93l-16 -106h94l-11 -66h-93l-20 -141h-66l21 141h-97l-21 -141h-66z"/>
<glyph glyph-name="dollar" horiz-adv-x="411" unicode="$" d="M174 -123v111q-81 8 -136 48l35 64q59 -43 128 -43q50 0 77 17t27 47q0 15 -7 26.5t-23 21.5t-29.5 16.5t-39.5 17t-40 16.5q-55 24 -86 55.5t-31 84.5q0 50 33.5 85.5t91.5 45.5v104h79v-103q71 -8 118 -44l-37 -61q-50 37 -118 37q-86 0 -86 -60q0 -20 16.5 -36.5 t32.5 -24t53 -22.5q8 -3 12 -5q33 -14 53 -24t44 -27.5t35.5 -40t11.5 -51.5q0 -57 -35 -94t-100 -47v-114h-79z"/>
<glyph glyph-name="percent" horiz-adv-x="770" unicode="%" d="M207 0l289 482h72l-288 -482h-73zM592 42q38 0 56.5 24.5t18.5 63.5t-19.5 64t-57.5 25q-37 0 -56 -24t-19 -63q0 -38 20 -64t57 -26zM590 -12q-71 0 -108.5 43t-37.5 99t38.5 99.5t109.5 43.5q72 0 109 -42t37 -99t-38 -100.5t-110 -43.5zM181 262q38 0 56 24.5t18 63.5 t-19.5 64t-56.5 25q-38 0 -57 -24t-19 -63q0 -38 20 -64t58 -26zM179 208q-72 0 -109.5 42.5t-37.5 99.5q0 56 38.5 99.5t110.5 43.5q71 0 108.5 -42t37.5 -99q0 -56 -38.5 -100t-109.5 -44z"/>
<glyph glyph-name="ampersand" horiz-adv-x="633" unicode="&amp;" d="M266 61q78 0 139 53l-184 196q-94 -55 -94 -135q0 -50 36.5 -82t102.5 -32zM252 399q57 33 82.5 64.5t25.5 69.5q0 33 -23.5 55.5t-62.5 22.5q-41 0 -65.5 -23.5t-24.5 -61.5q0 -52 68 -127zM262 -12q-104 0 -164.5 52t-60.5 131q0 62 32.5 104.5t105.5 83.5 q-42 48 -61.5 85t-19.5 79q0 70 50.5 112.5t130.5 42.5q74 0 121 -40t47 -102q0 -54 -35 -96t-113 -87l164 -176q38 62 53 145l78 -14q-18 -107 -79 -188l111 -120h-110l-57 61q-86 -73 -193 -73z"/>
<glyph glyph-name="quotesingle" horiz-adv-x="192" unicode="&apos;" d="M63 440l-19 226h103l-18 -226h-66z"/>
<glyph glyph-name="parenleft" horiz-adv-x="316" unicode="(" d="M233 -175q-85 92 -133 208.5t-48 246.5q0 127 50 243t131 197h81q-72 -73 -122.5 -186.5t-50.5 -251.5q0 -260 173 -457h-81z"/>
<glyph glyph-name="parenright" horiz-adv-x="317" unicode=")" d="M3 -175q73 75 123 187.5t50 251.5q0 260 -173 456h82q84 -91 132 -208t48 -246t-49 -244t-131 -197h-82z"/>
<glyph glyph-name="asterisk" horiz-adv-x="462" unicode="*" d="M150 319l-54 39l85 112l-135 41l22 62l131 -47l-5 140h73l-4 -140l131 47l22 -62l-135 -41l85 -112l-54 -39l-81 118z"/>
<glyph glyph-name="plus" horiz-adv-x="571" unicode="+" d="M249 21v209h-207v70h207v199h78v-199h202v-70h-202v-209h-78z"/>
<glyph glyph-name="comma" horiz-adv-x="233" unicode="," d="M58 -137q41 57 41 104q0 19 -23.5 44.5t-23.5 51.5q0 25 17.5 42t43.5 17q30 0 50.5 -23t20.5 -62q0 -89 -69 -174h-57z"/>
<glyph glyph-name="hyphen" horiz-adv-x="313" unicode="-" d="M53 250v72h207v-72h-207z"/>
<glyph glyph-name="period" horiz-adv-x="233" unicode="." d="M116 -9q-28 0 -47 19t-19 47q0 27 19 46t47 19t47.5 -19t19.5 -46q0 -28 -19.5 -47t-47.5 -19z"/>
<glyph glyph-name="slash" horiz-adv-x="411" unicode="/" d="M58 -18l249 690h82l-250 -690h-81z"/>
<glyph glyph-name="zero" horiz-adv-x="573" unicode="0" d="M287 59q75 0 116 50.5t41 130.5q0 79 -42 130.5t-117 51.5q-76 0 -116 -50t-40 -130t41 -131.5t117 -51.5zM285 -12q-62 0 -111 23t-77.5 60t-43.5 80.5t-15 88.5t15 88.5t44.5 81t78.5 60.5t111 23q119 0 183.5 -76t64.5 -175q0 -45 -15.5 -89t-45 -81.5t-79 -60.5 t-110.5 -23z"/>
<glyph glyph-name="one" horiz-adv-x="332" unicode="1" d="M161 0v404l-112 -37l-18 69l146 45h68v-481h-84z"/>
<glyph glyph-name="two" horiz-adv-x="486" unicode="2" d="M26 0v34q7 6 48 39t63 51.5t59.5 53.5t58.5 60t37.5 54.5t16.5 52.5q0 35 -23 55.5t-68 20.5q-71 0 -124 -56l-46 54q32 34 81 54.5t97 20.5q76 0 124.5 -35.5t48.5 -102.5q0 -18 -5 -36t-16 -37.5t-21.5 -35.5t-29.5 -36t-31 -33t-35 -33t-32.5 -28t-33 -27.5 t-27.5 -22.5q4 4 57 4h221v-71h-420z"/>
<glyph glyph-name="three" horiz-adv-x="434" unicode="3" d="M134 -188q-61 0 -88 5l13 70q23 -5 64 -5q76 0 128.5 36t52.5 98q0 131 -188 131v63q60 1 114 38.5t54 93.5q0 37 -24 58t-68 21q-60 0 -115 -50l-43 55q65 67 166 67q81 0 127 -41t46 -101q0 -56 -41.5 -101t-91.5 -58v-1q63 -9 109 -54.5t46 -112.5q0 -97 -75.5 -154.5 t-185.5 -57.5z"/>
<glyph glyph-name="four" horiz-adv-x="568" unicode="4" d="M123 70h217v283h-2zM340 -177v177h-311v55l324 426h71v-411h110v-70h-110v-177h-84z"/>
<glyph glyph-name="five" horiz-adv-x="427" unicode="5" d="M109 -188q-37 0 -67 7l15 70q24 -6 58 -6q76 0 129.5 41t53.5 113q0 144 -172 144q-32 0 -59 -3l20 303h290v-67h-213l-10 -165q115 0 174.5 -58.5t59.5 -148.5q0 -99 -74.5 -164.5t-204.5 -65.5z"/>
<glyph glyph-name="six" horiz-adv-x="516" unicode="6" d="M270 59q55 0 86.5 39t31.5 92q0 66 -31 102t-92 36q-73 0 -132 -47l-1 -22v-14q0 -85 35.5 -135.5t102.5 -50.5zM266 -12q-58 0 -102.5 24.5t-70 66t-38.5 90.5t-13 102q0 183 105.5 295t289.5 112l18 -70q-159 0 -241 -85q-64 -67 -76 -175q56 49 141 49q91 0 144.5 -54 t53.5 -144q0 -89 -58 -150t-153 -61z"/>
<glyph glyph-name="seven" horiz-adv-x="452" unicode="7" d="M121 -199l-72 36l268 571h-300v74h395v-56z"/>
<glyph glyph-name="eight" horiz-adv-x="516" unicode="8" d="M261 392q101 61 101 120q0 41 -27 68.5t-74 27.5q-46 0 -75 -26.5t-29 -68.5q0 -61 104 -121zM259 59q55 0 85.5 31.5t30.5 78.5q0 75 -129 144q-108 -69 -108 -145q0 -48 33 -78.5t88 -30.5zM257 -12q-99 0 -152.5 51t-53.5 124q0 108 137 185q-118 71 -118 164 q0 72 55 119t131 47q90 0 141 -45.5t51 -115.5q0 -88 -127 -161q142 -80 142 -188q0 -82 -57.5 -131t-148.5 -49z"/>
<glyph glyph-name="nine" horiz-adv-x="518" unicode="9" d="M251 155q81 0 132 44l1 22v17q0 83 -35 134t-98 51q-50 0 -85.5 -37.5t-35.5 -97.5t31 -96.5t90 -36.5zM67 -186l-17 69q161 0 250 86q66 62 78 164q-65 -48 -141 -48q-89 0 -143 56t-54 145q0 87 61.5 147t153.5 60q59 0 103 -25t68.5 -67.5t36 -90.5t11.5 -101 q0 -181 -107.5 -288t-299.5 -107z"/>
<glyph glyph-name="colon" horiz-adv-x="237" unicode=":" d="M118 357q-28 0 -47 19.5t-19 46.5q0 28 19 47t47 19t47 -19t19 -47q0 -27 -19 -46.5t-47 -19.5zM118 -9q-28 0 -47 19.5t-19 47.5q0 27 19 46t47 19t47 -19t19 -46q0 -28 -19 -47.5t-47 -19.5z"/>
<glyph glyph-name="semicolon" horiz-adv-x="237" unicode=";" d="M118 357q-28 0 -47 19.5t-19 46.5q0 28 19 47t47 19t47 -19t19 -47q0 -27 -19 -46.5t-47 -19.5zM61 -137q41 58 41 104q0 19 -23.5 44.5t-23.5 51.5q0 25 17.5 42t43.5 17q30 0 50.5 -23t20.5 -62q0 -88 -69 -174h-57z"/>
<glyph glyph-name="less" horiz-adv-x="367" unicode="&lt;" d="M278 26l-251 220l251 224l47 -48l-195 -173l195 -171z"/>
<glyph glyph-name="equal" horiz-adv-x="463" unicode="=" d="M36 314v71h391v-71h-391zM36 146v71h391v-71h-391z"/>
<glyph glyph-name="greater" horiz-adv-x="367" unicode="&gt;" d="M89 26l-47 48l195 173l-195 171l47 52l251 -220z"/>
<glyph glyph-name="question" horiz-adv-x="407" unicode="?" d="M148 -8q-26 0 -44.5 18t-18.5 44q0 25 18.5 43t44.5 18q25 0 43.5 -18t18.5 -43q0 -26 -18 -44t-44 -18zM106 199v61q0 42 15.5 68.5t57.5 52.5q32 19 47.5 31t29 35.5t13.5 54.5q0 103 -116 103q-39 0 -83 -21l-31 65q55 29 123 29q95 0 146.5 -47t51.5 -123 q0 -47 -22 -84.5t-43.5 -54.5t-54.5 -36q-31 -19 -42.5 -36t-11.5 -46v-52h-80z"/>
<glyph glyph-name="at" horiz-adv-x="774" unicode="@" d="M336 150q35 0 65 39t46.5 86.5t26.5 101.5l4 22q-22 9 -53 9q-56 0 -91.5 -59t-35.5 -138q0 -24 9.5 -42.5t28.5 -18.5zM375 -92q-153 0 -243.5 94.5t-90.5 237.5q0 98 46.5 185.5t132 142t188.5 54.5q78 0 142.5 -27.5t104.5 -72t62 -97.5t22 -106q0 -99 -51 -168 t-129 -69q-50 0 -77 29.5t-28 77.5h-3q-20 -48 -56.5 -77t-80.5 -29t-70 34.5t-26 81.5q0 68 23 127t73 99t117 40q41 0 123 -22l-26 -145q-13 -71 -13 -89q0 -28 14 -46.5t36 -18.5q48 0 79.5 49t31.5 119q0 109 -76.5 179t-191.5 70q-116 0 -205 -93.5t-89 -224.5 q0 -122 72.5 -198t199.5 -76q82 0 148 29l25 -56q-84 -34 -184 -34z"/>
<glyph glyph-name="A" horiz-adv-x="637" unicode="A" d="M20 0l255 666h87l257 -666h-98l-58 157h-296l-57 -157h-90zM195 232h240l-79 215q-12 33 -25 71.5t-15 43.5h-2q-16 -53 -39 -115z"/>
<glyph glyph-name="B" horiz-adv-x="578" unicode="B" d="M183 382h86q72 0 105 26.5t33 83.5q0 101 -136 101h-88v-211zM183 73h90q83 0 122 27t39 87q0 124 -155 124h-96v-238zM93 0v666h185q100 0 160.5 -40t60.5 -126q0 -117 -119 -148v-2q64 -11 106 -54t42 -109q0 -187 -253 -187h-182z"/>
<glyph glyph-name="C" horiz-adv-x="616" unicode="C" d="M379 -12q-151 0 -239.5 102t-88.5 245q0 91 38 168.5t114.5 126t177.5 48.5q111 0 189 -51l-44 -67q-63 43 -147 43q-110 0 -171.5 -77t-61.5 -189q0 -115 61 -194t174 -79q95 0 161 56l40 -64q-29 -27 -83.5 -47.5t-119.5 -20.5z"/>
<glyph glyph-name="D" horiz-adv-x="684" unicode="D" d="M184 74h77q138 0 209 67t71 198t-69.5 192t-215.5 61h-72v-518zM93 0v666h165q190 0 284 -87.5t94 -237.5q0 -153 -96 -247t-287 -94h-160z"/>
<glyph glyph-name="E" horiz-adv-x="508" unicode="E" d="M93 0v666h351v-76h-261v-201h229v-75h-229v-238h268v-76h-358z"/>
<glyph glyph-name="F" horiz-adv-x="494" unicode="F" d="M93 0v666h356v-76h-265v-204h231v-74h-231v-312h-91z"/>
<glyph glyph-name="G" horiz-adv-x="708" unicode="G" d="M386 -12q-103 0 -181 50t-116 128t-38 169q0 143 92.5 243t248.5 100q131 0 211 -62l-45 -67q-69 54 -169 54q-119 0 -181 -76.5t-62 -189.5q0 -115 62 -194t180 -79q104 0 155 38v176h-139v74h229v-296q-85 -68 -247 -68z"/>
<glyph glyph-name="H" horiz-adv-x="729" unicode="H" d="M93 0v666h91v-278h361v278h91v-666h-91v312h-361v-312h-91z"/>
<glyph glyph-name="I" horiz-adv-x="290" unicode="I" d="M99 0v666h91v-666h-91z"/>
<glyph glyph-name="J" horiz-adv-x="292" unicode="J" d="M40 -193q-35 0 -65 11l14 77q19 -8 41 -8q40 0 59 28t19 87v664h91v-678q0 -87 -40.5 -134t-118.5 -47z"/>
<glyph glyph-name="K" horiz-adv-x="581" unicode="K" d="M93 0v666h90v-317l262 317h104l-264 -313l281 -353h-111l-272 344v-344h-90z"/>
<glyph glyph-name="L" horiz-adv-x="481" unicode="L" d="M94 0v666h90v-591h260v-75h-350z"/>
<glyph glyph-name="M" horiz-adv-x="858" unicode="M" d="M51 0l92 666h85l159 -445q23 -65 41 -121h2q12 44 40 121l160 445h86l90 -666h-91l-55 418q-7 56 -11 94h-2q-12 -45 -29 -93l-149 -419h-88l-152 419q-16 46 -31 93h-2q-2 -28 -10 -96l-51 -416h-84z"/>
<glyph glyph-name="N" horiz-adv-x="717" unicode="N" d="M92 0v666h89l300 -430q36 -52 63 -101h2q-4 48 -4 93v438h83v-666h-83l-315 454q-15 21 -54 89h-2q4 -48 4 -76v-467h-83z"/>
<glyph glyph-name="O" horiz-adv-x="763" unicode="O" d="M381 63q111 0 173 77t62 192t-61.5 193t-171.5 78q-111 0 -174 -77.5t-63 -191.5q0 -115 62 -193t173 -78zM383 -12q-151 0 -241.5 100.5t-90.5 243.5q0 144 89.5 245t240.5 101t241 -100.5t90 -243.5t-89.5 -244.5t-239.5 -101.5z"/>
<glyph glyph-name="P" horiz-adv-x="552" unicode="P" d="M184 337h75q82 0 119.5 32.5t37.5 98.5q0 124 -154 124h-78v-255zM93 0v666h177q106 0 172 -50.5t66 -145.5q0 -99 -66 -153t-184 -54h-74v-263h-91z"/>
<glyph glyph-name="Q" horiz-adv-x="763" unicode="Q" d="M381 63q111 0 173 77t62 192t-61.5 193t-171.5 78q-111 0 -174 -77.5t-63 -191.5q0 -115 62 -193t173 -78zM621 -165q-72 0 -132.5 34.5t-128.5 120.5q-141 7 -225 106t-84 236q0 144 89.5 245t240.5 101t241 -100.5t90 -243.5q0 -122 -67 -217t-183 -120 q37 -48 72.5 -69t88.5 -21q45 0 81 28l32 -65q-43 -35 -115 -35z"/>
<glyph glyph-name="R" horiz-adv-x="580" unicode="R" d="M184 372h95q138 0 138 111q0 109 -144 109h-89v-220zM93 0v666h190q107 0 166 -47t59 -133q0 -80 -50 -124.5t-130 -50.5v-2q22 -16 71 -85l158 -224h-104l-132 189q-54 77 -74 94.5t-53 17.5h-10v-301h-91z"/>
<glyph glyph-name="S" horiz-adv-x="502" unicode="S" d="M234 -12q-68 0 -117.5 21.5t-75.5 46.5l44 64q61 -57 151 -57q57 0 93.5 31t36.5 75q0 25 -9.5 45t-34 38t-40 27t-52.5 27q-11 5 -16 8q-75 36 -114 77.5t-39 113.5q0 79 57.5 126t140.5 47q110 0 179 -54l-42 -66q-57 45 -136 45q-49 0 -80 -25.5t-31 -68.5t29.5 -68.5 t91.5 -54.5q27 -13 39 -19t36 -19.5t36 -23.5t29 -27.5t25 -34.5t14.5 -40.5t6.5 -50.5q0 -81 -61.5 -132t-160.5 -51z"/>
<glyph glyph-name="T" horiz-adv-x="505" unicode="T" d="M207 0v590h-188v76h467v-76h-188v-590h-91z"/>
<glyph glyph-name="U" horiz-adv-x="695" unicode="U" d="M351 -12q-134 0 -198.5 69t-64.5 194v415h90v-405q0 -100 42.5 -148t132.5 -48q84 0 127 49t43 134v418h84v-409q0 -128 -64 -198.5t-192 -70.5z"/>
<glyph glyph-name="V" horiz-adv-x="626" unicode="V" d="M273 0l-256 666h97l165 -447q15 -38 39 -116h2q3 8 15.5 47.5t22.5 68.5l161 447h90l-248 -666h-88z"/>
<glyph glyph-name="W" horiz-adv-x="883" unicode="W" d="M202 0l-182 666h98l107 -426q5 -22 11 -50t9.5 -47t3.5 -20h2q0 1 2 9t4.5 20t6 26.5t8 31.5t8.5 31l121 425h91l119 -422q4 -15 8.5 -32t7.5 -31.5t6 -26.5t4.5 -20t1.5 -9h2l3 19q3 19 8.5 47t11.5 52l109 423h89l-183 -666h-83l-122 434q-4 15 -8.5 33t-8 33.5t-6 29 t-4.5 22t-2 9.5h-2q-30 -121 -32 -127l-127 -434h-82z"/>
<glyph glyph-name="X" horiz-adv-x="575" unicode="X" d="M24 0l211 344l-200 322h103l154 -248l145 248h94l-195 -321l215 -345h-103l-169 272l-161 -272h-94z"/>
<glyph glyph-name="Y" horiz-adv-x="563" unicode="Y" d="M239 0v252l-222 414h100l171 -329h1l171 329h87l-217 -414v-252h-91z"/>
<glyph glyph-name="Z" horiz-adv-x="563" unicode="Z" d="M46 0v62l352 530h-336v74h444v-59l-357 -533h368v-74h-471z"/>
<glyph glyph-name="bracketleft" horiz-adv-x="313" unicode="[" d="M77 -161v881h211v-65h-129v-751h129v-65h-211z"/>
<glyph glyph-name="backslash" horiz-adv-x="411" unicode="\" d="M324 -161l-318 881h81l318 -881h-81z"/>
<glyph glyph-name="bracketright" horiz-adv-x="313" unicode="]" d="M25 -161v65h129v751h-129v65h211v-881h-211z"/>
<glyph glyph-name="asciicircum" horiz-adv-x="584" unicode="^" d="M58 288l204 378h59l204 -378h-77l-156 289l-156 -289h-78z"/>
<glyph glyph-name="underscore" horiz-adv-x="402" unicode="_" d="M-1 -164v69h404v-69h-404z"/>
<glyph glyph-name="grave" horiz-adv-x="500" unicode="`" d="M281 540l-136 128h121l90 -128h-75z"/>
<glyph glyph-name="a" d="M198 58q72 0 121 64v104h-20q-169 0 -169 -104q0 -32 21 -48t47 -16zM181 -12q-61 0 -100 36t-39 95q0 60 41 99t95.5 53t120.5 14h20v42q0 49 -22 71.5t-71 22.5q-65 0 -125 -51l-42 57q71 66 174 66q170 0 170 -163v-214q0 -66 12 -116h-84q-5 17 -8 57 q-24 -31 -61.5 -50t-80.5 -19z" unicode="a"/>
<glyph glyph-name="b" horiz-adv-x="526" unicode="b" d="M243 59q73 0 113.5 52.5t40.5 129.5q0 80 -33 129.5t-102 49.5q-28 0 -56.5 -13.5t-44.5 -31.5v-302q31 -14 82 -14zM242 -12q-104 0 -166 37v695h85v-277q47 50 119 50q97 0 152 -67.5t55 -182.5q0 -112 -69.5 -183.5t-175.5 -71.5z"/>
<glyph glyph-name="c" horiz-adv-x="444" unicode="c" d="M263 -12q-105 0 -165 73t-60 180q0 119 65 185.5t163 66.5q88 0 147 -46l-36 -62q-53 38 -111 38q-68 0 -103 -49.5t-35 -130.5q0 -80 35.5 -132t104.5 -52q67 0 115 38l32 -62q-59 -47 -152 -47z"/>
<glyph glyph-name="d" horiz-adv-x="530" unicode="d" d="M257 62q68 0 115 63v256q-46 41 -109 41q-64 0 -99 -49.5t-35 -131.5q0 -179 128 -179zM237 -12q-90 0 -144.5 67t-54.5 185q0 113 60.5 183t152.5 70q75 0 121 -40v267h84v-614q0 -50 13 -106h-85q-7 24 -9 55q-54 -67 -138 -67z"/>
<glyph glyph-name="e" horiz-adv-x="496" unicode="e" d="M132 301h235q-2 54 -28.5 88.5t-81.5 34.5q-53 0 -84.5 -33t-40.5 -90zM271 -12q-112 0 -172.5 71.5t-60.5 184.5q0 108 62.5 178.5t158.5 70.5q91 0 142 -59t51 -161q0 -11 -2 -37h-321q2 -79 37.5 -128.5t108.5 -49.5q59 0 131 41l33 -62q-75 -49 -168 -49z"/>
<glyph glyph-name="f" horiz-adv-x="326" unicode="f" d="M98 0v415h-79v66h79v67q0 85 47 134.5t131 49.5q61 0 88 -15l-22 -70q-24 12 -63 12q-47 0 -71.5 -30t-24.5 -87v-61h121v-66h-121v-415h-85z"/>
<glyph glyph-name="g" horiz-adv-x="511" unicode="g" d="M244 206q52 0 81.5 30.5t29.5 80.5t-29.5 80.5t-81.5 30.5t-81.5 -30.5t-29.5 -80.5t29.5 -80.5t81.5 -30.5zM244 -173q69 0 110.5 25.5t41.5 67.5q0 24 -8 39t-29.5 22.5t-32 9t-42.5 3.5q-7 1 -10 1q-74 5 -88 7q-60 -38 -60 -95q0 -35 29.5 -57.5t88.5 -22.5z M240 -237q-90 0 -143.5 33t-53.5 100q0 77 82 123q-43 21 -43 71q0 48 50 79q-85 47 -85 148q0 78 53.5 127t143.5 49q42 0 77 -12h160v-63h-72q32 -43 32 -101q0 -77 -53.5 -126.5t-142.5 -49.5q-27 0 -54 6q-29 -15 -29 -38q0 -34 74 -37q8 0 32 -1.5t34 -2t32.5 -3 t33.5 -5.5t29.5 -8.5t28.5 -12.5t22.5 -18t18.5 -24.5t10.5 -31.5t4.5 -40q0 -73 -70 -117.5t-172 -44.5z"/>
<glyph glyph-name="h" horiz-adv-x="533" unicode="h" d="M76 0v720h85v-306q61 79 155 79q73 0 107.5 -41.5t34.5 -109.5v-342h-85v325q0 94 -81 94q-31 0 -62.5 -19.5t-45 -34.5t-23.5 -29v-336h-85z"/>
<glyph glyph-name="i" horiz-adv-x="256" unicode="i" d="M85 0v481h86v-481h-86zM128 566q-25 0 -42 17.5t-17 41.5q0 25 17 42t42 17t42 -17t17 -42q0 -24 -17 -41.5t-42 -17.5z"/>
<glyph glyph-name="j" horiz-adv-x="246" unicode="j" d="M123 566q-25 0 -42.5 17.5t-17.5 41.5q0 25 17.5 42t42.5 17t42 -17t17 -42q0 -24 -17 -41.5t-42 -17.5zM23 -231q-35 0 -59 8l15 70q15 -6 34 -6q37 0 52.5 28t15.5 86v526h85v-539q0 -173 -143 -173z"/>
<glyph glyph-name="k" d="M76 0v720h85v-451l194 212h99l-196 -213l204 -268h-102l-199 267v-267h-85z" unicode="k"/>
<glyph glyph-name="l" horiz-adv-x="248" unicode="l" d="M81 0v720h85v-720h-85z"/>
<glyph glyph-name="m" horiz-adv-x="799" unicode="m" d="M79 0v481h84v-66q17 21 30 33.5t46.5 28.5t70.5 16q95 0 123 -80q72 80 155 80q70 0 103 -41t33 -110v-342h-85v325q0 94 -75 94q-63 0 -120 -72v-347h-85v325q0 94 -73 94q-64 0 -123 -82v-337h-84z"/>
<glyph glyph-name="n" horiz-adv-x="535" unicode="n" d="M79 0v481h84v-67q64 79 156 79q73 0 107.5 -41.5t34.5 -109.5v-342h-85v325q0 94 -81 94q-70 0 -132 -83v-336h-84z"/>
<glyph glyph-name="o" horiz-adv-x="532" unicode="o" d="M266 58q68 0 103 51t35 131q0 79 -37.5 131t-105.5 52t-100.5 -49.5t-32.5 -131.5q0 -81 34.5 -132.5t103.5 -51.5zM264 -12q-77 0 -130 40t-74.5 95t-21.5 117q0 45 12.5 88t37.5 81t70 61t104 23q58 0 104.5 -22.5t73 -60t40.5 -80.5t14 -88t-13.5 -88t-39.5 -81 t-72 -61.5t-105 -23.5z"/>
<glyph glyph-name="p" horiz-adv-x="535" unicode="p" d="M272 59q64 0 99 49.5t35 131.5t-31.5 131t-93.5 49q-69 0 -118 -64v-255q46 -42 109 -42zM79 -219v700h84v-51q53 63 138 63q90 0 143 -66.5t53 -184.5q0 -113 -60 -183.5t-154 -70.5q-74 0 -120 41v-248h-84z"/>
<glyph glyph-name="q" horiz-adv-x="528" unicode="q" d="M264 62q34 0 63 16.5t38 28.5v300q-45 15 -82 15q-73 0 -113.5 -52.5t-40.5 -129.5q0 -80 32.5 -129t102.5 -49zM365 -217v255q-48 -50 -119 -50q-96 0 -151.5 68t-55.5 182q0 112 70 183.5t175 71.5q94 0 166 -36v-674h-85z"/>
<glyph glyph-name="r" horiz-adv-x="354" unicode="r" d="M79 0v481h84v-73q52 85 127 85q31 0 54 -10l-21 -79q-16 8 -44 8q-69 0 -116 -93v-319h-84z"/>
<glyph glyph-name="s" horiz-adv-x="410" unicode="s" d="M194 -13q-90 0 -156 46l35 63q54 -39 119 -39q44 0 69 17t25 47q0 15 -6 26.5t-23.5 23t-32 18.5t-47.5 22q-64 28 -96 60t-32 87q0 59 43 97t115 38q86 0 145 -44l-38 -61q-46 35 -106 35q-38 0 -58 -16t-20 -45t22 -45.5t72 -36.5q35 -15 56.5 -26.5t44.5 -29t34 -40.5 t11 -52q0 -67 -47.5 -106t-128.5 -39z"/>
<glyph glyph-name="t" horiz-adv-x="356" unicode="t" d="M229 -12q-126 0 -126 132v295h-79v66h79v138h84v-138h120v-66h-120v-284q0 -37 12.5 -54t42.5 -17q35 0 65 20l27 -63q-44 -29 -105 -29z"/>
<glyph glyph-name="u" horiz-adv-x="534" unicode="u" d="M216 -12q-73 0 -108 41.5t-35 110.5v341h85v-325q0 -46 18.5 -69.5t63.5 -23.5q31 0 62 19.5t44.5 34.5t23.5 29v335h85v-372q0 -67 10 -109h-85q-6 24 -8 70q-61 -82 -156 -82z"/>
<glyph glyph-name="v" horiz-adv-x="471" unicode="v" d="M197 0l-182 481h92l130 -371h2l128 371h87l-177 -481h-80z"/>
<glyph glyph-name="w" horiz-adv-x="707" unicode="w" d="M158 0l-142 481h92l97 -352h2l107 352h81l107 -353h2l98 353h85l-143 -481h-76l-115 364h-2l-117 -364h-76z"/>
<glyph glyph-name="x" horiz-adv-x="472" unicode="x" d="M21 0l166 251l-157 230h96q105 -156 111 -164l103 164h88l-150 -225l174 -256h-96l-129 191l-118 -191h-88z"/>
<glyph glyph-name="y" d="M61 -232q-27 0 -52 5l12 70q21 -3 39 -3q48 0 74 25t45 79l22 60l-181 477h94l131 -370h3l126 370h89l-203 -543q-31 -83 -73.5 -126.5t-125.5 -43.5z" unicode="y"/>
<glyph glyph-name="z" horiz-adv-x="430" unicode="z" d="M41 0v51l238 363h-224v67h327v-54l-238 -360h242v-67h-345z"/>
<glyph glyph-name="braceleft" horiz-adv-x="367" unicode="{" d="M249 -161q-45 0 -77.5 28.5t-32.5 82.5v195q0 49 -29.5 78t-81.5 30v64q52 2 81.5 30t29.5 78v185q0 54 32.5 82t77.5 28h93v-65h-65q-32 0 -44 -19t-12 -58v-169q0 -95 -98 -121v-2q98 -29 98 -128v-180q0 -39 11.5 -56.5t43.5 -17.5h66v-65h-93z"/>
<glyph glyph-name="bar" horiz-adv-x="284" unicode="|" d="M107 -250v1000h71v-1000h-71z"/>
<glyph glyph-name="braceright" horiz-adv-x="367" unicode="}" d="M25 -161v65h65q32 0 44 19t12 58v180q0 95 98 121v2q-98 29 -98 128v169q0 40 -11 57t-44 17h-66v65h93q45 0 77.5 -28.5t32.5 -82.5v-184q0 -49 29.5 -78t82.5 -30v-64q-52 -2 -82 -30t-30 -78v-196q0 -54 -32 -82t-77 -28h-94z"/>
<glyph glyph-name="asciitilde" horiz-adv-x="587" unicode="~" d="M396 175q-57 0 -119 34t-96 34q-45 0 -89 -40l-40 52q66 61 135 61q45 0 107 -33.5t108 -33.5q47 0 95 41l39 -51q-64 -64 -140 -64z"/>
<glyph glyph-name="uni00A0" horiz-adv-x="219" unicode=" "/>
<glyph glyph-name="exclamdown" horiz-adv-x="280" unicode="¡" d="M89 -181l18 462h67l18 -462h-103zM141 371q-26 0 -44.5 17.5t-18.5 42.5q0 26 18.5 44t44.5 18t44 -18t18 -44q0 -25 -18 -42.5t-44 -17.5z"/>
<glyph glyph-name="cent" horiz-adv-x="444" unicode="¢" d="M211 -123v116q-83 17 -128 86t-45 162q0 100 48 164.5t125 81.5v107h79v-102q74 -6 123 -45l-36 -62q-53 38 -111 38q-68 0 -103 -49.5t-35 -130.5q0 -80 35.5 -132t104.5 -52q67 0 115 38l32 -62q-51 -39 -125 -46v-112h-79z"/>
<glyph glyph-name="sterling" horiz-adv-x="477" unicode="£" d="M61 292v66h87q-12 82 -12 134q0 85 47.5 135.5t140.5 50.5q69 0 124 -35l-37 -63q-41 26 -95 26q-91 0 -91 -118q0 -38 12 -130h149v-66h-142q2 -32 2 -43q0 -63 -22.5 -109.5t-50.5 -68.5h253v-71h-370v56q53 28 79 82t26 108q0 22 -3 46h-97z"/>
<glyph glyph-name="currency" horiz-adv-x="558" unicode="¤" d="M280 137q53 0 85 35t32 87t-32 87t-85 35q-51 0 -83.5 -35.5t-32.5 -86.5q0 -52 32 -87t84 -35zM112 -11l-60 45l79 99q-45 52 -45 126q0 76 49 128l-80 101l59 45l78 -104q43 19 88 19q44 0 81 -15l77 100l60 -45l-76 -95q54 -53 54 -134q0 -80 -51 -132l72 -93l-60 -45 l-71 97q-37 -17 -86 -17q-54 0 -93 21z"/>
<glyph glyph-name="yen" horiz-adv-x="532" unicode="¥" d="M226 0v93h-161v66h161v68h-161v66h138l-201 373h101l170 -329h2l170 329h88l-197 -373h140v-66h-161v-68h161v-66h-161v-93h-89z"/>
<glyph glyph-name="brokenbar" horiz-adv-x="190" unicode="¦" d="M58 382v368h71v-368h-71zM58 -250v378h71v-378h-71z"/>
<glyph glyph-name="section" horiz-adv-x="467" unicode="§" d="M290 151q31 29 31 70q0 18 -10 40.5t-29.5 48t-35.5 43.5t-40.5 43.5t-31.5 33.5q-29 -21 -29 -71q0 -21 18.5 -53t36.5 -54t51 -58t39 -43zM202 -152q-71 0 -119 33l34 64q41 -25 83 -25q40 0 61.5 22.5t21.5 57.5q0 28 -23 61t-55.5 66t-64.5 68t-55 78t-23 85 q0 80 70 126q-32 45 -32 94q0 71 48 112.5t111 41.5q74 0 121 -36l-37 -62l-7 4q-6 5 -8 6.5t-8.5 5t-11.5 5t-12.5 3.5t-15.5 3t-18 1q-38 0 -58.5 -23.5t-20.5 -55.5q0 -29 22.5 -62.5t55 -67t65 -68.5t55 -78t22.5 -85q0 -67 -68 -127q31 -47 31 -91q0 -77 -48 -116.5 t-116 -39.5z"/>
<glyph glyph-name="dieresis" horiz-adv-x="500" unicode="¨" d="M345 539q-23 0 -40 16.5t-17 40.5q0 23 17 40t40 17q25 0 41.5 -16.5t16.5 -40.5t-16.5 -40.5t-41.5 -16.5zM154 539q-24 0 -40.5 16.5t-16.5 40.5q0 23 16.5 40t40.5 17t41 -17t17 -40q0 -24 -17 -40.5t-41 -16.5z"/>
<glyph glyph-name="copyright" horiz-adv-x="859" unicode="©" d="M429 43q135 0 223.5 89t88.5 227t-88.5 227t-223.5 89q-134 0 -222.5 -89.5t-88.5 -226.5q0 -138 88.5 -227t222.5 -89zM429 -14q-154 0 -263 109.5t-109 263.5t109 263.5t263 109.5q155 0 264 -109t109 -264t-109 -264t-264 -109zM437 129q-98 0 -162.5 67t-64.5 163 q0 97 65.5 163.5t161.5 66.5q79 0 143 -50l-41 -54q-47 38 -102 38q-70 0 -109 -49t-39 -113q0 -70 44 -118.5t109 -48.5q59 0 113 44l34 -55q-64 -54 -152 -54z"/>
<glyph glyph-name="ordfeminine" horiz-adv-x="364" unicode="ª" d="M150 371q45 0 79 40v71q-86 0 -113 -29q-14 -15 -14 -39q0 -20 13.5 -31.5t34.5 -11.5zM138 314q-45 0 -75.5 27.5t-30.5 69.5q0 50 38 81q48 39 159 39v25q0 32 -14.5 48t-48.5 16q-41 0 -87 -35l-35 46q53 47 127 47q127 0 127 -119v-150q0 -48 9 -86h-70q-3 15 -5 34 q-41 -43 -94 -43z"/>
<glyph glyph-name="guillemotleft" horiz-adv-x="488" unicode="«" d="M360 55l-131 190l131 191h88l-129 -191l129 -190h-88zM173 55l-131 190l131 191h88l-129 -191l129 -190h-88z"/>
<glyph glyph-name="logicalnot" horiz-adv-x="595" unicode="¬" d="M470 32v201h-430v71h506v-272h-76z"/>
<glyph glyph-name="uni00AD" horiz-adv-x="313" unicode="­" d="M53 250v72h207v-72h-207z"/>
<glyph glyph-name="registered" horiz-adv-x="859" unicode="®" d="M363 390h45q45 0 71.5 13.5t26.5 54.5q0 68 -80 68h-63v-136zM429 43q135 0 223.5 89t88.5 227t-88.5 227t-223.5 89q-134 0 -222.5 -89.5t-88.5 -226.5q0 -138 88.5 -227t222.5 -89zM429 -14q-154 0 -263 109.5t-109 263.5t109 263.5t263 109.5q155 0 264 -109t109 -264 t-109 -264t-264 -109zM293 140v445h147q67 0 104 -36t37 -90q0 -49 -30.5 -78.5t-84.5 -37.5q23 -18 52 -59l99 -144h-84l-103 154q-17 25 -30 34t-37 9v-197h-70z"/>
<glyph glyph-name="macron" horiz-adv-x="500" unicode="¯" d="M113 572v67h273v-67h-273z"/>
<glyph glyph-name="degree" horiz-adv-x="346" unicode="°" d="M173 470q31 0 52 22t21 54t-21 54t-52 22t-52 -22t-21 -54t21 -54t52 -22zM173 414q-55 0 -94 38.5t-39 93.5q0 54 39 93t94 39t94 -39t39 -93q0 -55 -39 -93.5t-94 -38.5z"/>
<glyph glyph-name="plusminus" horiz-adv-x="574" unicode="±" d="M69 -122v71h438v-71h-438zM249 21v209h-207v70h207v199h78v-199h203v-70h-203v-209h-78z"/>
<glyph glyph-name="twosuperior" horiz-adv-x="337" unicode="²" d="M32 336v38q38 30 58 47t49.5 46t43.5 54t14 48q0 47 -53 47q-42 0 -78 -32l-37 44q51 44 126 44q59 0 88 -25.5t29 -69.5q0 -47 -36 -91.5t-99 -95.5q2 2 42 2h111v-56h-258z"/>
<glyph glyph-name="threesuperior" horiz-adv-x="309" unicode="³" d="M97 330q-47 0 -72 10l14 54q25 -9 55 -9q42 0 66.5 13t24.5 37q0 48 -108 50v47q43 1 70 14.5t27 36.5q0 34 -52 34q-38 0 -69 -26l-29 44q17 14 49 25.5t65 11.5q54 0 81.5 -20t27.5 -56q0 -31 -19.5 -50.5t-50.5 -26.5v-1q35 -3 58.5 -24.5t23.5 -57.5 q0 -51 -42.5 -78.5t-119.5 -27.5z"/>
<glyph glyph-name="acute" horiz-adv-x="500" unicode="´" d="M148 540l90 128h122l-136 -128h-76z"/>
<glyph glyph-name="uni00B5" horiz-adv-x="551" unicode="µ" d="M75 -207v688h85v-332q0 -40 14.5 -63t55.5 -23q75 0 142 82v336h85v-377q0 -66 8 -104h-85q-5 25 -7 68q-72 -78 -152 -79q-39 0 -63 15h-2q3 -32 3 -109v-102h-84z"/>
<glyph glyph-name="paragraph" horiz-adv-x="648" unicode="¶" d="M257 -177v447q-84 0 -140.5 54.5t-56.5 142.5t56.5 143.5t140.5 55.5h332v-71h-79v-772h-77v772h-99v-772h-77z"/>
<glyph glyph-name="periodcentered" horiz-adv-x="227" unicode="·" d="M114 225q-28 0 -47.5 19t-19.5 47t19.5 46.5t47.5 18.5t47 -18.5t19 -46.5t-19 -47t-47 -19z"/>
<glyph glyph-name="cedilla" horiz-adv-x="499" unicode="¸" d="M227 -221q-41 0 -70 12l13 46q22 -11 53 -11q50 0 50 38q0 40 -60 40h-11l36 97h56l-25 -65q31 -5 51 -24t20 -48q0 -39 -32.5 -62t-80.5 -23z"/>
<glyph glyph-name="onesuperior" horiz-adv-x="262" unicode="¹" d="M105 336v270l-72 -20l-16 55l106 25h52v-330h-70z"/>
<glyph glyph-name="ordmasculine" horiz-adv-x="396" unicode="º" d="M198 371q89 0 89 125q0 57 -23.5 91t-69.5 34q-85 0 -85 -123q0 -127 89 -127zM197 314q-81 0 -122.5 53.5t-41.5 128.5t41 129t121 54q81 0 124.5 -54t43.5 -127q0 -75 -42.5 -129.5t-123.5 -54.5z"/>
<glyph glyph-name="guillemotright" horiz-adv-x="488" unicode="»" d="M227 55l129 190l-129 191h87l132 -191l-132 -190h-87zM40 55l130 190l-130 191h88l131 -191l-131 -190h-88z"/>
<glyph glyph-name="onequarter" horiz-adv-x="666" unicode="¼" d="M429 120q18 2 44 2h56v121h-1zM527 0v68h-174v46l178 216h66v-208h54v-54h-54v-68h-70zM72 0l415 666h70l-415 -666h-70zM105 336v270l-72 -20l-16 55l106 25h52v-330h-70z"/>
<glyph glyph-name="onehalf" horiz-adv-x="704" unicode="½" d="M400 0v38q40 32 58 47.5t48.5 45.5t44 54.5t13.5 47.5q0 47 -53 47q-42 0 -78 -32l-37 44q53 44 126 44q59 0 88.5 -25.5t29.5 -69.5q0 -47 -36.5 -91t-99.5 -95h3q3 0 7.5 0.5t9.5 0.5h11h11h111v-56h-257zM72 0l415 666h70l-415 -666h-70zM105 336v270l-72 -20l-16 55 l106 25h52v-330h-70z"/>
<glyph glyph-name="threequarters" horiz-adv-x="714" unicode="¾" d="M476 120q18 2 45 2h55v121h-1zM575 0v68h-174v46l177 216h66v-208h55v-54h-55v-68h-69zM119 0l416 666h69l-415 -666h-70zM97 330q-47 0 -72 10l14 54q25 -9 55 -9q42 0 66.5 13t24.5 37q0 48 -108 50v47q43 1 70 14.5t27 36.5q0 34 -52 34q-38 0 -69 -26l-29 44 q17 14 49 25.5t65 11.5q54 0 81.5 -20t27.5 -56q0 -31 -19.5 -50.5t-50.5 -26.5v-1q35 -3 58.5 -24.5t23.5 -57.5q0 -51 -42.5 -78.5t-119.5 -27.5z"/>
<glyph glyph-name="questiondown" horiz-adv-x="402" unicode="¿" d="M259 371q-26 0 -44 17.5t-18 42.5q0 26 18 44t44 18t44 -18t18 -44q0 -25 -18 -42.5t-44 -17.5zM245 -193q-96 0 -147.5 47.5t-51.5 123.5q0 35 11 64.5t32.5 50.5t37 33t39.5 26q32 19 43.5 36t11.5 46v52h79v-61q0 -42 -15.5 -69t-57.5 -52q-32 -19 -47.5 -31 t-29 -35.5t-13.5 -54.5q0 -103 117 -103q40 0 82 21l31 -65q-56 -29 -122 -29z"/>
<glyph glyph-name="Agrave" horiz-adv-x="637" unicode="À" d="M283 719l-136 128h121l90 -128h-75zM20 0l255 666h87l257 -666h-98l-58 157h-296l-57 -157h-90zM195 232h240l-79 215q-12 33 -25 71.5t-15 43.5h-2q-16 -53 -39 -115z"/>
<glyph glyph-name="Aacute" horiz-adv-x="637" unicode="Á" d="M274 719l90 128h122l-136 -128h-76zM20 0l255 666h87l257 -666h-98l-58 157h-296l-57 -157h-90zM195 232h240l-79 215q-12 33 -25 71.5t-15 43.5h-2q-16 -53 -39 -115z"/>
<glyph glyph-name="Acircumflex" horiz-adv-x="637" unicode="Â" d="M161 720l123 154h64l122 -154h-78l-78 81l-76 -81h-77zM20 0l255 666h87l257 -666h-98l-58 157h-296l-57 -157h-90zM195 232h240l-79 215q-12 33 -25 71.5t-15 43.5h-2q-16 -53 -39 -115z"/>
<glyph glyph-name="Atilde" horiz-adv-x="637" unicode="Ã" d="M366 723q-26 0 -58 19t-50 19q-7 0 -13.5 -2t-12.5 -6.5t-9.5 -8t-8.5 -9t-6 -6.5l-44 40q44 63 98 63q28 0 59.5 -19t48.5 -19q27 0 52 31l44 -41q-46 -61 -100 -61zM20 0l255 666h87l257 -666h-98l-58 157h-296l-57 -157h-90zM195 232h240l-79 215q-12 33 -25 71.5 t-15 43.5h-2q-16 -53 -39 -115z"/>
<glyph glyph-name="Adieresis" horiz-adv-x="637" unicode="Ä" d="M410 718q-23 0 -40 16.5t-17 40.5q0 23 17 40t40 17q24 0 41 -17t17 -40q0 -24 -16.5 -40.5t-41.5 -16.5zM219 718q-24 0 -40.5 16.5t-16.5 40.5q0 23 16.5 40t40.5 17t41 -17t17 -40q0 -24 -17 -40.5t-41 -16.5zM20 0l255 666h87l257 -666h-98l-58 157h-296l-57 -157 h-90zM195 232h240l-79 215q-12 33 -25 71.5t-15 43.5h-2q-16 -53 -39 -115z"/>
<glyph glyph-name="Aring" horiz-adv-x="637" unicode="Å" d="M315 746q22 0 35.5 16t13.5 38q0 23 -13 38.5t-36 15.5t-36 -15.5t-13 -38.5q0 -22 13.5 -38t35.5 -16zM315 703q-39 0 -68.5 28.5t-29.5 68.5t29.5 68.5t68.5 28.5t68.5 -28.5t29.5 -68.5t-29.5 -68.5t-68.5 -28.5zM20 0l255 666h87l257 -666h-98l-58 157h-296l-57 -157 h-90zM195 232h240l-79 215q-12 33 -25 71.5t-15 43.5h-2q-16 -53 -39 -115z"/>
<glyph glyph-name="AE" horiz-adv-x="824" unicode="Æ" d="M220 248h189v338zM-17 0l382 666h394v-76h-260v-201h228v-75h-228v-238h267v-76h-357v174h-230l-97 -174h-99z"/>
<glyph glyph-name="Ccedilla" horiz-adv-x="616" unicode="Ç" d="M314 -221q-41 0 -70 12l13 46q22 -11 53 -11q50 0 50 38q0 40 -60 40h-11l33 89q-126 19 -198.5 116.5t-72.5 225.5q0 91 38 168.5t114.5 126t177.5 48.5q111 0 189 -51l-44 -67q-63 43 -147 43q-110 0 -171.5 -77t-61.5 -189q0 -115 61 -194t174 -79q95 0 161 56l40 -64 q-29 -27 -83.5 -47.5t-119.5 -20.5h-3l-20 -52q31 -5 51 -24t20 -48q0 -39 -32.5 -62t-80.5 -23z"/>
<glyph glyph-name="Egrave" horiz-adv-x="508" unicode="È" d="M242 719l-136 128h121l90 -128h-75zM93 0v666h351v-76h-261v-201h229v-75h-229v-238h268v-76h-358z"/>
<glyph glyph-name="Eacute" horiz-adv-x="508" unicode="É" d="M93 0v666h351v-76h-261v-201h229v-75h-229v-238h268v-76h-358zM232 719l90 128h122l-136 -128h-76z"/>
<glyph glyph-name="Ecircumflex" horiz-adv-x="508" unicode="Ê" d="M93 0v666h351v-76h-261v-201h229v-75h-229v-238h268v-76h-358zM119 720l123 154h64l122 -154h-78l-78 81l-76 -81h-77z"/>
<glyph glyph-name="Edieresis" horiz-adv-x="508" unicode="Ë" d="M93 0v666h351v-76h-261v-201h229v-75h-229v-238h268v-76h-358zM368 718q-23 0 -40 16.5t-17 40.5q0 23 17 40t40 17q24 0 41 -17t17 -40q0 -24 -16.5 -40.5t-41.5 -16.5zM177 718q-24 0 -40.5 16.5t-16.5 40.5q0 23 16.5 40t40.5 17t41 -17t17 -40q0 -24 -17 -40.5 t-41 -16.5z"/>
<glyph glyph-name="Igrave" horiz-adv-x="290" unicode="Ì" d="M113 719l-136 128h121l90 -128h-75zM99 0v666h91v-666h-91z"/>
<glyph glyph-name="Iacute" horiz-adv-x="290" unicode="Í" d="M105 719l90 128h122l-136 -128h-76zM99 0v666h91v-666h-91z"/>
<glyph glyph-name="Icircumflex" horiz-adv-x="290" unicode="Î" d="M-9 720l123 154h64l122 -154h-78l-78 81l-76 -81h-77zM99 0v666h91v-666h-91z"/>
<glyph glyph-name="Idieresis" horiz-adv-x="290" unicode="Ï" d="M240 718q-23 0 -40 16.5t-17 40.5q0 23 17 40t40 17q24 0 41 -17t17 -40q0 -24 -16.5 -40.5t-41.5 -16.5zM49 718q-24 0 -40.5 16.5t-16.5 40.5q0 23 16.5 40t40.5 17t41 -17t17 -40q0 -24 -17 -40.5t-41 -16.5zM99 0v666h91v-666h-91z"/>
<glyph glyph-name="Eth" horiz-adv-x="666" unicode="Ð" d="M184 74h77q138 0 209 67t71 198t-69.5 192t-215.5 61h-72v-217h110v-66h-110v-235zM93 0v309h-69v66h69v291h165q190 0 284 -87.5t94 -237.5q0 -153 -96 -247t-287 -94h-160z"/>
<glyph glyph-name="Ntilde" horiz-adv-x="717" unicode="Ñ" d="M409 723q-26 0 -58 19t-50 19q-7 0 -13.5 -2t-12.5 -6.5t-9.5 -8t-8.5 -9t-6 -6.5l-44 40q44 63 98 63q28 0 59.5 -19t48.5 -19q27 0 52 31l44 -41q-46 -61 -100 -61zM92 0v666h89l300 -430q36 -52 63 -101h2q-4 48 -4 93v438h83v-666h-83l-315 454q-15 21 -54 89h-2 q4 -48 4 -76v-467h-83z"/>
<glyph glyph-name="Ograve" horiz-adv-x="763" unicode="Ò" d="M349 719l-136 128h121l90 -128h-75zM381 63q111 0 173 77t62 192t-61.5 193t-171.5 78q-111 0 -174 -77.5t-63 -191.5q0 -115 62 -193t173 -78zM383 -12q-151 0 -241.5 100.5t-90.5 243.5q0 144 89.5 245t240.5 101t241 -100.5t90 -243.5t-89.5 -244.5t-239.5 -101.5z "/>
<glyph glyph-name="Oacute" horiz-adv-x="763" unicode="Ó" d="M381 63q111 0 173 77t62 192t-61.5 193t-171.5 78q-111 0 -174 -77.5t-63 -191.5q0 -115 62 -193t173 -78zM383 -12q-151 0 -241.5 100.5t-90.5 243.5q0 144 89.5 245t240.5 101t241 -100.5t90 -243.5t-89.5 -244.5t-239.5 -101.5zM340 719l90 128h122l-136 -128h-76z "/>
<glyph glyph-name="Ocircumflex" horiz-adv-x="763" unicode="Ô" d="M381 63q111 0 173 77t62 192t-61.5 193t-171.5 78q-111 0 -174 -77.5t-63 -191.5q0 -115 62 -193t173 -78zM383 -12q-151 0 -241.5 100.5t-90.5 243.5q0 144 89.5 245t240.5 101t241 -100.5t90 -243.5t-89.5 -244.5t-239.5 -101.5zM227 720l123 154h64l122 -154h-78 l-78 81l-76 -81h-77z"/>
<glyph glyph-name="Otilde" horiz-adv-x="763" unicode="Õ" d="M432 723q-26 0 -58 19t-50 19q-7 0 -13.5 -2t-12.5 -6.5t-9.5 -8t-8.5 -9t-6 -6.5l-44 40q44 63 98 63q28 0 59.5 -19t48.5 -19q27 0 52 31l44 -41q-46 -61 -100 -61zM381 63q111 0 173 77t62 192t-61.5 193t-171.5 78q-111 0 -174 -77.5t-63 -191.5q0 -115 62 -193 t173 -78zM383 -12q-151 0 -241.5 100.5t-90.5 243.5q0 144 89.5 245t240.5 101t241 -100.5t90 -243.5t-89.5 -244.5t-239.5 -101.5z"/>
<glyph glyph-name="Odieresis" horiz-adv-x="763" unicode="Ö" d="M381 63q111 0 173 77t62 192t-61.5 193t-171.5 78q-111 0 -174 -77.5t-63 -191.5q0 -115 62 -193t173 -78zM383 -12q-151 0 -241.5 100.5t-90.5 243.5q0 144 89.5 245t240.5 101t241 -100.5t90 -243.5t-89.5 -244.5t-239.5 -101.5zM476 718q-23 0 -40 16.5t-17 40.5 q0 23 17 40t40 17q24 0 41 -17t17 -40q0 -24 -16.5 -40.5t-41.5 -16.5zM285 718q-24 0 -40.5 16.5t-16.5 40.5q0 23 16.5 40t40.5 17t41 -17t17 -40q0 -24 -17 -40.5t-41 -16.5z"/>
<glyph glyph-name="multiply" horiz-adv-x="511" unicode="×" d="M385 80l-134 134l-127 -127l-52 51l128 127l-128 128l54 54l128 -127l127 127l52 -51l-127 -127l134 -135z"/>
<glyph glyph-name="Oslash" horiz-adv-x="763" unicode="Ø" d="M381 63q111 0 173 77t62 192t-58 188l-291 -429q50 -28 114 -28zM146 334q0 -132 75 -207l294 435q-55 41 -132 41q-111 0 -174 -77.5t-63 -191.5zM161 -67l-51 37l61 90q-57 48 -88.5 119.5t-31.5 152.5q0 144 89.5 245t240.5 101q100 0 178 -48l63 93l52 -38l-65 -95 q103 -100 103 -256q0 -143 -89.5 -244.5t-239.5 -101.5q-87 0 -159 37z"/>
<glyph glyph-name="Ugrave" horiz-adv-x="695" unicode="Ù" d="M315 719l-136 128h121l90 -128h-75zM351 -12q-134 0 -198.5 69t-64.5 194v415h90v-405q0 -100 42.5 -148t132.5 -48q84 0 127 49t43 134v418h84v-409q0 -128 -64 -198.5t-192 -70.5z"/>
<glyph glyph-name="Uacute" horiz-adv-x="695" unicode="Ú" d="M351 -12q-134 0 -198.5 69t-64.5 194v415h90v-405q0 -100 42.5 -148t132.5 -48q84 0 127 49t43 134v418h84v-409q0 -128 -64 -198.5t-192 -70.5zM306 719l90 128h122l-136 -128h-76z"/>
<glyph glyph-name="Ucircumflex" horiz-adv-x="695" unicode="Û" d="M351 -12q-134 0 -198.5 69t-64.5 194v415h90v-405q0 -100 42.5 -148t132.5 -48q84 0 127 49t43 134v418h84v-409q0 -128 -64 -198.5t-192 -70.5zM193 720l123 154h64l122 -154h-78l-78 81l-76 -81h-77z"/>
<glyph glyph-name="Udieresis" horiz-adv-x="695" unicode="Ü" d="M351 -12q-134 0 -198.5 69t-64.5 194v415h90v-405q0 -100 42.5 -148t132.5 -48q84 0 127 49t43 134v418h84v-409q0 -128 -64 -198.5t-192 -70.5zM442 718q-23 0 -40 16.5t-17 40.5q0 23 17 40t40 17q24 0 41 -17t17 -40q0 -24 -16.5 -40.5t-41.5 -16.5zM251 718 q-24 0 -40.5 16.5t-16.5 40.5q0 23 16.5 40t40.5 17t41 -17t17 -40q0 -24 -17 -40.5t-41 -16.5z"/>
<glyph glyph-name="Yacute" horiz-adv-x="563" unicode="Ý" d="M241 719l90 128h122l-136 -128h-76zM239 0v252l-222 414h100l171 -329h1l171 329h87l-217 -414v-252h-91z"/>
<glyph glyph-name="Thorn" horiz-adv-x="543" unicode="Þ" d="M184 223h75q157 0 157 131q0 124 -154 124h-78v-255zM93 0v666h91v-114h86q106 0 172 -50t66 -145q0 -100 -66 -154t-184 -54h-74v-149h-91z"/>
<glyph glyph-name="germandbls" horiz-adv-x="553" unicode="ß" d="M346 -12q-75 0 -126 34l33 66q49 -30 92 -30q40 0 63.5 17t23.5 50q0 44 -86 93q-9 5 -13 8q-30 17 -47.5 29.5t-32.5 36t-15 52.5q0 20 4.5 36t18 31.5t19.5 21.5t28.5 22.5t24.5 18.5q26 21 38.5 41t12.5 51q0 93 -99 93q-54 0 -86 -41.5t-32 -123.5v-494h-85v496 q0 116 57.5 176t147.5 60q88 0 135 -45.5t47 -114.5q0 -50 -22.5 -81.5t-61.5 -60.5q-3 -2 -11 -8t-11 -8t-9.5 -7t-9 -7t-7.5 -6.5t-7 -7.5t-5 -7t-4 -8l-2 -8t-1 -9q0 -12 3 -20t16.5 -18.5t22.5 -15.5t38 -22q28 -16 43.5 -26.5t35.5 -28.5t29.5 -41t9.5 -51 q0 -66 -44.5 -104.5t-125.5 -38.5z"/>
<glyph glyph-name="agrave" d="M202 540l-136 128h121l90 -128h-75zM198 58q72 0 121 64v104h-20q-169 0 -169 -104q0 -32 21 -48t47 -16zM181 -12q-61 0 -100 36t-39 95q0 60 41 99t95.5 53t120.5 14h20v42q0 49 -22 71.5t-71 22.5q-65 0 -125 -51l-42 57q71 66 174 66q170 0 170 -163v-214 q0 -66 12 -116h-84q-5 17 -8 57q-24 -31 -61.5 -50t-80.5 -19z" unicode="à"/>
<glyph glyph-name="aacute" d="M193 540l90 128h122l-136 -128h-76zM198 58q72 0 121 64v104h-20q-169 0 -169 -104q0 -32 21 -48t47 -16zM181 -12q-61 0 -100 36t-39 95q0 60 41 99t95.5 53t120.5 14h20v42q0 49 -22 71.5t-71 22.5q-65 0 -125 -51l-42 57q71 66 174 66q170 0 170 -163v-214 q0 -66 12 -116h-84q-5 17 -8 57q-24 -31 -61.5 -50t-80.5 -19z" unicode="á"/>
<glyph glyph-name="acircumflex" d="M80 541l123 154h64l122 -154h-78l-78 81l-76 -81h-77zM198 58q72 0 121 64v104h-20q-169 0 -169 -104q0 -32 21 -48t47 -16zM181 -12q-61 0 -100 36t-39 95q0 60 41 99t95.5 53t120.5 14h20v42q0 49 -22 71.5t-71 22.5q-65 0 -125 -51l-42 57q71 66 174 66 q170 0 170 -163v-214q0 -66 12 -116h-84q-5 17 -8 57q-24 -31 -61.5 -50t-80.5 -19z" unicode="â"/>
<glyph glyph-name="atilde" d="M285 544q-26 0 -58 19t-50 19q-7 0 -13.5 -2t-12.5 -6.5t-9.5 -8t-8.5 -9t-6 -6.5l-44 40q44 63 98 63q28 0 59.5 -19t48.5 -19q27 0 52 31l44 -41q-46 -61 -100 -61zM198 58q72 0 121 64v104h-20q-169 0 -169 -104q0 -32 21 -48t47 -16zM181 -12q-61 0 -100 36t-39 95 q0 60 41 99t95.5 53t120.5 14h20v42q0 49 -22 71.5t-71 22.5q-65 0 -125 -51l-42 57q71 66 174 66q170 0 170 -163v-214q0 -66 12 -116h-84q-5 17 -8 57q-24 -31 -61.5 -50t-80.5 -19z" unicode="ã"/>
<glyph glyph-name="adieresis" d="M329 539q-23 0 -40 16.5t-17 40.5q0 23 17 40t40 17q25 0 41.5 -16.5t16.5 -40.5t-16.5 -40.5t-41.5 -16.5zM138 539q-24 0 -40.5 16.5t-16.5 40.5q0 23 16.5 40t40.5 17t41 -17t17 -40q0 -24 -17 -40.5t-41 -16.5zM198 58q72 0 121 64v104h-20q-169 0 -169 -104 q0 -32 21 -48t47 -16zM181 -12q-61 0 -100 36t-39 95q0 60 41 99t95.5 53t120.5 14h20v42q0 49 -22 71.5t-71 22.5q-65 0 -125 -51l-42 57q71 66 174 66q170 0 170 -163v-214q0 -66 12 -116h-84q-5 17 -8 57q-24 -31 -61.5 -50t-80.5 -19z" unicode="ä"/>
<glyph glyph-name="aring" d="M234 587q22 0 35.5 16t13.5 38q0 23 -13 38.5t-36 15.5t-36 -15.5t-13 -38.5q0 -22 13.5 -38t35.5 -16zM234 544q-39 0 -68.5 28.5t-29.5 68.5t29.5 68.5t68.5 28.5t68.5 -28.5t29.5 -68.5t-29.5 -68.5t-68.5 -28.5zM198 58q72 0 121 64v104h-20q-169 0 -169 -104 q0 -32 21 -48t47 -16zM181 -12q-61 0 -100 36t-39 95q0 60 41 99t95.5 53t120.5 14h20v42q0 49 -22 71.5t-71 22.5q-65 0 -125 -51l-42 57q71 66 174 66q170 0 170 -163v-214q0 -66 12 -116h-84q-5 17 -8 57q-24 -31 -61.5 -50t-80.5 -19z" unicode="å"/>
<glyph glyph-name="ae" horiz-adv-x="775" unicode="æ" d="M411 301h235q-2 54 -28.5 88.5t-81.5 34.5q-53 0 -84.5 -33t-40.5 -90zM198 58q86 0 137 79q-14 46 -17 89h-19q-169 0 -169 -104q0 -32 21 -48t47 -16zM181 -12q-61 0 -100 36t-39 95q0 60 41 99t95.5 53t120.5 14h21v42q0 46 -21 70t-73 24q-12 0 -24 -2t-21 -4 t-19.5 -6.5t-16.5 -7.5t-14.5 -9t-11.5 -8t-11 -8l-7 -6l-42 57q75 66 174 66q110 0 147 -73q63 73 158 73q92 0 143 -60t51 -162q0 -11 -2 -35h-322q2 -79 37.5 -128.5t108.5 -49.5q12 0 24 1.5t21.5 3t20 5.5t17 6t16 7t12.5 6.5t11 6.5t9 5l33 -62q-75 -49 -168 -49 q-122 0 -186 94q-77 -94 -183 -94z"/>
<glyph glyph-name="ccedilla" horiz-adv-x="444" unicode="ç" d="M202 -221q-41 0 -70 12l13 46q22 -11 53 -11q50 0 50 38q0 40 -60 40h-11l33 90q-81 17 -126.5 85.5t-45.5 161.5q0 119 65 185.5t163 66.5q88 0 147 -46l-36 -62q-53 38 -111 38q-68 0 -103 -49.5t-35 -130.5q0 -80 35.5 -132t104.5 -52q67 0 115 38l32 -62 q-59 -47 -151 -47l-20 -52q31 -5 51 -24t20 -48q0 -39 -32.5 -62t-80.5 -23z"/>
<glyph glyph-name="egrave" horiz-adv-x="496" unicode="è" d="M226 540l-136 128h121l90 -128h-75zM132 301h235q-2 54 -28.5 88.5t-81.5 34.5q-53 0 -84.5 -33t-40.5 -90zM271 -12q-112 0 -172.5 71.5t-60.5 184.5q0 108 62.5 178.5t158.5 70.5q91 0 142 -59t51 -161q0 -11 -2 -37h-321q2 -79 37.5 -128.5t108.5 -49.5q59 0 131 41 l33 -62q-75 -49 -168 -49z"/>
<glyph glyph-name="eacute" horiz-adv-x="496" unicode="é" d="M132 301h235q-2 54 -28.5 88.5t-81.5 34.5q-53 0 -84.5 -33t-40.5 -90zM271 -12q-112 0 -172.5 71.5t-60.5 184.5q0 108 62.5 178.5t158.5 70.5q91 0 142 -59t51 -161q0 -11 -2 -37h-321q2 -79 37.5 -128.5t108.5 -49.5q59 0 131 41l33 -62q-75 -49 -168 -49zM216 540 l90 128h122l-136 -128h-76z"/>
<glyph glyph-name="ecircumflex" horiz-adv-x="496" unicode="ê" d="M132 301h235q-2 54 -28.5 88.5t-81.5 34.5q-53 0 -84.5 -33t-40.5 -90zM271 -12q-112 0 -172.5 71.5t-60.5 184.5q0 108 62.5 178.5t158.5 70.5q91 0 142 -59t51 -161q0 -11 -2 -37h-321q2 -79 37.5 -128.5t108.5 -49.5q59 0 131 41l33 -62q-75 -49 -168 -49zM103 541 l123 154h64l122 -154h-78l-78 81l-76 -81h-77z"/>
<glyph glyph-name="edieresis" horiz-adv-x="496" unicode="ë" d="M132 301h235q-2 54 -28.5 88.5t-81.5 34.5q-53 0 -84.5 -33t-40.5 -90zM271 -12q-112 0 -172.5 71.5t-60.5 184.5q0 108 62.5 178.5t158.5 70.5q91 0 142 -59t51 -161q0 -11 -2 -37h-321q2 -79 37.5 -128.5t108.5 -49.5q59 0 131 41l33 -62q-75 -49 -168 -49zM352 539 q-23 0 -40 16.5t-17 40.5q0 23 17 40t40 17q24 0 41 -16.5t17 -40.5t-16.5 -40.5t-41.5 -16.5zM161 539q-24 0 -40.5 16.5t-16.5 40.5q0 23 16.5 40t40.5 17t41 -17t17 -40q0 -24 -17 -40.5t-41 -16.5z"/>
<glyph glyph-name="igrave" horiz-adv-x="256" unicode="ì" d="M96 540l-136 128h121l90 -128h-75zM85 0v481h86v-481h-86z"/>
<glyph glyph-name="iacute" horiz-adv-x="256" unicode="í" d="M85 0v481h86v-481h-86zM88 540l90 128h122l-136 -128h-76z"/>
<glyph glyph-name="icircumflex" horiz-adv-x="256" unicode="î" d="M85 0v481h86v-481h-86zM-26 541l123 154h64l122 -154h-78l-78 81l-76 -81h-77z"/>
<glyph glyph-name="idieresis" horiz-adv-x="256" unicode="ï" d="M85 0v481h86v-481h-86zM223 539q-23 0 -40 16.5t-17 40.5q0 23 17 40t40 17q25 0 41.5 -16.5t16.5 -40.5t-16.5 -40.5t-41.5 -16.5zM32 539q-24 0 -40.5 16.5t-16.5 40.5q0 23 16.5 40t40.5 17t41 -17t17 -40q0 -24 -17 -40.5t-41 -16.5z"/>
<glyph glyph-name="eth" horiz-adv-x="542" unicode="ð" d="M267 58q69 0 107.5 62t38.5 185q0 1 -0.5 10t-0.5 10q-52 90 -156 90q-60 0 -93.5 -47t-33.5 -127q0 -86 37.5 -134.5t100.5 -48.5zM264 -12q-96 0 -161 69t-65 182q0 115 62 181t157 66q93 0 143 -63q-25 120 -107 181l-77 -66l-40 46l60 51q-63 28 -150 28l17 69 q112 0 196 -41l71 61l41 -46l-57 -49q148 -113 148 -357q0 -135 -61 -223.5t-177 -88.5z"/>
<glyph glyph-name="ntilde" horiz-adv-x="535" unicode="ñ" d="M311 544q-26 0 -58 19t-50 19q-7 0 -13.5 -2t-12.5 -6.5t-9.5 -8t-8.5 -9t-6 -6.5l-44 40q44 63 98 63q28 0 59.5 -19t48.5 -19q27 0 52 31l44 -41q-46 -61 -100 -61zM79 0v481h84v-67q64 79 156 79q73 0 107.5 -41.5t34.5 -109.5v-342h-85v325q0 94 -81 94 q-70 0 -132 -83v-336h-84z"/>
<glyph glyph-name="ograve" horiz-adv-x="532" unicode="ò" d="M235 540l-136 128h121l90 -128h-75zM266 58q68 0 103 51t35 131q0 79 -37.5 131t-105.5 52t-100.5 -49.5t-32.5 -131.5q0 -81 34.5 -132.5t103.5 -51.5zM264 -12q-77 0 -130 40t-74.5 95t-21.5 117q0 45 12.5 88t37.5 81t70 61t104 23q58 0 104.5 -22.5t73 -60 t40.5 -80.5t14 -88t-13.5 -88t-39.5 -81t-72 -61.5t-105 -23.5z"/>
<glyph glyph-name="oacute" horiz-adv-x="532" unicode="ó" d="M266 58q68 0 103 51t35 131q0 79 -37.5 131t-105.5 52t-100.5 -49.5t-32.5 -131.5q0 -81 34.5 -132.5t103.5 -51.5zM264 -12q-77 0 -130 40t-74.5 95t-21.5 117q0 45 12.5 88t37.5 81t70 61t104 23q58 0 104.5 -22.5t73 -60t40.5 -80.5t14 -88t-13.5 -88t-39.5 -81 t-72 -61.5t-105 -23.5zM225 540l90 128h122l-136 -128h-76z"/>
<glyph glyph-name="ocircumflex" horiz-adv-x="532" unicode="ô" d="M266 58q68 0 103 51t35 131q0 79 -37.5 131t-105.5 52t-100.5 -49.5t-32.5 -131.5q0 -81 34.5 -132.5t103.5 -51.5zM264 -12q-77 0 -130 40t-74.5 95t-21.5 117q0 45 12.5 88t37.5 81t70 61t104 23q58 0 104.5 -22.5t73 -60t40.5 -80.5t14 -88t-13.5 -88t-39.5 -81 t-72 -61.5t-105 -23.5zM112 541l123 154h64l122 -154h-78l-78 81l-76 -81h-77z"/>
<glyph glyph-name="otilde" horiz-adv-x="532" unicode="õ" d="M317 544q-26 0 -58 19t-50 19q-7 0 -13.5 -2t-12.5 -6.5t-9.5 -8t-8.5 -9t-6 -6.5l-44 40q44 63 98 63q28 0 59.5 -19t48.5 -19q27 0 52 31l44 -41q-46 -61 -100 -61zM266 58q68 0 103 51t35 131q0 79 -37.5 131t-105.5 52t-100.5 -49.5t-32.5 -131.5q0 -81 34.5 -132.5 t103.5 -51.5zM264 -12q-77 0 -130 40t-74.5 95t-21.5 117q0 45 12.5 88t37.5 81t70 61t104 23q58 0 104.5 -22.5t73 -60t40.5 -80.5t14 -88t-13.5 -88t-39.5 -81t-72 -61.5t-105 -23.5z"/>
<glyph glyph-name="odieresis" horiz-adv-x="532" unicode="ö" d="M266 58q68 0 103 51t35 131q0 79 -37.5 131t-105.5 52t-100.5 -49.5t-32.5 -131.5q0 -81 34.5 -132.5t103.5 -51.5zM264 -12q-77 0 -130 40t-74.5 95t-21.5 117q0 45 12.5 88t37.5 81t70 61t104 23q58 0 104.5 -22.5t73 -60t40.5 -80.5t14 -88t-13.5 -88t-39.5 -81 t-72 -61.5t-105 -23.5zM361 539q-23 0 -40 16.5t-17 40.5q0 23 17 40t40 17q25 0 41.5 -16.5t16.5 -40.5t-16.5 -40.5t-41.5 -16.5zM170 539q-24 0 -40.5 16.5t-16.5 40.5q0 23 16.5 40t40.5 17t41 -17t17 -40q0 -24 -17 -40.5t-41 -16.5z"/>
<glyph glyph-name="divide" horiz-adv-x="572" unicode="÷" d="M37 207v68h498v-68h-498zM284 352q-25 0 -42.5 17.5t-17.5 41.5q0 23 17.5 40t42.5 17q24 0 41 -17t17 -40q0 -24 -17 -41.5t-41 -17.5zM284 13q-25 0 -42.5 17t-17.5 41t17.5 40.5t42.5 16.5q24 0 41 -16.5t17 -40.5t-17 -41t-41 -17z"/>
<glyph glyph-name="oslash" horiz-adv-x="532" unicode="ø" d="M126 242q0 -70 24 -116l184 279q-32 20 -73 20q-68 0 -101.5 -51t-33.5 -132zM266 55q68 0 104 52.5t36 132.5q0 76 -32 125l-190 -283q33 -27 82 -27zM92 -57l-46 31l55 82q-63 72 -63 184q0 45 12.5 88t37.5 81t70 61t104 23q63 0 112 -27l58 88l48 -33l-60 -89 q74 -73 74 -190q0 -45 -13.5 -88t-39.5 -81t-72 -61.5t-105 -23.5q-69 0 -120 32z"/>
<glyph glyph-name="ugrave" horiz-adv-x="534" unicode="ù" d="M236 540l-136 128h121l90 -128h-75zM216 -12q-73 0 -108 41.5t-35 110.5v341h85v-325q0 -46 18.5 -69.5t63.5 -23.5q31 0 62 19.5t44.5 34.5t23.5 29v335h85v-372q0 -67 10 -109h-85q-6 24 -8 70q-61 -82 -156 -82z"/>
<glyph glyph-name="uacute" horiz-adv-x="534" unicode="ú" d="M216 -12q-73 0 -108 41.5t-35 110.5v341h85v-325q0 -46 18.5 -69.5t63.5 -23.5q31 0 62 19.5t44.5 34.5t23.5 29v335h85v-372q0 -67 10 -109h-85q-6 24 -8 70q-61 -82 -156 -82zM227 540l90 128h122l-136 -128h-76z"/>
<glyph glyph-name="ucircumflex" horiz-adv-x="534" unicode="û" d="M216 -12q-73 0 -108 41.5t-35 110.5v341h85v-325q0 -46 18.5 -69.5t63.5 -23.5q31 0 62 19.5t44.5 34.5t23.5 29v335h85v-372q0 -67 10 -109h-85q-6 24 -8 70q-61 -82 -156 -82zM113 541l123 154h64l122 -154h-78l-78 81l-76 -81h-77z"/>
<glyph glyph-name="udieresis" horiz-adv-x="534" unicode="ü" d="M216 -12q-73 0 -108 41.5t-35 110.5v341h85v-325q0 -46 18.5 -69.5t63.5 -23.5q31 0 62 19.5t44.5 34.5t23.5 29v335h85v-372q0 -67 10 -109h-85q-6 24 -8 70q-61 -82 -156 -82zM362 539q-23 0 -40 16.5t-17 40.5q0 23 17 40t40 17q24 0 41 -16.5t17 -40.5t-16.5 -40.5 t-41.5 -16.5zM171 539q-24 0 -40.5 16.5t-16.5 40.5q0 23 16.5 40t40.5 17t41 -17t17 -40q0 -24 -17 -40.5t-41 -16.5z"/>
<glyph glyph-name="yacute" d="M201 540l90 128h122l-136 -128h-76zM61 -232q-27 0 -52 5l12 70q21 -3 39 -3q48 0 74 25t45 79l22 60l-181 477h94l131 -370h3l126 370h89l-203 -543q-31 -83 -73.5 -126.5t-125.5 -43.5z" unicode="ý"/>
<glyph glyph-name="thorn" horiz-adv-x="538" unicode="þ" d="M272 59q64 0 99 49.5t35 131.5t-31.5 131t-93.5 49q-32 0 -64.5 -17.5t-53.5 -46.5v-255q45 -42 109 -42zM79 -219v939h84v-290q53 63 138 63q90 0 143 -66.5t53 -184.5q0 -113 -60 -183.5t-154 -70.5q-74 0 -120 41v-248h-84z"/>
<glyph glyph-name="OE" horiz-adv-x="892" unicode="Œ" d="M379 63q55 0 98 17v505q-44 18 -96 18q-111 0 -173.5 -77.5t-62.5 -191.5q0 -115 61.5 -193t172.5 -78zM381 -12q-150 0 -240.5 100.5t-90.5 243.5q0 144 89.5 245t239.5 101q53 0 100 -12h348v-76h-260v-201h229v-75h-229v-238h267v-76h-354q-44 -12 -99 -12z"/>
<glyph glyph-name="oe" horiz-adv-x="861" unicode="œ" d="M496 301h235q-2 54 -28.5 88.5t-81.5 34.5q-52 0 -83.5 -33t-41.5 -90zM266 58q68 0 103 51t35 131q0 79 -37.5 131t-105.5 52t-100.5 -49.5t-32.5 -131.5q0 -81 34.5 -132.5t103.5 -51.5zM264 -12q-77 0 -130 40t-74.5 95t-21.5 117q0 45 12.5 88t37.5 81t70 61t104 23 q126 0 185 -100q59 100 176 100q92 0 143 -60t51 -162q0 -11 -2 -35h-322q2 -79 37.5 -128.5t108.5 -49.5q14 0 27 1.5t25 4.5t21 6t19.5 8t15.5 7.5t13.5 7.5t10.5 6l32 -62q-72 -49 -168 -49q-63 0 -111.5 27t-75.5 73q-63 -100 -184 -100z"/>
<glyph glyph-name="Scaron" horiz-adv-x="502" unicode="Š" d="M234 -12q-68 0 -117.5 21.5t-75.5 46.5l44 64q61 -57 151 -57q57 0 93.5 31t36.5 75q0 25 -9.5 45t-34 38t-40 27t-52.5 27q-11 5 -16 8q-75 36 -114 77.5t-39 113.5q0 79 57.5 126t140.5 47q110 0 179 -54l-42 -66q-57 45 -136 45q-49 0 -80 -25.5t-31 -68.5t29.5 -68.5 t91.5 -54.5q27 -13 39 -19t36 -19.5t36 -23.5t29 -27.5t25 -34.5t14.5 -40.5t6.5 -50.5q0 -81 -61.5 -132t-160.5 -51zM216 718l-121 155h77l78 -82l76 82h78l-124 -155h-64z"/>
<glyph glyph-name="scaron" horiz-adv-x="410" unicode="š" d="M194 -13q-90 0 -156 46l35 63q54 -39 119 -39q44 0 69 17t25 47q0 15 -6 26.5t-23.5 23t-32 18.5t-47.5 22q-64 28 -96 60t-32 87q0 59 43 97t115 38q86 0 145 -44l-38 -61q-46 35 -106 35q-38 0 -58 -16t-20 -45t22 -45.5t72 -36.5q35 -15 56.5 -26.5t44.5 -29t34 -40.5 t11 -52q0 -67 -47.5 -106t-128.5 -39zM171 539l-121 155h77l78 -82l76 82h78l-124 -155h-64z"/>
<glyph glyph-name="Ydieresis" horiz-adv-x="563" unicode="Ÿ" d="M376 718q-23 0 -40 16.5t-17 40.5q0 23 17 40t40 17q24 0 41 -17t17 -40q0 -24 -16.5 -40.5t-41.5 -16.5zM185 718q-24 0 -40.5 16.5t-16.5 40.5q0 23 16.5 40t40.5 17t41 -17t17 -40q0 -24 -17 -40.5t-41 -16.5zM239 0v252l-222 414h100l171 -329h1l171 329h87 l-217 -414v-252h-91z"/>
<glyph glyph-name="circumflex" horiz-adv-x="500" unicode="ˆ" d="M96 541l123 154h64l122 -154h-78l-78 81l-76 -81h-77z"/>
<glyph glyph-name="tilde" horiz-adv-x="500" unicode="˜" d="M301 544q-26 0 -58 19t-50 19q-7 0 -13.5 -2t-12.5 -6.5t-9.5 -8t-8.5 -9t-6 -6.5l-44 40q44 63 98 63q28 0 59.5 -19t48.5 -19q27 0 52 31l44 -41q-46 -61 -100 -61z"/>
<glyph glyph-name="Alpha" horiz-adv-x="637" unicode="Α" d="M20 0l255 666h87l257 -666h-98l-58 157h-296l-57 -157h-90zM195 232h240l-79 215q-12 33 -25 71.5t-15 43.5h-2q-16 -53 -39 -115z"/>
<glyph glyph-name="Beta" horiz-adv-x="578" unicode="Β" d="M183 382h86q72 0 105 26.5t33 83.5q0 101 -136 101h-88v-211zM183 73h90q83 0 122 27t39 87q0 124 -155 124h-96v-238zM93 0v666h185q100 0 160.5 -40t60.5 -126q0 -117 -119 -148v-2q64 -11 106 -54t42 -109q0 -187 -253 -187h-182z"/>
<glyph glyph-name="Gamma" horiz-adv-x="470" unicode="Γ" d="M93 0v666h358v-75h-267v-591h-91z"/>
<glyph glyph-name="Delta" horiz-adv-x="617" unicode="Δ" d="M117 76h377l-145 371q-24 60 -44 124h-2q-36 -102 -44 -124zM22 0v56l240 610h88l247 -610v-56h-575z"/>
<glyph glyph-name="Epsilon" horiz-adv-x="508" unicode="Ε" d="M93 0v666h351v-76h-261v-201h229v-75h-229v-238h268v-76h-358z"/>
<glyph glyph-name="Zeta" horiz-adv-x="563" unicode="Ζ" d="M46 0v62l352 530h-336v74h444v-59l-357 -533h368v-74h-471z"/>
<glyph glyph-name="Eta" horiz-adv-x="729" unicode="Η" d="M93 0v666h91v-278h361v278h91v-666h-91v312h-361v-312h-91z"/>
<glyph glyph-name="Theta" horiz-adv-x="763" unicode="Θ" d="M233 295v75h284v-75h-284zM381 63q111 0 173 77t62 192t-61.5 193t-171.5 78q-111 0 -174 -77.5t-63 -191.5q0 -115 62 -193t173 -78zM383 -12q-151 0 -241.5 100.5t-90.5 243.5q0 144 89.5 245t240.5 101t241 -100.5t90 -243.5t-89.5 -244.5t-239.5 -101.5z"/>
<glyph glyph-name="Iota" horiz-adv-x="290" unicode="Ι" d="M99 0v666h91v-666h-91z"/>
<glyph glyph-name="Kappa" horiz-adv-x="581" unicode="Κ" d="M93 0v666h90v-317l262 317h104l-264 -313l281 -353h-111l-272 344v-344h-90z"/>
<glyph glyph-name="Lambda" horiz-adv-x="629" unicode="Λ" d="M20 0l248 666h87l256 -666h-98l-165 447q-11 30 -23.5 70t-14.5 46h-2q-24 -78 -37 -116l-161 -447h-90z"/>
<glyph glyph-name="Mu" horiz-adv-x="858" unicode="Μ" d="M51 0l92 666h85l159 -445q23 -65 41 -121h2q12 44 40 121l160 445h86l90 -666h-91l-55 418q-7 56 -11 94h-2q-12 -45 -29 -93l-149 -419h-88l-152 419q-16 46 -31 93h-2q-2 -28 -10 -96l-51 -416h-84z"/>
<glyph glyph-name="Nu" horiz-adv-x="717" unicode="Ν" d="M92 0v666h89l300 -430q36 -52 63 -101h2q-4 48 -4 93v438h83v-666h-83l-315 454q-15 21 -54 89h-2q4 -48 4 -76v-467h-83z"/>
<glyph glyph-name="Xi" horiz-adv-x="569" unicode="Ξ" d="M65 583v83h438v-83h-438zM97 310v83h375v-83h-375zM58 0v83h452v-83h-452z"/>
<glyph glyph-name="Omicron" horiz-adv-x="763" unicode="Ο" d="M381 63q111 0 173 77t62 192t-61.5 193t-171.5 78q-111 0 -174 -77.5t-63 -191.5q0 -115 62 -193t173 -78zM383 -12q-151 0 -241.5 100.5t-90.5 243.5q0 144 89.5 245t240.5 101t241 -100.5t90 -243.5t-89.5 -244.5t-239.5 -101.5z"/>
<glyph glyph-name="Pi" horiz-adv-x="701" unicode="Π" d="M93 0v666h514v-666h-90v590h-333v-590h-91z"/>
<glyph glyph-name="Rho" horiz-adv-x="552" unicode="Ρ" d="M184 337h75q82 0 119.5 32.5t37.5 98.5q0 124 -154 124h-78v-255zM93 0v666h177q106 0 172 -50.5t66 -145.5q0 -99 -66 -153t-184 -54h-74v-263h-91z"/>
<glyph glyph-name="Sigma" horiz-adv-x="509" unicode="Σ" d="M51 0v62l188 287l-175 255v62h384v-76h-277l163 -233l-184 -281h316v-76h-415z"/>
<glyph glyph-name="Tau" horiz-adv-x="505" unicode="Τ" d="M207 0v590h-188v76h467v-76h-188v-590h-91z"/>
<glyph glyph-name="Upsilon" horiz-adv-x="563" unicode="Υ" d="M239 0v252l-222 414h100l171 -329h1l171 329h87l-217 -414v-252h-91z"/>
<glyph glyph-name="Phi" horiz-adv-x="724" unicode="Φ" d="M323 143v393q-89 -2 -144.5 -56t-55.5 -139q0 -86 55.5 -141.5t144.5 -56.5zM401 143q89 1 144.5 55.5t55.5 139.5q0 87 -55.5 141.5t-144.5 56.5v-393zM318 0v73q-126 2 -205.5 77t-79.5 188t79 189.5t206 78.5v60h88v-60q126 -2 205.5 -77t79.5 -188q0 -114 -79 -190 t-206 -78v-73h-88z"/>
<glyph glyph-name="Chi" horiz-adv-x="575" unicode="Χ" d="M24 0l211 344l-200 322h103l154 -248l145 248h94l-195 -321l215 -345h-103l-169 272l-161 -272h-94z"/>
<glyph glyph-name="Psi" horiz-adv-x="730" unicode="Ψ" d="M323 0v206q-257 25 -257 272v188h90v-179q0 -104 45 -151.5t127 -53.5v384h80v-384q79 6 125.5 53.5t46.5 138.5v192h85v-184q0 -250 -252 -276v-206h-90z"/>
<glyph glyph-name="alpha" horiz-adv-x="561" unicode="α" d="M247 58q100 0 128 181q-10 79 -44 131.5t-89 52.5q-60 0 -88.5 -50t-28.5 -131t30.5 -132.5t91.5 -51.5zM237 -12q-71 0 -118.5 40.5t-65.5 94.5t-18 117q0 45 11 88t33.5 81t63 61t94.5 23q66 0 109 -35t59 -84h1q2 26 13.5 60.5t19.5 46.5h88q-27 -38 -47 -119 l-31 -116l35 -127q19 -76 52 -119h-89q-9 12 -23 47.5t-18 60.5h-1q-16 -49 -59.5 -84.5t-108.5 -35.5z"/>
<glyph glyph-name="beta" horiz-adv-x="539" unicode="β" d="M268 60q68 0 102.5 42.5t34.5 110.5q0 71 -50.5 111t-133.5 40v62q57 1 104.5 43t47.5 101q0 38 -24 63.5t-67 25.5q-54 0 -86.5 -41.5t-32.5 -123.5v-395q40 -37 105 -39zM79 -217v713q0 116 57.5 176t148.5 60q80 0 128.5 -46t48.5 -107q0 -59 -37 -108.5t-84 -61.5v-1 q61 -8 108 -63t47 -124q0 -107 -59 -168.5t-164 -61.5q-70 0 -110 36v-244h-84z"/>
<glyph glyph-name="gamma" horiz-adv-x="469" unicode="γ" d="M190 -217v226l-175 472h92l126 -371h2q97 191 123 371h86q-24 -178 -172 -469v-229h-82z"/>
<glyph glyph-name="delta" horiz-adv-x="535" unicode="δ" d="M287 403q-18 14 -26 21q-56 -26 -95.5 -80t-39.5 -124q0 -73 37.5 -117.5t102.5 -44.5t103.5 41t38.5 112q0 41 -18.5 78t-40.5 58.5t-62 55.5zM265 -12q-109 0 -169 67.5t-60 162.5q0 86 52.5 154.5t119.5 99.5q-63 67 -63 128q0 58 43.5 95t108.5 37q79 0 128 -36 l-38 -62q-41 28 -87 28q-31 0 -48 -17t-17 -45q0 -24 18.5 -50t37 -42.5t62.5 -52.5q32 -25 52 -44.5t44.5 -50t37 -67.5t12.5 -80q0 -92 -61 -158.5t-173 -66.5z"/>
<glyph glyph-name="epsilon" horiz-adv-x="435" unicode="ε" d="M239 -12q-92 0 -147 36.5t-55 107.5q0 44 32 78t78 42v1q-90 24 -90 108q0 62 55.5 97t135.5 35q96 0 157 -43l-32 -64q-54 36 -128 36q-47 0 -72.5 -18t-25.5 -52q0 -35 32.5 -53.5t82.5 -18.5h40l1 -64h-40q-57 0 -96.5 -20.5t-39.5 -57.5q0 -79 115 -79q78 0 137 39 l37 -65q-75 -45 -177 -45z"/>
<glyph glyph-name="zeta" horiz-adv-x="366" unicode="ζ" d="M291 -164l-50 43q39 23 39 60q0 35 -46 53l-44 19q-151 66 -151 191q0 61 33 127.5t98 160.5l110 163h-216v67h321v-54l-159 -226q-100 -142 -100 -222q0 -50 25.5 -80.5t82.5 -55.5l44 -19q82 -35 82 -102q0 -38 -20 -72t-49 -53z"/>
<glyph glyph-name="eta" horiz-adv-x="535" unicode="η" d="M376 -217v542q0 94 -81 94q-70 0 -132 -83v-336h-84v375q0 50 -13 106h85q9 -30 9 -67q65 79 159 79q73 0 107.5 -41.5t34.5 -109.5v-559h-85z"/>
<glyph glyph-name="theta" horiz-adv-x="536" unicode="θ" d="M265 662q-63 0 -94 -74t-35 -189h263q-3 73 -16.5 129t-43.5 95t-74 39zM270 58q122 0 130 275h-264q2 -75 15 -134t43.5 -100t75.5 -41zM269 -12q-50 0 -89.5 23t-63.5 59.5t-39 87t-21 99.5t-6 102t5.5 102t20.5 100t38.5 87.5t62.5 60t90 23.5q62 0 107 -33.5t68 -91 t33 -118t10 -128.5t-9.5 -128.5t-32 -118.5t-67 -92t-107.5 -34z"/>
<glyph glyph-name="iota" horiz-adv-x="285" unicode="ι" d="M189 -12q-59 0 -83.5 31.5t-24.5 90.5v371h84v-360q0 -32 8 -46.5t28 -14.5q18 0 36 14l26 -63q-31 -23 -74 -23z"/>
<glyph glyph-name="kappa" horiz-adv-x="521" unicode="κ" d="M82 0v481h83v-214q0 -73 -12 -129h1q49 140 243 343h103q-108 -103 -184 -194l188 -287h-98l-139 224q-90 -120 -112 -224h-73z"/>
<glyph glyph-name="lambda" horiz-adv-x="498" unicode="λ" d="M24 0l188 493l-28 78q-17 45 -30 63t-33 18q-23 0 -43 -13l-21 62q31 23 80 23q40 0 68 -26t53 -95l221 -603h-89l-116 338q-12 33 -20 72h-1q-7 -38 -20 -72l-120 -338h-89z"/>
<glyph glyph-name="mu" horiz-adv-x="551" unicode="μ" d="M75 -217v698h85v-332q0 -40 14.5 -63t55.5 -23q75 0 142 82v336h85v-377q0 -66 8 -104h-85q-5 25 -7 68q-72 -78 -152 -79q-39 0 -63 15h-2q3 -32 3 -109v-112h-84z"/>
<glyph glyph-name="nu" horiz-adv-x="469" unicode="ν" d="M194 0l-178 481h91l126 -371h2q97 191 123 371h86q-24 -178 -181 -481h-69z"/>
<glyph glyph-name="xi" horiz-adv-x="407" unicode="ξ" d="M309 -164l-50 43q39 23 39 61q0 36 -45 53l-54 18q-74 26 -115 66.5t-41 115.5q0 69 38.5 122.5t99.5 66.5v2q-46 13 -73 48t-27 83q0 49 25.5 90t61.5 52v1q-31 -4 -67 -4h-80v66h361v-67h-78q-66 0 -102 -39.5t-36 -98.5q0 -49 36.5 -79.5t95.5 -30.5h44v-65h-51 q-79 0 -119.5 -40t-40.5 -101q0 -45 29 -71t92 -49l45 -15q81 -28 81 -103q0 -38 -19.5 -72t-49.5 -53z"/>
<glyph glyph-name="omicron" horiz-adv-x="532" unicode="ο" d="M266 58q68 0 103 51t35 131q0 79 -37.5 131t-105.5 52t-100.5 -49.5t-32.5 -131.5q0 -81 34.5 -132.5t103.5 -51.5zM264 -12q-77 0 -130 40t-74.5 95t-21.5 117q0 45 12.5 88t37.5 81t70 61t104 23q58 0 104.5 -22.5t73 -60t40.5 -80.5t14 -88t-13.5 -88t-39.5 -81 t-72 -61.5t-105 -23.5z"/>
<glyph glyph-name="pi" horiz-adv-x="619" unicode="π" d="M484 -12q-59 0 -83.5 31.5t-24.5 90.5v305h-164q0 -215 -29 -415h-87q34 210 34 415h-98v66h545v-66h-116v-294q0 -32 7.5 -46.5t28.5 -14.5q19 0 35 14l26 -63q-29 -23 -74 -23z"/>
<glyph glyph-name="rho" horiz-adv-x="519" unicode="ρ" d="M248 59q65 0 103.5 51.5t38.5 136.5q0 81 -31.5 128.5t-93.5 47.5q-120 0 -120 -173v-156q43 -35 103 -35zM60 -217v472q0 238 206 238q99 0 157 -63t58 -181q0 -117 -64.5 -189t-165.5 -72q-65 0 -106 33v-238h-85z"/>
<glyph glyph-name="sigma1" horiz-adv-x="436" unicode="ς" d="M308 -164l-50 43q40 22 40 60q0 34 -46 53l-58 24q-79 31 -117.5 84.5t-38.5 143.5q0 118 65 183.5t163 65.5q88 0 147 -46l-36 -62q-53 38 -111 38q-69 0 -103.5 -48t-34.5 -128q0 -113 110 -159l58 -25q81 -35 81 -102q0 -38 -19.5 -72t-49.5 -53z"/>
<glyph glyph-name="sigma" horiz-adv-x="550" unicode="σ" d="M266 58q68 0 103 49.5t35 126.5q0 75 -37.5 126t-105.5 51q-67 0 -100 -49t-33 -126q0 -76 35 -127t103 -51zM264 -12q-58 0 -103.5 22.5t-71 60t-38.5 79t-13 84.5t13 84.5t39 79t73.5 60.5t108.5 23h252v-66h-112v-1q35 -22 58.5 -71.5t23.5 -106.5q0 -34 -8 -67.5 t-26 -66.5t-44 -58t-65.5 -40.5t-86.5 -15.5z"/>
<glyph glyph-name="tau" horiz-adv-x="411" unicode="τ" d="M251 -12q-59 0 -83.5 31.5t-24.5 90.5v305h-131v66h383v-66h-168v-294q0 -32 8 -46.5t28 -14.5q18 0 36 14l26 -63q-31 -23 -74 -23z"/>
<glyph glyph-name="upsilon" horiz-adv-x="525" unicode="υ" d="M265 -12q-91 0 -142.5 56t-51.5 163v274h85v-263q0 -160 109 -160q57 0 87.5 55t30.5 187q0 91 -30 181h87q30 -80 30 -181q0 -312 -205 -312z"/>
<glyph glyph-name="phi" horiz-adv-x="646" unicode="φ" d="M282 55v372q-72 -4 -114 -53.5t-42 -131.5q0 -83 42 -134t114 -53zM358 54q72 3 117.5 53t45.5 132t-45.5 133t-117.5 55v-373zM282 -219v207q-115 3 -180.5 78t-65.5 174q0 98 65.5 174t180.5 79v227h76v-227q115 -3 183.5 -78.5t68.5 -172.5q0 -98 -68.5 -174.5 t-183.5 -79.5v-207h-76z"/>
<glyph glyph-name="chi" horiz-adv-x="441" unicode="χ" d="M0 -217l176 363l-162 335h91l117 -258h1l119 258h85l-163 -334l177 -364h-91l-133 286h-1l-130 -286h-86z"/>
<glyph glyph-name="psi" horiz-adv-x="664" unicode="ψ" d="M293 -219v207q-96 3 -159 59.5t-63 160.5v273h85v-261q0 -79 39.5 -119.5t98.5 -42.5v582h77v-582q64 3 107.5 58.5t43.5 183.5q0 91 -30 181h87q29 -77 29 -181q0 -84 -19 -145.5t-53 -96.5t-74.5 -51.5t-89.5 -18.5v-207h-79z"/>
<glyph glyph-name="afii10023" horiz-adv-x="508" unicode="Ё" d="M93 0v666h351v-76h-261v-201h229v-75h-229v-238h268v-76h-358zM368 718q-23 0 -40 16.5t-17 40.5q0 23 17 40t40 17q24 0 41 -17t17 -40q0 -24 -16.5 -40.5t-41.5 -16.5zM177 718q-24 0 -40.5 16.5t-16.5 40.5q0 23 16.5 40t40.5 17t41 -17t17 -40q0 -24 -17 -40.5 t-41 -16.5z"/>
<glyph glyph-name="afii10051" horiz-adv-x="707" unicode="Ђ" d="M181 0v590h-162v76h470v-76h-218v-219q28 37 78 68.5t113 31.5q98 0 147 -74.5t49 -201.5q0 -167 -77 -277.5t-192 -110.5q-41 0 -65 12l18 74q19 -7 51 -7q73 0 122.5 88.5t49.5 214.5q0 206 -126 206q-54 0 -98.5 -32t-69.5 -68v-295h-90z"/>
<glyph glyph-name="afii10052" horiz-adv-x="470" unicode="Ѓ" d="M93 0v666h358v-75h-267v-591h-91zM209 719l90 128h122l-136 -128h-76z"/>
<glyph glyph-name="afii10053" horiz-adv-x="616" unicode="Є" d="M379 -12q-152 0 -240 100.5t-88 246.5q0 144 89.5 243.5t240.5 99.5q111 0 189 -51l-44 -67q-63 43 -147 43q-102 0 -163.5 -68.5t-67.5 -165.5h321v-75h-320q7 -97 68.5 -163.5t163.5 -66.5q95 0 161 56l40 -64q-29 -27 -83.5 -47.5t-119.5 -20.5z"/>
<glyph glyph-name="afii10054" horiz-adv-x="502" unicode="Ѕ" d="M234 -12q-68 0 -117.5 21.5t-75.5 46.5l44 64q61 -57 151 -57q57 0 93.5 31t36.5 75q0 25 -9.5 45t-34 38t-40 27t-52.5 27q-11 5 -16 8q-75 36 -114 77.5t-39 113.5q0 79 57.5 126t140.5 47q110 0 179 -54l-42 -66q-57 45 -136 45q-49 0 -80 -25.5t-31 -68.5t29.5 -68.5 t91.5 -54.5q27 -13 39 -19t36 -19.5t36 -23.5t29 -27.5t25 -34.5t14.5 -40.5t6.5 -50.5q0 -81 -61.5 -132t-160.5 -51z"/>
<glyph glyph-name="afii10055" horiz-adv-x="284" unicode="І" d="M93 0v666h91v-666h-91z"/>
<glyph glyph-name="afii10056" horiz-adv-x="290" unicode="Ї" d="M240 718q-23 0 -40 16.5t-17 40.5q0 23 17 40t40 17q24 0 41 -17t17 -40q0 -24 -16.5 -40.5t-41.5 -16.5zM49 718q-24 0 -40.5 16.5t-16.5 40.5q0 23 16.5 40t40.5 17t41 -17t17 -40q0 -24 -17 -40.5t-41 -16.5zM99 0v666h91v-666h-91z"/>
<glyph glyph-name="afii10057" horiz-adv-x="292" unicode="Ј" d="M40 -193q-35 0 -65 11l14 77q19 -8 41 -8q40 0 59 28t19 87v664h91v-678q0 -87 -40.5 -134t-118.5 -47z"/>
<glyph glyph-name="afii10058" horiz-adv-x="959" unicode="Љ" d="M573 74h95q158 0 158 131q0 124 -155 124h-98v-255zM39 -10l-12 74q57 3 86 66.5t40 192.5l29 343h391v-263h107q106 0 172 -50t66 -145q0 -100 -66 -154t-184 -54h-185v590h-217l-24 -284q-13 -159 -61 -237.5t-142 -78.5z"/>
<glyph glyph-name="afii10059" horiz-adv-x="954" unicode="Њ" d="M568 74h95q157 0 157 129q0 123 -154 123h-98v-252zM93 0v666h91v-266h294v266h90v-266h106q106 0 172 -50t66 -144q0 -99 -65.5 -152.5t-184.5 -53.5h-184v325h-294v-325h-91z"/>
<glyph glyph-name="afii10060" horiz-adv-x="723" unicode="Ћ" d="M181 0v590h-162v76h470v-76h-218v-219q27 36 80.5 68t116.5 32q88 0 139 -51.5t51 -142.5v-277h-90v260q0 67 -34 101t-89 34q-54 0 -101.5 -32.5t-72.5 -67.5v-295h-90z"/>
<glyph glyph-name="afii10061" horiz-adv-x="587" unicode="Ќ" d="M93 0v666h90v-291h57l216 291h101l-245 -317q34 -26 107 -134q9 -13 23.5 -34.5t21.5 -32t18 -25t18 -21.5t16 -14t17.5 -10t18.5 -3h10l-2 -75h-35q-45 0 -76.5 31.5t-97.5 128.5q-11 17 -31 47t-28 41.5t-21.5 27t-25 21t-24.5 5.5h-38v-302h-90zM257 719l90 128h122 l-136 -128h-76z"/>
<glyph glyph-name="afii10062" horiz-adv-x="552" unicode="Ў" d="M287 714q-59 0 -101 36t-48 108h74q3 -37 22.5 -59t52.5 -22q32 0 51.5 22t22.5 59h74q-6 -72 -48 -108t-100 -36zM108 -2q-31 0 -44 6l12 69q12 -3 32 -3q40 0 67 24.5t51 79.5l17 38l-201 454h87l158 -357l157 357h87l-231 -525q-34 -77 -78.5 -110t-113.5 -33z"/>
<glyph glyph-name="afii10145" horiz-adv-x="693" unicode="Џ" d="M316 -144l-7 144h-216v666h91v-590h325v590h90v-666h-214l-7 -144h-62z"/>
<glyph glyph-name="afii10017" horiz-adv-x="637" unicode="А" d="M20 0l255 666h87l257 -666h-98l-58 157h-296l-57 -157h-90zM195 232h240l-79 215q-12 33 -25 71.5t-15 43.5h-2q-16 -53 -39 -115z"/>
<glyph glyph-name="afii10018" horiz-adv-x="581" unicode="Б" d="M184 74h94q158 0 158 129q0 123 -154 123h-98v-252zM93 0v666h377v-76h-286v-190h106q106 0 172 -50t66 -144q0 -99 -65.5 -152.5t-184.5 -53.5h-185z"/>
<glyph glyph-name="afii10019" horiz-adv-x="578" unicode="В" d="M183 382h86q72 0 105 26.5t33 83.5q0 101 -136 101h-88v-211zM183 73h90q83 0 122 27t39 87q0 124 -155 124h-96v-238zM93 0v666h185q100 0 160.5 -40t60.5 -126q0 -117 -119 -148v-2q64 -11 106 -54t42 -109q0 -187 -253 -187h-182z"/>
<glyph glyph-name="afii10020" horiz-adv-x="470" unicode="Г" d="M93 0v666h358v-75h-267v-591h-91z"/>
<glyph glyph-name="afii10021" horiz-adv-x="698" unicode="Д" d="M178 76h314v514h-213l-27 -282q-16 -171 -74 -232zM37 -144l-12 220h53q39 33 57 86.5t28 160.5l33 343h387v-590h68l-21 -220h-62l-7 144h-448l-14 -144h-62z"/>
<glyph glyph-name="afii10022" horiz-adv-x="508" unicode="Е" d="M93 0v666h351v-76h-261v-201h229v-75h-229v-238h268v-76h-358z"/>
<glyph glyph-name="afii10024" horiz-adv-x="897" unicode="Ж" d="M25 0l2 75h8q10 0 18.5 3t17.5 10t16 14t17.5 21.5t18 25.5t21 31.5t23.5 34.5q71 107 107 134l-244 317h100l216 -291h58v291h89v-291h58l215 291h101l-245 -317q33 -25 108 -134q9 -13 23.5 -34.5t21 -31.5t17.5 -25t17.5 -21.5t16 -14.5t18 -10.5t18.5 -2.5h10l-2 -75 h-35q-44 0 -76.5 32t-97.5 128q-10 14 -23 34.5t-20.5 31.5t-17.5 25.5t-17 22t-16 15t-17.5 10.5t-17.5 3h-39v-302h-89v302h-43q-12 -1 -23 -6.5t-24 -21.5t-21 -27t-28 -41.5t-30 -45.5q-64 -96 -96.5 -128t-77.5 -32h-36z"/>
<glyph glyph-name="afii10025" horiz-adv-x="525" unicode="З" d="M227 -12q-116 0 -194 61l43 65q58 -51 153 -51q153 0 153 119q0 59 -43 94t-121 35h-67v71h57q68 0 107.5 30t39.5 85q0 48 -33 76t-95 28q-88 0 -144 -43l-34 62q69 58 180 58q97 0 157 -44.5t60 -128.5q0 -59 -29 -99t-84 -54v-2q63 -11 102.5 -56t39.5 -113 q0 -95 -68 -144t-180 -49z"/>
<glyph glyph-name="afii10026" horiz-adv-x="721" unicode="И" d="M93 0v666h84v-445q0 -45 -4 -93h2q44 71 64 101l298 437h90v-666h-83v474q0 20 1.5 46.5t1.5 29.5h-2q-35 -61 -54 -89l-314 -461h-84z"/>
<glyph glyph-name="afii10027" horiz-adv-x="721" unicode="Й" d="M363 714q-59 0 -101 36t-48 108h74q3 -37 22.5 -59t52.5 -22q32 0 51.5 22t22.5 59h74q-6 -72 -48 -108t-100 -36zM93 0v666h84v-445q0 -45 -4 -93h2q44 71 64 101l298 437h90v-666h-83v474q0 20 1.5 46.5t1.5 29.5h-2q-35 -61 -54 -89l-314 -461h-84z"/>
<glyph glyph-name="afii10028" horiz-adv-x="587" unicode="К" d="M93 0v666h90v-291h57l216 291h101l-245 -317q34 -26 107 -134q9 -13 23.5 -34.5t21.5 -32t18 -25t18 -21.5t16 -14t17.5 -10t18.5 -3h10l-2 -75h-35q-45 0 -76.5 31.5t-97.5 128.5q-11 17 -31 47t-28 41.5t-21.5 27t-25 21t-24.5 5.5h-38v-302h-90z"/>
<glyph glyph-name="afii10029" horiz-adv-x="667" unicode="Л" d="M39 -10l-12 74q57 3 86 66.5t40 192.5l29 343h391v-666h-90v590h-217l-24 -284q-13 -159 -61 -237.5t-142 -78.5z"/>
<glyph glyph-name="afii10030" horiz-adv-x="858" unicode="М" d="M51 0l92 666h85l159 -445q23 -65 41 -121h2q12 44 40 121l160 445h86l90 -666h-91l-55 418q-7 56 -11 94h-2q-12 -45 -29 -93l-149 -419h-88l-152 419q-16 46 -31 93h-2q-2 -28 -10 -96l-51 -416h-84z"/>
<glyph glyph-name="afii10031" horiz-adv-x="729" unicode="Н" d="M93 0v666h91v-278h361v278h91v-666h-91v312h-361v-312h-91z"/>
<glyph glyph-name="afii10032" horiz-adv-x="763" unicode="О" d="M381 63q111 0 173 77t62 192t-61.5 193t-171.5 78q-111 0 -174 -77.5t-63 -191.5q0 -115 62 -193t173 -78zM383 -12q-151 0 -241.5 100.5t-90.5 243.5q0 144 89.5 245t240.5 101t241 -100.5t90 -243.5t-89.5 -244.5t-239.5 -101.5z"/>
<glyph glyph-name="afii10033" horiz-adv-x="701" unicode="П" d="M93 0v666h514v-666h-90v590h-333v-590h-91z"/>
<glyph glyph-name="afii10034" horiz-adv-x="552" unicode="Р" d="M184 337h75q82 0 119.5 32.5t37.5 98.5q0 124 -154 124h-78v-255zM93 0v666h177q107 0 173 -50.5t66 -145.5q0 -99 -66 -153t-184 -54h-75v-263h-91z"/>
<glyph glyph-name="afii10035" horiz-adv-x="616" unicode="С" d="M379 -12q-151 0 -239.5 102t-88.5 245q0 91 38 168.5t114.5 126t177.5 48.5q111 0 189 -51l-44 -67q-63 43 -147 43q-110 0 -171.5 -77t-61.5 -189q0 -115 61 -194t174 -79q95 0 161 56l40 -64q-29 -27 -83.5 -47.5t-119.5 -20.5z"/>
<glyph glyph-name="afii10036" horiz-adv-x="505" unicode="Т" d="M207 0v590h-188v76h467v-76h-188v-590h-91z"/>
<glyph glyph-name="afii10037" horiz-adv-x="552" unicode="У" d="M108 -2q-31 0 -44 6l12 69q12 -3 32 -3q40 0 67 24.5t51 79.5l17 38l-201 454h87l158 -357l157 357h87l-231 -525q-34 -77 -78.5 -110t-113.5 -33z"/>
<glyph glyph-name="afii10038" horiz-adv-x="724" unicode="Ф" d="M323 143v393q-89 -2 -144.5 -56t-55.5 -139q0 -86 55.5 -141.5t144.5 -56.5zM401 143q89 1 144.5 55.5t55.5 139.5q0 87 -55.5 141.5t-144.5 56.5v-393zM318 0v73q-126 2 -205.5 77t-79.5 188t79 189.5t206 78.5v60h88v-60q126 -2 205.5 -77t79.5 -188q0 -114 -79 -190 t-206 -78v-73h-88z"/>
<glyph glyph-name="afii10039" horiz-adv-x="575" unicode="Х" d="M24 0l211 344l-200 322h103l154 -248l145 248h94l-195 -321l215 -345h-103l-169 272l-161 -272h-94z"/>
<glyph glyph-name="afii10040" horiz-adv-x="714" unicode="Ц" d="M585 -144l-8 144h-484v666h91v-590h325v590h90v-590h69l-21 -220h-62z"/>
<glyph glyph-name="afii10041" horiz-adv-x="636" unicode="Ч" d="M453 0v286q-27 -37 -80.5 -69t-117.5 -32q-88 0 -139.5 52t-51.5 143v286h90v-269q0 -67 34.5 -101.5t89.5 -34.5t102.5 32.5t72.5 67.5v305h90v-666h-90z"/>
<glyph glyph-name="afii10042" horiz-adv-x="1012" unicode="Ш" d="M93 0v666h91v-590h270v590h90v-590h270v590h91v-666h-812z"/>
<glyph glyph-name="afii10043" horiz-adv-x="1020" unicode="Щ" d="M890 -144l-7 144h-790v666h91v-590h270v590h90v-590h270v590h91v-590h69l-22 -220h-62z"/>
<glyph glyph-name="afii10044" horiz-adv-x="655" unicode="Ъ" d="M269 74h95q82 0 120 33t38 98q0 124 -155 124h-98v-255zM179 0v590h-160v76h250v-263h107q106 0 172 -50t66 -145q0 -100 -66 -154t-184 -54h-185z"/>
<glyph glyph-name="afii10045" horiz-adv-x="837" unicode="Ы" d="M184 74h94q82 0 120 33t38 98q0 124 -154 124h-98v-255zM93 0v666h91v-263h106q106 0 172 -50t66 -145q0 -100 -66 -154t-184 -54h-185zM652 0v666h91v-666h-91z"/>
<glyph glyph-name="afii10046" horiz-adv-x="570" unicode="Ь" d="M184 74h94q82 0 120 33t38 98q0 124 -154 124h-98v-255zM93 0v666h91v-263h106q106 0 172 -50t66 -145q0 -100 -66 -154t-184 -54h-185z"/>
<glyph glyph-name="afii10047" horiz-adv-x="616" unicode="Э" d="M235 -12q-120 0 -202 59l44 67q66 -51 160 -51q100 0 162.5 67t67.5 164h-311v75h310q-4 98 -65.5 165.5t-166.5 67.5q-84 0 -148 -47l-41 64q80 59 192 59q153 0 240 -98.5t87 -245.5q0 -145 -89 -245.5t-240 -100.5z"/>
<glyph glyph-name="afii10048" horiz-adv-x="1067" unicode="Ю" d="M685 63q111 0 173.5 77.5t62.5 191.5q0 115 -61.5 193t-172.5 78t-173.5 -77.5t-62.5 -191.5q0 -115 61.5 -193t172.5 -78zM687 -12q-145 0 -234.5 94t-96.5 230h-172v-312h-91v666h91v-278h176q17 125 103.5 207.5t221.5 82.5q151 0 241 -100.5t90 -243.5t-89 -244.5 t-240 -101.5z"/>
<glyph glyph-name="afii10049" horiz-adv-x="593" unicode="Я" d="M313 372h96v220h-90q-143 0 -143 -107q0 -113 137 -113zM45 0l-2 75h10q9 0 18 2.5t18 10t15.5 14t17.5 21t17.5 24.5t20.5 30.5t23 33.5q55 82 82 99v2q-81 6 -131 50t-50 122q0 86 59.5 134t166.5 48h189v-666h-90v301h-27q-11 0 -21 -5.5t-18 -12t-20 -22t-19.5 -27 t-23.5 -35.5l-26 -39q-65 -96 -97.5 -128t-76.5 -32h-35z"/>
<glyph glyph-name="afii10065" d="M198 58q72 0 121 64v104h-20q-169 0 -169 -104q0 -32 21 -48t47 -16zM181 -12q-61 0 -100 36t-39 95q0 60 41 99t95.5 53t120.5 14h20v42q0 49 -22 71.5t-71 22.5q-65 0 -125 -51l-42 57q71 66 174 66q170 0 170 -163v-214q0 -66 12 -116h-84q-5 17 -8 57 q-24 -31 -61.5 -50t-80.5 -19z" unicode="а"/>
<glyph glyph-name="afii10066" horiz-adv-x="531" unicode="б" d="M277 58q57 0 91.5 48t34.5 133q0 80 -33 128.5t-90 48.5q-52 0 -84 -23.5t-58 -66.5v-21q0 -122 37.5 -184.5t101.5 -62.5zM274 -12q-224 0 -224 354q0 144 54.5 232t186.5 119l157 36l14 -78l-155 -32q-167 -37 -173 -213q55 80 151 80q92 0 150 -66t58 -179 q0 -111 -64.5 -182t-154.5 -71z"/>
<glyph glyph-name="afii10067" horiz-adv-x="494" unicode="в" d="M166 280h83q50 0 73 17.5t23 54.5q0 64 -94 64h-85v-136zM166 67h88q59 0 84.5 16t25.5 56q0 79 -105 79h-93v-151zM81 0v481h177q172 0 172 -120q0 -84 -89 -108v-1q48 -8 79 -38.5t31 -79.5q0 -134 -195 -134h-175z"/>
<glyph glyph-name="afii10068" horiz-adv-x="397" unicode="г" d="M81 0v481h297v-67h-212v-414h-85z"/>
<glyph glyph-name="afii10069" horiz-adv-x="560" unicode="д" d="M143 67h229v347h-162l-15 -191q-9 -110 -52 -156zM31 -144l-12 211h38q47 30 59 168l22 246h318v-414h64l-21 -211h-59l-8 144h-327l-14 -144h-60z"/>
<glyph glyph-name="afii10070" horiz-adv-x="496" unicode="е" d="M132 301h235q-2 54 -28.5 88.5t-81.5 34.5q-53 0 -84.5 -33t-40.5 -90zM271 -12q-112 0 -172.5 71.5t-60.5 184.5q0 108 62.5 178.5t158.5 70.5q91 0 142 -59t51 -161q0 -11 -2 -37h-321q2 -79 37.5 -128.5t108.5 -49.5q59 0 131 41l33 -62q-75 -49 -168 -49z"/>
<glyph glyph-name="afii10072" horiz-adv-x="730" unicode="ж" d="M25 0l2 68h5q19 0 38.5 21t54.5 73q49 74 83 97l-187 222h97l166 -201h38v201h86v-201h38l166 201h97l-187 -222q31 -21 83 -97q35 -52 54.5 -73t38.5 -21h7l-2 -68h-27q-40 0 -67.5 25t-73.5 94q-34 50 -56.5 73.5t-42.5 24.5h-28v-217h-86v217h-28q-20 -1 -42.5 -24.5 t-56.5 -73.5q-46 -69 -73.5 -94t-67.5 -25h-29z"/>
<glyph glyph-name="afii10073" horiz-adv-x="428" unicode="з" d="M29 33l37 58q48 -35 122 -35q110 0 110 83q0 37 -39.5 59t-93.5 22h-26v57h26q49 0 81.5 20t32.5 55q0 34 -24.5 54t-69.5 20q-63 0 -113 -34l-32 57q62 44 148 44q76 0 126 -34t50 -98q0 -84 -89 -108v-1q48 -8 79 -38.5t31 -79.5q0 -71 -55 -108.5t-145 -37.5 q-92 0 -156 45z"/>
<glyph glyph-name="afii10074" horiz-adv-x="583" unicode="и" d="M81 0v481h78v-294v-21.5t-0.5 -20.5t-1 -16.5t-0.5 -12.5v-4h1q22 42 50 81l209 288h84v-481h-80v316l3 63h-1q0 -1 -5.5 -11t-16.5 -28t-22 -33l-223 -307h-75z"/>
<glyph glyph-name="afii10075" horiz-adv-x="583" unicode="й" d="M287 535q-59 0 -101 36t-48 108h74q3 -37 22.5 -59t52.5 -22q32 0 51.5 22t22.5 59h74q-6 -72 -48 -108t-100 -36zM81 0v481h78v-294v-21.5t-0.5 -20.5t-1 -16.5t-0.5 -12.5v-4h1q22 42 50 81l209 288h84v-481h-80v316l3 63h-1q0 -1 -5.5 -11t-16.5 -28t-22 -33 l-223 -307h-75z"/>
<glyph glyph-name="afii10076" horiz-adv-x="489" unicode="к" d="M81 0v481h86v-201h38l166 201h98l-187 -222q33 -23 82 -97q34 -51 54.5 -72.5t38.5 -21.5h7l-2 -68h-27q-39 0 -66.5 25t-74.5 94q-34 50 -56.5 73.5t-42.5 24.5h-27l-1 -217h-86z"/>
<glyph glyph-name="afii10077" horiz-adv-x="542" unicode="л" d="M37 -8l-14 65q39 2 60.5 45.5t29.5 132.5l21 246h326v-481h-84v414h-168l-16 -193q-18 -229 -155 -229z"/>
<glyph glyph-name="afii10078" horiz-adv-x="672" unicode="м" d="M43 0l68 481h84l111 -312l29 -86h2q13 47 28 86l114 312h83l67 -481h-87l-37 278l-7 69h-2q-10 -34 -22 -68l-100 -279h-83l-103 279l-21 68h-2q-2 -37 -6 -70l-37 -277h-79z"/>
<glyph glyph-name="afii10079" horiz-adv-x="574" unicode="н" d="M81 0v481h86v-195h240v195h86v-481h-86v217h-240v-217h-86z"/>
<glyph glyph-name="afii10080" horiz-adv-x="532" unicode="о" d="M266 58q68 0 103 51t35 131q0 79 -37.5 131t-105.5 52t-100.5 -49.5t-32.5 -131.5q0 -81 34.5 -132.5t103.5 -51.5zM264 -12q-77 0 -130 40t-74.5 95t-21.5 117q0 45 12.5 88t37.5 81t70 61t104 23q58 0 104.5 -22.5t73 -60t40.5 -80.5t14 -88t-13.5 -88t-39.5 -81 t-72 -61.5t-105 -23.5z"/>
<glyph glyph-name="afii10081" horiz-adv-x="558" unicode="п" d="M81 0v481h395v-481h-85v414h-224v-414h-86z"/>
<glyph glyph-name="afii10082" horiz-adv-x="538" unicode="р" d="M275 59q64 0 99 49.5t35 131.5t-31.5 131t-93.5 49q-69 0 -118 -64v-255q46 -42 109 -42zM81 -219v700h85v-51q52 63 138 63q90 0 143 -66.5t53 -184.5q0 -113 -60 -183.5t-154 -70.5q-74 0 -120 41v-248h-85z"/>
<glyph glyph-name="afii10083" horiz-adv-x="444" unicode="с" d="M263 -12q-105 0 -165 73t-60 180q0 119 65 185.5t163 66.5q88 0 147 -46l-36 -62q-53 38 -111 38q-68 0 -103 -49.5t-35 -130.5q0 -80 35.5 -132t104.5 -52q67 0 115 38l32 -62q-59 -47 -152 -47z"/>
<glyph glyph-name="afii10084" horiz-adv-x="423" unicode="т" d="M168 0v414h-149v67h385v-67h-150v-414h-86z"/>
<glyph glyph-name="afii10085" horiz-adv-x="473" unicode="у" d="M56 -232q-27 0 -52 5l12 70q21 -3 39 -3q48 0 74 25t45 79l22 60l-181 477h94l131 -370h3l126 370h89l-203 -543q-31 -83 -73.5 -126.5t-125.5 -43.5z"/>
<glyph glyph-name="afii10086" horiz-adv-x="745" unicode="ф" d="M617 240q0 80 -28 132t-83 52t-95 -40v-285q40 -40 95 -40t83 51t28 130zM128 243q0 -80 28.5 -132t83.5 -52q54 0 94 40v285q-40 40 -94 40q-56 0 -84 -51t-28 -130zM414 -219h-83v243q-41 -36 -103 -36q-86 0 -138 70.5t-52 181.5q0 112 52.5 183.5t137.5 71.5 q65 0 103 -38v263h83v-263q38 38 103 38q86 0 138 -70t52 -182t-52 -183.5t-138 -71.5q-65 0 -103 36v-243z"/>
<glyph glyph-name="afii10087" horiz-adv-x="472" unicode="х" d="M21 0l166 251l-157 230h96q105 -156 111 -164l103 164h88l-150 -225l174 -256h-96l-129 191l-118 -191h-88z"/>
<glyph glyph-name="afii10088" horiz-adv-x="582" unicode="ц" d="M462 -144l-8 144h-373v481h86v-414h225v414h86v-414h64l-21 -211h-59z"/>
<glyph glyph-name="afii10089" horiz-adv-x="531" unicode="ч" d="M365 0v217q-62 -83 -158 -83q-74 0 -109.5 42.5t-35.5 110.5v194h85v-177q0 -95 84 -95q32 0 64 20t46 35t24 29v188h85v-481h-85z"/>
<glyph glyph-name="afii10090" horiz-adv-x="809" unicode="ш" d="M81 0v481h86v-414h195v414h85v-414h195v414h85v-481h-646z"/>
<glyph glyph-name="afii10091" horiz-adv-x="831" unicode="щ" d="M712 -144l-8 144h-623v481h86v-414h195v414h85v-414h195v414h85v-414h64l-20 -211h-59z"/>
<glyph glyph-name="afii10092" horiz-adv-x="536" unicode="ъ" d="M229 66h86q110 0 110 87q0 84 -108 84h-88v-171zM143 0v414h-124v67h210v-179h95q84 0 135.5 -37t51.5 -109q0 -77 -51.5 -116.5t-144.5 -39.5h-172z"/>
<glyph glyph-name="afii10093" horiz-adv-x="717" unicode="ы" d="M167 66h86q110 0 110 87q0 84 -108 84h-88v-171zM81 0v481h86v-179h95q84 0 135.5 -37t51.5 -109q0 -77 -51.5 -116.5t-144.5 -39.5h-172zM549 0v481h86v-481h-86z"/>
<glyph glyph-name="afii10094" horiz-adv-x="474" unicode="ь" d="M167 66h86q110 0 110 87q0 84 -108 84h-88v-171zM81 0v481h86v-179h95q84 0 135.5 -37t51.5 -109q0 -77 -51.5 -116.5t-144.5 -39.5h-172z"/>
<glyph glyph-name="afii10095" d="M184 -7q-94 0 -155 44l40 63q46 -36 116 -36t113.5 40.5t47.5 104.5h-257v65h256q-4 64 -47 105.5t-114 41.5q-62 0 -110 -34l-36 62q58 42 149 42q119 0 186 -71t67 -177q0 -107 -68.5 -178.5t-187.5 -71.5z" unicode="э"/>
<glyph glyph-name="afii10096" horiz-adv-x="794" unicode="ю" d="M527 58q69 0 104 51t35 131q0 79 -37.5 131t-106.5 52q-68 0 -100 -50t-32 -131t34.5 -132.5t102.5 -51.5zM526 -12q-106 0 -162 68t-63 161h-134v-217h-86v481h86v-195h137q12 87 66.5 147t153.5 60q58 0 104.5 -22.5t73 -60t40.5 -80.5t14 -88t-13.5 -88t-39.5 -81 t-72 -61.5t-105 -23.5z"/>
<glyph glyph-name="afii10097" horiz-adv-x="499" unicode="я" d="M247 270h85v145h-80q-51 0 -75 -17t-24 -55q0 -73 94 -73zM30 0v68h6q19 0 39.5 18.5t50.5 63.5q40 60 68 70v1q-53 3 -91 35t-38 90q0 66 47 100.5t133 34.5h172v-481h-85v208h-32q-21 0 -43.5 -23t-56.5 -74q-45 -65 -73 -88t-68 -23h-29z"/>
<glyph glyph-name="afii10071" horiz-adv-x="496" unicode="ё" d="M132 301h235q-2 54 -28.5 88.5t-81.5 34.5q-53 0 -84.5 -33t-40.5 -90zM271 -12q-112 0 -172.5 71.5t-60.5 184.5q0 108 62.5 178.5t158.5 70.5q91 0 142 -59t51 -161q0 -11 -2 -37h-321q2 -79 37.5 -128.5t108.5 -49.5q59 0 131 41l33 -62q-75 -49 -168 -49zM351 539 q-23 0 -40 16.5t-17 40.5q0 23 17 40t40 17q25 0 41.5 -16.5t16.5 -40.5t-16.5 -40.5t-41.5 -16.5zM160 539q-24 0 -40.5 16.5t-16.5 40.5q0 23 16.5 40t40.5 17t41 -17t17 -40q0 -24 -17 -40.5t-41 -16.5z"/>
<glyph glyph-name="afii10099" horiz-adv-x="531" unicode="ђ" d="M306 -133l-33 57q53 33 85 115t32 199q0 81 -29.5 129.5t-93.5 48.5q-28 0 -56 -13.5t-45 -31.5v-371h-85v573h-43v67h43v80h85v-80h161v-67h-161v-133q50 50 119 50q89 0 140.5 -65.5t51.5 -184.5q0 -137 -48.5 -238.5t-122.5 -134.5z"/>
<glyph glyph-name="afii10100" horiz-adv-x="397" unicode="ѓ" d="M81 0v481h297v-67h-212v-414h-85zM191 540l90 128h122l-136 -128h-76z"/>
<glyph glyph-name="afii10101" horiz-adv-x="476" unicode="є" d="M291 -8q-119 0 -186 71.5t-67 177.5q0 107 68.5 178t187.5 71q86 0 146 -38l-40 -63q-44 31 -108 31q-70 0 -113 -41t-47 -105h249v-64h-250q6 -65 49 -106t114 -41q66 0 118 39l35 -62q-57 -48 -156 -48z"/>
<glyph glyph-name="afii10102" horiz-adv-x="410" unicode="ѕ" d="M194 -13q-90 0 -156 46l35 63q54 -39 119 -39q44 0 69 17t25 47q0 15 -6 26.5t-23.5 23t-32 18.5t-47.5 22q-64 28 -96 60t-32 87q0 59 43 97t115 38q86 0 145 -44l-38 -61q-46 35 -106 35q-38 0 -58 -16t-20 -45t22 -45.5t72 -36.5q35 -15 56.5 -26.5t44.5 -29t34 -40.5 t11 -52q0 -67 -47.5 -106t-128.5 -39z"/>
<glyph glyph-name="afii10103" horiz-adv-x="256" unicode="і" d="M85 0v481h86v-481h-86zM128 566q-25 0 -42 17.5t-17 41.5q0 25 17 42t42 17t42 -17t17 -42q0 -24 -17 -41.5t-42 -17.5z"/>
<glyph glyph-name="afii10104" horiz-adv-x="256" unicode="ї" d="M85 0v481h86v-481h-86zM223 539q-23 0 -40 16.5t-17 40.5q0 23 17 40t40 17q25 0 41.5 -16.5t16.5 -40.5t-16.5 -40.5t-41.5 -16.5zM32 539q-24 0 -40.5 16.5t-16.5 40.5q0 23 16.5 40t40.5 17t41 -17t17 -40q0 -24 -17 -40.5t-41 -16.5z"/>
<glyph glyph-name="afii10105" horiz-adv-x="246" unicode="ј" d="M123 566q-25 0 -42.5 17.5t-17.5 41.5q0 25 17.5 42t42.5 17t42 -17t17 -42q0 -24 -17 -41.5t-42 -17.5zM23 -231q-35 0 -59 8l15 70q15 -6 34 -6q37 0 52.5 28t15.5 86v526h85v-539q0 -173 -143 -173z"/>
<glyph glyph-name="afii10106" horiz-adv-x="770" unicode="љ" d="M462 66h86q110 0 110 87q0 84 -107 84h-89v-171zM37 -8l-14 65q39 2 60.5 45.5t29.5 132.5l21 246h328v-179h96q84 0 135 -37t51 -109q0 -77 -51.5 -116.5t-144.5 -39.5h-171v414h-172l-15 -193q-10 -115 -47 -172t-106 -57z"/>
<glyph glyph-name="afii10107" horiz-adv-x="813" unicode="њ" d="M506 66h86q57 0 83.5 21t26.5 65q0 42 -25.5 62.5t-81.5 20.5h-89v-169zM81 0v481h86v-180h253v180h86v-180h95q85 0 136 -37t51 -109q0 -77 -51.5 -116t-144.5 -39h-172v234h-253v-234h-86z"/>
<glyph glyph-name="afii10108" horiz-adv-x="534" unicode="ћ" d="M77 0v573h-43v67h43v80h85v-80h161v-67h-161v-160q61 79 155 79q72 0 107 -42t35 -110v-340h-85v323q0 94 -81 94q-31 0 -62.5 -19.5t-45 -34.5t-23.5 -29v-334h-85z"/>
<glyph glyph-name="afii10109" horiz-adv-x="489" unicode="ќ" d="M81 0v481h86v-201h38l166 201h98l-187 -222q33 -23 82 -97q34 -51 54.5 -72.5t38.5 -21.5h7l-2 -68h-27q-39 0 -66.5 25t-74.5 94q-34 50 -56.5 73.5t-42.5 24.5h-27l-1 -217h-86zM186 540l90 128h122l-136 -128h-76z"/>
<glyph glyph-name="afii10110" horiz-adv-x="473" unicode="ў" d="M243 535q-59 0 -101 36t-48 108h74q3 -37 22.5 -59t52.5 -22q32 0 51.5 22t22.5 59h74q-6 -72 -48 -108t-100 -36zM56 -232q-27 0 -52 5l12 70q21 -3 39 -3q48 0 74 25t45 79l22 60l-181 477h94l131 -370h3l126 370h89l-203 -543q-31 -83 -73.5 -126.5t-125.5 -43.5z"/>
<glyph glyph-name="afii10193" horiz-adv-x="565" unicode="џ" d="M253 -144l-8 144h-164v481h86v-414h230v414h86v-481h-164l-7 -144h-59z"/>
<glyph glyph-name="afii10050" horiz-adv-x="470" unicode="Ґ" d="M93 0v666h277l13 145h62l7 -220h-268v-591h-91z"/>
<glyph glyph-name="afii10098" horiz-adv-x="397" unicode="ґ" d="M81 0v481h218l11 145h59l13 -212h-216v-414h-85z"/>
<glyph glyph-name="endash" horiz-adv-x="530" unicode="–" d="M53 239v69h424v-69h-424z"/>
<glyph glyph-name="emdash" horiz-adv-x="839" unicode="—" d="M53 239v69h734v-69h-734z"/>
<glyph glyph-name="quoteleft" horiz-adv-x="207" unicode="‘" d="M111 428q-29 0 -50 20.5t-21 55.5q0 44 21.5 89t43.5 73h60q-37 -49 -37 -93q0 -20 20.5 -44.5t20.5 -47.5t-16.5 -38t-41.5 -15z"/>
<glyph glyph-name="quotesinglbase" horiz-adv-x="213" unicode="‚" d="M46 -120q37 53 37 93q0 19 -21 44t-21 48t17 38t42 15q28 0 49 -21t21 -55q0 -44 -21.5 -89t-43.5 -73h-59z"/>
<glyph glyph-name="quotedblleft" horiz-adv-x="378" unicode="“" d="M281 428q-29 0 -49.5 20.5t-20.5 55.5q0 44 21.5 90t43.5 72h59q-37 -53 -37 -93q0 -20 21 -44.5t21 -47.5t-16.5 -38t-42.5 -15zM102 428q-29 0 -50 20.5t-21 55.5q0 44 21.5 89t43.5 73h60q-37 -49 -37 -93q0 -20 20.5 -44.5t20.5 -47.5t-16.5 -38t-41.5 -15z"/>
<glyph glyph-name="quotedblright" horiz-adv-x="378" unicode="”" d="M222 440q37 47 37 93q0 19 -20.5 43.5t-20.5 48.5q0 23 16.5 38t41.5 15q29 0 50 -20.5t21 -55.5q0 -44 -21 -89t-44 -73h-60zM43 440q37 50 37 93q0 19 -21 43.5t-21 48.5q0 23 17 38t42 15q29 0 49.5 -20.5t20.5 -55.5q0 -44 -21 -89t-44 -73h-59z"/>
<glyph glyph-name="dagger" horiz-adv-x="546" unicode="†" d="M245 -170l-22 442l17 139l-80 -9h-110v79h110l80 -8l-14 110v137h94v-137l-14 -110l80 8h110v-79h-110l-80 9l16 -139l-21 -442h-56z"/>
<glyph glyph-name="daggerdbl" horiz-adv-x="548" unicode="‡" d="M226 -168v133l14 110l-80 -8h-110v79h110l80 -8l-17 136l17 137l-80 -9h-110v79h110l80 -8l-14 110v137h94v-137l-14 -110l80 8h110v-79h-110l-80 9l16 -137l-16 -136l80 8h110v-79h-110l-80 8l14 -110v-133h-94z"/>
<glyph glyph-name="ellipsis" horiz-adv-x="648" unicode="…" d="M532 -9q-27 0 -46.5 19t-19.5 46t19.5 45.5t46.5 18.5t46 -18.5t19 -45.5t-19 -46t-46 -19zM324 -9q-27 0 -46 19t-19 46t19 45.5t46 18.5q28 0 46.5 -18.5t18.5 -45.5t-18.5 -46t-46.5 -19zM116 -9q-28 0 -46.5 19t-18.5 46t18.5 45.5t46.5 18.5q27 0 46.5 -18.5 t19.5 -45.5t-19.5 -46t-46.5 -19z"/>
<glyph glyph-name="perthousand" horiz-adv-x="1109" unicode="‰" d="M207 0l289 482h72l-288 -482h-73zM931 42q38 0 56.5 24.5t18.5 63.5t-19.5 64t-57.5 25q-37 0 -56 -24t-19 -63q0 -38 20 -64t57 -26zM929 -12q-71 0 -108.5 43t-37.5 99t38.5 99.5t109.5 43.5q72 0 109 -42t37 -99t-38 -100.5t-110 -43.5zM592 42q38 0 56.5 24.5 t18.5 63.5t-19.5 64t-57.5 25q-37 0 -56 -24t-19 -63q0 -38 20 -64t57 -26zM590 -12q-71 0 -108.5 43t-37.5 99t38.5 99.5t109.5 43.5q72 0 109 -42t37 -99t-38 -100.5t-110 -43.5zM181 262q38 0 56 24.5t18 63.5t-19.5 64t-56.5 25q-38 0 -57 -24t-19 -63q0 -38 20 -64 t58 -26zM179 208q-72 0 -109.5 42.5t-37.5 99.5q0 56 38.5 99.5t110.5 43.5q71 0 108.5 -42t37.5 -99q0 -56 -38.5 -100t-109.5 -44z"/>
<glyph glyph-name="guilsinglleft" horiz-adv-x="302" unicode="‹" d="M173 55l-131 190l131 191h89l-129 -191l129 -190h-89z"/>
<glyph glyph-name="guilsinglright" horiz-adv-x="302" unicode="›" d="M40 55l130 190l-130 191h89l131 -191l-131 -190h-89z"/>
<glyph glyph-name="fraction" horiz-adv-x="106" unicode="⁄" d="M-190 0l415 666h70l-415 -666h-70z"/>
<glyph glyph-name="Euro" horiz-adv-x="584" unicode="€" d="M38 364v65h74q22 118 96.5 183.5t180.5 65.5q96 0 160 -41l-38 -69q-61 35 -123 35q-68 0 -116 -45t-66 -129h175v-65h-184v-27q0 -34 2 -50h182v-65h-171q21 -79 69.5 -118.5t112.5 -39.5q68 0 125 39l40 -64q-75 -51 -168 -51q-99 0 -173.5 60t-99.5 174h-78v65h68 q-2 15 -2 48q0 19 1 29h-67z"/>
<glyph glyph-name="trademark" horiz-adv-x="719" unicode="™" d="M125 374v242h-84v50h228v-50h-84v-242h-60zM302 374l33 292h64l65 -166q18 -47 18 -57h2l2 7q3 8 7.5 22.5t9.5 28.5l64 165h66l33 -292h-59l-15 158q-4 35 -4 61h-2q0 -17 -20 -68l-60 -151h-51l-56 144q-5 14 -10.5 33t-8.5 31l-4 11h-2q0 -15 -4 -63l-14 -156h-54z "/>
<glyph glyph-name="partialdiff" horiz-adv-x="560" unicode="∂" d="M254 62q75 0 128 71.5t62 169.5q-26 19 -78 33.5t-98 14.5q-62 0 -99 -44.5t-37 -114.5q0 -57 35.5 -93.5t86.5 -36.5zM249 -12q-87 0 -147.5 58t-60.5 142q0 99 62.5 166.5t159.5 67.5q49 0 102 -14.5t79 -33.5q-18 258 -291 258l24 73h9q170 0 260.5 -96.5t90.5 -256.5 q0 -159 -82.5 -261.5t-205.5 -102.5z"/>
<glyph glyph-name="product" horiz-adv-x="859" unicode="∏" d="M175 -224v852h-109v72h709v-72h-109v-852h-86v852h-319v-852h-86z"/>
<glyph glyph-name="summation" horiz-adv-x="619" unicode="∑" d="M53 -147v62l277 425l-261 375v62h492v-75h-395l253 -359l-269 -414h426v-76h-523z"/>
<glyph glyph-name="minus" horiz-adv-x="550" unicode="−" d="M86 241v71h369v-71h-369z"/>
<glyph glyph-name="radical" horiz-adv-x="573" unicode="√" d="M232 0l-187 481h88l138 -373h2l192 612h87l-240 -720h-80z"/>
<glyph glyph-name="infinity" horiz-adv-x="892" unicode="∞" d="M673 173q40 0 70 26t30 60q0 39 -30.5 63.5t-74.5 24.5q-53 0 -165 -86q116 -88 170 -88zM220 173q53 0 165 85q-114 89 -169 89q-41 0 -71 -25.5t-30 -60.5q0 -38 30.5 -63t74.5 -25zM214 103q-78 0 -127.5 44.5t-49.5 108.5q0 67 53 114.5t128 47.5q49 0 101 -26 t128 -85q142 111 227 111q77 0 126.5 -44.5t49.5 -109.5q0 -67 -52.5 -114t-129.5 -47q-87 0 -226 110q-81 -63 -130 -86.5t-98 -23.5z"/>
<glyph glyph-name="logicaland" horiz-adv-x="227" unicode="∧" d="M114 225q-28 0 -47.5 19t-19.5 47t19.5 46.5t47.5 18.5t47 -18.5t19 -46.5t-19 -47t-47 -19z"/>
<glyph glyph-name="approxequal" horiz-adv-x="606" unicode="≈" d="M101 293l-34 58q58 60 136 60q48 0 105 -29t93 -29q55 0 104 44l32 -60q-56 -59 -142 -59q-47 0 -105.5 29t-92.5 29q-50 0 -96 -43zM103 129l-34 59q61 59 136 59q48 0 105 -29t93 -29q55 0 104 44l32 -60q-55 -58 -142 -58q-47 0 -105.5 29t-92.5 29q-52 0 -96 -44z "/>
<glyph glyph-name="notequal" horiz-adv-x="630" unicode="≠" d="M196 -17l-57 31l74 124h-153v65h193l60 99h-253v65h293l81 132l58 -33l-63 -99h140v-65h-180l-60 -99h240v-65h-280z"/>
<glyph glyph-name="lessequal" horiz-adv-x="574" unicode="≤" d="M70 -122v72h437v-72h-437zM507 16l-437 204v60l437 204v-78l-348 -156l348 -157v-77z"/>
<glyph glyph-name="greaterequal" horiz-adv-x="580" unicode="≥" d="M70 -122v72h437v-72h-437zM70 16v77l348 157l-348 156v78l437 -204v-60z"/>
<glyph glyph-name="dotmath" horiz-adv-x="227" unicode="⋅" d="M114 225q-28 0 -47.5 19t-19.5 47t19.5 46.5t47.5 18.5t47 -18.5t19 -46.5t-19 -47t-47 -19z"/>
<glyph glyph-name="lozenge" horiz-adv-x="634" unicode="◊" d="M323 83l178 255l-187 242l-179 -254zM293 -4l-256 327l252 350h54l256 -330l-250 -347h-56z"/>
</font>
</defs>
</svg>
