<?xml version="1.0" encoding="UTF-8" standalone="no"?>
<!DOCTYPE svg  PUBLIC '-//W3C//DTD SVG 1.1//EN'  'http://www.w3.org/Graphics/SVG/1.1/DTD/svg11.dtd'>
<svg xmlns="http://www.w3.org/2000/svg">
<defs>
<font id="KievitPro-Regular" horiz-adv-x="528">
<font-face underline-position="-113" font-weight="400" descent="-200" panose-1="2 0 5 3 4 0 0 2 0 4" units-per-em="1000" unicode-range="U+0020-25CA" bbox="-190 -250 1042 893" x-height="480" underline-thickness="20" font-family="KievitPro" ascent="800" cap-height="666"/>
<missing-glyph horiz-adv-x="1000"/>
<glyph glyph-name=".notdef" horiz-adv-x="1000"/>
<glyph glyph-name=".null" horiz-adv-x="0"/>
<glyph glyph-name=".null" horiz-adv-x="0"/>
<glyph glyph-name="nonmarkingreturn" horiz-adv-x="333"/>
<glyph glyph-name="space" horiz-adv-x="225" unicode=" "/>
<glyph glyph-name="exclam" horiz-adv-x="275" unicode="!" d="M108 199l-16 467h90l-16 -467h-58zM137 -8q-23 0 -40 16.5t-17 40.5q0 23 17 39.5t40 16.5t40 -16.5t17 -39.5q0 -24 -17 -40.5t-40 -16.5z"/>
<glyph glyph-name="quotedbl" horiz-adv-x="327" unicode='&quot;' d="M203 444l-11 222h92l-23 -222h-58zM66 444l-23 222h92l-11 -222h-58z"/>
<glyph glyph-name="numbersign" horiz-adv-x="494" unicode="#" d="M189 309h101l17 111h-102zM99 106l22 144h-98l10 59h97l17 111h-97l9 59h96l20 131h59l-20 -131h101l20 131h59l-20 -131h97l-10 -59h-96l-16 -111h96l-10 -59h-95l-21 -144h-59l21 144h-101l-22 -144h-59z"/>
<glyph glyph-name="dollar" horiz-adv-x="408" unicode="$" d="M178 -123v111q-81 7 -137 48l32 57q60 -43 129 -43q52 0 80 18t28 51q0 16 -6.5 28t-24 23t-29 17t-40 17.5t-39.5 16.5q-56 25 -87.5 56t-31.5 84q0 50 34 85t92 43v104h71v-103q69 -8 118 -46l-35 -54q-52 39 -119 39q-42 0 -66 -17t-24 -48q0 -17 8 -30t29 -25.5 t33 -18t45 -19.5q27 -11 42.5 -18.5t38 -21t35 -26.5t21.5 -33t9 -43q0 -57 -35 -93t-100 -46v-113h-71z"/>
<glyph glyph-name="percent" horiz-adv-x="746" unicode="%" d="M201 0l287 480h63l-287 -480h-63zM572 36q39 0 59 25t20 66q0 40 -20.5 66t-60.5 26t-60 -25t-20 -65t21 -66.5t61 -26.5zM570 -12q-69 0 -105 42t-36 97t37 97.5t106 42.5t104.5 -41.5t35.5 -96.5t-36.5 -98t-105.5 -43zM177 261q39 0 59 25t20 66q0 40 -20.5 66 t-60.5 26t-60 -25t-20 -65t21 -66.5t61 -26.5zM175 213q-69 0 -105 42t-36 97t37 97.5t106 42.5t104.5 -41.5t35.5 -96.5t-36.5 -98t-105.5 -43z"/>
<glyph glyph-name="ampersand" horiz-adv-x="625" unicode="&amp;" d="M263 54q85 0 148 57l-194 204q-101 -57 -101 -142q0 -52 39 -85.5t108 -33.5zM244 394q61 34 88 67.5t27 73.5q0 34 -25 58t-66 24q-44 0 -70 -25t-26 -64q0 -30 16 -60t56 -74zM261 -12q-102 0 -162.5 52.5t-60.5 129.5q0 61 32.5 104t106.5 84q-44 48 -64 86t-20 80 q0 69 49.5 111.5t126.5 42.5q72 0 118 -39.5t46 -101.5q0 -54 -35.5 -96.5t-114.5 -87.5l175 -186q40 64 55 151l70 -12q-18 -108 -79 -189l110 -117h-98l-60 64q-86 -76 -195 -76z"/>
<glyph glyph-name="quotesingle" horiz-adv-x="187" unicode="&apos;" d="M64 444l-18 222h95l-18 -222h-59z"/>
<glyph glyph-name="parenleft" horiz-adv-x="309" unicode="(" d="M236 -177q-87 95 -134 212.5t-47 244.5q0 124 49 240t132 200h70q-73 -75 -124 -188t-51 -251q0 -259 175 -458h-70z"/>
<glyph glyph-name="parenright" horiz-adv-x="309" unicode=")" d="M4 -177q73 75 124 188t51 251q0 259 -175 458h70q87 -95 134 -212.5t47 -244.5q0 -125 -48.5 -240.5t-132.5 -199.5h-70z"/>
<glyph glyph-name="asterisk" horiz-adv-x="454" unicode="*" d="M144 327l-46 34l85 114l-136 42l18 54l134 -47l-4 142h64l-4 -142l134 47l19 -54l-137 -42l85 -114l-46 -34l-83 119z"/>
<glyph glyph-name="plus" horiz-adv-x="574" unicode="+" d="M255 20v215h-213v61h213v204h69v-204h208v-61h-208v-215h-69z"/>
<glyph glyph-name="comma" horiz-adv-x="220" unicode="," d="M54 -135q41 57 41 103q0 17 -22 41t-22 49q0 23 16 38.5t40 15.5q28 0 47 -21t19 -57q0 -85 -68 -169h-51z"/>
<glyph glyph-name="hyphen" horiz-adv-x="309" unicode="-" d="M54 255v64h201v-64h-201z"/>
<glyph glyph-name="period" horiz-adv-x="220" unicode="." d="M110 -9q-26 0 -43.5 17.5t-17.5 43.5q0 25 17.5 42.5t43.5 17.5t43.5 -17.5t17.5 -42.5q0 -26 -17.5 -43.5t-43.5 -17.5z"/>
<glyph glyph-name="slash" horiz-adv-x="402" unicode="/" d="M65 0l241 666h70l-241 -666h-70z"/>
<glyph glyph-name="zero" horiz-adv-x="570" unicode="0" d="M285 51q80 0 123.5 53t43.5 135t-44.5 136t-124.5 54t-122.5 -53t-42.5 -135t43.5 -136t123.5 -54zM283 -12q-61 0 -109 23t-76.5 60t-43 80.5t-14.5 87.5t15 87.5t43.5 81.5t77 61t109.5 23t109.5 -22.5t77 -59.5t43.5 -80.5t15 -88.5q0 -44 -15.5 -87.5t-44.5 -81.5 t-77.5 -61t-109.5 -23z"/>
<glyph glyph-name="one" horiz-adv-x="323" unicode="1" d="M160 0v412l-111 -38l-15 61l139 45h60v-480h-73z"/>
<glyph glyph-name="two" horiz-adv-x="480" unicode="2" d="M27 0v28q6 5 46.5 38.5t63 53t60.5 55.5t59.5 62t38.5 57t17 55q0 36 -23.5 57.5t-70.5 21.5q-73 0 -125 -58l-42 47q32 34 80 54.5t92 20.5q72 0 119.5 -35t47.5 -101q0 -23 -8 -47t-27.5 -50.5t-33.5 -45t-45 -47.5t-42.5 -39.5t-45.5 -38.5t-35 -29q30 3 55 3h230v-62 h-411z"/>
<glyph glyph-name="three" horiz-adv-x="428" unicode="3" d="M132 -188q-53 0 -83 4l11 62q23 -5 61 -5q78 0 132.5 38t54.5 103q0 138 -193 138v55q61 1 117 40t56 98q0 39 -25 61t-70 22q-61 0 -118 -52l-38 48q65 68 159 68q79 0 124 -41.5t45 -99.5q0 -56 -42 -101.5t-92 -57.5v-1q64 -9 109.5 -55.5t45.5 -112.5q0 -97 -74 -154 t-180 -57z"/>
<glyph glyph-name="four" horiz-adv-x="560" unicode="4" d="M113 62h228v300h-2zM341 -177v177h-311v48l324 432h60v-418h111v-62h-111v-177h-73z"/>
<glyph glyph-name="five" horiz-adv-x="420" unicode="5" d="M105 -188q-34 0 -60 6l13 61q28 -4 54 -4q79 0 135 42.5t56 118.5q0 78 -48 114t-130 36q-38 0 -56 -2l20 296h280v-59h-213l-11 -175q116 0 175.5 -59t59.5 -147q0 -97 -74 -162.5t-201 -65.5z"/>
<glyph glyph-name="six" horiz-adv-x="509" unicode="6" d="M267 51q58 0 91 41t33 96q0 69 -32.5 107t-96.5 38q-78 0 -139 -49l-1 -25v-17q0 -88 37.5 -139.5t107.5 -51.5zM263 -12q-74 0 -125.5 43.5t-72.5 105t-21 132.5q0 184 103.5 296.5t285.5 112.5l15 -61q-160 0 -244 -90q-65 -68 -77 -184q57 52 144 52q91 0 144 -54.5 t53 -142.5t-56.5 -149t-148.5 -61z"/>
<glyph glyph-name="seven" horiz-adv-x="446" unicode="7" d="M114 -198l-63 31l274 582h-309v65h390v-52z"/>
<glyph glyph-name="eight" horiz-adv-x="511" unicode="8" d="M258 388q107 63 107 126q0 43 -28.5 72t-78.5 29q-48 0 -78.5 -28t-30.5 -72q0 -33 24.5 -62.5t84.5 -64.5zM257 52q57 0 89.5 33.5t32.5 82.5q0 78 -135 151q-59 -38 -86.5 -74.5t-27.5 -77.5q0 -50 35 -82.5t92 -32.5zM254 -12q-96 0 -147.5 51.5t-51.5 122.5 q0 108 138 188q-120 73 -120 165q0 70 53.5 116.5t126.5 46.5q88 0 137.5 -46t49.5 -113q0 -88 -130 -163q145 -82 145 -189q0 -80 -56 -129.5t-145 -49.5z"/>
<glyph glyph-name="nine" horiz-adv-x="511" unicode="9" d="M247 148q83 0 139 46l1 25v17q0 87 -36.5 140t-103.5 53q-53 0 -90 -39t-37 -102t32 -101.5t95 -38.5zM63 -186l-14 60q163 0 254 90q66 66 78 172q-68 -50 -144 -50q-89 0 -142 56.5t-53 143.5q0 86 59.5 146t149.5 60q47 0 84 -17t60.5 -44.5t39.5 -65t22.5 -76 t6.5 -79.5q0 -182 -106 -289t-295 -107z"/>
<glyph glyph-name="colon" horiz-adv-x="225" unicode=":" d="M112 366q-26 0 -43.5 18t-17.5 43t17.5 43t43.5 18t43.5 -18t17.5 -43t-17.5 -43t-43.5 -18zM112 -9q-25 0 -43 18t-18 44q0 25 17.5 42.5t43.5 17.5t43.5 -17.5t17.5 -42.5q0 -26 -18 -44t-43 -18z"/>
<glyph glyph-name="semicolon" horiz-adv-x="225" unicode=";" d="M112 366q-26 0 -43.5 18t-17.5 43t17.5 43t43.5 18t43.5 -18t17.5 -43t-17.5 -43t-43.5 -18zM57 -135q41 56 41 103q0 17 -22 41t-22 49q0 23 16 38.5t40 15.5q28 0 47 -21t19 -57q0 -84 -68 -169h-51z"/>
<glyph glyph-name="less" horiz-adv-x="361" unicode="&lt;" d="M277 27l-250 219l250 222l41 -42l-200 -177l200 -176z"/>
<glyph glyph-name="equal" horiz-adv-x="459" unicode="=" d="M35 316v63h389v-63h-389zM35 153v63h389v-63h-389z"/>
<glyph glyph-name="greater" horiz-adv-x="361" unicode="&gt;" d="M84 27l-41 42l200 177l-200 176l41 46l250 -219z"/>
<glyph glyph-name="question" horiz-adv-x="405" unicode="?" d="M145 -8q-23 0 -40 16.5t-17 40.5q0 23 17 39.5t40 16.5t40 -16.5t17 -39.5q0 -24 -17 -40.5t-40 -16.5zM108 193v63q0 41 15.5 68t58.5 53q34 20 50 32.5t30.5 37t14.5 57.5q0 110 -123 110q-40 0 -82 -21l-27 58q54 27 114 27q94 0 145 -47t51 -123q0 -37 -11.5 -67 t-34.5 -52.5t-38.5 -33.5t-41.5 -26q-30 -18 -40 -34.5t-10 -46.5v-55h-71z"/>
<glyph glyph-name="at" horiz-adv-x="765" unicode="@" d="M327 145q37 0 68.5 42.5t48.5 92t28 103.5l4 20q-27 10 -55 10q-59 0 -96 -61t-37 -143q0 -25 10 -44.5t29 -19.5zM369 -91q-150 0 -239.5 95t-89.5 236q0 98 46 185t130.5 140.5t186.5 53.5q61 0 115 -18.5t92 -49t65 -69.5t40.5 -81t13.5 -82q0 -97 -49.5 -166.5 t-124.5 -69.5q-49 0 -77 31t-28 81h-2q-21 -50 -58 -81t-81 -31q-43 0 -68.5 34.5t-25.5 80.5q0 105 56 185.5t156 80.5q30 0 117 -21l-25 -139q-14 -80 -14 -95q0 -29 15 -49.5t38 -20.5q49 0 81.5 51t32.5 122q0 108 -78 180t-191 72q-116 0 -206.5 -95t-90.5 -226 q0 -122 73.5 -200t200.5 -78q83 0 149 29l23 -51q-84 -34 -183 -34z"/>
<glyph glyph-name="A" horiz-adv-x="627" unicode="A" d="M21 0l255 666h76l256 -666h-85l-61 165h-303l-61 -165h-77zM184 231h253l-84 228q-4 10 -41 115h-2q-16 -47 -41 -115z"/>
<glyph glyph-name="B" horiz-adv-x="572" unicode="B" d="M173 380h91q76 0 111 28t35 87q0 106 -144 106h-93v-221zM173 65h94q89 0 130 28.5t41 91.5q0 131 -165 131h-100v-251zM96 0v666h176q100 0 159 -40t59 -126q0 -57 -31.5 -94.5t-87.5 -52.5v-2q65 -11 106.5 -54.5t41.5 -109.5q0 -187 -250 -187h-173z"/>
<glyph glyph-name="C" horiz-adv-x="615" unicode="C" d="M378 -12q-149 0 -237 102t-88 245q0 142 89 242.5t237 100.5q108 0 187 -50l-39 -59q-64 44 -150 44q-114 0 -178 -80.5t-64 -195.5q0 -118 63.5 -200.5t181.5 -82.5q96 0 163 57l36 -56q-30 -27 -83.5 -47t-117.5 -20z"/>
<glyph glyph-name="D" horiz-adv-x="679" unicode="D" d="M174 64h80q144 0 218.5 70t74.5 205t-72.5 199t-225.5 64h-75v-538zM96 0v666h156q190 0 283.5 -87.5t93.5 -237.5q0 -153 -95.5 -247t-286.5 -94h-151z"/>
<glyph glyph-name="E" horiz-adv-x="503" unicode="E" d="M96 0v666h342v-66h-264v-214h232v-66h-232v-254h271v-66h-349z"/>
<glyph glyph-name="F" horiz-adv-x="490" unicode="F" d="M96 0v666h349v-66h-271v-214h236v-66h-236v-320h-78z"/>
<glyph glyph-name="G" horiz-adv-x="707" unicode="G" d="M384 -12q-151 0 -241 103t-90 244q0 92 38.5 169t116 125.5t180.5 48.5q129 0 210 -63l-41 -57q-70 55 -171 55q-123 0 -187 -80t-64 -196q0 -118 64.5 -200.5t186.5 -82.5q109 0 165 41v187h-143v66h221v-291q-82 -69 -245 -69z"/>
<glyph glyph-name="H" horiz-adv-x="725" unicode="H" d="M96 0v666h78v-282h377v282h78v-666h-78v318h-377v-318h-78z"/>
<glyph glyph-name="I" horiz-adv-x="282" unicode="I" d="M102 0v666h78v-666h-78z"/>
<glyph glyph-name="J" horiz-adv-x="283" unicode="J" d="M36 -190q-37 0 -57 10l12 67q16 -7 39 -7q79 0 79 118v668h78v-680q0 -85 -38.5 -130.5t-112.5 -45.5z"/>
<glyph glyph-name="K" horiz-adv-x="569" unicode="K" d="M96 0v666h77v-666h-77zM456 0l-280 347l268 319h91l-268 -314l286 -352h-97z"/>
<glyph glyph-name="L" horiz-adv-x="473" unicode="L" d="M96 0v666h78v-600h262v-66h-340z"/>
<glyph glyph-name="M" horiz-adv-x="852" unicode="M" d="M54 0l91 666h73l165 -453q27 -76 42 -123h2q14 47 42 123l165 453h74l90 -666h-79l-57 436q-8 68 -11 93h-2q-16 -54 -30 -92l-158 -437h-75l-162 437q-7 19 -13 36t-11.5 33t-7.5 23h-2q-2 -20 -10 -95l-53 -434h-73z"/>
<glyph glyph-name="N" horiz-adv-x="711" unicode="N" d="M94 0v666h77l314 -451q25 -36 62 -98h2q-4 52 -4 90v459h72v-666h-72l-329 475q-14 20 -52 86h-2q4 -52 4 -73v-488h-72z"/>
<glyph glyph-name="O" horiz-adv-x="760" unicode="O" d="M379 53q115 0 180.5 80.5t65.5 198.5q0 119 -65 200t-179 81q-115 0 -180.5 -80.5t-65.5 -198.5q0 -119 65 -200t179 -81zM381 -12q-149 0 -238.5 100.5t-89.5 243.5q0 144 89 245t237 101q149 0 238.5 -100.5t89.5 -243.5q0 -144 -89 -245t-237 -101z"/>
<glyph glyph-name="P" horiz-adv-x="542" unicode="P" d="M174 335h78q165 0 165 136q0 129 -162 129h-81v-265zM96 0v666h167q105 0 169.5 -49.5t64.5 -142.5q0 -98 -64 -151.5t-181 -53.5h-78v-269h-78z"/>
<glyph glyph-name="Q" horiz-adv-x="760" unicode="Q" d="M379 53q115 0 180.5 80.5t65.5 198.5q0 119 -65 200t-179 81q-115 0 -180.5 -80.5t-65.5 -198.5q0 -119 65 -200t179 -81zM624 -162q-70 0 -129 34t-125 116q-144 4 -230.5 104t-86.5 240q0 144 89 245t237 101q149 0 238.5 -100.5t89.5 -243.5q0 -123 -67.5 -218 t-183.5 -120q40 -50 77 -72t92 -22q47 0 81 28l29 -58q-40 -34 -111 -34z"/>
<glyph glyph-name="R" horiz-adv-x="570" unicode="R" d="M174 371h100q144 0 144 116q0 113 -150 113h-94v-229zM96 0v666h181q104 0 162.5 -46.5t58.5 -130.5q0 -80 -52 -124.5t-135 -49.5v-2q20 -14 70 -83l165 -230h-92l-134 189q-57 81 -79 99.5t-56 18.5h-11v-307h-78z"/>
<glyph glyph-name="S" horiz-adv-x="499" unicode="S" d="M233 -12q-118 0 -189 68l40 56q63 -59 152 -59q60 0 98 33.5t38 79.5q0 28 -9.5 49.5t-38 42t-40 27.5t-56.5 29q-6 3 -9 5q-50 25 -78.5 44t-52.5 57t-24 88q0 78 56.5 124t137.5 46q106 0 175 -53l-38 -58q-59 46 -138 46q-50 0 -83 -28t-33 -73t30 -72.5t90 -55.5 q29 -14 39 -19t36.5 -19.5t37 -24t29.5 -27.5t26.5 -35t14.5 -41t7 -51q0 -79 -60.5 -129t-157.5 -50z"/>
<glyph glyph-name="T" horiz-adv-x="497" unicode="T" d="M209 0v600h-189v66h457v-66h-189v-600h-79z"/>
<glyph glyph-name="U" horiz-adv-x="690" unicode="U" d="M348 -12q-132 0 -195 69.5t-63 191.5v417h78v-407q0 -104 44.5 -154t137.5 -50q87 0 132 51.5t45 138.5v421h73v-413q0 -126 -62.5 -195.5t-189.5 -69.5z"/>
<glyph glyph-name="V" horiz-adv-x="616" unicode="V" d="M274 0l-256 666h84l171 -459q9 -23 40 -117h2q23 73 39 117l167 459h77l-248 -666h-76z"/>
<glyph glyph-name="W" horiz-adv-x="875" unicode="W" d="M203 0l-182 666h85l113 -445q4 -18 24 -116h2q10 48 29 116l128 445h80l126 -442q15 -52 28 -117h2l2 13l4.5 27t7 36.5t9.5 40.5l115 442h77l-183 -666h-71l-129 450q-12 41 -29 128h-2q-9 -47 -33 -128l-132 -450h-71z"/>
<glyph glyph-name="X" horiz-adv-x="565" unicode="X" d="M25 0l211 345l-200 321h89l161 -258l152 258h82l-195 -321l215 -345h-89l-176 282l-168 -282h-82z"/>
<glyph glyph-name="Y" horiz-adv-x="555" unicode="Y" d="M241 0v252l-223 414h87l178 -340h1l178 340h75l-218 -414v-252h-78z"/>
<glyph glyph-name="Z" horiz-adv-x="561" unicode="Z" d="M46 0v55l364 547h-347v64h439v-51l-369 -551h381v-64h-468z"/>
<glyph glyph-name="bracketleft" horiz-adv-x="306" unicode="[" d="M80 -161v881h201v-57h-130v-767h130v-57h-201z"/>
<glyph glyph-name="backslash" horiz-adv-x="402" unicode="\" d="M325 -161l-318 881h70l318 -881h-70z"/>
<glyph glyph-name="bracketright" horiz-adv-x="306" unicode="]" d="M25 -161v57h130v767h-130v57h201v-881h-201z"/>
<glyph glyph-name="asciicircum" horiz-adv-x="584" unicode="^" d="M61 288l205 378h51l205 -378h-66l-164 301l-164 -301h-67z"/>
<glyph glyph-name="underscore" horiz-adv-x="395" unicode="_" d="M-1 -159v61h397v-61h-397z"/>
<glyph glyph-name="grave" horiz-adv-x="500" unicode="`" d="M284 540l-135 126h109l92 -126h-66z"/>
<glyph glyph-name="a" horiz-adv-x="472" unicode="a" d="M193 51q76 0 128 69v108h-21q-178 0 -178 -109q0 -34 22.5 -51t48.5 -17zM181 -12q-61 0 -99 35.5t-38 93.5q0 45 23 79t62 51.5t81.5 26t89.5 8.5h21v45q0 53 -23 76.5t-73 23.5q-66 0 -125 -52l-39 51q71 66 169 66q164 0 164 -159v-224q0 -67 11 -109h-73q-4 19 -7 58 q-56 -70 -144 -70z"/>
<glyph glyph-name="b" horiz-adv-x="519" unicode="b" d="M238 51q77 0 120 55.5t43 133.5q0 82 -35 134t-108 52q-29 0 -59 -14t-47 -33v-313q32 -15 86 -15zM237 -12q-99 0 -158 37v695h73v-278q48 50 120 50q97 0 152 -68.5t55 -181.5q0 -110 -68.5 -182t-173.5 -72z"/>
<glyph glyph-name="c" horiz-adv-x="440" unicode="c" d="M258 -12q-102 0 -160 73.5t-58 178.5q0 118 63.5 185t157.5 67q86 0 147 -48l-35 -55q-53 40 -113 40q-71 0 -106.5 -51.5t-35.5 -135.5q0 -82 36.5 -136.5t107.5 -54.5q66 0 117 40l30 -55q-57 -48 -151 -48z"/>
<glyph glyph-name="d" horiz-adv-x="523" unicode="d" d="M253 54q72 0 121 66v265q-47 44 -115 44q-66 0 -103.5 -52.5t-37.5 -135.5q0 -86 33 -136.5t102 -50.5zM238 -12q-88 0 -143 67t-55 184q0 113 60 183t152 70q75 0 122 -42v270h73v-622q0 -48 12 -98h-73q-7 24 -9 55q-54 -67 -139 -67z"/>
<glyph glyph-name="e" horiz-adv-x="490" unicode="e" d="M122 300h248q-2 56 -30 92.5t-86 36.5q-55 0 -88.5 -35t-43.5 -94zM267 -12q-109 0 -168 71.5t-59 183.5q0 107 60.5 178t155.5 71q88 0 138.5 -58.5t50.5 -157.5q0 -10 -2 -34h-325q2 -84 38.5 -137.5t112.5 -53.5q64 0 133 43l30 -57q-74 -49 -165 -49z"/>
<glyph glyph-name="f" horiz-adv-x="317" unicode="f" d="M100 0v422h-80v58h80v71q0 83 46.5 132t128.5 49q54 0 80 -13l-19 -63q-24 12 -63 12q-48 0 -74 -31.5t-26 -90.5v-66h122v-58h-122v-422h-73z"/>
<glyph glyph-name="g" horiz-adv-x="505" unicode="g" d="M242 200q54 0 85.5 32.5t31.5 83.5t-31.5 83.5t-85.5 32.5t-85.5 -32.5t-31.5 -83.5t31.5 -83.5t85.5 -32.5zM242 -179q71 0 115 27t44 71q0 22 -8.5 37.5t-18 23t-31 12t-31 5.5t-35.5 2q-79 5 -93 7q-65 -38 -65 -101q0 -37 31 -60.5t92 -23.5zM239 -237q-86 0 -139 33 t-53 101q0 78 82 124q-43 21 -43 71q0 46 49 75q-40 22 -62.5 61.5t-22.5 87.5q0 77 52.5 126.5t139.5 49.5q40 0 75 -12h156v-58h-74q35 -44 35 -106q0 -77 -52.5 -126.5t-139.5 -49.5q-28 0 -53 6q-32 -16 -32 -40q0 -34 68 -38q6 0 40 -1.5t44.5 -2.5t40 -5.5t41 -10 t32 -16.5t29 -25.5t16 -36t7.5 -48.5q0 -72 -69.5 -115.5t-166.5 -43.5z"/>
<glyph glyph-name="h" horiz-adv-x="527" unicode="h" d="M79 0v720h73v-309q63 81 156 81q72 0 106.5 -41.5t34.5 -108.5v-342h-73v328q0 98 -85 98q-76 0 -139 -88v-338h-73z"/>
<glyph glyph-name="i" horiz-adv-x="250" unicode="i" d="M88 0v480h74v-480h-74zM125 570q-23 0 -38.5 16t-15.5 38t15.5 38t38.5 16t38.5 -16t15.5 -38t-15.5 -38t-38.5 -16z"/>
<glyph glyph-name="j" horiz-adv-x="239" unicode="j" d="M119 570q-23 0 -38.5 16t-15.5 38t15.5 38t38.5 16t38.5 -16t15.5 -38t-15.5 -38t-38.5 -16zM20 -230q-38 0 -52 7l12 61q12 -5 34 -5q38 0 54 29t16 87v531h73v-544q0 -166 -137 -166z"/>
<glyph glyph-name="k" horiz-adv-x="468" unicode="k" d="M79 0v720h73v-720h-73zM362 0l-205 268l198 212h87l-200 -212l209 -268h-89z"/>
<glyph glyph-name="l" horiz-adv-x="241" unicode="l" d="M84 0v720h73v-720h-73z"/>
<glyph glyph-name="m" horiz-adv-x="793" unicode="m" d="M82 0v480h73v-68q65 80 147 80q94 0 123 -81q73 81 155 81q69 0 102 -41t33 -109v-342h-73v328q0 98 -79 98q-69 0 -128 -75v-351h-73v328q0 98 -77 98q-68 0 -130 -87v-339h-73z"/>
<glyph glyph-name="n" horiz-adv-x="530" unicode="n" d="M82 0v480h73v-69q65 81 156 81q72 0 106.5 -41.5t34.5 -108.5v-342h-73v328q0 98 -85 98q-75 0 -139 -88v-338h-73z"/>
<glyph glyph-name="o" d="M263 51q72 0 109.5 53t37.5 135q0 81 -40 135.5t-112 54.5q-71 0 -105.5 -52.5t-34.5 -135.5t37 -136.5t108 -53.5zM262 -12q-58 0 -102.5 23t-69.5 61t-37.5 80.5t-12.5 86.5q0 45 12 87.5t36.5 80.5t68.5 61.5t102 23.5t103.5 -23t72 -60.5t40 -80.5t13.5 -87t-13 -87 t-39 -81t-71 -61.5t-103 -23.5z" unicode="o"/>
<glyph glyph-name="p" horiz-adv-x="529" unicode="p" d="M270 51q67 0 104 52t37 136t-33 135.5t-99 51.5q-44 0 -76 -22t-48 -45v-264q48 -44 115 -44zM82 -219v699h73v-52q53 64 139 64q89 0 142 -66.5t53 -184.5q0 -113 -59.5 -183t-152.5 -70q-75 0 -122 42v-249h-73z"/>
<glyph glyph-name="q" horiz-adv-x="522" unicode="q" d="M261 54q35 0 65.5 17.5t40.5 29.5v311q-38 17 -86 17q-77 0 -120 -55.5t-43 -133.5q0 -82 35 -134t108 -52zM367 -217v255q-48 -50 -120 -50q-97 0 -152 69t-55 181q0 109 69.5 181.5t172.5 72.5q102 0 158 -37v-672h-73z"/>
<glyph glyph-name="r" horiz-adv-x="345" unicode="r" d="M82 0v480h73v-75q52 87 128 87q30 0 50 -10l-18 -70q-13 8 -42 8q-32 0 -61 -23t-40 -41.5t-17 -33.5v-322h-73z"/>
<glyph glyph-name="s" horiz-adv-x="408" unicode="s" d="M193 -13q-86 0 -152 46l32 56q54 -39 119 -39q45 0 71.5 18t26.5 51q0 31 -23.5 49.5t-82.5 43.5q-66 28 -99 60t-33 88q0 57 41 94.5t111 37.5q85 0 142 -46l-36 -53q-47 36 -107 36q-38 0 -59 -17.5t-21 -48.5t22 -48.5t70 -37.5q36 -15 57.5 -26.5t45.5 -29t35 -40.5 t11 -52q0 -65 -46 -103.5t-125 -38.5z"/>
<glyph glyph-name="t" horiz-adv-x="348" unicode="t" d="M224 -12q-59 0 -89.5 33t-30.5 94v307h-79v58h79v137h73v-137h121v-58h-121v-300q0 -37 12.5 -54t43.5 -17q37 0 65 21l27 -55q-45 -29 -101 -29z"/>
<glyph glyph-name="u" d="M218 -12q-72 0 -107 41.5t-35 108.5v342h73v-328q0 -98 86 -98q75 0 138 88v338h73v-379q0 -58 9 -101h-74q-5 32 -7 71q-61 -83 -156 -83z" unicode="u"/>
<glyph glyph-name="v" horiz-adv-x="462" unicode="v" d="M199 0l-183 480h80l137 -384h2l134 384h75l-177 -480h-68z"/>
<glyph glyph-name="w" horiz-adv-x="698" unicode="w" d="M160 0l-143 480h80l102 -363h2l113 363h71l113 -364h2l103 364h74l-144 -480h-66l-119 373h-2l-120 -373h-66z"/>
<glyph glyph-name="x" horiz-adv-x="462" unicode="x" d="M22 0l166 251l-156 229h83q110 -163 116 -172l109 172h77l-150 -224l174 -256h-83l-135 199l-125 -199h-76z"/>
<glyph glyph-name="y" horiz-adv-x="469" unicode="y" d="M57 -232q-23 0 -46 5l10 61q21 -3 37 -3q48 0 74 26t47 83l23 63l-181 477h82l137 -383h2l133 383h78l-204 -544q-30 -81 -71 -124.5t-121 -43.5z"/>
<glyph glyph-name="z" horiz-adv-x="423" unicode="z" d="M42 0v46l244 375h-230v59h319v-49l-245 -372h249v-59h-337z"/>
<glyph glyph-name="braceleft" horiz-adv-x="358" unicode="{" d="M247 -161q-44 0 -76 27.5t-32 80.5v201q0 49 -30 78.5t-81 30.5v56q51 1 81 30t30 79v191q0 53 31.5 80t75.5 27h87v-57h-66q-33 0 -45 -19.5t-12 -59.5v-175q0 -95 -100 -121v-2q100 -29 100 -128v-187q0 -39 11.5 -57t44.5 -18h67v-57h-86z"/>
<glyph glyph-name="bar" horiz-adv-x="284" unicode="|" d="M112 -250v1000h60v-1000h-60z"/>
<glyph glyph-name="braceright" horiz-adv-x="358" unicode="}" d="M25 -161v57h66q33 0 45 19.5t12 59.5v186q0 95 100 121v2q-100 29 -100 128v176q0 39 -11.5 57t-44.5 18h-67v57h86q44 0 76 -27.5t32 -80.5v-190q0 -49 30 -78.5t81 -30.5v-56q-51 -1 -81 -30t-30 -79v-202q0 -53 -31.5 -80t-75.5 -27h-87z"/>
<glyph glyph-name="asciitilde" horiz-adv-x="588" unicode="~" d="M398 178q-46 0 -85 17.5t-71 35t-62 17.5q-45 0 -89 -40l-36 45q66 59 131 59q45 0 108 -34.5t110 -34.5q45 0 95 41l34 -45q-63 -61 -135 -61z"/>
<glyph glyph-name="uni00A0" horiz-adv-x="225" unicode=" "/>
<glyph glyph-name="exclamdown" horiz-adv-x="275" unicode="¡" d="M93 -182l16 467h58l16 -467h-90zM138 379q-23 0 -40 16.5t-17 39.5q0 24 17 40.5t40 16.5t40 -16.5t17 -40.5q0 -23 -17 -39.5t-40 -16.5z"/>
<glyph glyph-name="cent" horiz-adv-x="440" unicode="¢" d="M213 -123v115q-83 17 -128 86.5t-45 161.5q0 102 48.5 166t124.5 81v106h71v-102q69 -5 124 -47l-35 -55q-53 40 -113 40q-71 0 -106.5 -51.5t-35.5 -135.5q0 -82 36.5 -136.5t107.5 -54.5q66 0 117 40l30 -55q-49 -40 -125 -47v-112h-71z"/>
<glyph glyph-name="sterling" horiz-adv-x="468" unicode="£" d="M61 297v59h88q-12 84 -12 138q0 84 44.5 134t135.5 50q66 0 120 -34l-33 -56q-41 26 -97 26q-94 0 -94 -122q0 -28 11 -136h151v-59h-145q3 -27 3 -49q0 -67 -23.5 -115.5t-51.5 -70.5h258v-62h-362v49q54 30 80.5 85t26.5 111q0 14 -4 52h-96z"/>
<glyph glyph-name="currency" horiz-adv-x="542" unicode="¤" d="M272 123q56 0 90 37t34 92t-34 92t-90 37q-55 0 -89.5 -37.5t-34.5 -91.5q0 -55 34.5 -92t89.5 -37zM101 -12l-51 38l78 99q-47 53 -47 127q0 76 51 130l-80 101l51 38l77 -104q43 20 92 20q47 0 84 -16l77 100l50 -38l-76 -95q57 -54 57 -136q0 -80 -53 -133l72 -93 l-51 -38l-71 96q-41 -18 -89 -18q-55 0 -96 22z"/>
<glyph glyph-name="yen" horiz-adv-x="520" unicode="¥" d="M226 0v95h-161v59h161v71h-161v59h143l-206 382h87l177 -340h2l178 340h75l-202 -382h144v-59h-161v-71h161v-59h-161v-95h-76z"/>
<glyph glyph-name="brokenbar" horiz-adv-x="177" unicode="¦" d="M57 382v368h60v-368h-60zM57 -250v378h60v-378h-60z"/>
<glyph glyph-name="section" horiz-adv-x="468" unicode="§" d="M293 141q34 31 34 75q0 24 -20 58.5t-39.5 58t-54.5 61.5t-41 45q-32 -22 -32 -75q0 -23 19.5 -57t40 -59t53 -61.5t40.5 -45.5zM205 -152q-67 0 -115 33l32 56q41 -25 83 -25t63.5 23t21.5 60q0 29 -23 64.5t-55.5 69.5t-65 70.5t-55.5 80t-23 84.5q0 79 68 124 q-32 46 -32 93q0 70 47 110.5t107 40.5q72 0 117 -35l-35 -56q-1 1 -6 4.5t-7 4.5t-7.5 4.5t-9 5t-10 3.5t-12.5 3t-13.5 2t-16.5 1q-40 0 -61.5 -25t-21.5 -58q0 -30 23 -65.5t55.5 -69.5t65.5 -70.5t56 -80t23 -84.5q0 -65 -67 -126q30 -49 30 -90q0 -75 -46 -113.5 t-110 -38.5z"/>
<glyph glyph-name="dieresis" horiz-adv-x="500" unicode="¨" d="M343 538q-22 0 -37.5 16t-15.5 38t15.5 37.5t37.5 15.5t38 -15.5t16 -37.5t-15.5 -38t-38.5 -16zM156 538q-22 0 -37.5 16t-15.5 38t15.5 37.5t37.5 15.5t38 -15.5t16 -37.5t-16 -38t-38 -16z"/>
<glyph glyph-name="copyright" horiz-adv-x="865" unicode="©" d="M432 38q137 0 227 90.5t90 230.5q0 139 -90 230t-227 91q-136 0 -226 -91t-90 -230q0 -140 90 -230.5t226 -90.5zM432 -14q-154 0 -263 109.5t-109 263.5t109 263.5t263 109.5t263.5 -109t109.5 -264t-109.5 -264t-263.5 -109zM440 127q-98 0 -163.5 68t-65.5 164 q0 98 66 165t163 67q78 0 141 -50l-38 -48q-45 39 -104 39q-74 0 -115 -52t-41 -119q0 -73 46.5 -124t114.5 -51q62 0 116 44l31 -51q-66 -52 -151 -52z"/>
<glyph glyph-name="ordfeminine" horiz-adv-x="361" unicode="ª" d="M147 367q46 0 84 44v73q-91 0 -120 -31q-14 -15 -14 -40q0 -21 14 -33.5t36 -12.5zM139 315q-45 0 -75 27t-30 69q0 48 36 79q48 40 161 40v27q0 34 -15 51t-50 17q-41 0 -87 -35l-33 42q55 46 123 46q122 0 122 -116v-157q0 -44 9 -82h-62q-3 17 -5 35q-41 -43 -94 -43z "/>
<glyph glyph-name="guillemotleft" horiz-adv-x="476" unicode="«" d="M356 56l-133 189l133 190h77l-132 -190l132 -189h-77zM178 56l-133 189l133 190h77l-132 -190l132 -189h-77z"/>
<glyph glyph-name="logicalnot" horiz-adv-x="588" unicode="¬" d="M470 33v204h-430v64h498v-268h-68z"/>
<glyph glyph-name="uni00AD" horiz-adv-x="309" unicode="­" d="M54 255v64h201v-64h-201z"/>
<glyph glyph-name="registered" horiz-adv-x="865" unicode="®" d="M362 390h46q31 0 51 3.5t37 20.5t17 47q0 71 -84 71h-67v-142zM432 38q137 0 227 90.5t90 230.5q0 139 -90 230t-227 91q-136 0 -226 -91t-90 -230q0 -140 90 -230.5t226 -90.5zM432 -14q-154 0 -263 109.5t-109 263.5t109 263.5t263 109.5t263.5 -109t109.5 -264 t-109.5 -264t-263.5 -109zM297 136v452h147q66 0 102.5 -37t36.5 -90q0 -49 -31.5 -79t-88.5 -38q22 -16 53 -59l105 -149h-79l-109 159q-18 26 -32 35t-39 9v-203h-65z"/>
<glyph glyph-name="macron" horiz-adv-x="500" unicode="¯" d="M114 574v61h271v-61h-271z"/>
<glyph glyph-name="degree" horiz-adv-x="346" unicode="°" d="M173 469q33 0 54.5 23t21.5 56t-21.5 56t-54.5 23t-54.5 -23t-21.5 -56t21.5 -56t54.5 -23zM173 418q-54 0 -92.5 38.5t-38.5 91.5t38.5 91.5t92.5 38.5t92.5 -38.5t38.5 -91.5q0 -54 -38 -92t-93 -38z"/>
<glyph glyph-name="plusminus" horiz-adv-x="574" unicode="±" d="M72 -115v64h435v-64h-435zM255 20v215h-213v61h213v204h69v-204h208v-61h-208v-215h-69z"/>
<glyph glyph-name="twosuperior" horiz-adv-x="335" unicode="²" d="M34 337v34q38 31 58 48t50.5 47t44.5 56t14 50q0 50 -56 50q-41 0 -79 -32l-34 39q52 43 123 43q57 0 85 -25t28 -68q0 -48 -37.5 -94.5t-102.5 -98.5q24 1 41 1h117v-50h-252z"/>
<glyph glyph-name="threesuperior" horiz-adv-x="306" unicode="³" d="M95 331q-47 0 -69 10l13 49q23 -9 53 -9q44 0 70 14t26 40q0 52 -111 54v43q44 1 72 15.5t28 38.5q0 36 -55 36q-38 0 -70 -27l-28 39q16 14 47.5 26t64.5 12q106 0 106 -75q0 -61 -70 -78v-1q35 -3 58.5 -25t23.5 -57q0 -51 -42 -78t-117 -27z"/>
<glyph glyph-name="acute" horiz-adv-x="500" unicode="´" d="M149 540l92 126h109l-135 -126h-66z"/>
<glyph glyph-name="uni00B5" horiz-adv-x="547" unicode="µ" d="M78 -207v687h73v-336q0 -41 15 -65.5t58 -24.5q79 0 151 87v339h73v-384q0 -56 7 -96h-73q-5 26 -7 69q-75 -81 -158 -81q-41 0 -67 17h-2q3 -34 3 -111v-101h-73z"/>
<glyph glyph-name="paragraph" horiz-adv-x="644" unicode="¶" d="M260 -177v451q-82 0 -138.5 54t-56.5 141q0 88 56 142.5t139 54.5h319v-63h-80v-780h-67v780h-104v-780h-68z"/>
<glyph glyph-name="periodcentered" horiz-adv-x="220" unicode="·" d="M110 230q-26 0 -43.5 18t-17.5 43t17.5 42.5t43.5 17.5t43.5 -17.5t17.5 -42.5t-17.5 -43t-43.5 -18z"/>
<glyph glyph-name="cedilla" horiz-adv-x="500" unicode="¸" d="M226 -219q-40 0 -66 12l12 42q20 -11 53 -11q50 0 50 39q0 41 -63 41h-8l36 96h51l-25 -66q31 -5 50.5 -23.5t19.5 -46.5q0 -39 -31.5 -61t-78.5 -22z"/>
<glyph glyph-name="onesuperior" horiz-adv-x="256" unicode="¹" d="M105 337v275l-72 -20l-15 49l102 25h47v-329h-62z"/>
<glyph glyph-name="ordmasculine" horiz-adv-x="393" unicode="º" d="M196 367q94 0 94 129q0 59 -24.5 94.5t-73.5 35.5q-90 0 -90 -128q0 -131 94 -131zM195 315q-80 0 -120 53.5t-40 127.5q0 75 39.5 129t118.5 54q80 0 122.5 -54t42.5 -127q0 -74 -41.5 -128.5t-121.5 -54.5z"/>
<glyph glyph-name="guillemotright" horiz-adv-x="476" unicode="»" d="M221 56l132 189l-132 190h76l134 -190l-134 -189h-76zM43 56l132 189l-132 190h76l134 -190l-134 -189h-76z"/>
<glyph glyph-name="onequarter" horiz-adv-x="647" unicode="¼" d="M412 116q18 2 45 2h61v129h-1zM517 0v69h-175v42l178 218h58v-211h55v-49h-55v-69h-61zM66 0l417 666h61l-417 -666h-61zM105 337v275l-72 -20l-15 49l102 25h47v-329h-62z"/>
<glyph glyph-name="onehalf" horiz-adv-x="689" unicode="½" d="M388 0v34q38 31 58 48t50.5 47t44.5 56t14 50q0 50 -56 50q-41 0 -79 -32l-34 39q52 43 123 43q57 0 85 -25t28 -68q0 -48 -37.5 -94.5t-102.5 -98.5q24 1 41 1h117v-50h-252zM66 0l417 666h61l-417 -666h-61zM105 337v275l-72 -20l-15 49l102 25h47v-329h-62z"/>
<glyph glyph-name="threequarters" horiz-adv-x="697" unicode="¾" d="M462 116q18 2 45 2h61v129h-1zM567 0v69h-175v42l178 218h58v-211h55v-49h-55v-69h-61zM116 0l417 666h61l-417 -666h-61zM95 331q-47 0 -69 10l13 49q23 -9 53 -9q44 0 70 14t26 40q0 52 -111 54v43q44 1 72 15.5t28 38.5q0 36 -55 36q-38 0 -70 -27l-28 39 q16 14 47.5 26t64.5 12q106 0 106 -75q0 -61 -70 -78v-1q35 -3 58.5 -25t23.5 -57q0 -51 -42 -78t-117 -27z"/>
<glyph glyph-name="questiondown" horiz-adv-x="400" unicode="¿" d="M260 379q-23 0 -40 16.5t-17 39.5q0 24 17 40.5t40 16.5t40 -16.5t17 -40.5q0 -23 -17 -39.5t-40 -16.5zM246 -194q-94 0 -145 47t-51 123q0 37 11.5 67t34.5 52.5t38.5 33.5t41.5 26q30 18 40 34.5t10 46.5v55h71v-63q0 -41 -15.5 -68t-58.5 -53q-34 -20 -50 -32.5 t-30.5 -37t-14.5 -57.5q0 -110 123 -110q40 0 82 21l27 -58q-54 -27 -114 -27z"/>
<glyph glyph-name="Agrave" horiz-adv-x="627" unicode="À" d="M282 720l-135 126h109l92 -126h-66zM21 0l255 666h76l256 -666h-85l-61 165h-303l-61 -165h-77zM184 231h253l-84 228q-4 10 -41 115h-2q-16 -47 -41 -115z"/>
<glyph glyph-name="Aacute" horiz-adv-x="627" unicode="Á" d="M277 720l92 126h109l-135 -126h-66zM21 0l255 666h76l256 -666h-85l-61 165h-303l-61 -165h-77zM184 231h253l-84 228q-4 10 -41 115h-2q-16 -47 -41 -115z"/>
<glyph glyph-name="Acircumflex" horiz-adv-x="627" unicode="Â" d="M162 721l123 153h54l121 -153h-69l-81 85l-79 -85h-69zM21 0l255 666h76l256 -666h-85l-61 165h-303l-61 -165h-77zM184 231h253l-84 228q-4 10 -41 115h-2q-16 -47 -41 -115z"/>
<glyph glyph-name="Atilde" horiz-adv-x="627" unicode="Ã" d="M360 723q-25 0 -56.5 19.5t-49.5 19.5q-7 0 -13 -2t-12 -6.5t-9.5 -8t-8.5 -9t-6 -6.5l-39 37q43 60 94 60q26 0 57 -19.5t49 -19.5q26 0 51 31l39 -38q-45 -58 -96 -58zM21 0l255 666h76l256 -666h-85l-61 165h-303l-61 -165h-77zM184 231h253l-84 228q-4 10 -41 115h-2 q-16 -47 -41 -115z"/>
<glyph glyph-name="Adieresis" horiz-adv-x="627" unicode="Ä" d="M404 718q-22 0 -37.5 16t-15.5 38t15.5 37.5t37.5 15.5t38 -15.5t16 -37.5t-16 -38t-38 -16zM217 718q-22 0 -37.5 16t-15.5 38t15.5 37.5t37.5 15.5t38 -15.5t16 -37.5t-15.5 -38t-38.5 -16zM21 0l255 666h76l256 -666h-85l-61 165h-303l-61 -165h-77zM184 231h253 l-84 228q-4 10 -41 115h-2q-16 -47 -41 -115z"/>
<glyph glyph-name="Aring" horiz-adv-x="627" unicode="Å" d="M311 743q22 0 36 16t14 39t-13.5 39t-36.5 16t-36.5 -16t-13.5 -39t14 -39t36 -16zM311 703q-38 0 -66.5 28t-28.5 67t28.5 67t66.5 28t66.5 -28t28.5 -67t-28.5 -67t-66.5 -28zM21 0l255 666h76l256 -666h-85l-61 165h-303l-61 -165h-77zM184 231h253l-84 228 q-4 10 -41 115h-2q-16 -47 -41 -115z"/>
<glyph glyph-name="AE" horiz-adv-x="815" unicode="Æ" d="M209 247h199v355zM-15 0l383 666h382v-66h-264v-214h232v-66h-232v-254h271v-66h-349v182h-236l-102 -182h-85z"/>
<glyph glyph-name="Ccedilla" horiz-adv-x="615" unicode="Ç" d="M314 -219q-40 0 -66 12l12 42q20 -11 53 -11q50 0 50 39q0 41 -63 41h-8l33 88q-127 19 -199.5 116.5t-72.5 226.5q0 142 89 242.5t237 100.5q108 0 187 -50l-39 -59q-64 44 -150 44q-114 0 -178 -80.5t-64 -195.5q0 -118 63.5 -200.5t181.5 -82.5q96 0 163 57l36 -56 q-30 -27 -83.5 -47t-117.5 -20h-4l-20 -54q31 -5 50.5 -23.5t19.5 -46.5q0 -39 -31.5 -61t-78.5 -22z"/>
<glyph glyph-name="Egrave" horiz-adv-x="503" unicode="È" d="M244 720l-135 126h109l92 -126h-66zM96 0v666h342v-66h-264v-214h232v-66h-232v-254h271v-66h-349z"/>
<glyph glyph-name="Eacute" horiz-adv-x="503" unicode="É" d="M239 720l92 126h109l-135 -126h-66zM96 0v666h342v-66h-264v-214h232v-66h-232v-254h271v-66h-349z"/>
<glyph glyph-name="Ecircumflex" horiz-adv-x="503" unicode="Ê" d="M124 721l123 153h54l121 -153h-69l-81 85l-79 -85h-69zM96 0v666h342v-66h-264v-214h232v-66h-232v-254h271v-66h-349z"/>
<glyph glyph-name="Edieresis" horiz-adv-x="503" unicode="Ë" d="M366 718q-22 0 -37.5 16t-15.5 38t15.5 37.5t37.5 15.5t38 -15.5t16 -37.5t-16 -38t-38 -16zM179 718q-22 0 -37.5 16t-15.5 38t15.5 37.5t37.5 15.5t38 -15.5t16 -37.5t-15.5 -38t-38.5 -16zM96 0v666h342v-66h-264v-214h232v-66h-232v-254h271v-66h-349z"/>
<glyph glyph-name="Igrave" horiz-adv-x="282" unicode="Ì" d="M112 720l-135 126h109l92 -126h-66zM102 0v666h78v-666h-78z"/>
<glyph glyph-name="Iacute" horiz-adv-x="282" unicode="Í" d="M107 720l92 126h109l-135 -126h-66zM102 0v666h78v-666h-78z"/>
<glyph glyph-name="Icircumflex" horiz-adv-x="282" unicode="Î" d="M-8 721l123 153h54l121 -153h-69l-81 85l-79 -85h-69zM102 0v666h78v-666h-78z"/>
<glyph glyph-name="Idieresis" horiz-adv-x="282" unicode="Ï" d="M234 718q-22 0 -37.5 16t-15.5 38t15.5 37.5t37.5 15.5t38 -15.5t16 -37.5t-16 -38t-38 -16zM47 718q-22 0 -37.5 16t-15.5 38t15.5 37.5t37.5 15.5t38 -15.5t16 -37.5t-15.5 -38t-38.5 -16zM102 0v666h78v-666h-78z"/>
<glyph glyph-name="Eth" horiz-adv-x="657" unicode="Ð" d="M174 64h80q144 0 218.5 70t74.5 205t-72.5 199t-225.5 64h-75v-230h111v-58h-111v-250zM96 0v314h-70v58h70v294h156q190 0 283.5 -87.5t93.5 -237.5q0 -153 -95.5 -247t-286.5 -94h-151z"/>
<glyph glyph-name="Ntilde" horiz-adv-x="711" unicode="Ñ" d="M404 723q-25 0 -56.5 19.5t-49.5 19.5q-7 0 -13 -2t-12 -6.5t-9.5 -8t-8.5 -9t-6 -6.5l-39 37q43 60 94 60q26 0 57 -19.5t49 -19.5q26 0 51 31l39 -38q-45 -58 -96 -58zM94 0v666h77l314 -451q25 -36 62 -98h2q-4 52 -4 90v459h72v-666h-72l-329 475q-14 20 -52 86h-2 q4 -52 4 -73v-488h-72z"/>
<glyph glyph-name="Ograve" horiz-adv-x="760" unicode="Ò" d="M351 720l-135 126h109l92 -126h-66zM379 53q115 0 180.5 80.5t65.5 198.5q0 119 -65 200t-179 81q-115 0 -180.5 -80.5t-65.5 -198.5q0 -119 65 -200t179 -81zM381 -12q-149 0 -238.5 100.5t-89.5 243.5q0 144 89 245t237 101q149 0 238.5 -100.5t89.5 -243.5 q0 -144 -89 -245t-237 -101z"/>
<glyph glyph-name="Oacute" horiz-adv-x="760" unicode="Ó" d="M346 720l92 126h109l-135 -126h-66zM379 53q115 0 180.5 80.5t65.5 198.5q0 119 -65 200t-179 81q-115 0 -180.5 -80.5t-65.5 -198.5q0 -119 65 -200t179 -81zM381 -12q-149 0 -238.5 100.5t-89.5 243.5q0 144 89 245t237 101q149 0 238.5 -100.5t89.5 -243.5 q0 -144 -89 -245t-237 -101z"/>
<glyph glyph-name="Ocircumflex" horiz-adv-x="760" unicode="Ô" d="M231 721l123 153h54l121 -153h-69l-81 85l-79 -85h-69zM379 53q115 0 180.5 80.5t65.5 198.5q0 119 -65 200t-179 81q-115 0 -180.5 -80.5t-65.5 -198.5q0 -119 65 -200t179 -81zM381 -12q-149 0 -238.5 100.5t-89.5 243.5q0 144 89 245t237 101q149 0 238.5 -100.5 t89.5 -243.5q0 -144 -89 -245t-237 -101z"/>
<glyph glyph-name="Otilde" horiz-adv-x="760" unicode="Õ" d="M429 723q-25 0 -56.5 19.5t-49.5 19.5q-7 0 -13 -2t-12 -6.5t-9.5 -8t-8.5 -9t-6 -6.5l-39 37q43 60 94 60q27 0 58 -19.5t48 -19.5q26 0 51 31l39 -38q-45 -58 -96 -58zM379 53q115 0 180.5 80.5t65.5 198.5q0 119 -65 200t-179 81q-115 0 -180.5 -80.5t-65.5 -198.5 q0 -119 65 -200t179 -81zM381 -12q-149 0 -238.5 100.5t-89.5 243.5q0 144 89 245t237 101q149 0 238.5 -100.5t89.5 -243.5q0 -144 -89 -245t-237 -101z"/>
<glyph glyph-name="Odieresis" horiz-adv-x="760" unicode="Ö" d="M473 718q-22 0 -37.5 16t-15.5 38t15.5 37.5t37.5 15.5t38 -15.5t16 -37.5t-15.5 -38t-38.5 -16zM286 718q-22 0 -37.5 16t-15.5 38t15.5 37.5t37.5 15.5t38 -15.5t16 -37.5t-16 -38t-38 -16zM379 53q115 0 180.5 80.5t65.5 198.5q0 119 -65 200t-179 81 q-115 0 -180.5 -80.5t-65.5 -198.5q0 -119 65 -200t179 -81zM381 -12q-149 0 -238.5 100.5t-89.5 243.5q0 144 89 245t237 101q149 0 238.5 -100.5t89.5 -243.5q0 -144 -89 -245t-237 -101z"/>
<glyph glyph-name="multiply" horiz-adv-x="511" unicode="×" d="M387 84l-137 136l-129 -129l-45 45l129 129l-129 130l48 48l130 -129l129 129l45 -45l-129 -129l137 -137z"/>
<glyph glyph-name="Oslash" horiz-adv-x="760" unicode="Ø" d="M379 53q115 0 180.5 80.5t65.5 198.5q0 122 -65 199l-302 -447q53 -31 121 -31zM135 334q0 -142 83 -220l304 454q-59 45 -141 45q-115 0 -180.5 -80.5t-65.5 -198.5zM160 -65l-43 31l60 90q-59 48 -91.5 120.5t-32.5 155.5q0 144 89 245t237 101q104 0 181 -52l64 95 l44 -33l-65 -96q104 -99 104 -258q0 -144 -89 -245t-237 -101q-88 0 -159 38z"/>
<glyph glyph-name="Ugrave" horiz-adv-x="690" unicode="Ù" d="M316 720l-135 126h109l92 -126h-66zM348 -12q-132 0 -195 69.5t-63 191.5v417h78v-407q0 -104 44.5 -154t137.5 -50q87 0 132 51.5t45 138.5v421h73v-413q0 -126 -62.5 -195.5t-189.5 -69.5z"/>
<glyph glyph-name="Uacute" horiz-adv-x="690" unicode="Ú" d="M311 720l92 126h109l-135 -126h-66zM348 -12q-132 0 -195 69.5t-63 191.5v417h78v-407q0 -104 44.5 -154t137.5 -50q87 0 132 51.5t45 138.5v421h73v-413q0 -126 -62.5 -195.5t-189.5 -69.5z"/>
<glyph glyph-name="Ucircumflex" horiz-adv-x="690" unicode="Û" d="M196 721l123 153h54l121 -153h-69l-81 85l-79 -85h-69zM348 -12q-132 0 -195 69.5t-63 191.5v417h78v-407q0 -104 44.5 -154t137.5 -50q87 0 132 51.5t45 138.5v421h73v-413q0 -126 -62.5 -195.5t-189.5 -69.5z"/>
<glyph glyph-name="Udieresis" horiz-adv-x="690" unicode="Ü" d="M438 718q-22 0 -37.5 16t-15.5 38t15.5 37.5t37.5 15.5t38 -15.5t16 -37.5t-16 -38t-38 -16zM251 718q-22 0 -37.5 16t-15.5 38t15.5 37.5t37.5 15.5t38 -15.5t16 -37.5t-15.5 -38t-38.5 -16zM348 -12q-132 0 -195 69.5t-63 191.5v417h78v-407q0 -104 44.5 -154 t137.5 -50q87 0 132 51.5t45 138.5v421h73v-413q0 -126 -62.5 -195.5t-189.5 -69.5z"/>
<glyph glyph-name="Yacute" horiz-adv-x="555" unicode="Ý" d="M243 720l92 126h109l-135 -126h-66zM241 0v252l-223 414h87l178 -340h1l178 340h75l-218 -414v-252h-78z"/>
<glyph glyph-name="Thorn" horiz-adv-x="530" unicode="Þ" d="M174 220h78q165 0 165 136q0 129 -162 129h-81v-265zM96 0v666h78v-115h89q105 0 169.5 -49.5t64.5 -142.5q0 -98 -64 -151.5t-181 -53.5h-78v-154h-78z"/>
<glyph glyph-name="germandbls" horiz-adv-x="547" unicode="ß" d="M338 -12q-73 0 -122 34l31 59q49 -30 94 -30q42 0 67 18t25 53q0 18 -6 32t-24 28t-29 21t-43 24q-31 17 -48.5 29t-33.5 36t-16 53q0 20 5 36.5t19 31.5t20.5 22t30 23t26.5 19q53 40 53 94q0 96 -104 96q-56 0 -90 -43.5t-34 -129.5v-494h-73v496q0 115 55.5 175.5 t143.5 60.5q85 0 130.5 -44t45.5 -111q0 -37 -15 -67t-31.5 -46t-44.5 -35t-37 -26.5t-19.5 -21t-10.5 -28.5q0 -12 3 -20t16 -18t22.5 -15.5t39.5 -22.5q29 -16 45.5 -27t37 -29.5t30.5 -41t10 -49.5q0 -66 -44 -104t-125 -38z"/>
<glyph glyph-name="agrave" horiz-adv-x="472" unicode="à" d="M201 540l-135 126h109l92 -126h-66zM193 51q76 0 128 69v108h-21q-178 0 -178 -109q0 -34 22.5 -51t48.5 -17zM181 -12q-61 0 -99 35.5t-38 93.5q0 45 23 79t62 51.5t81.5 26t89.5 8.5h21v45q0 53 -23 76.5t-73 23.5q-66 0 -125 -52l-39 51q71 66 169 66q164 0 164 -159 v-224q0 -67 11 -109h-73q-4 19 -7 58q-56 -70 -144 -70z"/>
<glyph glyph-name="aacute" horiz-adv-x="472" unicode="á" d="M196 540l92 126h109l-135 -126h-66zM193 51q76 0 128 69v108h-21q-178 0 -178 -109q0 -34 22.5 -51t48.5 -17zM181 -12q-61 0 -99 35.5t-38 93.5q0 45 23 79t62 51.5t81.5 26t89.5 8.5h21v45q0 53 -23 76.5t-73 23.5q-66 0 -125 -52l-39 51q71 66 169 66q164 0 164 -159 v-224q0 -67 11 -109h-73q-4 19 -7 58q-56 -70 -144 -70z"/>
<glyph glyph-name="acircumflex" horiz-adv-x="472" unicode="â" d="M81 541l123 153h54l121 -153h-69l-81 85l-79 -85h-69zM193 51q76 0 128 69v108h-21q-178 0 -178 -109q0 -34 22.5 -51t48.5 -17zM181 -12q-61 0 -99 35.5t-38 93.5q0 45 23 79t62 51.5t81.5 26t89.5 8.5h21v45q0 53 -23 76.5t-73 23.5q-66 0 -125 -52l-39 51 q71 66 169 66q164 0 164 -159v-224q0 -67 11 -109h-73q-4 19 -7 58q-56 -70 -144 -70z"/>
<glyph glyph-name="atilde" horiz-adv-x="472" unicode="ã" d="M279 543q-25 0 -56.5 19.5t-49.5 19.5q-7 0 -13 -2t-12 -6.5t-9.5 -8t-8.5 -9t-6 -6.5l-39 37q43 60 94 60q27 0 58 -19.5t48 -19.5q26 0 51 31l39 -38q-45 -58 -96 -58zM193 51q76 0 128 69v108h-21q-178 0 -178 -109q0 -34 22.5 -51t48.5 -17zM181 -12q-61 0 -99 35.5 t-38 93.5q0 45 23 79t62 51.5t81.5 26t89.5 8.5h21v45q0 53 -23 76.5t-73 23.5q-66 0 -125 -52l-39 51q71 66 169 66q164 0 164 -159v-224q0 -67 11 -109h-73q-4 19 -7 58q-56 -70 -144 -70z"/>
<glyph glyph-name="adieresis" horiz-adv-x="472" unicode="ä" d="M323 538q-22 0 -37.5 16t-15.5 38t15.5 37.5t37.5 15.5t38 -15.5t16 -37.5t-15.5 -38t-38.5 -16zM136 538q-22 0 -37.5 16t-15.5 38t15.5 37.5t37.5 15.5t38 -15.5t16 -37.5t-16 -38t-38 -16zM193 51q76 0 128 69v108h-21q-178 0 -178 -109q0 -34 22.5 -51t48.5 -17z M181 -12q-61 0 -99 35.5t-38 93.5q0 45 23 79t62 51.5t81.5 26t89.5 8.5h21v45q0 53 -23 76.5t-73 23.5q-66 0 -125 -52l-39 51q71 66 169 66q164 0 164 -159v-224q0 -67 11 -109h-73q-4 19 -7 58q-56 -70 -144 -70z"/>
<glyph glyph-name="aring" horiz-adv-x="472" unicode="å" d="M230 585q22 0 36 16t14 39t-13.5 39t-36.5 16t-36.5 -16t-13.5 -39t14 -39t36 -16zM230 545q-38 0 -66.5 28t-28.5 67t28.5 67t66.5 28t66.5 -28t28.5 -67t-28.5 -67t-66.5 -28zM193 51q76 0 128 69v108h-21q-178 0 -178 -109q0 -34 22.5 -51t48.5 -17zM181 -12 q-61 0 -99 35.5t-38 93.5q0 45 23 79t62 51.5t81.5 26t89.5 8.5h21v45q0 53 -23 76.5t-73 23.5q-66 0 -125 -52l-39 51q71 66 169 66q164 0 164 -159v-224q0 -67 11 -109h-73q-4 19 -7 58q-56 -70 -144 -70z"/>
<glyph glyph-name="ae" horiz-adv-x="770" unicode="æ" d="M402 300h248q-2 56 -30 92.5t-86 36.5q-55 0 -88.5 -35t-43.5 -94zM193 51q90 0 145 85q-15 45 -18 92h-20q-178 0 -178 -109q0 -34 22.5 -51t48.5 -17zM181 -12q-61 0 -99 35.5t-38 93.5q0 45 23 79t62 51.5t81.5 26t89.5 8.5h22v45q0 49 -22 74.5t-75 25.5 q-63 0 -125 -52l-39 51q72 66 169 66q110 0 146 -78q62 78 160 78q88 0 138.5 -59t50.5 -157q0 -10 -2 -34h-325q2 -84 38.5 -137.5t112.5 -53.5q64 0 133 43l30 -57q-74 -49 -165 -49q-120 0 -183 96q-79 -96 -183 -96z"/>
<glyph glyph-name="ccedilla" horiz-adv-x="440" unicode="ç" d="M199 -219q-40 0 -66 12l12 42q20 -11 53 -11q50 0 50 39q0 41 -63 41h-8l33 89q-80 17 -125 86t-45 161q0 118 63.5 185t157.5 67q86 0 147 -48l-35 -55q-53 40 -113 40q-71 0 -106.5 -51.5t-35.5 -135.5q0 -82 36.5 -136.5t107.5 -54.5q66 0 117 40l30 -55 q-56 -47 -150 -48l-20 -54q31 -5 50.5 -23.5t19.5 -46.5q0 -39 -31.5 -61t-78.5 -22z"/>
<glyph glyph-name="egrave" horiz-adv-x="490" unicode="è" d="M225 540l-135 126h109l92 -126h-66zM122 300h248q-2 56 -30 92.5t-86 36.5q-55 0 -88.5 -35t-43.5 -94zM267 -12q-109 0 -168 71.5t-59 183.5q0 107 60.5 178t155.5 71q88 0 138.5 -58.5t50.5 -157.5q0 -10 -2 -34h-325q2 -84 38.5 -137.5t112.5 -53.5q64 0 133 43 l30 -57q-74 -49 -165 -49z"/>
<glyph glyph-name="eacute" horiz-adv-x="490" unicode="é" d="M220 540l92 126h109l-135 -126h-66zM122 300h248q-2 56 -30 92.5t-86 36.5q-55 0 -88.5 -35t-43.5 -94zM267 -12q-109 0 -168 71.5t-59 183.5q0 107 60.5 178t155.5 71q88 0 138.5 -58.5t50.5 -157.5q0 -10 -2 -34h-325q2 -84 38.5 -137.5t112.5 -53.5q64 0 133 43 l30 -57q-74 -49 -165 -49z"/>
<glyph glyph-name="ecircumflex" horiz-adv-x="490" unicode="ê" d="M105 541l123 153h54l121 -153h-69l-81 85l-79 -85h-69zM122 300h248q-2 56 -30 92.5t-86 36.5q-55 0 -88.5 -35t-43.5 -94zM267 -12q-109 0 -168 71.5t-59 183.5q0 107 60.5 178t155.5 71q88 0 138.5 -58.5t50.5 -157.5q0 -10 -2 -34h-325q2 -84 38.5 -137.5t112.5 -53.5 q64 0 133 43l30 -57q-74 -49 -165 -49z"/>
<glyph glyph-name="edieresis" horiz-adv-x="490" unicode="ë" d="M347 538q-22 0 -37.5 16t-15.5 38t15.5 37.5t37.5 15.5t38 -15.5t16 -37.5t-15.5 -38t-38.5 -16zM160 538q-22 0 -37.5 16t-15.5 38t15.5 37.5t37.5 15.5t38 -15.5t16 -37.5t-16 -38t-38 -16zM122 300h248q-2 56 -30 92.5t-86 36.5q-55 0 -88.5 -35t-43.5 -94zM267 -12 q-109 0 -168 71.5t-59 183.5q0 107 60.5 178t155.5 71q88 0 138.5 -58.5t50.5 -157.5q0 -10 -2 -34h-325q2 -84 38.5 -137.5t112.5 -53.5q64 0 133 43l30 -57q-74 -49 -165 -49z"/>
<glyph glyph-name="igrave" horiz-adv-x="250" unicode="ì" d="M96 540l-135 126h109l92 -126h-66zM88 0v480h74v-480h-74z"/>
<glyph glyph-name="iacute" horiz-adv-x="250" unicode="í" d="M91 540l92 126h109l-135 -126h-66zM88 0v480h74v-480h-74z"/>
<glyph glyph-name="icircumflex" horiz-adv-x="250" unicode="î" d="M-24 541l123 153h54l121 -153h-69l-81 85l-79 -85h-69zM88 0v480h74v-480h-74z"/>
<glyph glyph-name="idieresis" horiz-adv-x="250" unicode="ï" d="M218 538q-22 0 -37.5 16t-15.5 38t15.5 37.5t37.5 15.5t38 -15.5t16 -37.5t-16 -38t-38 -16zM31 538q-22 0 -37.5 16t-15.5 38t15.5 37.5t37.5 15.5t38 -15.5t16 -37.5t-15.5 -38t-38.5 -16zM88 0v480h74v-480h-74z"/>
<glyph glyph-name="eth" horiz-adv-x="538" unicode="ð" d="M264 51q73 0 114 64.5t41 191.5v16q-55 99 -167 99q-62 0 -98 -49t-36 -132q0 -89 40 -139.5t106 -50.5zM261 -12q-94 0 -157.5 69t-63.5 182q0 114 61 180t156 66q101 0 152 -69q-25 130 -112 194l-79 -67l-38 44l64 54q-66 30 -156 30l15 61q113 0 197 -43l72 61 l38 -44l-59 -50q145 -113 145 -356q0 -86 -24.5 -155t-79 -113t-131.5 -44z"/>
<glyph glyph-name="ntilde" horiz-adv-x="530" unicode="ñ" d="M306 543q-25 0 -56.5 19.5t-49.5 19.5q-7 0 -13 -2t-12 -6.5t-9.5 -8t-8.5 -9t-6 -6.5l-39 37q43 60 94 60q26 0 57 -19.5t49 -19.5q26 0 51 31l39 -38q-45 -58 -96 -58zM82 0v480h73v-69q65 81 156 81q72 0 106.5 -41.5t34.5 -108.5v-342h-73v328q0 98 -85 98 q-75 0 -139 -88v-338h-73z"/>
<glyph glyph-name="ograve" d="M235 540l-135 126h109l92 -126h-66zM263 51q72 0 109.5 53t37.5 135q0 81 -40 135.5t-112 54.5q-71 0 -105.5 -52.5t-34.5 -135.5t37 -136.5t108 -53.5zM262 -12q-58 0 -102.5 23t-69.5 61t-37.5 80.5t-12.5 86.5q0 45 12 87.5t36.5 80.5t68.5 61.5t102 23.5t103.5 -23 t72 -60.5t40 -80.5t13.5 -87t-13 -87t-39 -81t-71 -61.5t-103 -23.5z" unicode="ò"/>
<glyph glyph-name="oacute" d="M230 540l92 126h109l-135 -126h-66zM263 51q72 0 109.5 53t37.5 135q0 81 -40 135.5t-112 54.5q-71 0 -105.5 -52.5t-34.5 -135.5t37 -136.5t108 -53.5zM262 -12q-58 0 -102.5 23t-69.5 61t-37.5 80.5t-12.5 86.5q0 45 12 87.5t36.5 80.5t68.5 61.5t102 23.5t103.5 -23 t72 -60.5t40 -80.5t13.5 -87t-13 -87t-39 -81t-71 -61.5t-103 -23.5z" unicode="ó"/>
<glyph glyph-name="ocircumflex" d="M115 541l123 153h54l121 -153h-69l-81 85l-79 -85h-69zM263 51q72 0 109.5 53t37.5 135q0 81 -40 135.5t-112 54.5q-71 0 -105.5 -52.5t-34.5 -135.5t37 -136.5t108 -53.5zM262 -12q-58 0 -102.5 23t-69.5 61t-37.5 80.5t-12.5 86.5q0 45 12 87.5t36.5 80.5t68.5 61.5 t102 23.5t103.5 -23t72 -60.5t40 -80.5t13.5 -87t-13 -87t-39 -81t-71 -61.5t-103 -23.5z" unicode="ô"/>
<glyph glyph-name="otilde" d="M313 543q-25 0 -56.5 19.5t-49.5 19.5q-7 0 -13 -2t-12 -6.5t-9.5 -8t-8.5 -9t-6 -6.5l-39 37q43 60 94 60q27 0 58 -19.5t48 -19.5q26 0 51 31l39 -38q-45 -58 -96 -58zM263 51q72 0 109.5 53t37.5 135q0 81 -40 135.5t-112 54.5q-71 0 -105.5 -52.5t-34.5 -135.5 t37 -136.5t108 -53.5zM262 -12q-58 0 -102.5 23t-69.5 61t-37.5 80.5t-12.5 86.5q0 45 12 87.5t36.5 80.5t68.5 61.5t102 23.5t103.5 -23t72 -60.5t40 -80.5t13.5 -87t-13 -87t-39 -81t-71 -61.5t-103 -23.5z" unicode="õ"/>
<glyph glyph-name="odieresis" d="M357 538q-22 0 -37.5 16t-15.5 38t15.5 37.5t37.5 15.5t38 -15.5t16 -37.5t-15.5 -38t-38.5 -16zM170 538q-22 0 -37.5 16t-15.5 38t15.5 37.5t37.5 15.5t38 -15.5t16 -37.5t-16 -38t-38 -16zM263 51q72 0 109.5 53t37.5 135q0 81 -40 135.5t-112 54.5 q-71 0 -105.5 -52.5t-34.5 -135.5t37 -136.5t108 -53.5zM262 -12q-58 0 -102.5 23t-69.5 61t-37.5 80.5t-12.5 86.5q0 45 12 87.5t36.5 80.5t68.5 61.5t102 23.5t103.5 -23t72 -60.5t40 -80.5t13.5 -87t-13 -87t-39 -81t-71 -61.5t-103 -23.5z" unicode="ö"/>
<glyph glyph-name="divide" horiz-adv-x="572" unicode="÷" d="M36 210v60h500v-60h-500zM284 354q-23 0 -39.5 16t-16.5 39q0 22 16.5 38t39.5 16q22 0 38.5 -16t16.5 -38q0 -23 -16.5 -39t-38.5 -16zM284 17q-23 0 -39.5 16t-16.5 38t16.5 38t39.5 16t39 -16t16 -38t-16 -38t-39 -16z"/>
<glyph glyph-name="oslash" d="M116 241q0 -76 28 -126l193 293q-36 23 -79 23q-71 0 -106.5 -53.5t-35.5 -136.5zM263 48q72 0 110.5 54.5t38.5 136.5q0 84 -39 135l-198 -296q36 -30 88 -30zM88 -55l-39 27l55 82q-64 73 -64 185q0 45 12 87.5t36.5 80.5t68.5 61.5t102 23.5q64 0 114 -29l58 88 l42 -29l-60 -90q37 -37 56 -88.5t19 -102.5q0 -44 -13 -87t-39 -81t-71 -61.5t-103 -23.5q-72 0 -123 35z" unicode="ø"/>
<glyph glyph-name="ugrave" d="M236 540l-135 126h109l92 -126h-66zM218 -12q-72 0 -107 41.5t-35 108.5v342h73v-328q0 -98 86 -98q75 0 138 88v338h73v-379q0 -58 9 -101h-74q-5 32 -7 71q-61 -83 -156 -83z" unicode="ù"/>
<glyph glyph-name="uacute" d="M231 540l92 126h109l-135 -126h-66zM218 -12q-72 0 -107 41.5t-35 108.5v342h73v-328q0 -98 86 -98q75 0 138 88v338h73v-379q0 -58 9 -101h-74q-5 32 -7 71q-61 -83 -156 -83z" unicode="ú"/>
<glyph glyph-name="ucircumflex" d="M116 541l123 153h54l121 -153h-69l-81 85l-79 -85h-69zM218 -12q-72 0 -107 41.5t-35 108.5v342h73v-328q0 -98 86 -98q75 0 138 88v338h73v-379q0 -58 9 -101h-74q-5 32 -7 71q-61 -83 -156 -83z" unicode="û"/>
<glyph glyph-name="udieresis" d="M358 538q-22 0 -37.5 16t-15.5 38t15.5 37.5t37.5 15.5t38 -15.5t16 -37.5t-16 -38t-38 -16zM171 538q-22 0 -37.5 16t-15.5 38t15.5 37.5t37.5 15.5t38 -15.5t16 -37.5t-15.5 -38t-38.5 -16zM218 -12q-72 0 -107 41.5t-35 108.5v342h73v-328q0 -98 86 -98q75 0 138 88 v338h73v-379q0 -58 9 -101h-74q-5 32 -7 71q-61 -83 -156 -83z" unicode="ü"/>
<glyph glyph-name="yacute" horiz-adv-x="469" unicode="ý" d="M203 540l92 126h109l-135 -126h-66zM57 -232q-23 0 -46 5l10 61q21 -3 37 -3q48 0 74 26t47 83l23 63l-181 477h82l137 -383h2l133 383h78l-204 -544q-30 -81 -71 -124.5t-121 -43.5z"/>
<glyph glyph-name="thorn" horiz-adv-x="530" unicode="þ" d="M270 51q67 0 104 52t37 136t-33 135.5t-99 51.5q-33 0 -67.5 -18.5t-56.5 -48.5v-264q49 -44 115 -44zM82 -219v939h73v-292q53 64 139 64q89 0 142 -66.5t53 -184.5q0 -113 -59.5 -183t-152.5 -70q-75 0 -122 42v-249h-73z"/>
<glyph glyph-name="OE" horiz-adv-x="885" unicode="Œ" d="M379 53q55 0 99 18v523q-44 19 -97 19q-115 0 -180.5 -80.5t-65.5 -198.5q0 -119 65 -200t179 -81zM381 -12q-149 0 -238.5 100.5t-89.5 243.5q0 144 89 245t237 101q53 0 99 -12h342v-66h-264v-214h232v-66h-232v-254h271v-66h-349q-43 -12 -97 -12z"/>
<glyph glyph-name="oe" horiz-adv-x="859" unicode="œ" d="M491 300h248q-2 56 -30 92.5t-86 36.5q-55 0 -88.5 -35t-43.5 -94zM263 51q72 0 109.5 53t37.5 135q0 81 -40 135.5t-112 54.5q-71 0 -105.5 -52.5t-34.5 -135.5t37 -136.5t108 -53.5zM262 -12q-58 0 -102.5 23t-69.5 61t-37.5 80.5t-12.5 86.5q0 45 12 87.5t36.5 80.5 t68.5 61.5t102 23.5q128 0 188 -106q59 106 178 106q88 0 138.5 -59t50.5 -157q0 -10 -2 -34h-325q1 -84 37.5 -137.5t113.5 -53.5q64 0 133 43l30 -57q-73 -49 -165 -49q-64 0 -113 28t-75 77q-63 -105 -186 -105z"/>
<glyph glyph-name="Scaron" horiz-adv-x="499" unicode="Š" d="M219 719l-121 153h69l81 -85l79 85h69l-123 -153h-54zM233 -12q-118 0 -189 68l40 56q63 -59 152 -59q60 0 98 33.5t38 79.5q0 28 -9.5 49.5t-38 42t-40 27.5t-56.5 29q-6 3 -9 5q-50 25 -78.5 44t-52.5 57t-24 88q0 78 56.5 124t137.5 46q106 0 175 -53l-38 -58 q-59 46 -138 46q-50 0 -83 -28t-33 -73t30 -72.5t90 -55.5q29 -14 39 -19t36.5 -19.5t37 -24t29.5 -27.5t26.5 -35t14.5 -41t7 -51q0 -79 -60.5 -129t-157.5 -50z"/>
<glyph glyph-name="scaron" horiz-adv-x="408" unicode="š" d="M174 539l-121 153h69l81 -85l79 85h69l-123 -153h-54zM193 -13q-86 0 -152 46l32 56q54 -39 119 -39q45 0 71.5 18t26.5 51q0 31 -23.5 49.5t-82.5 43.5q-66 28 -99 60t-33 88q0 57 41 94.5t111 37.5q85 0 142 -46l-36 -53q-47 36 -107 36q-38 0 -59 -17.5t-21 -48.5 t22 -48.5t70 -37.5q36 -15 57.5 -26.5t45.5 -29t35 -40.5t11 -52q0 -65 -46 -103.5t-125 -38.5z"/>
<glyph glyph-name="Ydieresis" horiz-adv-x="555" unicode="Ÿ" d="M370 718q-22 0 -37.5 16t-15.5 38t15.5 37.5t37.5 15.5t38 -15.5t16 -37.5t-16 -38t-38 -16zM183 718q-22 0 -37.5 16t-15.5 38t15.5 37.5t37.5 15.5t38 -15.5t16 -37.5t-15.5 -38t-38.5 -16zM241 0v252l-223 414h87l178 -340h1l178 340h75l-218 -414v-252h-78z"/>
<glyph glyph-name="circumflex" horiz-adv-x="500" unicode="ˆ" d="M101 541l123 153h54l121 -153h-69l-81 85l-79 -85h-69z"/>
<glyph glyph-name="tilde" horiz-adv-x="500" unicode="˜" d="M299 543q-25 0 -56.5 19.5t-49.5 19.5q-7 0 -13 -2t-12 -6.5t-9.5 -8t-8.5 -9t-6 -6.5l-39 37q43 60 94 60q27 0 58 -19.5t48 -19.5q26 0 51 31l39 -38q-45 -58 -96 -58z"/>
<glyph glyph-name="Alpha" horiz-adv-x="627" unicode="Α" d="M21 0l255 666h76l256 -666h-85l-61 165h-303l-61 -165h-77zM184 231h253l-84 228q-4 10 -41 115h-2q-16 -47 -41 -115z"/>
<glyph glyph-name="Beta" horiz-adv-x="572" unicode="Β" d="M173 380h91q76 0 111 28t35 87q0 106 -144 106h-93v-221zM173 65h94q89 0 130 28.5t41 91.5q0 131 -165 131h-100v-251zM96 0v666h176q100 0 159 -40t59 -126q0 -57 -31.5 -94.5t-87.5 -52.5v-2q65 -11 106.5 -54.5t41.5 -109.5q0 -187 -250 -187h-173z"/>
<glyph glyph-name="Gamma" horiz-adv-x="465" unicode="Γ" d="M96 0v666h349v-66h-271v-600h-78z"/>
<glyph glyph-name="Delta" horiz-adv-x="607" unicode="Δ" d="M102 66h398l-154 393q-25 64 -46 126h-2q-14 -43 -45 -126zM21 0v52l242 614h76l249 -614v-52h-567z"/>
<glyph glyph-name="Epsilon" horiz-adv-x="503" unicode="Ε" d="M96 0v666h342v-66h-264v-214h232v-66h-232v-254h271v-66h-349z"/>
<glyph glyph-name="Zeta" horiz-adv-x="561" unicode="Ζ" d="M46 0v55l364 547h-347v64h439v-51l-369 -551h381v-64h-468z"/>
<glyph glyph-name="Eta" horiz-adv-x="725" unicode="Η" d="M96 0v666h78v-282h377v282h78v-666h-78v318h-377v-318h-78z"/>
<glyph glyph-name="Theta" horiz-adv-x="760" unicode="Θ" d="M227 299v66h292v-66h-292zM379 53q115 0 180.5 80.5t65.5 198.5q0 119 -65 200t-179 81q-115 0 -180.5 -80.5t-65.5 -198.5q0 -119 65 -200t179 -81zM381 -12q-149 0 -238.5 100.5t-89.5 243.5q0 144 89 245t237 101q149 0 238.5 -100.5t89.5 -243.5q0 -144 -89 -245 t-237 -101z"/>
<glyph glyph-name="Iota" horiz-adv-x="282" unicode="Ι" d="M102 0v666h78v-666h-78z"/>
<glyph glyph-name="Kappa" horiz-adv-x="569" unicode="Κ" d="M96 0v666h77v-666h-77zM456 0l-280 347l268 319h91l-268 -314l286 -352h-97z"/>
<glyph glyph-name="Lambda" horiz-adv-x="620" unicode="Λ" d="M21 0l248 666h76l256 -666h-85l-171 459q-9 24 -17 47.5t-14 44t-8 25.5h-2q-31 -98 -38 -117l-167 -459h-78z"/>
<glyph glyph-name="Mu" horiz-adv-x="852" unicode="Μ" d="M54 0l91 666h73l165 -453q27 -76 42 -123h2q14 47 42 123l165 453h74l90 -666h-79l-57 436q-8 68 -11 93h-2q-16 -54 -30 -92l-158 -437h-75l-162 437q-7 19 -13 36t-11.5 33t-7.5 23h-2q-2 -20 -10 -95l-53 -434h-73z"/>
<glyph glyph-name="Nu" horiz-adv-x="711" unicode="Ν" d="M94 0v666h77l314 -451q25 -36 62 -98h2q-4 52 -4 90v459h72v-666h-72l-329 475q-14 20 -52 86h-2q4 -52 4 -73v-488h-72z"/>
<glyph glyph-name="Xi" horiz-adv-x="558" unicode="Ξ" d="M65 594v72h428v-72h-428zM97 317v72h364v-72h-364zM58 0v72h442v-72h-442z"/>
<glyph glyph-name="Omicron" horiz-adv-x="760" unicode="Ο" d="M379 53q115 0 180.5 80.5t65.5 198.5q0 119 -65 200t-179 81q-115 0 -180.5 -80.5t-65.5 -198.5q0 -119 65 -200t179 -81zM381 -12q-149 0 -238.5 100.5t-89.5 243.5q0 144 89 245t237 101q149 0 238.5 -100.5t89.5 -243.5q0 -144 -89 -245t-237 -101z"/>
<glyph glyph-name="Pi" horiz-adv-x="695" unicode="Π" d="M96 0v666h503v-666h-78v600h-347v-600h-78z"/>
<glyph glyph-name="Rho" horiz-adv-x="542" unicode="Ρ" d="M174 335h78q165 0 165 136q0 129 -162 129h-81v-265zM96 0v666h167q105 0 169.5 -49.5t64.5 -142.5q0 -98 -64 -151.5t-181 -53.5h-78v-269h-78z"/>
<glyph glyph-name="Sigma" horiz-adv-x="503" unicode="Σ" d="M54 0v56l190 294l-178 260v56h374v-66h-281l167 -241l-189 -293h322v-66h-405z"/>
<glyph glyph-name="Tau" horiz-adv-x="497" unicode="Τ" d="M209 0v600h-189v66h457v-66h-189v-600h-79z"/>
<glyph glyph-name="Upsilon" horiz-adv-x="555" unicode="Υ" d="M241 0v252l-223 414h87l178 -340h1l178 340h75l-218 -414v-252h-78z"/>
<glyph glyph-name="Phi" horiz-adv-x="706" unicode="Φ" d="M320 136v407q-92 -2 -150 -58t-58 -144q0 -90 57.5 -147t150.5 -58zM386 136q92 2 150 58t58 144q0 90 -57.5 147t-150.5 58v-407zM315 0v74q-124 2 -202.5 76.5t-78.5 187.5t78 189t203 78v61h76v-61q124 -2 202.5 -77t78.5 -187q0 -114 -78 -189.5t-203 -77.5v-74h-76z "/>
<glyph glyph-name="Chi" horiz-adv-x="565" unicode="Χ" d="M25 0l211 345l-200 321h89l161 -258l152 258h82l-195 -321l215 -345h-89l-176 282l-168 -282h-82z"/>
<glyph glyph-name="Psi" horiz-adv-x="718" unicode="Ψ" d="M322 0v213q-254 25 -254 269v184h78v-174q0 -108 47 -157.5t133 -55.5v387h70v-387q84 7 132.5 56t48.5 143v188h73v-180q0 -249 -250 -273v-213h-78z"/>
<glyph glyph-name="alpha" horiz-adv-x="554" unicode="α" d="M243 51q106 0 134 189q-10 81 -45.5 135t-93.5 54q-64 0 -94 -52t-30 -136q0 -83 32.5 -136.5t96.5 -53.5zM233 -12q-53 0 -93 23t-61.5 61t-32 80t-10.5 87t10.5 87.5t32 80.5t61.5 61.5t93 23.5q69 0 113 -37.5t59 -89.5h1q2 29 14 66t21 49h77q-25 -31 -46 -113 l-32 -121l36 -133q19 -74 50 -113h-77q-9 13 -24 50.5t-19 64.5h-1q-16 -52 -60.5 -89.5t-111.5 -37.5z"/>
<glyph glyph-name="beta" horiz-adv-x="532" unicode="β" d="M266 52q71 0 106.5 44.5t35.5 116.5q0 74 -53 116t-140 42v55q59 1 109 44.5t50 103.5q0 40 -25.5 66.5t-69.5 26.5q-56 0 -90 -43.5t-34 -129.5v-400q44 -40 111 -42zM82 -217v713q0 115 55.5 175.5t143.5 60.5q78 0 124 -46.5t46 -105.5q0 -58 -36.5 -107.5 t-83.5 -61.5v-1q62 -9 108.5 -64.5t46.5 -123.5q0 -107 -58.5 -169t-161.5 -62q-71 0 -111 38v-246h-73z"/>
<glyph glyph-name="gamma" horiz-adv-x="459" unicode="γ" d="M191 -217v225l-175 472h80l132 -384h2q101 198 129 384h74q-26 -180 -172 -468v-229h-70z"/>
<glyph glyph-name="delta" horiz-adv-x="529" unicode="δ" d="M289 406q-5 4 -15.5 12t-15.5 12q-59 -27 -100.5 -83t-41.5 -129q0 -76 39.5 -121.5t107.5 -45.5q69 0 109.5 42.5t40.5 117.5q0 61 -31 103.5t-93 91.5zM262 -12q-108 0 -166 67t-58 161q0 86 53.5 156t119.5 99q-66 64 -66 130q0 58 42 94.5t104 36.5q79 0 124 -35 l-35 -56q-41 28 -89 28q-32 0 -50 -18t-18 -48q0 -19 8 -36.5t28.5 -38.5t35.5 -34t48 -39q32 -26 52 -44.5t45.5 -49.5t38 -68t12.5 -80q0 -92 -60 -158.5t-169 -66.5z"/>
<glyph glyph-name="epsilon" horiz-adv-x="426" unicode="ε" d="M234 -12q-89 0 -142.5 36.5t-53.5 107.5q0 44 33 78t79 42v1q-92 24 -92 107q0 63 54 97.5t130 34.5q93 0 153 -44l-30 -55q-50 36 -126 36q-49 0 -76 -19.5t-27 -55.5q0 -37 34.5 -57t86.5 -20h36v-57h-35q-59 0 -100.5 -22.5t-41.5 -61.5q0 -85 121 -85q77 0 135 38 l34 -56q-72 -45 -172 -45z"/>
<glyph glyph-name="zeta" horiz-adv-x="358" unicode="ζ" d="M289 -159l-43 37q38 22 38 61q0 35 -47 54l-45 19q-151 63 -151 187q0 61 31.5 125.5t95.5 159.5l119 177h-220v59h309v-49l-160 -231q-101 -145 -101 -227q0 -51 26 -81.5t85 -55.5l45 -19q81 -34 81 -99q0 -36 -18 -68t-45 -49z"/>
<glyph glyph-name="eta" horiz-adv-x="530" unicode="η" d="M379 -217v545q0 98 -85 98q-75 0 -139 -88v-338h-73v382q0 48 -12 98h73q9 -30 9 -69q64 81 159 81q72 0 106.5 -41.5t34.5 -108.5v-559h-73z"/>
<glyph glyph-name="theta" horiz-adv-x="531" unicode="θ" d="M263 669q-46 0 -77 -40.5t-43.5 -99t-15.5 -134.5h276q-3 75 -16.5 134t-45.5 99.5t-78 40.5zM268 51q48 0 79 42.5t43 103t14 140.5h-277q2 -58 10 -106.5t24 -90t43.5 -65.5t63.5 -24zM267 -12q-62 0 -106 34t-66.5 92t-32 118t-9.5 127q0 68 9 128t31 118t65.5 92.5 t105.5 34.5t106 -34t66.5 -92t32 -118t9.5 -127q0 -68 -9 -128t-31 -118t-65.5 -92.5t-105.5 -34.5z"/>
<glyph glyph-name="iota" horiz-adv-x="277" unicode="ι" d="M184 -12q-54 0 -77 30t-23 87v375h73v-368q0 -32 7.5 -46.5t28.5 -14.5q19 0 35 14l25 -54q-27 -23 -69 -23z"/>
<glyph glyph-name="kappa" horiz-adv-x="510" unicode="κ" d="M84 0v480h72v-223q0 -73 -12 -130h1q49 139 252 353h91q-112 -109 -184 -195l188 -285h-85l-145 231q-95 -127 -116 -231h-62z"/>
<glyph glyph-name="lambda" horiz-adv-x="489" unicode="λ" d="M26 0l187 493l-30 82q-17 48 -30.5 67t-34.5 19q-23 0 -43 -13l-20 53q32 23 78 23q36 0 62 -25t50 -92l224 -607h-77l-124 358q-14 41 -18 63h-1q-7 -33 -18 -63l-128 -358h-77z"/>
<glyph glyph-name="mu" horiz-adv-x="547" unicode="μ" d="M78 -217v697h73v-336q0 -41 15 -65.5t58 -24.5q79 0 151 87v339h73v-384q0 -56 7 -96h-73q-5 26 -7 69q-75 -81 -158 -81q-41 0 -67 17h-2q3 -34 3 -111v-111h-73z"/>
<glyph glyph-name="nu" horiz-adv-x="459" unicode="ν" d="M195 0l-178 480h79l132 -384h2q101 198 129 384h74q-25 -176 -181 -480h-57z"/>
<glyph glyph-name="xi" horiz-adv-x="404" unicode="ξ" d="M310 -159l-43 37q38 22 38 61t-47 54l-55 18q-74 24 -115.5 65.5t-41.5 115.5q0 69 38.5 123t99.5 68v2q-45 13 -72 47.5t-27 83.5q0 51 26.5 94t63.5 54v1q-31 -4 -67 -4h-84v59h352v-59h-75q-69 0 -106 -41t-37 -104q0 -51 37.5 -82t99.5 -31h43v-57h-47 q-84 0 -127 -43t-43 -108q0 -47 30 -73.5t95 -48.5l46 -15q81 -26 81 -100q0 -36 -18 -68t-45 -49z"/>
<glyph glyph-name="omicron" d="M263 51q72 0 109.5 53t37.5 135q0 81 -40 135.5t-112 54.5q-71 0 -105.5 -52.5t-34.5 -135.5t37 -136.5t108 -53.5zM262 -12q-58 0 -102.5 23t-69.5 61t-37.5 80.5t-12.5 86.5q0 45 12 87.5t36.5 80.5t68.5 61.5t102 23.5t103.5 -23t72 -60.5t40 -80.5t13.5 -87t-13 -87 t-39 -81t-71 -61.5t-103 -23.5z" unicode="ο"/>
<glyph glyph-name="pi" horiz-adv-x="611" unicode="π" d="M478 -12q-54 0 -77 30t-23 87v317h-174q0 -220 -30 -422h-75q34 219 34 422h-99v58h533v-58h-116v-310q0 -32 7.5 -46.5t28.5 -14.5q19 0 35 14l25 -54q-27 -23 -69 -23z"/>
<glyph glyph-name="rho" horiz-adv-x="511" unicode="ρ" d="M244 51q68 0 108.5 54.5t40.5 141.5q0 84 -33 133t-99 49q-126 0 -126 -180v-161q45 -37 109 -37zM62 -217v472q0 237 200 237q96 0 152.5 -63t56.5 -180t-64.5 -189t-164.5 -72q-65 0 -107 34v-239h-73z"/>
<glyph glyph-name="sigma1" horiz-adv-x="432" unicode="ς" d="M308 -159l-43 37q38 22 38 61q0 35 -47 54l-59 23q-80 31 -118.5 85t-38.5 143q0 118 63.5 183t157.5 65q86 0 147 -48l-35 -55q-53 40 -113 40q-71 0 -106.5 -50t-35.5 -133q0 -64 28.5 -103.5t86.5 -62.5l57 -23q81 -33 81 -99q0 -36 -18 -68t-45 -49z"/>
<glyph glyph-name="sigma" horiz-adv-x="544" unicode="σ" d="M263 51q71 0 109 52t38 130q0 77 -40 130.5t-112 53.5q-71 0 -105.5 -51.5t-34.5 -130.5q0 -78 37 -131t108 -53zM262 -12q-58 0 -102.5 23t-69.5 60t-37.5 78.5t-12.5 83.5q0 43 12.5 84t38 79t71.5 61t107 23h247v-58h-115v-1q37 -23 62 -75t25 -111q0 -42 -13 -83.5 t-38.5 -79t-71 -61t-103.5 -23.5z"/>
<glyph glyph-name="tau" horiz-adv-x="404" unicode="τ" d="M246 -12q-54 0 -77 30t-23 87v317h-134v58h376v-58h-169v-310q0 -32 7.5 -46.5t28.5 -14.5q19 0 35 14l25 -54q-27 -23 -69 -23z"/>
<glyph glyph-name="upsilon" horiz-adv-x="520" unicode="υ" d="M263 -12q-88 0 -138.5 56.5t-50.5 163.5v272h73v-260q0 -169 116 -169q59 0 91.5 55t32.5 194q0 90 -30 180h76q29 -81 29 -180q0 -312 -199 -312z"/>
<glyph glyph-name="phi" horiz-adv-x="630" unicode="φ" d="M279 47v386q-75 -4 -119 -55.5t-44 -136.5q0 -86 44 -138.5t119 -55.5zM344 47q76 3 123.5 55t47.5 137q0 84 -48 137t-123 57v-386zM279 -219v207q-114 3 -177.5 78t-63.5 173t64 174t177 79v228h65v-228q113 -3 180.5 -79t67.5 -172q0 -97 -67.5 -173.5t-180.5 -79.5 v-207h-65z"/>
<glyph glyph-name="chi" horiz-adv-x="429" unicode="χ" d="M2 -217l174 363l-160 334h78l121 -268h1l124 268h73l-161 -334l175 -363h-79l-136 296h-1l-135 -296h-74z"/>
<glyph glyph-name="psi" horiz-adv-x="649" unicode="ψ" d="M292 -219v207q-94 2 -156 59t-62 161v272h73v-260q0 -83 42 -125t103 -44v589h67v-589q30 1 55.5 12.5t49.5 37.5t38 77t14 122q0 90 -30 180h76q29 -81 29 -180q0 -85 -19.5 -148t-54 -97t-73.5 -50t-85 -17v-207h-67z"/>
<glyph glyph-name="afii10023" horiz-adv-x="503" unicode="Ё" d="M366 718q-22 0 -37.5 16t-15.5 38t15.5 37.5t37.5 15.5t38 -15.5t16 -37.5t-16 -38t-38 -16zM179 718q-22 0 -37.5 16t-15.5 38t15.5 37.5t37.5 15.5t38 -15.5t16 -37.5t-15.5 -38t-38.5 -16zM96 0v666h342v-66h-264v-214h232v-66h-232v-254h271v-66h-349z"/>
<glyph glyph-name="afii10051" horiz-adv-x="703" unicode="Ђ" d="M184 0v600h-164v66h461v-66h-219v-226q28 39 78.5 71.5t113.5 32.5q99 0 148 -74.5t49 -204.5q0 -166 -76 -277.5t-192 -111.5q-37 0 -63 11l16 65q19 -7 52 -7q77 0 129.5 92.5t52.5 223.5q0 216 -132 216q-57 0 -103.5 -34.5t-72.5 -73.5v-303h-78z"/>
<glyph glyph-name="afii10052" horiz-adv-x="465" unicode="Ѓ" d="M214 720l92 126h109l-135 -126h-66zM96 0v666h349v-66h-271v-600h-78z"/>
<glyph glyph-name="afii10053" horiz-adv-x="615" unicode="Є" d="M378 -12q-150 0 -237.5 100.5t-87.5 246.5q0 144 88.5 243.5t237.5 99.5q108 0 187 -50l-39 -59q-64 44 -150 44q-107 0 -172 -73t-69 -176h333v-66h-332q6 -102 70.5 -173t172.5 -71q96 0 163 57l36 -56q-30 -27 -83.5 -47t-117.5 -20z"/>
<glyph glyph-name="afii10054" horiz-adv-x="499" unicode="Ѕ" d="M233 -12q-118 0 -189 68l40 56q63 -59 152 -59q60 0 98 33.5t38 79.5q0 28 -9.5 49.5t-38 42t-40 27.5t-56.5 29q-6 3 -9 5q-50 25 -78.5 44t-52.5 57t-24 88q0 78 56.5 124t137.5 46q106 0 175 -53l-38 -58q-59 46 -138 46q-50 0 -83 -28t-33 -73t30 -72.5t90 -55.5 q29 -14 39 -19t36.5 -19.5t37 -24t29.5 -27.5t26.5 -35t14.5 -41t7 -51q0 -79 -60.5 -129t-157.5 -50z"/>
<glyph glyph-name="afii10055" horiz-adv-x="276" unicode="І" d="M96 0v666h78v-666h-78z"/>
<glyph glyph-name="afii10056" horiz-adv-x="282" unicode="Ї" d="M234 718q-22 0 -37.5 16t-15.5 38t15.5 37.5t37.5 15.5t38 -15.5t16 -37.5t-16 -38t-38 -16zM47 718q-22 0 -37.5 16t-15.5 38t15.5 37.5t37.5 15.5t38 -15.5t16 -37.5t-15.5 -38t-38.5 -16zM102 0v666h78v-666h-78z"/>
<glyph glyph-name="afii10057" horiz-adv-x="283" unicode="Ј" d="M36 -190q-37 0 -57 10l12 67q16 -7 39 -7q79 0 79 118v668h78v-680q0 -85 -38.5 -130.5t-112.5 -45.5z"/>
<glyph glyph-name="afii10058" horiz-adv-x="953" unicode="Љ" d="M564 66h100q165 0 165 136q0 129 -162 129h-103v-265zM40 -10l-12 65q58 2 88.5 68t41.5 197l29 346h377v-269h111q105 0 169.5 -49.5t64.5 -142.5q0 -98 -64 -151.5t-181 -53.5h-178v600h-225l-25 -292q-13 -159 -59 -238.5t-137 -79.5z"/>
<glyph glyph-name="afii10059" horiz-adv-x="942" unicode="Њ" d="M553 66h100q165 0 165 136q0 129 -162 129h-103v-265zM96 0v666h78v-269h301v269h78v-269h111q105 0 169.5 -49.5t64.5 -142.5q0 -98 -64 -151.5t-181 -53.5h-178v331h-301v-331h-78z"/>
<glyph glyph-name="afii10060" horiz-adv-x="719" unicode="Ћ" d="M184 0v600h-164v66h461v-66h-219v-226q28 37 81 70.5t117 33.5q88 0 139.5 -52t51.5 -144v-282h-78v268q0 71 -35.5 107t-93.5 36t-107.5 -35.5t-74.5 -72.5v-303h-78z"/>
<glyph glyph-name="afii10061" horiz-adv-x="574" unicode="Ќ" d="M257 720l92 126h109l-135 -126h-66zM96 0v666h77v-295h60l221 295h88l-248 -319q36 -27 115 -141q11 -15 32 -46t29 -41.5t22 -27t25.5 -21.5t24.5 -5h10l-2 -65h-29q-42 0 -73 32t-100 133q-11 16 -31.5 46t-29 41.5t-22.5 27.5t-25.5 21.5t-24.5 5.5h-42v-307h-77z"/>
<glyph glyph-name="afii10062" horiz-adv-x="542" unicode="Ў" d="M283 716q-57 0 -97.5 36t-46.5 106h65q3 -38 23.5 -61t55.5 -23q34 0 54.5 23t23.5 61h65q-6 -70 -46.5 -106t-96.5 -36zM102 -2q-24 0 -39 5l10 61q12 -3 30 -3q42 0 70 25.5t53 83.5l18 41l-200 455h75l163 -369l162 369h76l-233 -531q-32 -74 -76 -105.5t-109 -31.5z "/>
<glyph glyph-name="afii10145" horiz-adv-x="687" unicode="Џ" d="M317 -144l-7 144h-214v666h78v-600h339v600h78v-666h-212l-7 -144h-55z"/>
<glyph glyph-name="afii10017" horiz-adv-x="627" unicode="А" d="M21 0l255 666h76l256 -666h-85l-61 165h-303l-61 -165h-77zM184 231h253l-84 228q-4 10 -41 115h-2q-16 -47 -41 -115z"/>
<glyph glyph-name="afii10018" horiz-adv-x="575" unicode="Б" d="M174 66h100q165 0 165 136q0 129 -162 129h-103v-265zM96 0v666h367v-66h-289v-203h111q105 0 169.5 -49.5t64.5 -142.5q0 -98 -64 -151.5t-181 -53.5h-178z"/>
<glyph glyph-name="afii10019" horiz-adv-x="572" unicode="В" d="M173 380h91q76 0 111 28t35 87q0 106 -144 106h-93v-221zM173 65h94q89 0 130 28.5t41 91.5q0 131 -165 131h-100v-251zM96 0v666h176q100 0 159 -40t59 -126q0 -57 -31.5 -94.5t-87.5 -52.5v-2q65 -11 106.5 -54.5t41.5 -109.5q0 -187 -250 -187h-173z"/>
<glyph glyph-name="afii10020" horiz-adv-x="465" unicode="Г" d="M96 0v666h349v-66h-271v-600h-78z"/>
<glyph glyph-name="afii10021" horiz-adv-x="690" unicode="Д" d="M169 66h327v534h-225l-25 -292q-16 -177 -77 -242zM36 -144l-10 210h52q42 33 61 87.5t29 166.5l29 346h377v-600h69l-22 -210h-55l-7 144h-453l-15 -144h-55z"/>
<glyph glyph-name="afii10022" horiz-adv-x="503" unicode="Е" d="M96 0v666h342v-66h-264v-214h232v-66h-232v-254h271v-66h-349z"/>
<glyph glyph-name="afii10024" horiz-adv-x="879" unicode="Ж" d="M22 0l2 65h8q13 0 24.5 5t25.5 21.5t22 27t29 41.5t32 46q77 113 114 141l-247 319h88l221 -295h60v295h77v-295h60l221 295h88l-248 -319q36 -27 115 -141q11 -15 32 -46t29 -41.5t22 -27t25.5 -21.5t24.5 -5h10l-2 -65h-29q-42 0 -73 32t-100 133q-11 16 -31.5 46 t-29 41.5t-22.5 27.5t-25.5 21.5t-24.5 5.5h-42v-307h-77v307h-46q-12 -1 -23.5 -7t-25 -21.5t-21.5 -27t-28 -41t-31 -45.5q-69 -101 -100 -133t-73 -32h-31z"/>
<glyph glyph-name="afii10025" horiz-adv-x="523" unicode="З" d="M226 -12q-115 0 -190 62l38 56q58 -53 154 -53q161 0 161 126q0 62 -45 99.5t-128 37.5h-65v64h56q71 0 112.5 31.5t41.5 89.5q0 51 -34.5 80.5t-99.5 29.5q-90 0 -145 -43l-29 54q69 56 176 56q94 0 153 -44.5t59 -127.5q0 -59 -29.5 -99t-83.5 -54v-2 q63 -11 102.5 -56.5t39.5 -113.5q0 -95 -66.5 -144t-177.5 -49z"/>
<glyph glyph-name="afii10026" horiz-adv-x="715" unicode="И" d="M96 0v666h72v-467q0 -38 -4 -90h2q37 62 62 98l314 459h77v-666h-72v496q0 21 4 73h-2q-34 -59 -52 -86l-329 -483h-72z"/>
<glyph glyph-name="afii10027" horiz-adv-x="715" unicode="Й" d="M361 716q-57 0 -97.5 36t-46.5 106h65q3 -38 23.5 -61t55.5 -23q34 0 54.5 23t23.5 61h65q-6 -70 -46.5 -106t-96.5 -36zM96 0v666h72v-467q0 -38 -4 -90h2q37 62 62 98l314 459h77v-666h-72v496q0 21 4 73h-2q-34 -59 -52 -86l-329 -483h-72z"/>
<glyph glyph-name="afii10028" horiz-adv-x="574" unicode="К" d="M96 0v666h77v-295h60l221 295h88l-248 -319q36 -27 115 -141q11 -15 32 -46t29 -41.5t22 -27t25.5 -21.5t24.5 -5h10l-2 -65h-29q-42 0 -73 32t-100 133q-11 16 -31.5 46t-29 41.5t-22.5 27.5t-25.5 21.5t-24.5 5.5h-42v-307h-77z"/>
<glyph glyph-name="afii10029" horiz-adv-x="660" unicode="Л" d="M40 -10l-12 65q58 2 88.5 68t41.5 197l29 346h377v-666h-78v600h-225l-25 -292q-13 -159 -59 -238.5t-137 -79.5z"/>
<glyph glyph-name="afii10030" horiz-adv-x="852" unicode="М" d="M54 0l91 666h73l165 -453q27 -76 42 -123h2q14 47 42 123l165 453h74l90 -666h-79l-57 436q-8 68 -11 93h-2q-16 -54 -30 -92l-158 -437h-75l-162 437q-7 19 -13 36t-11.5 33t-7.5 23h-2q-2 -20 -10 -95l-53 -434h-73z"/>
<glyph glyph-name="afii10031" horiz-adv-x="725" unicode="Н" d="M96 0v666h78v-282h377v282h78v-666h-78v318h-377v-318h-78z"/>
<glyph glyph-name="afii10032" horiz-adv-x="760" unicode="О" d="M379 53q115 0 180.5 80.5t65.5 198.5q0 119 -65 200t-179 81q-115 0 -180.5 -80.5t-65.5 -198.5q0 -119 65 -200t179 -81zM381 -12q-149 0 -238.5 100.5t-89.5 243.5q0 144 89 245t237 101q149 0 238.5 -100.5t89.5 -243.5q0 -144 -89 -245t-237 -101z"/>
<glyph glyph-name="afii10033" horiz-adv-x="695" unicode="П" d="M96 0v666h503v-666h-78v600h-347v-600h-78z"/>
<glyph glyph-name="afii10034" horiz-adv-x="542" unicode="Р" d="M174 335h78q165 0 165 136q0 129 -162 129h-81v-265zM96 0v666h167q105 0 169.5 -49.5t64.5 -142.5q0 -98 -64 -151.5t-181 -53.5h-78v-269h-78z"/>
<glyph glyph-name="afii10035" horiz-adv-x="615" unicode="С" d="M378 -12q-149 0 -237 102t-88 245q0 142 89 242.5t237 100.5q108 0 187 -50l-39 -59q-64 44 -150 44q-114 0 -178 -80.5t-64 -195.5q0 -118 63.5 -200.5t181.5 -82.5q96 0 163 57l36 -56q-30 -27 -83.5 -47t-117.5 -20z"/>
<glyph glyph-name="afii10036" horiz-adv-x="497" unicode="Т" d="M209 0v600h-189v66h457v-66h-189v-600h-79z"/>
<glyph glyph-name="afii10037" horiz-adv-x="542" unicode="У" d="M102 -2q-24 0 -39 5l10 61q12 -3 30 -3q42 0 70 25.5t53 83.5l18 41l-200 455h75l163 -369l162 369h76l-233 -531q-32 -74 -76 -105.5t-109 -31.5z"/>
<glyph glyph-name="afii10038" horiz-adv-x="706" unicode="Ф" d="M320 136v407q-92 -2 -150 -58t-58 -144q0 -90 57.5 -147t150.5 -58zM386 136q92 2 150 58t58 144q0 90 -57.5 147t-150.5 58v-407zM315 0v74q-124 2 -202.5 76.5t-78.5 187.5t78 189t203 78v61h76v-61q124 -2 202.5 -77t78.5 -187q0 -114 -78 -189.5t-203 -77.5v-74h-76z "/>
<glyph glyph-name="afii10039" horiz-adv-x="565" unicode="Х" d="M25 0l211 345l-200 321h89l161 -258l152 258h82l-195 -321l215 -345h-89l-176 282l-168 -282h-82z"/>
<glyph glyph-name="afii10040" horiz-adv-x="707" unicode="Ц" d="M583 -144l-7 144h-480v666h78v-600h339v600h78v-600h69l-22 -210h-55z"/>
<glyph glyph-name="afii10041" horiz-adv-x="631" unicode="Ч" d="M457 0v292q-28 -37 -81 -70.5t-117 -33.5q-88 0 -139.5 52t-51.5 144v282h78v-268q0 -71 35.5 -107t93.5 -36t107.5 35.5t74.5 72.5v303h78v-666h-78z"/>
<glyph glyph-name="afii10042" horiz-adv-x="1004" unicode="Ш" d="M96 0v666h78v-600h281v600h78v-600h281v600h78v-666h-796z"/>
<glyph glyph-name="afii10043" horiz-adv-x="1008" unicode="Щ" d="M884 -144l-7 144h-781v666h78v-600h281v600h78v-600h281v600h78v-600h69l-22 -210h-55z"/>
<glyph glyph-name="afii10044" horiz-adv-x="651" unicode="Ъ" d="M262 66h100q165 0 165 136q0 129 -162 129h-103v-265zM184 0v600h-164v66h242v-269h111q105 0 169.5 -49.5t64.5 -142.5q0 -98 -64 -151.5t-181 -53.5h-178z"/>
<glyph glyph-name="afii10045" horiz-adv-x="823" unicode="Ы" d="M174 66h100q165 0 165 136q0 129 -162 129h-103v-265zM96 0v666h78v-269h111q105 0 169.5 -49.5t64.5 -142.5q0 -98 -64 -151.5t-181 -53.5h-178zM649 0v666h78v-666h-78z"/>
<glyph glyph-name="afii10046" horiz-adv-x="563" unicode="Ь" d="M174 66h100q165 0 165 136q0 129 -162 129h-103v-265zM96 0v666h78v-269h111q105 0 169.5 -49.5t64.5 -142.5q0 -98 -64 -151.5t-181 -53.5h-178z"/>
<glyph glyph-name="afii10047" horiz-adv-x="615" unicode="Э" d="M236 -12q-118 0 -200 59l39 59q66 -53 163 -53q106 0 171.5 71.5t68.5 173.5h-321v66h321q-3 103 -68 175.5t-175 72.5q-86 0 -150 -47l-36 56q77 57 188 57q151 0 238 -98.5t87 -245.5q0 -144 -89 -245t-237 -101z"/>
<glyph glyph-name="afii10048" horiz-adv-x="1059" unicode="Ю" d="M678 53q115 0 180.5 80.5t65.5 198.5q0 119 -65 200t-179 81q-115 0 -180.5 -80.5t-65.5 -198.5q0 -119 65 -200t179 -81zM680 -12q-145 0 -234 96t-94 234h-178v-318h-78v666h78v-282h181q17 126 103 210t220 84q149 0 238.5 -100.5t89.5 -243.5q0 -144 -89 -245 t-237 -101z"/>
<glyph glyph-name="afii10049" horiz-adv-x="585" unicode="Я" d="M311 371h100v229h-94q-150 0 -150 -111q0 -118 144 -118zM46 0l-2 65h10q13 0 24.5 5t25.5 21.5t22 27t29 41.5t32 46q61 89 87 107v2q-84 5 -135.5 48.5t-51.5 123.5q0 84 58.5 131.5t162.5 47.5h181v-666h-78v307h-30q-13 0 -24.5 -5.5t-25.5 -21.5t-22.5 -27.5 t-29 -41.5t-31.5 -46q-69 -101 -100 -133t-73 -32h-29z"/>
<glyph glyph-name="afii10065" horiz-adv-x="472" unicode="а" d="M193 51q76 0 128 69v108h-21q-178 0 -178 -109q0 -34 22.5 -51t48.5 -17zM181 -12q-61 0 -99 35.5t-38 93.5q0 45 23 79t62 51.5t81.5 26t89.5 8.5h21v45q0 53 -23 76.5t-73 23.5q-66 0 -125 -52l-39 51q71 66 169 66q164 0 164 -159v-224q0 -67 11 -109h-73q-4 19 -7 58 q-56 -70 -144 -70z"/>
<glyph glyph-name="afii10066" horiz-adv-x="526" unicode="б" d="M275 51q60 0 96.5 50t36.5 138q0 83 -34.5 133t-94.5 50q-55 0 -89.5 -25.5t-62.5 -72.5v-17q0 -125 40.5 -190.5t107.5 -65.5zM272 -12q-220 0 -220 359q0 67 11.5 120.5t38 99t73 77t112.5 47.5l156 38l13 -71l-154 -33q-174 -38 -178 -226q55 86 156 86q92 0 149 -66 t57 -178q0 -110 -63.5 -181.5t-150.5 -71.5z"/>
<glyph glyph-name="afii10067" horiz-adv-x="488" unicode="в" d="M157 277h87q53 0 77.5 19t24.5 58q0 67 -100 67h-89v-144zM157 60h91q63 0 90.5 17t27.5 59q0 85 -113 85h-96v-161zM84 0v480h168q77 0 123 -29t46 -91q0 -84 -89 -107v-1q48 -8 79 -38.5t31 -79.5q0 -134 -192 -134h-166z"/>
<glyph glyph-name="afii10068" horiz-adv-x="395" unicode="г" d="M84 0v480h291v-58h-218v-422h-73z"/>
<glyph glyph-name="afii10069" horiz-adv-x="551" unicode="д" d="M134 58h238v364h-169l-15 -200q-9 -114 -54 -164zM30 -144l-10 202h38q49 30 61 174l20 248h306v-422h66l-21 -202h-53l-7 144h-332l-15 -144h-53z"/>
<glyph glyph-name="afii10070" horiz-adv-x="490" unicode="е" d="M122 300h248q-2 56 -30 92.5t-86 36.5q-55 0 -88.5 -35t-43.5 -94zM267 -12q-109 0 -168 71.5t-59 183.5q0 107 60.5 178t155.5 71q88 0 138.5 -58.5t50.5 -157.5q0 -10 -2 -34h-325q2 -84 38.5 -137.5t112.5 -53.5q64 0 133 43l30 -57q-74 -49 -165 -49z"/>
<glyph glyph-name="afii10072" horiz-adv-x="714" unicode="ж" d="M24 0l2 61h5q19 0 39.5 21.5t55.5 72.5q54 78 88 102l-192 223h86l172 -203h40v203h74v-203h40l172 203h86l-192 -223q34 -24 88 -102q35 -51 55.5 -72.5t39.5 -21.5h7l-2 -61h-20q-38 0 -65.5 25.5t-77.5 96.5q-35 50 -58 74t-43 25h-30v-221h-74v221h-30 q-20 -1 -43 -25t-58 -74q-50 -71 -77.5 -96.5t-65.5 -25.5h-22z"/>
<glyph glyph-name="afii10073" horiz-adv-x="427" unicode="з" d="M31 32l34 52q47 -36 122 -36q118 0 118 88q0 39 -42 63t-100 24h-23v51h24q51 0 86 21.5t35 58.5q0 36 -26 57t-74 21q-64 0 -113 -35l-30 51q60 44 146 44q75 0 123.5 -34.5t48.5 -97.5q0 -84 -89 -107v-1q48 -8 79 -38.5t31 -79.5q0 -71 -54 -108.5t-143 -37.5 q-90 0 -153 44z"/>
<glyph glyph-name="afii10074" horiz-adv-x="578" unicode="и" d="M84 0v480h68v-311l-2 -73h1q21 42 48 79l223 305h72v-480h-70v333l3 60h-1q-20 -40 -42 -70l-236 -323h-64z"/>
<glyph glyph-name="afii10075" horiz-adv-x="578" unicode="й" d="M285 536q-57 0 -97.5 36t-46.5 106h65q3 -38 23.5 -61t55.5 -23q34 0 54.5 23t23.5 61h65q-6 -70 -46.5 -106t-96.5 -36zM84 0v480h68v-311l-2 -73h1q21 42 48 79l223 305h72v-480h-70v333l3 60h-1q-20 -40 -42 -70l-236 -323h-64z"/>
<glyph glyph-name="afii10076" horiz-adv-x="478" unicode="к" d="M84 0v480h74v-203h40l172 203h86l-192 -223q34 -24 88 -102q35 -51 55.5 -72.5t39.5 -21.5h7l-2 -61h-20q-38 0 -65.5 25.5t-77.5 96.5q-35 50 -58 74t-43 25h-29l-1 -221h-74z"/>
<glyph glyph-name="afii10077" horiz-adv-x="535" unicode="л" d="M37 -8l-13 57q77 3 92 183l20 248h315v-480h-73v422h-177l-16 -200q-19 -230 -148 -230z"/>
<glyph glyph-name="afii10078" horiz-adv-x="666" unicode="м" d="M45 0l68 480h72l117 -320l30 -88h2q14 47 30 88l118 320h72l67 -480h-76l-39 293l-7 68h-2q-10 -34 -23 -67l-107 -294h-73l-111 294l-22 67h-2q-2 -36 -6 -69l-39 -292h-69z"/>
<glyph glyph-name="afii10079" horiz-adv-x="569" unicode="н" d="M84 0v480h74v-199h253v199h74v-480h-74v222h-253v-222h-74z"/>
<glyph glyph-name="afii10080" d="M263 51q72 0 109.5 53t37.5 135q0 81 -40 135.5t-112 54.5q-71 0 -105.5 -52.5t-34.5 -135.5t37 -136.5t108 -53.5zM262 -12q-58 0 -102.5 23t-69.5 61t-37.5 80.5t-12.5 86.5q0 45 12 87.5t36.5 80.5t68.5 61.5t102 23.5t103.5 -23t72 -60.5t40 -80.5t13.5 -87t-13 -87 t-39 -81t-71 -61.5t-103 -23.5z" unicode="о"/>
<glyph glyph-name="afii10081" horiz-adv-x="551" unicode="п" d="M84 0v480h383v-480h-74v422h-235v-422h-74z"/>
<glyph glyph-name="afii10082" horiz-adv-x="531" unicode="р" d="M272 51q67 0 104 52t37 136t-33 135.5t-99 51.5q-44 0 -76 -22t-48 -45v-264q48 -44 115 -44zM84 -219v699h73v-52q53 64 139 64q89 0 142 -66.5t53 -184.5q0 -113 -59.5 -183t-152.5 -70q-75 0 -122 42v-249h-73z"/>
<glyph glyph-name="afii10083" horiz-adv-x="440" unicode="с" d="M258 -12q-102 0 -160 73.5t-58 178.5q0 118 63.5 185t157.5 67q86 0 147 -48l-35 -55q-53 40 -113 40q-71 0 -106.5 -51.5t-35.5 -135.5q0 -82 36.5 -136.5t107.5 -54.5q66 0 117 40l30 -55q-57 -48 -151 -48z"/>
<glyph glyph-name="afii10084" horiz-adv-x="416" unicode="т" d="M171 0v422h-151v58h376v-58h-151v-422h-74z"/>
<glyph glyph-name="afii10085" horiz-adv-x="464" unicode="у" d="M52 -232q-24 0 -46 5l10 61q21 -3 37 -3q48 0 74 26t47 83l23 63l-181 477h82l137 -383h2l133 383h78l-204 -544q-30 -81 -71 -124.5t-121 -43.5z"/>
<glyph glyph-name="afii10086" horiz-adv-x="735" unicode="ф" d="M617 239q0 82 -29.5 137t-86.5 55q-58 0 -100 -42v-296q42 -42 100 -42t87 53t29 135zM118 243q0 -82 29.5 -137t86.5 -55q58 0 100 42v296q-42 42 -100 42t-87 -53t-29 -135zM403 -219h-71v245q-40 -38 -105 -38q-85 0 -136 70t-51 181t51.5 183t135.5 72q65 0 105 -40 v266h71v-266q40 40 105 40q85 0 136 -70t51 -181t-51.5 -183t-135.5 -72q-67 0 -105 38v-245z"/>
<glyph glyph-name="afii10087" horiz-adv-x="462" unicode="х" d="M22 0l166 251l-156 229h83l116 -172l109 172h77l-150 -224l174 -256h-83l-135 199l-125 -199h-76z"/>
<glyph glyph-name="afii10088" horiz-adv-x="575" unicode="ц" d="M461 -144l-7 144h-370v480h74v-422h237v422h74v-422h66l-21 -202h-53z"/>
<glyph glyph-name="afii10089" horiz-adv-x="524" unicode="ч" d="M367 0v223q-62 -85 -158 -85q-73 0 -109 42.5t-36 109.5v190h73v-176q0 -100 89 -100q33 0 67.5 21.5t48.5 37.5t25 31v186h73v-480h-73z"/>
<glyph glyph-name="afii10090" horiz-adv-x="796" unicode="ш" d="M84 0v480h74v-422h203v422h74v-422h203v422h74v-480h-628z"/>
<glyph glyph-name="afii10091" horiz-adv-x="818" unicode="щ" d="M704 -144l-7 144h-613v480h74v-422h203v422h74v-422h203v422h74v-422h66l-21 -202h-53z"/>
<glyph glyph-name="afii10092" horiz-adv-x="530" unicode="ъ" d="M221 59h92q60 0 88 22t28 69q0 88 -114 88h-94v-179zM147 0v422h-127v58h201v-184h100q83 0 133 -36t50 -107q0 -75 -50 -114t-141 -39h-166z"/>
<glyph glyph-name="afii10093" horiz-adv-x="703" unicode="ы" d="M158 59h92q60 0 88 22t28 69q0 88 -114 88h-94v-179zM84 0v480h74v-184h100q83 0 133 -36t50 -107q0 -75 -50 -114t-141 -39h-166zM545 0v480h74v-480h-74z"/>
<glyph glyph-name="afii10094" horiz-adv-x="467" unicode="ь" d="M158 59h92q60 0 88 22t28 69q0 88 -114 88h-94v-179zM84 0v480h74v-184h100q83 0 133 -36t50 -107q0 -75 -50 -114t-141 -39h-166z"/>
<glyph glyph-name="afii10095" horiz-adv-x="477" unicode="э" d="M185 -7q-93 0 -154 44l37 56q44 -38 119 -38t120 44t49 113h-272v58h271q-4 69 -49 113.5t-121 44.5q-64 0 -112 -34l-32 54q58 42 146 42q117 0 183.5 -71t66.5 -177q0 -107 -67.5 -178t-184.5 -71z"/>
<glyph glyph-name="afii10096" horiz-adv-x="785" unicode="ю" d="M520 51q72 0 109.5 53t37.5 135q0 81 -40 135.5t-112 54.5q-71 0 -105.5 -52.5t-34.5 -135.5t37 -136.5t108 -53.5zM519 -12q-106 0 -161.5 70t-60.5 164h-139v-222h-74v480h74v-199h142q7 56 29.5 101t70.5 77.5t116 32.5q58 0 103.5 -23t72 -60.5t40 -80.5t13.5 -87 t-13 -87t-39 -81t-71 -61.5t-103 -23.5z"/>
<glyph glyph-name="afii10097" horiz-adv-x="490" unicode="я" d="M243 269h90v152h-85q-54 0 -79 -18t-25 -57q0 -77 99 -77zM30 0v61h6q20 0 41.5 19.5t53.5 66.5q43 63 71 73v1q-56 2 -95.5 34t-39.5 92q0 64 45.5 98.5t128.5 34.5h165v-480h-73v213h-35q-20 0 -44 -24t-59 -75q-47 -67 -75.5 -90.5t-67.5 -23.5h-22z"/>
<glyph glyph-name="afii10071" horiz-adv-x="490" unicode="ё" d="M347 538q-22 0 -37.5 16t-15.5 38t15.5 37.5t37.5 15.5t38 -15.5t16 -37.5t-15.5 -38t-38.5 -16zM160 538q-22 0 -37.5 16t-15.5 38t15.5 37.5t37.5 15.5t38 -15.5t16 -37.5t-16 -38t-38 -16zM122 300h248q-2 56 -30 92.5t-86 36.5q-55 0 -88.5 -35t-43.5 -94zM267 -12 q-109 0 -168 71.5t-59 183.5q0 107 60.5 178t155.5 71q88 0 138.5 -58.5t50.5 -157.5q0 -10 -2 -34h-325q2 -84 38.5 -137.5t112.5 -53.5q64 0 133 43l30 -57q-74 -49 -165 -49z"/>
<glyph glyph-name="afii10099" horiz-adv-x="524" unicode="ђ" d="M296 -130l-27 52q54 31 88 114t34 204q0 83 -30.5 134.5t-97.5 51.5q-29 0 -59 -14t-47 -33v-379h-73v576h-43v58h43v86h73v-86h163v-58h-163v-134q48 50 119 50q88 0 139 -66t51 -184q0 -139 -49 -240t-121 -132z"/>
<glyph glyph-name="afii10100" horiz-adv-x="395" unicode="ѓ" d="M198 540l92 126h109l-135 -126h-66zM84 0v480h291v-58h-218v-422h-73z"/>
<glyph glyph-name="afii10101" horiz-adv-x="475" unicode="є" d="M290 -8q-117 0 -183.5 71t-66.5 177q0 107 67.5 178t184.5 71q83 0 144 -37l-37 -56q-44 31 -109 31q-75 0 -120 -44t-49 -113h263v-58h-263q5 -70 50 -114t121 -44q69 0 120 40l32 -54q-57 -48 -154 -48z"/>
<glyph glyph-name="afii10102" horiz-adv-x="408" unicode="ѕ" d="M193 -13q-86 0 -152 46l32 56q54 -39 119 -39q45 0 71.5 18t26.5 51q0 31 -23.5 49.5t-82.5 43.5q-66 28 -99 60t-33 88q0 57 41 94.5t111 37.5q85 0 142 -46l-36 -53q-47 36 -107 36q-38 0 -59 -17.5t-21 -48.5t22 -48.5t70 -37.5q36 -15 57.5 -26.5t45.5 -29t35 -40.5 t11 -52q0 -65 -46 -103.5t-125 -38.5z"/>
<glyph glyph-name="afii10103" horiz-adv-x="250" unicode="і" d="M88 0v480h74v-480h-74zM125 570q-23 0 -38.5 16t-15.5 38t15.5 38t38.5 16t38.5 -16t15.5 -38t-15.5 -38t-38.5 -16z"/>
<glyph glyph-name="afii10104" horiz-adv-x="250" unicode="ї" d="M218 538q-22 0 -37.5 16t-15.5 38t15.5 37.5t37.5 15.5t38 -15.5t16 -37.5t-16 -38t-38 -16zM31 538q-22 0 -37.5 16t-15.5 38t15.5 37.5t37.5 15.5t38 -15.5t16 -37.5t-15.5 -38t-38.5 -16zM88 0v480h74v-480h-74z"/>
<glyph glyph-name="afii10105" horiz-adv-x="239" unicode="ј" d="M119 570q-23 0 -38.5 16t-15.5 38t15.5 38t38.5 16t38.5 -16t15.5 -38t-15.5 -38t-38.5 -16zM20 -230q-38 0 -52 7l12 61q12 -5 34 -5q38 0 54 29t16 87v531h73v-544q0 -166 -137 -166z"/>
<glyph glyph-name="afii10106" horiz-adv-x="761" unicode="љ" d="M452 59h92q60 0 88 22t28 69q0 88 -114 88h-94v-179zM37 -8l-13 57q77 3 92 183l20 248h316v-184h100q83 0 133 -36t50 -107q0 -75 -50 -114t-141 -39h-166v422h-180l-16 -200q-9 -114 -44 -172t-101 -58z"/>
<glyph glyph-name="afii10107" horiz-adv-x="808" unicode="њ" d="M499 59h92q60 0 88 22t28 69q0 88 -114 88h-94v-179zM84 0v480h74v-184h267v184h74v-184h100q83 0 133 -36t50 -107q0 -75 -50 -114t-141 -39h-166v238h-267v-238h-74z"/>
<glyph glyph-name="afii10108" horiz-adv-x="527" unicode="ћ" d="M79 0v576h-43v58h43v86h73v-86h163v-58h-163v-165q63 81 156 81q72 0 106.5 -41.5t34.5 -108.5v-342h-73v328q0 98 -85 98q-76 0 -139 -88v-338h-73z"/>
<glyph glyph-name="afii10109" horiz-adv-x="478" unicode="ќ" d="M185 540l92 126h109l-135 -126h-66zM84 0v480h74v-203h40l172 203h86l-192 -223q34 -24 88 -102q35 -51 55.5 -72.5t39.5 -21.5h7l-2 -61h-20q-38 0 -65.5 25.5t-77.5 96.5q-35 50 -58 74t-43 25h-29l-1 -221h-74z"/>
<glyph glyph-name="afii10110" horiz-adv-x="464" unicode="ў" d="M237 536q-57 0 -97.5 36t-46.5 106h65q3 -38 23.5 -61t55.5 -23q34 0 54.5 23t23.5 61h65q-6 -70 -46.5 -106t-96.5 -36zM52 -232q-24 0 -46 5l10 61q21 -3 37 -3q48 0 74 26t47 83l23 63l-181 477h82l137 -383h2l133 383h78l-204 -544q-30 -81 -71 -124.5t-121 -43.5z "/>
<glyph glyph-name="afii10193" horiz-adv-x="559" unicode="џ" d="M253 -144l-7 144h-162v480h74v-422h243v422h74v-480h-162l-7 -144h-53z"/>
<glyph glyph-name="afii10050" horiz-adv-x="465" unicode="Ґ" d="M96 0v666h275l14 144h55l5 -210h-271v-600h-78z"/>
<glyph glyph-name="afii10098" horiz-adv-x="395" unicode="ґ" d="M84 0v480h218l11 144h53l10 -202h-219v-422h-73z"/>
<glyph glyph-name="endash" horiz-adv-x="525" unicode="–" d="M54 244v61h417v-61h-417z"/>
<glyph glyph-name="emdash" horiz-adv-x="832" unicode="—" d="M54 244v61h724v-61h-724z"/>
<glyph glyph-name="quoteleft" horiz-adv-x="203" unicode="‘" d="M108 437q-27 0 -46 19.5t-19 51.5q0 43 21 88t42 70h54q-37 -50 -37 -93q0 -19 19.5 -42t19.5 -45q0 -21 -15.5 -35t-38.5 -14z"/>
<glyph glyph-name="quotesinglbase" horiz-adv-x="203" unicode="‚" d="M43 -119q37 50 37 93q0 19 -19.5 42.5t-19.5 44.5t15.5 35t38.5 14q27 0 46 -19.5t19 -51.5q0 -43 -21 -88t-42 -70h-54z"/>
<glyph glyph-name="quotedblleft" horiz-adv-x="364" unicode="“" d="M269 437q-27 0 -46 19.5t-19 51.5q0 43 21 88t42 70h54q-37 -50 -37 -93q0 -19 19.5 -42t19.5 -45q0 -21 -15.5 -35t-38.5 -14zM98 437q-27 0 -46 19.5t-19 51.5q0 43 21 88t42 70h54q-37 -50 -37 -93q0 -19 19.5 -42t19.5 -45q0 -21 -15.5 -35t-38.5 -14z"/>
<glyph glyph-name="quotedblright" horiz-adv-x="364" unicode="”" d="M214 449q37 50 37 93q0 18 -19.5 42t-19.5 45t15.5 35t38.5 14q27 0 46 -19.5t19 -51.5q0 -43 -21 -88t-42 -70h-54zM43 449q37 50 37 93q0 18 -19.5 42t-19.5 45t15.5 35t38.5 14q27 0 46 -19.5t19 -51.5q0 -43 -21 -88t-42 -70h-54z"/>
<glyph glyph-name="dagger" horiz-adv-x="543" unicode="†" d="M247 -170l-19 446l16 142l-82 -8h-110v70h110l82 -8l-13 111v137h81v-137l-13 -111l82 8h110v-70h-110l-82 8l15 -142l-18 -446h-49z"/>
<glyph glyph-name="daggerdbl" horiz-adv-x="543" unicode="‡" d="M231 -168v137l13 111l-82 -8h-110v70h110l82 -8l-16 142l16 142l-82 -8h-110v70h110l82 -8l-13 111v137h81v-137l-13 -111l82 8h110v-70h-110l-82 8l15 -142l-15 -142l82 8h110v-70h-110l-82 8l13 -111v-137h-81z"/>
<glyph glyph-name="ellipsis" horiz-adv-x="621" unicode="…" d="M511 -9q-25 0 -42.5 17.5t-17.5 42.5t17.5 42t42.5 17t42.5 -17t17.5 -42t-17.5 -42.5t-42.5 -17.5zM310 -9q-25 0 -42 17.5t-17 42.5t17 42t42 17t42.5 -17t17.5 -42t-17.5 -42.5t-42.5 -17.5zM110 -9q-25 0 -42.5 17.5t-17.5 42.5t17.5 42t42.5 17t42.5 -17t17.5 -42 t-17.5 -42.5t-42.5 -17.5z"/>
<glyph glyph-name="perthousand" horiz-adv-x="1076" unicode="‰" d="M201 0l287 480h63l-287 -480h-63zM902 36q39 0 59 25t20 66q0 40 -20.5 66t-60.5 26t-60 -25t-20 -65t21 -66.5t61 -26.5zM900 -12q-69 0 -105 42t-36 97t37 97.5t106 42.5t104.5 -41.5t35.5 -96.5t-36.5 -98t-105.5 -43zM572 36q39 0 59 25t20 66q0 40 -20.5 66 t-60.5 26t-60 -25t-20 -65t21 -66.5t61 -26.5zM570 -12q-69 0 -105 42t-36 97t37 97.5t106 42.5t104.5 -41.5t35.5 -96.5t-36.5 -98t-105.5 -43zM177 261q39 0 59 25t20 66q0 40 -20.5 66t-60.5 26t-60 -25t-20 -65t21 -66.5t61 -26.5zM175 213q-69 0 -105 42t-36 97 t37 97.5t106 42.5t104.5 -41.5t35.5 -96.5t-36.5 -98t-105.5 -43z"/>
<glyph glyph-name="guilsinglleft" horiz-adv-x="298" unicode="‹" d="M178 56l-133 189l133 190h77l-132 -190l132 -189h-77z"/>
<glyph glyph-name="guilsinglright" horiz-adv-x="298" unicode="›" d="M43 56l132 189l-132 190h76l134 -190l-134 -189h-76z"/>
<glyph glyph-name="fraction" horiz-adv-x="98" unicode="⁄" d="M-190 0l417 666h61l-417 -666h-61z"/>
<glyph glyph-name="Euro" horiz-adv-x="583" unicode="€" d="M39 365v59h75q20 121 95 187.5t180 66.5q92 0 156 -40l-34 -61q-63 36 -124 36q-71 0 -122.5 -48.5t-68.5 -140.5h178v-59h-186v-28q0 -21 2 -53h184v-59h-174q22 -85 73 -128t118 -43q69 0 126 39l36 -56q-23 -15 -37.5 -22.5t-50 -17t-76.5 -9.5q-98 0 -172 61.5 t-99 175.5h-79v59h70q-2 16 -2 51q0 20 1 30h-69z"/>
<glyph glyph-name="trademark" horiz-adv-x="714" unicode="™" d="M126 375v246h-83v45h221v-45h-84v-246h-54zM300 375l31 291h60l67 -171l19 -56h2q6 24 19 57l67 170h61l32 -291h-53l-16 165l-4 63h-2q-6 -32 -21 -70l-64 -158h-46l-59 150l-24 78h-2q-1 -28 -4 -65l-14 -163h-49z"/>
<glyph glyph-name="partialdiff" horiz-adv-x="543" unicode="∂" d="M247 51q79 0 135 77t64 179q-26 20 -81.5 35t-102.5 15q-65 0 -104.5 -47t-39.5 -121q0 -60 37.5 -99t91.5 -39zM244 -12q-85 0 -144 57t-59 140q0 98 61.5 166t157.5 68q50 0 105 -15.5t81 -36.5q-15 274 -292 274l21 61h4q168 0 256.5 -97.5t88.5 -254.5 q0 -159 -81 -260.5t-199 -101.5z"/>
<glyph glyph-name="product" horiz-adv-x="849" unicode="∏" d="M176 -224v863h-109v61h698v-61h-109v-863h-75v863h-330v-863h-75z"/>
<glyph glyph-name="summation" horiz-adv-x="609" unicode="∑" d="M53 -147v56l278 431l-262 381v56h482v-66h-399l256 -368l-272 -424h430v-66h-513z"/>
<glyph glyph-name="minus" horiz-adv-x="550" unicode="−" d="M86 245v63h369v-63h-369z"/>
<glyph glyph-name="radical" horiz-adv-x="571" unicode="√" d="M237 0l-187 480h76l145 -389h2l198 629h75l-239 -720h-70z"/>
<glyph glyph-name="infinity" horiz-adv-x="878" unicode="∞" d="M666 168q43 0 74.5 27.5t31.5 64.5q0 41 -32 67t-79 26q-55 0 -173 -91q123 -94 178 -94zM213 168q55 0 174 91q-67 52 -107 73t-71 21q-43 0 -74.5 -27t-31.5 -64q0 -41 32 -67.5t78 -26.5zM207 109q-77 0 -124 43t-47 105q0 64 51 110t124 46q48 0 100 -26t129 -86 q143 112 227 112q75 0 123 -43t48 -105q0 -64 -50.5 -110t-125.5 -46q-85 0 -227 111q-85 -65 -132.5 -88t-95.5 -23z"/>
<glyph glyph-name="logicaland" horiz-adv-x="220" unicode="∧" d="M110 230q-26 0 -43.5 18t-17.5 43t17.5 42.5t43.5 17.5t43.5 -17.5t17.5 -42.5t-17.5 -43t-43.5 -18z"/>
<glyph glyph-name="approxequal" horiz-adv-x="599" unicode="≈" d="M99 291l-29 50q59 55 131 55q47 0 104 -29t94 -29q53 0 103 41l27 -52q-56 -54 -136 -54q-47 0 -105 29t-93 29q-50 0 -96 -40zM99 138l-29 50q60 55 131 55q47 0 104 -29t94 -29q53 0 103 41l27 -52q-56 -54 -136 -54q-47 0 -105 29t-93 29q-51 0 -96 -40z"/>
<glyph glyph-name="notequal" horiz-adv-x="621" unicode="≠" d="M190 -12l-50 27l76 126h-156v57h191l65 107h-256v57h291l80 131l51 -29l-65 -102h144v-57h-179l-65 -107h244v-57h-279z"/>
<glyph glyph-name="lessequal" horiz-adv-x="580" unicode="≤" d="M72 -114v64h433v-64h-433zM505 19l-433 205v51l433 205v-67l-356 -164l356 -164v-66z"/>
<glyph glyph-name="greaterequal" horiz-adv-x="580" unicode="≥" d="M72 -114v64h433v-64h-433zM72 19v66l356 164l-356 164v67l433 -205v-51z"/>
<glyph glyph-name="dotmath" horiz-adv-x="220" unicode="⋅" d="M110 230q-26 0 -43.5 18t-17.5 43t17.5 42.5t43.5 17.5t43.5 -17.5t17.5 -42.5t-17.5 -43t-43.5 -18z"/>
<glyph glyph-name="lozenge" horiz-adv-x="616" unicode="◊" d="M313 73l185 265l-194 251l-186 -264zM290 -5l-256 328l252 349h40l256 -330l-250 -347h-42z"/>
</font>
</defs>
</svg>
